<svg width="55" height="55" viewBox="0 0 55 55" fill="none" xmlns="http://www.w3.org/2000/svg">
<path d="M27.3926 43.0762C26.2059 43.0762 25.2441 42.1144 25.2441 40.9277C25.2441 39.7411 26.2059 38.7793 27.3926 38.7793C28.5793 38.7793 29.541 39.7411 29.541 40.9277C29.541 42.1144 28.5793 43.0762 27.3926 43.0762ZM29.541 33.4082V30.5233C33.6952 29.5184 36.5734 25.7494 36.4093 21.4873C36.231 16.8464 32.4234 13.0727 27.7409 12.8973C25.2391 12.8025 22.8767 13.6988 21.0908 15.4188C19.3355 17.1095 18.3691 19.3779 18.3691 21.8066C18.3691 22.9933 19.3309 23.9551 20.5176 23.9551C21.7043 23.9551 22.666 22.9933 22.666 21.8066C22.666 20.5562 23.1649 19.3867 24.0713 18.5139C25.0087 17.6113 26.2537 17.1418 27.5797 17.1909C30.0307 17.2832 32.023 19.2428 32.1158 21.6526C32.2018 23.8984 30.6517 25.8828 28.429 26.3704C26.5538 26.782 25.2441 28.4026 25.2441 30.3119V33.4082C25.2441 34.5949 26.2059 35.5566 27.3926 35.5566C28.5793 35.5566 29.541 34.5949 29.541 33.4082ZM41.7292 51.0367C42.7443 50.422 43.0686 49.101 42.4539 48.0864C41.8387 47.0713 40.5178 46.747 39.5031 47.3617C35.8944 49.5475 31.7436 50.7031 27.5 50.7031C14.7059 50.7031 4.29688 40.2941 4.29688 27.5C4.29688 14.7059 14.7059 4.29688 27.5 4.29688C40.2941 4.29688 50.7031 14.7059 50.7031 27.5C50.7031 32.0751 49.3427 36.5281 46.7688 40.3785C46.1092 41.3646 46.3744 42.6989 47.3605 43.3586C48.347 44.0182 49.6814 43.753 50.3406 42.7665C53.3891 38.2074 55 32.9282 55 27.5C55 20.1546 52.1395 13.2486 46.9455 8.05454C41.7514 2.86053 34.8454 0 27.5 0C20.1546 0 13.2486 2.86053 8.05454 8.05454C2.86053 13.2486 0 20.1546 0 27.5C0 34.8454 2.86053 41.7514 8.05454 46.9455C13.2486 52.1395 20.1546 55 27.5 55C32.5287 55 37.4491 53.6295 41.7292 51.0367Z" fill="url(#paint0_linear)"/>
<defs>
<linearGradient id="paint0_linear" x1="0" y1="28" x2="55" y2="28" gradientUnits="userSpaceOnUse">
<stop offset="0.0695128" stop-color="#7B4AE2"/>
<stop offset="1" stop-color="#090E16" stop-opacity="0.15"/>
</linearGradient>
</defs>
</svg>
