<svg width="300" height="220" viewBox="0 0 300 220" fill="none" xmlns="http://www.w3.org/2000/svg">
<path d="M277.04 89.688L157.9 26.0713C152.73 23.3096 146.516 23.3096 141.341 26.0713L21.9788 89.8141C20.1776 90.7807 19.0369 92.6419 19.0009 94.6832C18.9649 96.7245 20.0395 98.6277 21.8047 99.6544L66.8995 125.855C66.8995 125.855 67.0376 147.649 67.0376 148.472C67.0376 157.603 103.997 165.066 149.62 165.066C195.238 165.066 232.227 157.621 232.227 148.472C232.227 147.649 232.281 125.825 232.281 125.825L255.51 111.542V134.699C252.91 135.761 251.091 138.331 251.091 141.327C251.091 145.266 254.279 148.466 258.224 148.466C262.192 148.466 265.374 145.266 265.374 141.327C265.362 138.331 263.549 135.755 260.938 134.699V108.522L277.094 99.5883C278.907 98.5917 280.018 96.6885 280 94.6232C280 92.5518 278.853 90.6606 277.04 89.688ZM149.626 158.756C109.131 158.756 76.3315 154.127 76.3315 148.466C76.3315 142.792 109.137 138.181 149.626 138.181C190.11 138.181 222.927 142.774 222.927 148.466C222.921 154.133 190.098 158.756 149.626 158.756ZM229.958 110.936C224.536 105.124 204.952 89.8441 149.614 89.8441C94.253 89.8441 74.7165 105.124 69.283 110.954V105.43C69.283 105.43 85.1272 81.6369 149.614 81.6369C214.102 81.6369 229.958 105.43 229.958 105.43V110.936Z" fill="white"/>
<path d="M252.436 149.936L249.951 183.485C249.885 184.374 250.377 185.22 251.193 185.586C252.004 185.965 252.959 185.797 253.589 185.16C256.915 181.852 259.821 181.048 261.91 181.072C262.811 181.084 263.681 180.741 264.318 180.105C264.954 179.475 265.321 178.604 265.321 177.703V148.633C259.407 154.877 252.436 149.936 252.436 149.936Z" fill="white"/>
</svg>
