<?xml version="1.0" encoding="UTF-8"?>
<!DOCTYPE svg PUBLIC "-//W3C//DTD SVG 1.1//EN" "http://www.w3.org/Graphics/SVG/1.1/DTD/svg11.dtd">
<!-- Creator: CorelDRAW 2019 (64-Bit) -->
<svg xmlns="http://www.w3.org/2000/svg" xml:space="preserve" width="78.772mm" height="91.44mm" version="1.1" style="shape-rendering:geometricPrecision; text-rendering:geometricPrecision; image-rendering:optimizeQuality; fill-rule:evenodd; clip-rule:evenodd"
viewBox="0 0 7877.2 9144"
 xmlns:xlink="http://www.w3.org/1999/xlink">
 <defs>
  <style type="text/css">
   <![CDATA[
    .fil12 {fill:#111517}
    .fil7 {fill:#171A1C}
    .fil4 {fill:#2C1B18}
    .fil8 {fill:#3E291B}
    .fil5 {fill:#533824}
    .fil3 {fill:#A66F49}
    .fil6 {fill:#AF754C}
    .fil1 {fill:#BB7D52}
    .fil0 {fill:#C83267}
    .fil2 {fill:#D08B5B}
    .fil10 {fill:#7B4AE2;fill-rule:nonzero}
    .fil11 {fill:#C83267;fill-rule:nonzero}
    .fil13 {fill:white;fill-rule:nonzero}
    .fil9 {fill:#2C1B18;fill-opacity:0.301961}
    .fil14 {fill:#2C1B18;fill-opacity:0.501961}
   ]]>
  </style>
 </defs>
 <g id="Layer_x0020_1">
  <metadata id="CorelCorpID_0Corel-Layer"/>
  <rect class="fil0" x="0" y="633.39" width="7877.19" height="7877.19" rx="3938.6" ry="3938.6"/>
  <g id="_2667536657440">
   <g>
    <path class="fil1" d="M3056.7 5390.84c561.47,299.47 1191.08,266.2 1684.39,-0.02l0 656.05 5.57 -0.15 0 385.19 -1689.96 0 0 -1041.07z"/>
    <path class="fil2" d="M3056.69 5937.47c561.46,299.49 1191.09,266.21 1684.4,0l0 418.36 379.34 -9.46 4.71 0.18c0,1008.4 -2409.23,1159.35 -2409.23,-1.52l9.4 -0.42 331.38 1.69 0 -408.83z"/>
    <path class="fil2" d="M2070.37 1793.11c1339.89,-853.69 3054.06,-550.11 3633.21,12.83 167.44,403.18 179.27,792.07 130.01,1209.51 113.12,-81.22 247.63,-62.63 353.62,13.01 42.93,346.39 157.95,1031.61 -357.45,1061.34 -177.44,2210.4 -3428.63,2485.53 -3868.11,7.23 -510.82,-17.63 -373.08,-710.15 -341.16,-1042.71 122.55,-93.29 262.5,-46.34 349.37,-4.6l100.51 -1256.61z"/>
    <path class="fil3" d="M1871.35 2729.21c7.04,19.35 -15.83,38.7 -84.44,73.88 -142,70.97 -154.45,85.73 -154.81,196.9l0 5.37c0,149.5 22.87,188.18 121.38,202.27 100.28,14.07 163.62,36.92 181.22,65.07 7.02,12.31 14.07,68.6 14.07,126.64 0,124.88 38.69,300.78 86.2,392.23 133.7,260.32 482.01,392.24 904.22,342.99 207.59,-26.39 328.98,-66.84 460.92,-154.79 197.04,-131.91 288.51,-300.76 302.58,-566.35 10.56,-161.83 10.56,-161.83 63.34,-179.42 68.61,-24.61 239.26,-24.61 309.63,0 54.52,19.35 54.52,19.35 54.52,144.24 0,144.22 36.95,316.6 86.2,413.35 133.7,260.3 482.03,392.22 902.48,342.97 209.35,-26.38 330.73,-66.84 462.68,-154.77 197.02,-131.91 288.51,-306.05 306.1,-578.68 12.31,-179.41 3.53,-170.61 197.03,-195.24 98.51,-12.31 121.39,-51.01 121.39,-202.27 0,-119.61 -19.36,-142.46 -182.96,-212.82l-98.53 -42.22 -153.05 -47.47 -112.58 -24.63c-61.57,-12.31 -140.74,-22.88 -174.17,-24.64 -35.18,0 -123.13,-31.66 -211.09,-75.62 -146.03,-72.12 -153.06,-73.88 -325.46,-73.88 -197.03,0 -336.01,40.46 -448.61,128.41 -33.42,26.37 -103.79,59.79 -153.05,72.1 -51.02,12.33 -146.01,45.74 -211.1,73.88 -170.64,72.12 -258.6,68.6 -476.74,-19.35 -94.99,-38.68 -184.72,-70.36 -197.03,-70.36 -12.33,0 -52.78,-24.61 -89.72,-54.51 -116.11,-91.47 -246.3,-130.17 -446.85,-130.17 -170.64,0 -181.19,3.52 -332.48,75.64 -102.04,49.25 -181.21,73.86 -228.71,73.86 -38.71,1.76 -123.15,12.33 -186.48,26.4l-306.1 50.99zm1407.37 226.9c211.09,68.6 276.18,161.81 277.94,397.5 1.76,124.89 -5.26,165.35 -38.69,233.93 -116.1,237.45 -446.84,371.14 -839.15,341.23 -300.82,-24.62 -455.63,-109.04 -538.31,-295.49 -52.78,-121.36 -59.81,-411.58 -10.57,-501.29 45.75,-84.43 133.72,-142.46 277.96,-181.16 112.6,-29.9 174.17,-33.42 455.64,-29.9 242.77,5.27 348.33,14.07 415.18,35.18zm2181.41 0c211.12,68.6 276.2,161.81 277.97,397.5 1.76,124.89 -5.29,165.35 -38.71,233.93 -116.11,237.45 -446.85,371.14 -839.15,341.23 -300.82,-24.62 -455.64,-109.04 -538.32,-295.49 -52.78,-121.36 -59.8,-411.58 -10.55,-501.29 45.74,-84.43 133.7,-142.46 277.95,-181.16 112.6,-29.9 174.16,-33.42 455.63,-29.9 242.78,5.27 348.33,14.07 415.18,35.18z"/>
    <path class="fil4" d="M3447.6 73.85l-110.83 72.12 -56.3 -54.53c-87.96,-86.18 -130.18,-70.35 -197.03,72.12 -40.46,87.94 -91.47,98.5 -179.43,40.45 -35.19,-24.62 -79.17,-45.73 -96.76,-45.73 -38.7,0 -75.65,59.8 -91.48,138.95 -12.31,65.08 -54.53,124.88 -89.72,124.88 -12.31,0 -58.06,-15.83 -102.03,-35.18 -66.86,-29.9 -87.97,-31.66 -124.91,-15.83 -42.22,19.35 -45.74,29.9 -45.74,145.99 0,84.43 -12.31,149.51 -35.18,198.76 -33.43,73.87 -35.19,75.63 -117.87,75.63 -137.22,0 -202.31,68.59 -135.46,144.23 35.19,36.93 12.31,75.63 -56.29,91.46 -126.67,31.66 -163.61,112.57 -95,198.75 47.5,61.56 45.74,70.36 -29.91,105.54 -79.16,38.69 -91.47,82.67 -40.46,137.19 38.7,42.22 38.7,43.97 17.59,276.15 -21.1,225.14 -14.07,853.06 10.56,918.14 7.04,19.35 -15.83,38.7 -84.44,73.88 -144.26,72.11 -154.81,86.18 -154.81,202.27 0,149.5 22.87,188.2 121.39,202.27 100.27,14.07 163.6,36.93 181.2,65.08 7.03,12.31 14.07,68.59 14.07,126.64 0,124.88 38.7,300.77 86.2,392.23 133.7,260.32 482.02,392.23 904.24,342.99 207.59,-26.39 328.97,-66.84 460.91,-154.78 197.03,-131.92 288.51,-300.78 302.59,-566.37 10.55,-161.82 10.55,-161.82 63.33,-179.4 68.61,-24.63 239.25,-24.63 309.62,0 54.54,19.35 54.54,19.35 54.54,144.23 0,144.23 36.94,316.6 86.2,413.34 133.7,260.32 482.02,392.23 902.47,342.99 209.35,-26.39 330.73,-66.84 462.68,-154.78 197.03,-131.92 288.51,-306.05 306.1,-578.68 12.31,-179.41 3.52,-170.61 197.03,-195.24 98.52,-12.31 121.39,-51.01 121.39,-202.27 0,-119.6 -19.36,-142.47 -182.96,-212.82l-98.52 -42.22 0 -175.89c-1.76,-300.77 -43.98,-513.59 -117.87,-582.19 -24.63,-22.86 -79.16,-58.04 -123.14,-79.15 -68.61,-33.42 -82.68,-35.18 -103.79,-12.31 -21.11,21.11 -15.84,40.46 36.94,145.99 65.09,130.16 123.14,350.02 142.49,539.98l12.32 116.09 -112.59 -24.63c-61.58,-12.31 -140.74,-22.86 -174.17,-24.62 -35.18,0 -123.14,-31.66 -211.1,-75.63 -146.02,-72.12 -153.05,-73.88 -325.45,-73.88 -197.04,0 -336.02,40.46 -448.6,128.4 -33.43,26.39 -103.8,59.8 -153.05,72.12 -51.02,12.31 -146.02,45.73 -211.11,73.87 -170.64,72.12 -258.6,68.6 -476.75,-19.35 -94.99,-38.69 -184.71,-70.35 -197.03,-70.35 -12.31,0 -52.77,-24.63 -89.72,-54.53 -116.1,-91.46 -246.29,-130.16 -446.84,-130.16 -170.64,0 -181.2,3.52 -332.49,75.63 -102.04,49.25 -181.2,73.88 -228.7,73.88 -38.7,1.76 -123.14,12.31 -186.47,26.38 -179.44,38.7 -165.37,61.56 -151.3,-233.93 10.56,-253.28 43.98,-467.86 82.69,-541.74 43.98,-82.67 392.3,-260.32 737.11,-376.4 427.49,-142.47 907.75,-197 1449.59,-160.06 464.43,29.9 587.58,68.59 1101.27,344.74 179.44,96.74 346.56,174.13 385.26,179.41 63.34,8.79 68.61,5.27 87.96,-47.5 42.23,-121.36 8.8,-427.41 -61.57,-566.36 -52.77,-102.01 -56.29,-140.71 -26.39,-246.24 21.11,-73.88 21.11,-89.71 -5.27,-128.4 -24.63,-36.94 -42.23,-43.97 -112.59,-43.97 -45.74,1.76 -116.11,8.79 -156.57,15.83 -72.13,14.07 -73.89,14.07 -65.09,-31.66 35.18,-172.37 -7.04,-211.07 -177.69,-167.1 -54.53,14.07 -105.55,22.87 -109.07,17.59 -5.27,-5.27 0,-58.04 12.32,-116.08 21.1,-94.98 19.35,-110.81 -5.28,-137.2 -26.39,-24.62 -42.22,-24.62 -144.26,-5.27 -163.6,33.42 -225.18,17.59 -284.99,-73.88 -61.57,-89.7 -117.87,-121.36 -175.92,-98.5 -31.67,12.31 -65.09,7.04 -128.42,-21.1 -66.86,-28.14 -105.56,-35.18 -165.37,-26.39 -61.57,10.56 -95,3.52 -153.05,-26.38 -59.81,-29.9 -93.24,-35.18 -165.37,-26.39 -77.4,8.8 -105.55,1.76 -195.27,-42.21 -56.29,-28.14 -123.14,-51.01 -147.77,-52.77 -24.63,0 -93.24,33.42 -154.81,73.88l-0.01 -0.02zm-168.89 2815.99c211.11,68.6 276.2,161.82 277.96,397.51 1.76,124.88 -5.28,165.34 -38.7,233.93 -116.11,237.45 -446.84,371.13 -839.15,341.23 -300.82,-24.62 -455.63,-109.05 -538.31,-295.5 -52.78,-121.36 -59.82,-411.58 -10.56,-501.28 45.74,-84.43 133.7,-142.47 277.95,-181.17 112.6,-29.9 174.17,-33.42 455.64,-29.9 242.77,5.28 348.32,14.07 415.17,35.18zm2181.42 0c211.11,68.6 276.2,161.82 277.96,397.51 1.76,124.88 -5.28,165.34 -38.7,233.93 -116.11,237.45 -446.84,371.13 -839.15,341.23 -300.82,-24.62 -455.63,-109.05 -538.31,-295.5 -52.78,-121.36 -59.82,-411.58 -10.56,-501.28 45.74,-84.43 133.7,-142.47 277.95,-181.17 112.6,-29.9 174.17,-33.42 455.64,-29.9 242.77,5.28 348.32,14.07 415.17,35.18z"/>
    <path class="fil5" d="M2712.25 3102.67c-93.24,43.97 -200.56,154.78 -200.56,207.55 0,40.45 28.15,40.45 82.69,-3.52 142.49,-112.57 445.08,-112.57 599.89,-1.76 29.9,19.35 61.57,36.93 72.13,36.93 36.94,0 19.35,-63.32 -36.94,-130.16 -73.89,-91.46 -205.83,-151.26 -330.74,-151.26 -65.09,0 -126.66,14.07 -186.47,42.21l0 0.01z"/>
    <path class="fil5" d="M4752.93 3102.67c-93.23,43.97 -200.55,154.78 -200.55,207.55 0,40.45 28.15,40.45 82.69,-3.52 142.49,-112.57 445.08,-112.57 599.89,-1.76 29.9,19.35 61.57,36.93 72.13,36.93 36.94,0 19.35,-63.32 -36.95,-130.16 -73.88,-91.46 -205.82,-151.26 -330.73,-151.26 -65.09,0 -126.66,14.07 -186.47,42.21l-0.01 0.01z"/>
    <path class="fil6" d="M3509.17 3943.42c19.36,75.63 75.65,135.44 174.16,182.93 79.17,38.69 119.63,47.49 235.74,47.49 116.1,0 156.57,-8.8 235.73,-47.49 98.52,-47.49 154.81,-107.29 174.16,-182.93l8.8 -38.69 -418.69 0 -418.7 0 8.8 38.69z"/>
    <path class="fil7" d="M1871.35 2662.94c7.04,19.35 -15.83,38.7 -84.44,73.88 -142,70.97 -154.45,85.74 -154.81,196.9l0 5.38c0,149.5 22.87,188.18 121.38,202.27 100.28,14.06 163.62,36.92 181.22,65.07 7.02,12.31 14.07,68.6 14.07,126.63 0,124.89 38.69,300.79 86.2,392.24 133.7,260.32 482.01,392.23 904.22,342.99 207.59,-26.4 328.98,-66.84 460.92,-154.79 197.04,-131.91 288.51,-300.76 302.58,-566.35 10.56,-161.83 10.56,-161.83 63.34,-179.42 68.61,-24.61 239.26,-24.61 309.63,0 54.52,19.35 54.52,19.35 54.52,144.24 0,144.22 36.95,316.6 86.2,413.35 133.7,260.3 482.03,392.21 902.48,342.97 209.35,-26.38 330.73,-66.84 462.68,-154.77 197.02,-131.91 288.51,-306.05 306.1,-578.68 12.31,-179.42 3.53,-170.61 197.03,-195.24 98.51,-12.31 121.39,-51.01 121.39,-202.28 0,-119.6 -19.36,-142.45 -182.96,-212.81l-98.53 -42.23 -153.05 -47.46 -112.58 -24.64c-61.57,-12.3 -140.74,-22.87 -174.17,-24.63 -35.18,0 -123.13,-31.66 -211.09,-75.62 -146.03,-72.12 -153.06,-73.88 -325.46,-73.88 -197.03,0 -336.01,40.46 -448.61,128.41 -33.42,26.37 -103.79,59.79 -153.05,72.1 -51.02,12.32 -146.01,45.74 -211.1,73.88 -170.64,72.12 -258.6,68.6 -476.74,-19.35 -94.99,-38.68 -184.72,-70.36 -197.03,-70.36 -12.33,0 -52.78,-24.61 -89.72,-54.51 -116.11,-91.47 -246.3,-130.17 -446.85,-130.17 -170.64,0 -181.19,3.52 -332.48,75.64 -102.04,49.25 -181.21,73.86 -228.71,73.86 -38.71,1.76 -123.15,12.33 -186.48,26.39l-306.1 50.99zm1407.37 226.91c211.09,68.6 276.18,161.81 277.94,397.5 1.76,124.89 -5.26,165.35 -38.69,233.93 -116.1,237.45 -446.84,371.14 -839.15,341.22 -300.82,-24.61 -455.63,-109.04 -538.31,-295.48 -52.78,-121.37 -59.81,-411.59 -10.57,-501.29 45.75,-84.43 133.72,-142.46 277.96,-181.16 112.6,-29.9 174.17,-33.42 455.64,-29.9 242.77,5.26 348.33,14.07 415.18,35.18zm2181.41 0c211.12,68.6 276.2,161.81 277.97,397.5 1.76,124.89 -5.29,165.35 -38.71,233.93 -116.11,237.45 -446.85,371.14 -839.15,341.22 -300.82,-24.61 -455.64,-109.04 -538.32,-295.48 -52.78,-121.37 -59.8,-411.59 -10.55,-501.29 45.74,-84.43 133.7,-142.46 277.95,-181.16 112.6,-29.9 174.16,-33.42 455.63,-29.9 242.78,5.26 348.33,14.07 415.18,35.18z"/>
    <path class="fil8" d="M3428.25 4650.49c22.87,145.99 133.7,295.5 270.92,365.85 100.27,52.77 284.99,63.32 390.55,22.87 158.33,-61.56 295.55,-226.9 320.18,-388.72l-981.65 0z"/>
    <path class="fil9" d="M3413.21 4283.85c-26.79,9.74 -92.55,41.39 -146.14,71.84 -53.58,29.21 -114.47,60.88 -135.17,69.4 -42.62,17.04 -168.06,21.91 -208.24,8.52 -23.14,-7.32 -28.02,-4.88 -28.02,18.25 0,37.75 79.17,108.37 165.63,149.78 112.04,53.57 258.17,42.61 440.85,-34.09 70.51,-20.79 172.5,-76.45 254.51,-104.72 180.68,-63.87 272.97,-27.21 435.98,42.62l142.48 62.1c182.68,76.7 328.81,87.66 440.86,34.09 87.67,-41.41 169.26,-115.67 163.18,-147.34 -2.44,-12.17 -13.4,-19.47 -23.14,-17.04 -9.75,2.44 -54.81,3.65 -101.08,3.65 -73.07,-1.22 -94.99,-7.3 -182.67,-52.35 -237.47,-124.19 -203.37,-114.45 -378.74,-114.45 -140.04,0 -168.06,4.86 -245.99,32.87l-88.91 31.65 -87.68 -31.65c-107.16,-37.75 -334.9,-49.92 -417.71,-23.13l0 0z"/>
   </g>
   <g>
    <path class="fil10" d="M4539.75 8043.46l112.97 -91.83c26.18,-21.28 64.66,-17.32 85.94,8.86 21.29,26.17 17.32,64.64 -8.86,85.92l-54.67 44.44 396.93 334.39c26.18,21.28 30.15,59.75 8.86,85.92 -12.07,14.85 -29.68,22.55 -47.43,22.55 -13.54,0 -27.18,-4.48 -38.5,-13.69l-455.24 -381.78c-14.26,-11.6 -22.55,-29 -22.55,-47.39 0,-18.38 8.29,-35.79 22.55,-47.39z"/>
    <path class="fil10" d="M5041.4 7482.34c32.43,0.26 58.52,26.76 58.26,59.19l-5.05 933.92c-0.26,32.43 -26.77,58.51 -59.2,58.25 -8.22,-0.06 -16.02,-1.81 -23.1,-4.91 -20.85,-9.14 -35.36,-30.06 -35.17,-54.28l5.06 -933.91c0.26,-32.44 26.76,-58.52 59.2,-58.26z"/>
    <path class="fil11" d="M5299.21 8124.77l41.72 -33.92 -148.6 -120.81c-26.18,-21.28 -30.14,-59.74 -8.86,-85.92 21.28,-26.17 59.76,-30.14 85.94,-8.86l206.89 168.2c14.27,11.6 22.55,29.01 22.55,47.39 0,18.39 -8.28,35.79 -22.55,47.39l-100.01 81.31c-11.33,9.2 -24.96,13.69 -38.5,13.69 -17.76,0 -35.37,-7.71 -47.44,-22.55 -21.28,-26.17 -17.31,-64.64 8.86,-85.92z"/>
   </g>
  </g>
  <path class="fil12" d="M2705.19 6345.66c-518.95,50.54 -990.41,243.94 -1382.72,566.28 -337.58,276.2 -431.76,495.72 -678.91,808.35 503.57,522.36 1180.73,964.95 1919.16,1209.4 492.57,162.04 828.58,214.31 1356.34,214.31 527.78,0 863.78,-52.27 1356.37,-214.31 744.96,-238.2 1372.48,-628.55 1938.15,-1188.83 -387.43,-499.99 -546.9,-827.69 -1171.15,-1135.59 -262.13,-130.67 -569.99,-224.76 -805.72,-249.16l-111.02 -10 -5.28 -0.12 -12.12 83.31c-52.77,397.27 -550.61,690 -1171.63,690 -620.99,0 -1110.05,-289.25 -1173.4,-691.74 -12.3,-80.15 -17.59,-87.13 -58.04,-81.9l-0.03 0z"/>
  <g id="_2667536655616">
   <path class="fil13" d="M4539.75 8043.37l112.97 -91.85c26.18,-21.28 64.66,-17.31 85.94,8.86 21.29,26.18 17.32,64.66 -8.86,85.94l-54.67 44.45 396.93 334.45c26.18,21.28 30.15,59.76 8.86,85.93 -12.07,14.86 -29.68,22.56 -47.43,22.56 -13.54,0 -27.18,-4.48 -38.5,-13.69l-455.24 -381.85c-14.26,-11.6 -22.55,-29.01 -22.55,-47.4 0,-18.39 8.29,-35.79 22.55,-47.4z"/>
   <path class="fil13" d="M5041.4 7482.15c32.43,0.26 58.52,26.76 58.26,59.2l-5.05 934.09c-0.26,32.44 -26.77,58.52 -59.2,58.26 -8.22,-0.06 -16.02,-1.81 -23.1,-4.91 -20.85,-9.15 -35.36,-30.06 -35.17,-54.29l5.06 -934.08c0.26,-32.44 26.76,-58.53 59.2,-58.27z"/>
   <path class="fil11" d="M5299.21 8124.69l41.72 -33.92 -148.6 -120.83c-26.18,-21.28 -30.14,-59.76 -8.86,-85.93 21.28,-26.19 59.76,-30.15 85.94,-8.87l206.89 168.23c14.27,11.61 22.55,29.01 22.55,47.4 0,18.39 -8.28,35.8 -22.55,47.4l-100.01 81.32c-11.33,9.21 -24.96,13.69 -38.5,13.69 -17.76,0 -35.37,-7.7 -47.44,-22.55 -21.28,-26.18 -17.31,-64.65 8.86,-85.94z"/>
  </g>
  <path class="fil14" d="M3027.11 5637.67l-7.33 -2.3c-20.07,-6.31 78.47,-51.3 113.38,-68.01 102.64,-49.07 236.5,-39.04 403.84,31.23 64.59,19.04 158.02,70.02 233.15,95.92 165.5,58.52 250.05,24.93 399.37,-39.03l130.52 -56.89c167.34,-70.27 301.2,-80.3 403.84,-31.23 34.41,16.26 68.4,37.36 94.28,59.91l7.79 6.78c-299.53,228.44 -1259.65,342.01 -1778.84,3.62z"/>
 </g>
</svg>
