<svg width="300" height="300" viewBox="0 0 300 300" fill="none" xmlns="http://www.w3.org/2000/svg">
<path fill-rule="evenodd" clip-rule="evenodd" d="M121.171 176.867C139.593 186.692 160.249 185.6 176.434 176.866V198.39L176.616 198.385V211.023H121.171V176.867V176.867Z" fill="#BB7D52"/>
<path fill-rule="evenodd" clip-rule="evenodd" d="M121.171 194.799C139.592 204.625 160.249 203.533 176.434 194.799V208.525L188.879 208.215L189.034 208.221C189.034 241.305 109.99 246.258 109.99 208.171L110.299 208.157L121.171 208.213V194.799V194.799Z" fill="#D08B5B"/>
<path fill-rule="evenodd" clip-rule="evenodd" d="M88.8112 58.8294C132.771 30.8212 189.01 40.7814 208.011 59.2503C213.505 72.4781 213.893 85.2371 212.277 98.9329C215.988 96.2678 220.401 96.8778 223.878 99.3594C225.287 110.724 229.061 133.205 212.151 134.181C206.33 206.7 99.6631 215.727 85.2443 134.417C68.4852 133.839 73.0042 111.119 74.0512 100.208C78.0721 97.1471 82.664 98.6877 85.5139 100.057L88.8112 58.8294V58.8294Z" fill="#D08B5B"/>
<path fill-rule="evenodd" clip-rule="evenodd" d="M82.2819 89.5415C82.5127 90.1764 81.7622 90.8113 79.5115 91.9654C74.8525 94.2937 74.4441 94.7786 74.432 98.4255V98.6019C74.432 103.507 75.183 104.776 78.415 105.238C81.7046 105.7 83.7829 106.449 84.3602 107.373C84.5906 107.777 84.8219 109.623 84.8219 111.528C84.8219 115.625 86.0912 121.396 87.6498 124.396C92.0364 132.937 103.464 137.265 117.316 135.649C124.127 134.783 128.109 133.456 132.438 130.571C138.903 126.243 141.904 120.703 142.365 111.99C142.712 106.68 142.712 106.68 144.444 106.103C146.695 105.296 152.293 105.296 154.602 106.103C156.391 106.738 156.391 106.738 156.391 110.836C156.391 115.567 157.603 121.223 159.219 124.397C163.605 132.937 175.033 137.265 188.828 135.649C195.696 134.784 199.678 133.456 204.008 130.571C210.472 126.244 213.473 120.531 214.05 111.586C214.454 105.7 214.166 105.989 220.514 105.18C223.746 104.776 224.497 103.507 224.497 98.5439C224.497 94.6198 223.862 93.8701 218.495 91.5618L215.262 90.1764L210.241 88.6189L206.547 87.8108C204.527 87.4072 201.929 87.0607 200.833 87.0027C199.678 87.0027 196.793 85.9642 193.907 84.5216C189.116 82.1557 188.886 82.0977 183.229 82.0977C176.765 82.0977 172.205 83.4254 168.511 86.3106C167.414 87.176 165.106 88.2725 163.49 88.6762C161.816 89.0806 158.7 90.1772 156.564 91.1001C150.965 93.4664 148.079 93.3508 140.923 90.4652C137.806 89.1962 134.862 88.1569 134.459 88.1569C134.054 88.1569 132.727 87.3496 131.515 86.3686C127.706 83.3674 123.434 82.0977 116.854 82.0977C111.256 82.0977 110.91 82.2133 105.946 84.5796C102.599 86.195 100.001 87.0027 98.4425 87.0027C97.1727 87.0607 94.4024 87.4072 92.3245 87.8688L82.2819 89.5415V89.5415ZM128.455 96.9861C135.381 99.2364 137.517 102.295 137.574 110.027C137.632 114.125 137.402 115.452 136.305 117.702C132.496 125.493 121.645 129.879 108.774 128.897C98.9042 128.09 93.8251 125.32 91.1123 119.203C89.3809 115.221 89.1505 105.7 90.7659 102.756C92.2669 99.9865 95.1529 98.0822 99.8851 96.8129C103.58 95.8319 105.599 95.7163 114.834 95.8319C122.799 96.0044 126.262 96.2932 128.455 96.9861ZM200.024 96.9861C206.951 99.2364 209.086 102.295 209.144 110.027C209.202 114.125 208.97 115.452 207.874 117.702C204.065 125.493 193.213 129.879 180.343 128.897C170.473 128.09 165.394 125.32 162.681 119.203C160.95 115.221 160.719 105.7 162.335 102.756C163.836 99.9865 166.722 98.0822 171.454 96.8129C175.149 95.8319 177.168 95.7163 186.403 95.8319C194.368 96.0044 197.831 96.2932 200.024 96.9861Z" fill="#A66F49"/>
<path fill-rule="evenodd" clip-rule="evenodd" d="M133.996 2.42353L130.36 4.78946L128.513 3.00041C125.627 0.172824 124.242 0.692095 122.049 5.36633C120.721 8.25193 119.048 8.59798 116.162 6.69372C115.007 5.8856 113.565 5.19351 112.987 5.19351C111.718 5.19351 110.505 7.15538 109.986 9.75213C109.582 11.8872 108.197 13.8491 107.043 13.8491C106.638 13.8491 105.138 13.3298 103.695 12.6949C101.501 11.714 100.809 11.6564 99.5971 12.1757C98.2117 12.8105 98.0965 13.1566 98.0965 16.9655C98.0965 19.7351 97.6924 21.8706 96.9419 23.4864C95.8454 25.9099 95.7874 25.9675 93.075 25.9675C88.5728 25.9675 86.4373 28.2183 88.6308 30.6994C89.785 31.9116 89.0345 33.1809 86.7837 33.7002C82.628 34.7391 81.4162 37.3935 83.6669 40.2211C85.2251 42.241 85.1675 42.5294 82.686 43.6836C80.0884 44.9529 79.6848 46.3959 81.3582 48.1846C82.628 49.5696 82.628 49.6272 81.9355 57.2446C81.243 64.6312 81.4738 85.2324 82.2819 87.3675C82.5127 88.0024 81.7622 88.6369 79.5115 89.7915C74.7785 92.1574 74.4324 92.6191 74.4324 96.4276C74.4324 101.333 75.1826 102.602 78.415 103.064C81.7047 103.525 83.7825 104.275 84.3598 105.199C84.5906 105.603 84.8215 107.449 84.8215 109.354C84.8215 113.451 86.0912 119.221 87.6494 122.222C92.036 130.763 103.464 135.091 117.316 133.475C124.127 132.609 128.109 131.282 132.438 128.397C138.902 124.069 141.904 118.529 142.366 109.815C142.712 104.506 142.712 104.506 144.443 103.929C146.694 103.122 152.293 103.122 154.602 103.929C156.391 104.564 156.391 104.564 156.391 108.662C156.391 113.393 157.603 119.049 159.219 122.223C163.605 130.763 175.033 135.091 188.828 133.475C195.696 132.61 199.679 131.282 204.007 128.397C210.472 124.069 213.473 118.357 214.05 109.412C214.454 103.526 214.166 103.814 220.514 103.006C223.747 102.602 224.497 101.333 224.497 96.3704C224.497 92.4462 223.862 91.6961 218.495 89.3878L215.262 88.0028V82.232C215.204 72.3643 213.82 65.3817 211.395 63.131C210.587 62.3809 208.798 61.2268 207.355 60.5343C205.104 59.4381 204.642 59.3801 203.95 60.1306C203.257 60.8231 203.43 61.4576 205.162 64.9201C207.297 69.1907 209.202 76.404 209.837 82.6361L210.241 86.445L206.547 85.6369C204.527 85.2329 201.929 84.8868 200.833 84.8292C199.678 84.8292 196.793 83.7902 193.907 82.3477C189.116 79.9817 188.885 79.9241 183.229 79.9241C176.765 79.9241 172.205 81.2511 168.511 84.1367C167.415 85.0024 165.106 86.0986 163.49 86.5026C161.816 86.9063 158.699 88.0028 156.564 88.9262C150.965 91.2925 148.08 91.1769 140.923 88.2913C137.806 87.0219 134.862 85.9834 134.458 85.9834C134.054 85.9834 132.727 85.1752 131.515 84.1943C127.705 81.1935 123.434 79.9241 116.854 79.9241C111.256 79.9241 110.909 80.0393 105.946 82.4053C102.598 84.0211 100.001 84.8292 98.4425 84.8292C97.1728 84.8868 94.4024 85.2329 92.3249 85.6945C86.4377 86.9643 86.8993 87.7144 87.361 78.0199C87.7075 69.7099 88.804 62.6698 90.0738 60.2458C91.5168 57.5339 102.945 51.7055 114.257 47.8969C128.283 43.2227 144.039 41.4337 161.816 42.6454C177.054 43.6264 181.094 44.8961 197.947 53.9558C203.834 57.1298 209.317 59.669 210.587 59.8418C212.665 60.1306 212.838 60.015 213.473 58.284C214.858 54.3022 213.762 44.2613 211.453 39.7022C209.721 36.3554 209.606 35.086 210.587 31.6235C211.28 29.1996 211.28 28.6803 210.414 27.4109C209.606 26.1992 209.029 25.9683 206.72 25.9683C205.22 26.026 202.911 26.2568 201.583 26.4876C199.217 26.9493 199.159 26.9493 199.448 25.4491C200.602 19.7935 199.217 18.5241 193.618 19.9667C191.829 20.4284 190.155 20.7168 190.04 20.544C189.867 20.3708 190.04 18.6394 190.444 16.7351C191.136 13.6191 191.079 13.0998 190.271 12.2341C189.405 11.4264 188.885 11.4264 185.538 12.0608C180.17 13.1574 178.15 12.6381 176.188 9.63732C174.168 6.69412 172.321 5.65557 170.416 6.40568C169.377 6.80933 168.28 6.63651 166.203 5.71318C164.009 4.78985 162.739 4.55902 160.777 4.84746C158.757 5.19391 157.66 4.96308 155.756 3.98175C153.793 3.00081 152.697 2.82759 150.33 3.11643C147.791 3.40487 146.867 3.17404 143.924 1.73144C142.077 0.808112 139.884 0.0576079 139.076 0C138.268 0 136.016 1.09655 133.997 2.42393L133.996 2.42353V2.42353ZM128.455 94.8118C135.381 97.0625 137.517 100.121 137.575 107.854C137.632 111.951 137.401 113.278 136.305 115.529C132.496 123.319 121.644 127.705 108.774 126.724C98.9042 125.916 93.8251 123.146 91.1123 117.029C89.3809 113.047 89.1501 103.525 90.7659 100.583C92.2665 97.8126 95.1525 95.9083 99.8855 94.6385C103.579 93.6576 105.6 93.542 114.834 93.6576C122.799 93.8308 126.262 94.1193 128.455 94.8118V94.8118ZM200.024 94.8118C206.951 97.0625 209.086 100.121 209.144 107.854C209.202 111.951 208.971 113.278 207.874 115.529C204.065 123.319 193.214 127.705 180.343 126.724C170.473 125.916 165.394 123.146 162.682 117.029C160.95 113.047 160.719 103.525 162.335 100.583C163.836 97.8126 166.721 95.9083 171.455 94.6385C175.149 93.6576 177.168 93.542 186.403 93.6576C194.368 93.8308 197.831 94.1193 200.024 94.8118V94.8118Z" fill="#2C1B18"/>
<path fill-rule="evenodd" clip-rule="evenodd" d="M109.87 101.796C106.811 103.238 103.29 106.874 103.29 108.605C103.29 109.932 104.214 109.932 106.003 108.49C110.678 104.796 120.606 104.796 125.685 108.432C126.666 109.067 127.705 109.644 128.051 109.644C129.263 109.644 128.686 107.566 126.839 105.373C124.415 102.373 120.086 100.411 115.989 100.411C113.853 100.411 111.833 100.872 109.87 101.796Z" fill="#533824"/>
<path fill-rule="evenodd" clip-rule="evenodd" d="M176.822 101.796C173.763 103.238 170.242 106.874 170.242 108.605C170.242 109.932 171.166 109.932 172.955 108.49C177.631 104.796 187.558 104.796 192.637 108.432C193.618 109.067 194.657 109.644 195.003 109.644C196.215 109.644 195.638 107.566 193.791 105.373C191.367 102.373 187.038 100.411 182.94 100.411C180.805 100.411 178.785 100.872 176.822 101.796Z" fill="#533824"/>
<path fill-rule="evenodd" clip-rule="evenodd" d="M136.016 129.379C136.651 131.86 138.498 133.822 141.73 135.38C144.328 136.65 145.655 136.939 149.464 136.939C153.274 136.939 154.601 136.65 157.199 135.38C160.431 133.822 162.277 131.86 162.913 129.379L163.201 128.109H149.464H135.728L136.016 129.379V129.379Z" fill="#AF754C"/>
<path fill-rule="evenodd" clip-rule="evenodd" d="M82.2819 87.3667C82.5127 88.0015 81.7622 88.6364 79.5115 89.7906C74.8525 92.1189 74.4441 92.6034 74.432 96.2507V96.4267C74.432 101.332 75.183 102.601 78.415 103.063C81.7046 103.524 83.7829 104.275 84.3602 105.198C84.5906 105.602 84.8219 107.449 84.8219 109.353C84.8219 113.45 86.0912 119.221 87.6498 122.221C92.0364 130.762 103.464 135.09 117.316 133.474C124.127 132.608 128.109 131.281 132.438 128.396C138.903 124.068 141.904 118.529 142.365 109.815C142.712 104.505 142.712 104.505 144.444 103.929C146.695 103.121 152.293 103.121 154.602 103.929C156.391 104.563 156.391 104.563 156.391 108.661C156.391 113.392 157.603 119.048 159.219 122.222C163.605 130.762 175.033 135.09 188.828 133.474C195.696 132.609 199.678 131.281 204.008 128.397C210.472 124.069 213.473 118.356 214.05 109.411C214.454 103.524 214.166 103.813 220.514 103.005C223.746 102.602 224.497 101.332 224.497 96.3691C224.497 92.445 223.862 91.6953 218.495 89.3869L215.262 88.0016L210.241 86.4441L206.547 85.636C204.527 85.2324 201.929 84.8855 200.833 84.8279C199.678 84.8279 196.793 83.7894 193.907 82.3468C189.116 79.9809 188.886 79.9229 183.229 79.9229C176.765 79.9229 172.205 81.2506 168.511 84.1358C167.414 85.0011 165.106 86.0977 163.49 86.5013C161.816 86.9058 158.7 88.0024 156.564 88.9253C150.965 91.2916 148.079 91.176 140.923 88.2904C137.806 87.0214 134.862 85.9821 134.459 85.9821C134.054 85.9821 132.727 85.1744 131.515 84.1938C127.706 81.1926 123.434 79.9229 116.854 79.9229C111.256 79.9229 110.91 80.0385 105.946 82.4048C102.599 84.0202 100.001 84.8279 98.4425 84.8279C97.1727 84.8855 94.4024 85.2324 92.3245 85.694L82.2819 87.3667V87.3667ZM128.455 94.8113C135.381 97.0616 137.517 100.12 137.574 107.853C137.632 111.95 137.402 113.277 136.305 115.527C132.496 123.318 121.645 127.704 108.774 126.722C98.9042 125.915 93.8251 123.145 91.1123 117.028C89.3809 113.046 89.1505 103.524 90.7659 100.581C92.2669 97.8117 95.1529 95.9074 99.8851 94.6377C103.58 93.6571 105.599 93.5415 114.834 93.6571C122.799 93.8296 126.262 94.1184 128.455 94.8113V94.8113ZM200.024 94.8113C206.951 97.0616 209.086 100.12 209.144 107.853C209.202 111.95 208.97 113.277 207.874 115.527C204.065 123.318 193.213 127.704 180.343 126.722C170.473 125.915 165.394 123.145 162.681 117.028C160.95 113.046 160.719 103.524 162.335 100.581C163.836 97.8117 166.722 95.9074 171.454 94.6377C175.149 93.6571 177.168 93.5415 186.403 93.6571C194.368 93.8296 197.831 94.1184 200.024 94.8113V94.8113Z" fill="#171A1C"/>
<path fill-rule="evenodd" clip-rule="evenodd" d="M133.361 152.575C134.112 157.365 137.748 162.27 142.25 164.578C145.54 166.309 151.6 166.656 155.063 165.329C160.258 163.309 164.76 157.884 165.568 152.575H133.361Z" fill="#3E291B"/>
<path fill-rule="evenodd" clip-rule="evenodd" d="M132.868 140.548C131.989 140.867 129.832 141.906 128.073 142.905C126.316 143.863 124.318 144.902 123.638 145.182C122.24 145.741 118.125 145.901 116.806 145.461C116.047 145.221 115.887 145.301 115.887 146.06C115.887 147.298 118.484 149.615 121.321 150.974C124.997 152.731 129.792 152.372 135.785 149.855C138.098 149.173 141.444 147.348 144.135 146.42C150.063 144.324 153.091 145.527 158.439 147.818L163.114 149.855C169.107 152.372 173.901 152.731 177.577 150.974C180.454 149.615 183.13 147.179 182.931 146.14C182.851 145.741 182.492 145.501 182.172 145.581C181.852 145.661 180.374 145.701 178.856 145.701C176.458 145.661 175.739 145.461 172.863 143.983C165.071 139.909 166.19 140.228 160.437 140.228C155.842 140.228 154.923 140.388 152.366 141.307L149.449 142.345L146.573 141.307C143.057 140.068 135.585 139.668 132.868 140.548V140.548Z" fill="#2C1B18" fill-opacity="0.301961"/>
<path d="M169.828 263.894L173.534 260.881C174.393 260.183 175.655 260.313 176.354 261.171C177.052 262.03 176.922 263.292 176.063 263.99L174.27 265.448L187.292 276.419C188.151 277.117 188.281 278.379 187.583 279.238C187.187 279.725 186.609 279.978 186.027 279.978C185.582 279.978 185.135 279.831 184.764 279.529L169.828 267.003C169.36 266.623 169.088 266.052 169.088 265.448C169.088 264.846 169.36 264.274 169.828 263.894V263.894Z" fill="#7B4AE2"/>
<path d="M186.286 245.484C187.351 245.493 188.206 246.362 188.198 247.426L188.032 278.067C188.024 279.131 187.154 279.987 186.09 279.978C185.82 279.976 185.564 279.919 185.332 279.817C184.648 279.517 184.172 278.831 184.178 278.036L184.344 247.396C184.353 246.332 185.222 245.476 186.286 245.484V245.484Z" fill="#7B4AE2"/>
<path d="M194.745 266.563L196.113 265.45L191.238 261.487C190.379 260.788 190.249 259.526 190.948 258.667C191.646 257.809 192.908 257.679 193.767 258.377L200.555 263.895C201.023 264.276 201.295 264.847 201.295 265.45C201.295 266.053 201.023 266.624 200.555 267.005L197.274 269.672C196.902 269.974 196.455 270.121 196.011 270.121C195.428 270.121 194.85 269.869 194.454 269.382C193.756 268.523 193.886 267.261 194.745 266.563V266.563Z" fill="#C83267"/>
<path fill-rule="evenodd" clip-rule="evenodd" d="M109.639 208.19C92.6129 209.848 77.1452 216.194 64.2738 226.769C53.1983 235.831 50.1083 243.033 42 253.29C58.5215 270.428 80.7377 284.949 104.965 292.968C121.125 298.285 132.149 300 149.464 300C166.78 300 177.803 298.285 193.964 292.968C218.406 285.154 238.994 272.347 257.553 253.965C244.841 237.561 239.609 226.809 219.129 216.708C210.529 212.421 200.428 209.334 192.694 208.533L189.052 208.205L188.879 208.201L188.481 210.935C186.749 223.968 170.416 233.572 150.041 233.572C129.668 233.572 113.623 224.083 111.544 210.878C111.14 208.248 110.967 208.019 109.64 208.19H109.639V208.19Z" fill="#111517"/>
<path d="M169.828 263.894L173.534 260.88C174.393 260.181 175.655 260.312 176.354 261.17C177.052 262.029 176.922 263.292 176.063 263.99L174.27 265.449L187.292 276.421C188.151 277.119 188.281 278.382 187.583 279.24C187.187 279.728 186.609 279.981 186.027 279.981C185.582 279.981 185.135 279.833 184.763 279.531L169.828 267.004C169.36 266.623 169.088 266.052 169.088 265.449C169.088 264.845 169.36 264.274 169.828 263.894V263.894Z" fill="white"/>
<path d="M186.286 245.48C187.351 245.488 188.206 246.358 188.198 247.422L188.032 278.068C188.024 279.133 187.154 279.988 186.09 279.979C185.82 279.977 185.564 279.92 185.332 279.818C184.648 279.518 184.172 278.832 184.178 278.038L184.344 247.391C184.353 246.327 185.222 245.472 186.286 245.48Z" fill="white"/>
<path d="M194.745 266.561L196.113 265.448L191.238 261.484C190.379 260.786 190.249 259.524 190.948 258.665C191.646 257.806 192.908 257.676 193.767 258.374L200.555 263.893C201.023 264.274 201.295 264.845 201.295 265.448C201.295 266.052 201.023 266.623 200.555 267.003L197.274 269.671C196.902 269.973 196.455 270.121 196.011 270.121C195.428 270.121 194.85 269.868 194.454 269.381C193.756 268.522 193.886 267.259 194.745 266.561V266.561Z" fill="#C83267"/>
<path fill-rule="evenodd" clip-rule="evenodd" d="M120.2 184.964L119.96 184.888C119.302 184.681 122.535 183.205 123.68 182.657C127.047 181.047 131.439 181.376 136.929 183.682C139.048 184.306 142.114 185.979 144.578 186.829C150.008 188.748 152.782 187.646 157.681 185.548L161.964 183.682C167.454 181.376 171.845 181.047 175.213 182.657C176.342 183.191 177.457 183.883 178.306 184.622L178.561 184.845C168.734 192.34 137.234 196.066 120.2 184.964V184.964Z" fill="#2C1B18" fill-opacity="0.501961"/>
</svg>
