<?xml version="1.0" encoding="UTF-8"?>
<!DOCTYPE svg PUBLIC "-//W3C//DTD SVG 1.1//EN" "http://www.w3.org/Graphics/SVG/1.1/DTD/svg11.dtd">
<!-- Creator: CorelDRAW 2019 (64-Bit) -->
<svg xmlns="http://www.w3.org/2000/svg" xml:space="preserve" width="33.8666mm" height="21.1682mm" version="1.1" style="shape-rendering:geometricPrecision; text-rendering:geometricPrecision; image-rendering:optimizeQuality; fill-rule:evenodd; clip-rule:evenodd"
viewBox="0 0 3386.66 2116.82"
 xmlns:xlink="http://www.w3.org/1999/xlink">
 <defs>
  <style type="text/css">
   <![CDATA[
    .fil0 {fill:white}
   ]]>
  </style>
 </defs>
 <g id="Layer_x0020_1">
  <metadata id="CorelCorpID_0Corel-Layer"/>
  <path class="fil0" d="M1397.81 975.02c70.29,-35.35 123.41,-74.73 159.82,-117.27 64.78,-76.63 96.74,-178.24 96.74,-304.19 0,-122.56 -31.97,-227.34 -95.9,-315.19 -106.69,-143.1 -287.25,-216.34 -542.54,-220.16l-1011.41 0 0 2064.55 943.05 0c106.26,0 204.69,-9.1 295.72,-27.73 91.02,-18.84 169.76,-53.34 236.45,-103.72 59.27,-43.82 108.81,-98.23 148.18,-162.36 62.23,-96.95 93.35,-206.82 93.35,-329.17 0,-118.53 -27.31,-219.51 -81.5,-302.5 -54.83,-82.98 -135.26,-143.74 -241.96,-182.26zm-976.06 -598.22l455.53 0c100.13,0 182.69,10.8 247.46,32.18 74.94,31.12 112.4,94.41 112.4,190.94 0,86.58 -28.58,147.12 -85.09,181.2 -56.95,34.08 -130.83,51.23 -221.42,51.23l-508.88 0 0 -455.55zm720.35 1311.38c-50.38,24.35 -121.3,36.41 -212.11,36.41l-508.24 0 0 -550.59 515.23 0c89.75,0.64 159.6,12.49 209.56,34.72 88.91,40.21 133.15,113.88 133.15,221.63 0,127.01 -45.72,212.53 -137.59,257.83zm1026.67 -1316.68l896.9 0 0 -256.98 -896.9 0 0 256.98zm1208.48 757.2c-18.62,-119.6 -59.69,-224.81 -123.62,-315.62 -70.07,-102.89 -158.97,-178.24 -267.14,-225.87 -107.75,-47.83 -229.04,-71.76 -364.1,-71.55 -226.71,0 -410.87,70.92 -553.34,211.68 -142.04,141.19 -213.17,344.2 -213.17,608.8 0,282.18 78.54,486.02 236.46,611.13 157.27,125.32 338.9,187.76 545.08,187.76 249.57,0 443.69,-74.3 582.33,-222.49 88.7,-93.57 138.87,-185.64 149.88,-276.04l-413.2 0.02c-23.92,44.66 -51.64,79.6 -83.41,105 -57.57,46.57 -132.51,69.86 -224.38,69.86 -87.42,0 -161.51,-19.27 -223.32,-57.58 -102.03,-61.39 -155.37,-168.93 -162.15,-321.97l1127.64 0c1.69,-131.88 -2.55,-233.28 -13.56,-303.13zm-1103.91 39.58c14.81,-99.27 50.8,-178.02 107.95,-236.24 57.15,-57.99 138.02,-87.21 241.53,-87.42 95.47,0 175.27,27.31 240.27,82.13 64.13,55.25 100.34,135.49 107.74,241.53l-697.49 0z"/>
 </g>
</svg>
