<?xml version="1.0" encoding="UTF-8"?>
<!DOCTYPE svg PUBLIC "-//W3C//DTD SVG 1.1//EN" "http://www.w3.org/Graphics/SVG/1.1/DTD/svg11.dtd">
<!-- Creator: CorelDRAW 2019 (64-Bit) -->
<svg xmlns="http://www.w3.org/2000/svg" xml:space="preserve" width="84.6666mm" height="84.6666mm" version="1.1" style="shape-rendering:geometricPrecision; text-rendering:geometricPrecision; image-rendering:optimizeQuality; fill-rule:evenodd; clip-rule:evenodd"
viewBox="0 0 8466.66 8466.66"
 xmlns:xlink="http://www.w3.org/1999/xlink">
 <defs>
  <style type="text/css">
   <![CDATA[
    .str0 {stroke:#FEFEFE;stroke-width:84.67;stroke-linecap:round;stroke-linejoin:round;stroke-miterlimit:22.9256;stroke-opacity:0.980392}
    .fil0 {fill:none}
    .fil1 {fill:none}
    .fil2 {fill:none;fill-rule:nonzero}
    .fil3 {fill:white;fill-rule:nonzero}
   ]]>
  </style>
 </defs>
 <g id="Layer_x0020_1">
  <metadata id="CorelCorpID_0Corel-Layer"/>
  <rect class="fil0" x="-0.01" y="-0.02" width="8466.67" height="8466.67"/>
  <path class="fil1 str0" d="M1725.93 4198.87c215.04,46.23 425.11,344.52 406.47,587.71 -23.21,302.68 -272.48,606.06 -668.18,604.81l-1044.15 1.88 3.34 -644.99 1302.52 -549.41z"/>
  <path class="fil1 str0" d="M423.41 4748.28c439.19,-183.57 857.2,-365.98 1302.52,-549.41 64.25,14.07 135.36,54.56 180.96,96.48l-1403.55 1097.77 -83.27 0.14 3.34 -644.98z"/>
  <path class="fil2 str0" d="M491.64 4574.24l1.35 -1507.74 916.1 1.57c578.91,-1.57 752.73,698.32 287.65,997.28 -4.2,2.7 -1063.51,448.86 -1205.1,508.89z"/>
  <path class="fil3" d="M2571.11 4572.48c-22.54,0 -41.23,-6.23 -56.06,-18.69 -14.83,-12.45 -22.24,-29.36 -22.24,-50.72l0 -1251.11c0,-20.17 6.52,-36.78 19.57,-49.83 13.06,-13.05 29.67,-19.58 49.84,-19.58l432.46 0c71.18,0 135.55,15.13 193.09,45.38 57.55,30.26 103.22,71.49 137.04,123.69 33.81,52.2 50.72,112.71 50.72,181.53 0,64.07 -17.2,121.02 -51.61,170.85 -34.41,49.83 -79.49,87.79 -135.26,113.9 79.5,21.35 143.56,61.39 192.21,120.12 48.64,58.73 72.97,133.18 72.97,223.35 0,80.68 -18.39,151.87 -55.17,213.57 -36.78,61.69 -87.51,110.04 -152.17,145.04 -64.66,35 -138.52,52.5 -221.57,52.5l-453.82 0zm60.51 -133.48l393.31 0c56.95,0 107.38,-11.27 151.28,-33.81 43.89,-22.54 78.3,-54.58 103.22,-96.1 24.91,-41.53 37.37,-90.77 37.37,-147.72 0,-53.39 -12.46,-99.95 -37.37,-139.7 -24.92,-39.75 -59.33,-70.59 -103.22,-92.54 -43.9,-21.95 -94.33,-32.93 -151.28,-32.93l-393.31 0 0 542.8zm0 -676.27l363.06 0c71.18,0 129.91,-20.17 176.19,-60.51 46.27,-40.34 69.4,-96.7 69.4,-169.07 0,-71.19 -23.13,-125.17 -69.4,-161.95 -46.28,-36.78 -105.01,-55.17 -176.19,-55.17l-363.06 0 0 446.7zm1178.15 809.75c-21.35,0 -38.26,-6.23 -50.72,-18.69 -12.46,-12.45 -18.68,-29.36 -18.68,-50.72l0 -834.67c0,-21.35 6.22,-38.26 18.68,-50.72 12.46,-12.46 29.37,-18.68 50.72,-18.68 20.17,0 36.49,6.22 48.94,18.68 12.46,12.46 18.69,29.37 18.69,50.72l0 834.67c0,21.36 -6.23,38.27 -18.69,50.72 -12.45,12.46 -28.77,18.69 -48.94,18.69zm-1.78 -1158.57c-26.1,0 -48.64,-9.49 -67.62,-28.48 -18.99,-18.98 -28.48,-42.12 -28.48,-69.4 0,-29.67 9.79,-53.1 29.37,-70.3 19.57,-17.21 42.41,-25.81 68.51,-25.81 24.92,0 47.17,8.6 66.74,25.81 19.58,17.2 29.37,40.63 29.37,70.3 0,27.28 -9.5,50.42 -28.48,69.4 -18.98,18.99 -42.12,28.48 -69.41,28.48zm487.64 1575.02c-21.36,0 -38.26,-6.23 -50.72,-18.69 -12.46,-12.46 -18.69,-29.37 -18.69,-50.72l0 -840.01c1.19,-92.54 23.43,-175.89 66.74,-250.05 43.3,-74.15 102.03,-132.58 176.19,-175.29 74.15,-42.72 157.5,-64.07 250.04,-64.07 94.92,0 179.75,21.65 254.5,64.95 74.74,43.31 133.77,102.34 177.07,177.08 43.31,74.75 64.96,159.58 64.96,254.5 0,93.73 -21.06,177.97 -63.18,252.71 -42.11,74.75 -99.36,133.77 -171.73,177.08 -72.38,43.31 -154.24,64.96 -245.6,64.96 -79.49,0 -151.57,-16.91 -216.23,-50.72 -64.66,-33.82 -116.57,-78.61 -155.72,-134.37l0 523.23c0,21.35 -6.23,38.26 -18.69,50.72 -12.46,12.46 -28.77,18.69 -48.94,18.69zm423.56 -532.13c68.82,0 130.51,-16.02 185.09,-48.05 54.58,-32.03 97.59,-76.23 129.03,-132.59 31.44,-56.35 47.16,-119.53 47.16,-189.53 0,-71.19 -15.72,-134.67 -47.16,-190.43 -31.44,-55.76 -74.45,-99.96 -129.03,-132.58 -54.58,-32.63 -116.27,-48.95 -185.09,-48.95 -67.63,0 -128.73,16.32 -183.3,48.95 -54.58,32.62 -97.29,76.82 -128.14,132.58 -30.85,55.76 -46.27,119.24 -46.27,190.43 0,70 15.42,133.18 46.27,189.53 30.85,56.36 73.56,100.56 128.14,132.59 54.57,32.03 115.67,48.05 183.3,48.05zm975.26 115.68c-47.45,0 -89.87,-13.05 -127.24,-39.15 -37.38,-26.1 -66.45,-62.29 -87.21,-108.56 -20.76,-46.28 -31.14,-99.67 -31.14,-160.17l0 -1014.42c0,-20.17 6.23,-36.49 18.68,-48.94 12.46,-12.46 28.78,-18.69 48.95,-18.69 20.17,0 36.48,6.23 48.94,18.69 12.45,12.45 18.68,28.77 18.68,48.94l0 1014.42c0,51.01 10.38,92.54 31.15,124.57 20.76,32.04 47.16,48.05 79.19,48.05l44.5 0c17.79,0 32.03,6.23 42.71,18.69 10.68,12.46 16.01,28.77 16.01,48.94 0,20.17 -7.41,36.49 -22.24,48.94 -14.83,12.46 -34.11,18.69 -57.84,18.69l-23.14 0zm667.39 8.9c-91.35,0 -173.23,-21.65 -245.6,-64.96 -72.38,-43.31 -129.62,-102.33 -171.74,-177.08 -42.12,-74.74 -63.18,-158.98 -63.18,-252.71 0,-94.92 21.65,-179.75 64.96,-254.5 43.3,-74.74 102.33,-133.77 177.08,-177.08 74.74,-43.3 158.99,-64.95 252.72,-64.95 93.73,0 177.67,21.65 251.83,64.95 74.15,43.31 132.88,102.34 176.18,177.08 43.31,74.75 65.56,159.58 66.74,254.5l-55.17 42.71c0,85.42 -19.87,162.25 -59.62,230.47 -39.74,68.22 -93.73,122.2 -161.95,161.95 -68.22,39.75 -145.63,59.62 -232.25,59.62zm14.24 -124.58c68.82,0 130.21,-16.02 184.2,-48.05 53.98,-32.03 96.69,-76.23 128.14,-132.59 31.44,-56.35 47.16,-119.53 47.16,-189.53 0,-71.19 -15.72,-134.67 -47.16,-190.43 -31.45,-55.76 -74.16,-99.96 -128.14,-132.58 -53.99,-32.63 -115.38,-48.95 -184.2,-48.95 -67.63,0 -128.73,16.32 -183.32,48.95 -54.57,32.62 -97.88,76.82 -129.91,132.58 -32.04,55.76 -48.05,119.24 -48.05,190.43 0,70 16.01,133.18 48.05,189.53 32.03,56.36 75.34,100.56 129.91,132.59 54.59,32.03 115.69,48.05 183.32,48.05zm425.35 115.68c-20.17,0 -36.78,-6.23 -49.84,-18.69 -13.05,-12.45 -19.57,-28.77 -19.57,-48.94l0 -304.32 33.81 -140.6 105 26.7 0 418.22c0,20.17 -6.52,36.49 -19.57,48.94 -13.05,12.46 -29.67,18.69 -49.83,18.69zm1171.02 0c-20.17,0 -36.78,-6.53 -49.83,-19.58 -13.05,-13.05 -19.58,-29.06 -19.58,-48.05l0 -462.71c0,-73.56 -13.94,-134.07 -41.82,-181.53 -27.88,-47.46 -65.85,-83.05 -113.9,-106.78 -48.05,-23.73 -102.33,-35.6 -162.84,-35.6 -58.14,0 -110.64,11.27 -157.5,33.82 -46.87,22.54 -83.94,53.39 -111.23,92.54 -27.29,39.15 -40.93,83.65 -40.93,133.48l-97.89 0c2.38,-74.75 22.55,-141.49 60.51,-200.22 37.97,-58.73 88.39,-105 151.28,-138.81 62.88,-33.82 132.88,-50.72 210,-50.72 84.24,0 159.58,17.5 226.02,52.5 66.44,35 118.94,86.31 157.5,153.94 38.56,67.63 57.84,150.09 57.84,247.38l0 462.71c0,18.99 -6.53,35 -19.58,48.05 -13.05,13.05 -29.07,19.58 -48.05,19.58zm-765.26 0c-21.36,0 -38.26,-6.23 -50.72,-18.69 -12.46,-12.45 -18.69,-28.77 -18.69,-48.94l0 -836.45c0,-21.35 6.23,-38.26 18.69,-50.72 12.46,-12.46 29.36,-18.68 50.72,-18.68 20.17,0 36.48,6.22 48.94,18.68 12.46,12.46 18.69,29.37 18.69,50.72l0 836.45c0,20.17 -6.23,36.49 -18.69,48.94 -12.46,12.46 -28.77,18.69 -48.94,18.69zm129.36 739.79c-19.1,0 -36.02,-4.19 -50.76,-12.56 -14.73,-8.37 -26.29,-19.98 -34.66,-34.84 -8.37,-14.85 -12.55,-31.83 -12.55,-50.93 0,-19.33 3.94,-36.37 11.84,-51.11 7.9,-14.73 18.81,-26.35 32.72,-34.83 13.91,-8.49 29.95,-12.74 48.1,-12.74 17.92,0 33.54,4.07 46.87,12.21 13.32,8.13 23.63,19.39 30.94,33.77 7.31,14.39 10.97,30.77 10.97,49.17 0,3.77 -1.18,6.77 -3.54,9.01 -2.36,2.24 -5.42,3.36 -9.19,3.36l-150.32 0 0 -22.63 153.14 0 -15.2 10.96c0.23,-13.67 -2.24,-25.93 -7.43,-36.78 -5.19,-10.85 -12.56,-19.34 -22.11,-25.47 -9.55,-6.13 -20.92,-9.19 -34.13,-9.19 -13.44,0 -25.23,3.18 -35.37,9.55 -10.14,6.36 -17.98,15.15 -23.52,26.35 -5.54,11.2 -8.31,23.99 -8.31,38.37 0,14.39 3.13,27.12 9.37,38.2 6.25,11.08 14.8,19.81 25.65,26.17 10.84,6.37 23.34,9.55 37.49,9.55 8.49,0 17.03,-1.47 25.64,-4.42 8.61,-2.94 15.5,-6.66 20.69,-11.14 2.59,-2.12 5.54,-3.24 8.84,-3.36 3.3,-0.12 6.13,0.77 8.49,2.65 3.07,2.83 4.66,5.9 4.78,9.2 0.11,3.3 -1.24,6.13 -4.07,8.49 -7.78,6.6 -17.69,12.08 -29.71,16.45 -12.03,4.36 -23.58,6.54 -34.66,6.54zm197.01 0c-13.91,0 -27.71,-2.36 -41.38,-7.08 -13.68,-4.71 -24.76,-11.79 -33.25,-21.22 -2.6,-2.83 -3.66,-6.01 -3.18,-9.55 0.47,-3.53 2.24,-6.6 5.3,-9.19 3.3,-2.36 6.72,-3.3 10.26,-2.83 3.53,0.47 6.48,2 8.84,4.6 5.66,6.6 13.15,11.67 22.46,15.2 9.31,3.54 19.63,5.31 30.95,5.31 17.45,0 30.06,-3.01 37.84,-9.02 7.78,-6.01 11.79,-13.26 12.03,-21.75 0,-8.49 -4.01,-15.5 -12.03,-21.05 -8.02,-5.54 -21.22,-9.84 -39.61,-12.91 -23.82,-3.77 -41.27,-10.37 -52.35,-19.8 -11.08,-9.43 -16.62,-20.63 -16.62,-33.6 0,-12.03 3.18,-22.05 9.55,-30.07 6.36,-8.01 14.85,-14.03 25.46,-18.03 10.61,-4.01 22.29,-6.02 35.02,-6.02 15.8,0 29.41,2.71 40.85,8.14 11.44,5.42 20.69,12.73 27.77,21.93 2.35,3.06 3.3,6.25 2.82,9.55 -0.47,3.3 -2.35,6.01 -5.65,8.13 -2.83,1.65 -6.08,2.18 -9.73,1.59 -3.66,-0.59 -6.78,-2.3 -9.37,-5.13 -5.9,-6.83 -12.74,-11.84 -20.52,-15.03 -7.78,-3.18 -16.74,-4.77 -26.88,-4.77 -12.97,0 -23.34,2.65 -31.12,7.96 -7.78,5.3 -11.67,11.96 -11.67,19.98 0,5.42 1.47,10.14 4.42,14.15 2.94,4.01 8.01,7.54 15.21,10.61 7.19,3.06 17.27,5.66 30.24,7.78 17.68,2.83 31.65,7.01 41.91,12.55 10.26,5.55 17.56,12.03 21.93,19.46 4.36,7.43 6.54,15.5 6.54,24.23 0,11.08 -3.24,20.8 -9.73,29.17 -6.48,8.38 -15.44,14.92 -26.88,19.63 -11.43,4.72 -24.58,7.08 -39.43,7.08zm208.32 0c-18.15,0 -34.42,-4.3 -48.81,-12.91 -14.38,-8.61 -25.76,-20.34 -34.13,-35.19 -8.37,-14.86 -12.55,-31.6 -12.55,-50.23 0,-18.86 4.3,-35.72 12.9,-50.58 8.61,-14.85 20.34,-26.58 35.2,-35.19 14.85,-8.6 31.59,-12.91 50.22,-12.91 18.63,0 35.31,4.31 50.05,12.91 14.74,8.61 26.41,20.34 35.01,35.19 8.61,14.86 13.03,31.72 13.27,50.58l-10.97 8.49c0,16.98 -3.95,32.25 -11.85,45.8 -7.9,13.56 -18.62,24.29 -32.18,32.19 -13.56,7.9 -28.95,11.85 -46.16,11.85zm2.83 -24.76c13.68,0 25.88,-3.18 36.61,-9.55 10.73,-6.37 19.21,-15.15 25.46,-26.35 6.25,-11.2 9.38,-23.76 9.38,-37.67 0,-14.14 -3.13,-26.76 -9.38,-37.84 -6.25,-11.08 -14.73,-19.87 -25.46,-26.35 -10.73,-6.49 -22.93,-9.73 -36.61,-9.73 -13.44,0 -25.58,3.24 -36.43,9.73 -10.85,6.48 -19.45,15.27 -25.82,26.35 -6.36,11.08 -9.55,23.7 -9.55,37.84 0,13.91 3.19,26.47 9.55,37.67 6.37,11.2 14.97,19.98 25.82,26.35 10.85,6.37 22.99,9.55 36.43,9.55zm84.53 22.99c-4.01,0 -7.31,-1.24 -9.9,-3.71 -2.59,-2.48 -3.89,-5.72 -3.89,-9.73l0 -60.48 6.72 -27.94 20.87 5.3 0 83.12c0,4.01 -1.3,7.25 -3.89,9.73 -2.6,2.47 -5.9,3.71 -9.91,3.71zm134.41 1.77c-13.91,0 -27.71,-2.36 -41.38,-7.08 -13.68,-4.71 -24.76,-11.79 -33.25,-21.22 -2.6,-2.83 -3.66,-6.01 -3.18,-9.55 0.47,-3.53 2.24,-6.6 5.3,-9.19 3.3,-2.36 6.72,-3.3 10.26,-2.83 3.53,0.47 6.48,2 8.84,4.6 5.66,6.6 13.15,11.67 22.46,15.2 9.31,3.54 19.63,5.31 30.95,5.31 17.45,0 30.06,-3.01 37.84,-9.02 7.78,-6.01 11.79,-13.26 12.03,-21.75 0,-8.49 -4.01,-15.5 -12.03,-21.05 -8.02,-5.54 -21.22,-9.84 -39.61,-12.91 -23.82,-3.77 -41.27,-10.37 -52.35,-19.8 -11.08,-9.43 -16.62,-20.63 -16.62,-33.6 0,-12.03 3.18,-22.05 9.55,-30.07 6.36,-8.01 14.85,-14.03 25.46,-18.03 10.61,-4.01 22.29,-6.02 35.02,-6.02 15.8,0 29.41,2.71 40.85,8.14 11.44,5.42 20.69,12.73 27.77,21.93 2.35,3.06 3.3,6.25 2.82,9.55 -0.47,3.3 -2.35,6.01 -5.65,8.13 -2.83,1.65 -6.08,2.18 -9.73,1.59 -3.66,-0.59 -6.78,-2.3 -9.37,-5.13 -5.9,-6.83 -12.74,-11.84 -20.52,-15.03 -7.78,-3.18 -16.74,-4.77 -26.88,-4.77 -12.97,0 -23.34,2.65 -31.12,7.96 -7.78,5.3 -11.67,11.96 -11.67,19.98 0,5.42 1.47,10.14 4.42,14.15 2.94,4.01 8.01,7.54 15.21,10.61 7.19,3.06 17.27,5.66 30.24,7.78 17.68,2.83 31.65,7.01 41.91,12.55 10.26,5.55 17.56,12.03 21.93,19.46 4.36,7.43 6.54,15.5 6.54,24.23 0,11.08 -3.24,20.8 -9.73,29.17 -6.48,8.38 -15.44,14.92 -26.88,19.63 -11.43,4.72 -24.58,7.08 -39.43,7.08zm-627.1 0c-19.1,0 -36.02,-4.19 -50.76,-12.56 -14.73,-8.37 -26.29,-19.98 -34.66,-34.84 -8.37,-14.85 -12.55,-31.83 -12.55,-50.93 0,-19.33 3.94,-36.37 11.84,-51.11 7.9,-14.73 18.81,-26.35 32.72,-34.83 13.91,-8.49 29.95,-12.74 48.1,-12.74 17.92,0 33.54,4.07 46.87,12.21 13.32,8.13 23.63,19.39 30.94,33.77 7.31,14.39 10.97,30.77 10.97,49.17 0,3.77 -1.18,6.77 -3.54,9.01 -2.36,2.24 -5.42,3.36 -9.19,3.36l-150.32 0 0 -22.63 153.14 0 -15.2 10.96c0.23,-13.67 -2.24,-25.93 -7.43,-36.78 -5.19,-10.85 -12.56,-19.34 -22.11,-25.47 -9.55,-6.13 -20.92,-9.19 -34.13,-9.19 -13.44,0 -25.23,3.18 -35.37,9.55 -10.14,6.36 -17.98,15.15 -23.52,26.35 -5.54,11.2 -8.31,23.99 -8.31,38.37 0,14.39 3.13,27.12 9.37,38.2 6.25,11.08 14.8,19.81 25.65,26.17 10.84,6.37 23.34,9.55 37.49,9.55 8.49,0 17.03,-1.47 25.64,-4.42 8.61,-2.94 15.5,-6.66 20.69,-11.14 2.59,-2.12 5.54,-3.24 8.84,-3.36 3.3,-0.12 6.13,0.77 8.49,2.65 3.07,2.83 4.66,5.9 4.78,9.2 0.11,3.3 -1.24,6.13 -4.07,8.49 -7.78,6.6 -17.69,12.08 -29.71,16.45 -12.03,4.36 -23.58,6.54 -34.66,6.54zm197.01 0c-13.91,0 -27.71,-2.36 -41.38,-7.08 -13.68,-4.71 -24.76,-11.79 -33.25,-21.22 -2.6,-2.83 -3.66,-6.01 -3.18,-9.55 0.47,-3.53 2.24,-6.6 5.3,-9.19 3.3,-2.36 6.72,-3.3 10.26,-2.83 3.53,0.47 6.48,2 8.84,4.6 5.66,6.6 13.15,11.67 22.46,15.2 9.31,3.54 19.63,5.31 30.95,5.31 17.45,0 30.06,-3.01 37.84,-9.02 7.78,-6.01 11.79,-13.26 12.03,-21.75 0,-8.49 -4.01,-15.5 -12.03,-21.05 -8.02,-5.54 -21.22,-9.84 -39.61,-12.91 -23.82,-3.77 -41.27,-10.37 -52.35,-19.8 -11.08,-9.43 -16.62,-20.63 -16.62,-33.6 0,-12.03 3.18,-22.05 9.55,-30.07 6.36,-8.01 14.85,-14.03 25.46,-18.03 10.61,-4.01 22.29,-6.02 35.02,-6.02 15.8,0 29.41,2.71 40.85,8.14 11.44,5.42 20.69,12.73 27.77,21.93 2.35,3.06 3.3,6.25 2.82,9.55 -0.47,3.3 -2.35,6.01 -5.65,8.13 -2.83,1.65 -6.08,2.18 -9.73,1.59 -3.66,-0.59 -6.78,-2.3 -9.37,-5.13 -5.9,-6.83 -12.74,-11.84 -20.52,-15.03 -7.78,-3.18 -16.74,-4.77 -26.88,-4.77 -12.97,0 -23.34,2.65 -31.12,7.96 -7.78,5.3 -11.67,11.96 -11.67,19.98 0,5.42 1.47,10.14 4.42,14.15 2.94,4.01 8.01,7.54 15.21,10.61 7.19,3.06 17.27,5.66 30.24,7.78 17.68,2.83 31.65,7.01 41.91,12.55 10.26,5.55 17.56,12.03 21.93,19.46 4.36,7.43 6.54,15.5 6.54,24.23 0,11.08 -3.24,20.8 -9.73,29.17 -6.48,8.38 -15.44,14.92 -26.88,19.63 -11.43,4.72 -24.58,7.08 -39.43,7.08zm208.32 0c-18.15,0 -34.42,-4.3 -48.81,-12.91 -14.38,-8.61 -25.76,-20.34 -34.13,-35.19 -8.37,-14.86 -12.55,-31.6 -12.55,-50.23 0,-18.86 4.3,-35.72 12.9,-50.58 8.61,-14.85 20.34,-26.58 35.2,-35.19 14.85,-8.6 31.59,-12.91 50.22,-12.91 18.63,0 35.31,4.31 50.05,12.91 14.74,8.61 26.41,20.34 35.01,35.19 8.61,14.86 13.03,31.72 13.27,50.58l-10.97 8.49c0,16.98 -3.95,32.25 -11.85,45.8 -7.9,13.56 -18.62,24.29 -32.18,32.19 -13.56,7.9 -28.95,11.85 -46.16,11.85zm2.83 -24.76c13.68,0 25.88,-3.18 36.61,-9.55 10.73,-6.37 19.21,-15.15 25.46,-26.35 6.25,-11.2 9.38,-23.76 9.38,-37.67 0,-14.14 -3.13,-26.76 -9.38,-37.84 -6.25,-11.08 -14.73,-19.87 -25.46,-26.35 -10.73,-6.49 -22.93,-9.73 -36.61,-9.73 -13.44,0 -25.58,3.24 -36.43,9.73 -10.85,6.48 -19.45,15.27 -25.82,26.35 -6.36,11.08 -9.55,23.7 -9.55,37.84 0,13.91 3.19,26.47 9.55,37.67 6.37,11.2 14.97,19.98 25.82,26.35 10.85,6.37 22.99,9.55 36.43,9.55zm84.53 22.99c-4.01,0 -7.31,-1.24 -9.9,-3.71 -2.59,-2.48 -3.89,-5.72 -3.89,-9.73l0 -60.48 6.72 -27.94 20.87 5.3 0 83.12c0,4.01 -1.3,7.25 -3.89,9.73 -2.6,2.47 -5.9,3.71 -9.91,3.71zm134.41 1.77c-13.91,0 -27.71,-2.36 -41.38,-7.08 -13.68,-4.71 -24.76,-11.79 -33.25,-21.22 -2.6,-2.83 -3.66,-6.01 -3.18,-9.55 0.47,-3.53 2.24,-6.6 5.3,-9.19 3.3,-2.36 6.72,-3.3 10.26,-2.83 3.53,0.47 6.48,2 8.84,4.6 5.66,6.6 13.15,11.67 22.46,15.2 9.31,3.54 19.63,5.31 30.95,5.31 17.45,0 30.06,-3.01 37.84,-9.02 7.78,-6.01 11.79,-13.26 12.03,-21.75 0,-8.49 -4.01,-15.5 -12.03,-21.05 -8.02,-5.54 -21.22,-9.84 -39.61,-12.91 -23.82,-3.77 -41.27,-10.37 -52.35,-19.8 -11.08,-9.43 -16.62,-20.63 -16.62,-33.6 0,-12.03 3.18,-22.05 9.55,-30.07 6.36,-8.01 14.85,-14.03 25.46,-18.03 10.61,-4.01 22.29,-6.02 35.02,-6.02 15.8,0 29.41,2.71 40.85,8.14 11.44,5.42 20.69,12.73 27.77,21.93 2.35,3.06 3.3,6.25 2.82,9.55 -0.47,3.3 -2.35,6.01 -5.65,8.13 -2.83,1.65 -6.08,2.18 -9.73,1.59 -3.66,-0.59 -6.78,-2.3 -9.37,-5.13 -5.9,-6.83 -12.74,-11.84 -20.52,-15.03 -7.78,-3.18 -16.74,-4.77 -26.88,-4.77 -12.97,0 -23.34,2.65 -31.12,7.96 -7.78,5.3 -11.67,11.96 -11.67,19.98 0,5.42 1.47,10.14 4.42,14.15 2.94,4.01 8.01,7.54 15.21,10.61 7.19,3.06 17.27,5.66 30.24,7.78 17.68,2.83 31.65,7.01 41.91,12.55 10.26,5.55 17.56,12.03 21.93,19.46 4.36,7.43 6.54,15.5 6.54,24.23 0,11.08 -3.24,20.8 -9.73,29.17 -6.48,8.38 -15.44,14.92 -26.88,19.63 -11.43,4.72 -24.58,7.08 -39.43,7.08zm-5460.66 -1.77c-3.77,0 -7.01,-1.36 -9.72,-4.07 -2.72,-2.71 -4.07,-5.95 -4.07,-9.72l0 -248.65c0,-4.01 1.35,-7.31 4.07,-9.9 2.71,-2.6 5.95,-3.89 9.72,-3.89 5.66,0 9.79,2.36 12.38,7.07l119.2 236.97 -12.03 0 117.07 -236.97c2.83,-4.71 6.96,-7.07 12.38,-7.07 3.77,0 6.96,1.29 9.55,3.89 2.59,2.59 3.89,5.89 3.89,9.9l0 248.65c0,3.77 -1.3,7.01 -3.89,9.72 -2.59,2.71 -5.78,4.07 -9.55,4.07 -4.01,0 -7.37,-1.36 -10.08,-4.07 -2.71,-2.71 -4.07,-5.95 -4.07,-9.72l0 -212.93 6.02 0.36 -104.34 213.27c-2.6,4.48 -6.6,6.72 -12.03,6.72 -5.89,0 -10.14,-2.83 -12.73,-8.48l-105.05 -210.1 7.08 -1.77 0 212.93c0,3.77 -1.36,7.01 -4.07,9.72 -2.71,2.71 -5.95,4.07 -9.73,4.07zm346.97 0c-4.01,0 -7.31,-1.3 -9.9,-3.89 -2.59,-2.59 -3.89,-5.9 -3.89,-9.9l0 -248.65c0,-4.01 1.3,-7.31 3.89,-9.9 2.59,-2.6 5.89,-3.89 9.9,-3.89l66.14 0c17.22,0 32.54,3.59 45.98,10.79 13.44,7.19 23.99,17.21 31.66,30.06 7.66,12.85 11.49,27.65 11.49,44.39 0,16.03 -3.83,30.3 -11.49,42.79 -7.67,12.5 -18.22,22.29 -31.66,29.36 -13.44,7.07 -28.76,10.61 -45.98,10.61l-52.34 0 0 94.44c0,4 -1.3,7.31 -3.89,9.9 -2.6,2.59 -5.9,3.89 -9.91,3.89zm147.85 0c-3.07,0 -5.49,-0.59 -7.26,-1.77 -1.76,-1.18 -3.36,-2.95 -4.77,-5.3l-67.91 -108.23 27.59 -7.08 63.31 101.16c3.54,5.66 4.19,10.61 1.95,14.85 -2.25,4.25 -6.55,6.37 -12.91,6.37zm-134.05 -134.76l52.34 0c12.03,0 22.7,-2.41 32.01,-7.25 9.32,-4.83 16.68,-11.49 22.11,-19.98 5.42,-8.49 8.13,-18.16 8.13,-29 0,-11.56 -2.71,-21.75 -8.13,-30.6 -5.43,-8.84 -12.79,-15.74 -22.11,-20.69 -9.31,-4.95 -19.98,-7.43 -32.01,-7.43l-52.34 0 0 114.95zm204.78 134.76c-4.01,0 -7.31,-1.3 -9.9,-3.89 -2.59,-2.59 -3.89,-5.9 -3.89,-9.9l0 -248.65c0,-4.01 1.3,-7.31 3.89,-9.9 2.59,-2.6 5.89,-3.89 9.9,-3.89l70.74 0c17.45,0 32.89,3.83 46.33,11.49 13.44,7.67 23.94,18.22 31.48,31.66 7.55,13.44 11.32,29 11.32,46.69 0,17.21 -3.77,32.48 -11.32,45.8 -7.54,13.32 -18.04,23.81 -31.48,31.48 -13.44,7.66 -28.88,11.49 -46.33,11.49l-56.94 0 0 83.83c0,4 -1.3,7.31 -3.89,9.9 -2.6,2.59 -5.9,3.89 -9.91,3.89zm13.8 -124.15l56.94 0c12.03,0 22.75,-2.65 32.19,-7.95 9.43,-5.31 16.8,-12.68 22.1,-22.11 5.31,-9.43 7.96,-20.16 7.96,-32.18 0,-12.5 -2.65,-23.47 -7.96,-32.9 -5.3,-9.43 -12.67,-16.86 -22.1,-22.28 -9.44,-5.42 -20.16,-8.14 -32.19,-8.14l-56.94 0 0 125.56zm302.77 206.91c-4.25,0 -7.61,-1.23 -10.08,-3.71 -2.48,-2.48 -3.72,-5.84 -3.72,-10.08l0 -166.94c0.24,-18.39 4.66,-34.96 13.27,-49.7 8.6,-14.73 20.27,-26.35 35.01,-34.83 14.74,-8.49 31.3,-12.74 49.69,-12.74 18.87,0 35.73,4.31 50.58,12.91 14.86,8.61 26.59,20.34 35.19,35.19 8.61,14.86 12.91,31.72 12.91,50.58 0,18.63 -4.18,35.37 -12.55,50.23 -8.37,14.85 -19.75,26.58 -34.13,35.19 -14.39,8.61 -30.66,12.91 -48.81,12.91 -15.8,0 -30.13,-3.36 -42.98,-10.08 -12.85,-6.72 -23.16,-15.62 -30.94,-26.71l0 103.99c0,4.24 -1.24,7.6 -3.72,10.08 -2.47,2.48 -5.72,3.71 -9.72,3.71zm84.17 -105.75c13.68,0 25.94,-3.18 36.79,-9.55 10.84,-6.37 19.39,-15.15 25.64,-26.35 6.25,-11.2 9.37,-23.76 9.37,-37.67 0,-14.14 -3.12,-26.76 -9.37,-37.84 -6.25,-11.08 -14.8,-19.87 -25.64,-26.35 -10.85,-6.49 -23.11,-9.73 -36.79,-9.73 -13.44,0 -25.58,3.24 -36.43,9.73 -10.84,6.48 -19.33,15.27 -25.46,26.35 -6.13,11.08 -9.2,23.7 -9.2,37.84 0,13.91 3.07,26.47 9.2,37.67 6.13,11.2 14.62,19.98 25.46,26.35 10.85,6.37 22.99,9.55 36.43,9.55zm237.33 24.76c-18.15,0 -34.42,-4.3 -48.81,-12.91 -14.38,-8.61 -25.76,-20.34 -34.13,-35.19 -8.37,-14.86 -12.55,-31.6 -12.55,-50.23 0,-18.86 4.3,-35.72 12.9,-50.58 8.61,-14.85 20.34,-26.58 35.2,-35.19 14.85,-8.6 31.59,-12.91 50.22,-12.91 18.63,0 35.31,4.31 50.05,12.91 14.74,8.61 26.41,20.34 35.01,35.19 8.61,14.86 13.03,31.72 13.27,50.58l-10.97 8.49c0,16.98 -3.95,32.25 -11.85,45.8 -7.9,13.56 -18.62,24.29 -32.18,32.19 -13.56,7.9 -28.95,11.85 -46.16,11.85zm2.83 -24.76c13.68,0 25.88,-3.18 36.61,-9.55 10.73,-6.37 19.21,-15.15 25.46,-26.35 6.25,-11.2 9.38,-23.76 9.38,-37.67 0,-14.14 -3.13,-26.76 -9.38,-37.84 -6.25,-11.08 -14.73,-19.87 -25.46,-26.35 -10.73,-6.49 -22.93,-9.73 -36.61,-9.73 -13.44,0 -25.58,3.24 -36.43,9.73 -10.85,6.48 -19.45,15.27 -25.82,26.35 -6.36,11.08 -9.55,23.7 -9.55,37.84 0,13.91 3.19,26.47 9.55,37.67 6.37,11.2 14.97,19.98 25.82,26.35 10.85,6.37 22.99,9.55 36.43,9.55zm84.53 22.99c-4.01,0 -7.31,-1.24 -9.9,-3.71 -2.59,-2.48 -3.89,-5.72 -3.89,-9.73l0 -60.48 6.72 -27.94 20.87 5.3 0 83.12c0,4.01 -1.3,7.25 -3.89,9.73 -2.6,2.47 -5.9,3.71 -9.91,3.71zm78.17 -119.19c0.71,-14.62 4.54,-27.71 11.5,-39.26 6.95,-11.56 16.03,-20.64 27.23,-27.24 11.2,-6.6 23.64,-9.9 37.31,-9.9 10.85,0 19.22,1.53 25.12,4.6 5.89,3.06 8.13,7.54 6.72,13.44 -0.95,3.53 -2.54,5.89 -4.78,7.07 -2.24,1.18 -4.95,1.65 -8.13,1.42 -3.19,-0.24 -6.78,-0.48 -10.79,-0.71 -13.21,-1.18 -24.94,0.18 -35.19,4.07 -10.26,3.89 -18.4,9.84 -24.41,17.86 -6.01,8.01 -9.02,17.56 -9.02,28.65l-15.56 0zm2.12 119.19c-4.24,0 -7.54,-1.18 -9.9,-3.54 -2.36,-2.35 -3.54,-5.66 -3.54,-9.9l0 -166.59c0,-4.24 1.18,-7.54 3.54,-9.9 2.36,-2.36 5.66,-3.54 9.9,-3.54 4.25,0 7.55,1.18 9.91,3.54 2.35,2.36 3.53,5.66 3.53,9.9l0 166.59c0,4.24 -1.18,7.55 -3.53,9.9 -2.36,2.36 -5.66,3.54 -9.91,3.54zm219.64 1.77c-18.15,0 -34.42,-4.3 -48.81,-12.91 -14.38,-8.61 -25.76,-20.34 -34.13,-35.19 -8.37,-14.86 -12.55,-31.6 -12.55,-50.23 0,-18.86 4.3,-35.72 12.9,-50.58 8.61,-14.85 20.34,-26.58 35.2,-35.19 14.85,-8.6 31.59,-12.91 50.22,-12.91 18.63,0 35.31,4.31 50.05,12.91 14.74,8.61 26.41,20.34 35.01,35.19 8.61,14.86 13.03,31.72 13.27,50.58l-10.97 8.49c0,16.98 -3.95,32.25 -11.85,45.8 -7.9,13.56 -18.62,24.29 -32.18,32.19 -13.56,7.9 -28.95,11.85 -46.16,11.85zm2.83 -24.76c13.68,0 25.88,-3.18 36.61,-9.55 10.73,-6.37 19.21,-15.15 25.46,-26.35 6.25,-11.2 9.38,-23.76 9.38,-37.67 0,-14.14 -3.13,-26.76 -9.38,-37.84 -6.25,-11.08 -14.73,-19.87 -25.46,-26.35 -10.73,-6.49 -22.93,-9.73 -36.61,-9.73 -13.44,0 -25.58,3.24 -36.43,9.73 -10.85,6.48 -19.45,15.27 -25.82,26.35 -6.36,11.08 -9.55,23.7 -9.55,37.84 0,13.91 3.19,26.47 9.55,37.67 6.37,11.2 14.97,19.98 25.82,26.35 10.85,6.37 22.99,9.55 36.43,9.55zm84.53 22.99c-4.01,0 -7.31,-1.24 -9.9,-3.71 -2.59,-2.48 -3.89,-5.72 -3.89,-9.73l0 -60.48 6.72 -27.94 20.87 5.3 0 83.12c0,4.01 -1.3,7.25 -3.89,9.73 -2.6,2.47 -5.9,3.71 -9.91,3.71zm184.28 82.76c-4.25,0 -7.61,-1.23 -10.08,-3.71 -2.48,-2.48 -3.72,-5.84 -3.72,-10.08l0 -166.94c0.24,-18.39 4.66,-34.96 13.27,-49.7 8.6,-14.73 20.27,-26.35 35.01,-34.83 14.74,-8.49 31.3,-12.74 49.69,-12.74 18.87,0 35.73,4.31 50.58,12.91 14.86,8.61 26.59,20.34 35.19,35.19 8.61,14.86 12.91,31.72 12.91,50.58 0,18.63 -4.18,35.37 -12.55,50.23 -8.37,14.85 -19.75,26.58 -34.13,35.19 -14.39,8.61 -30.66,12.91 -48.81,12.91 -15.8,0 -30.13,-3.36 -42.98,-10.08 -12.85,-6.72 -23.16,-15.62 -30.94,-26.71l0 103.99c0,4.24 -1.24,7.6 -3.72,10.08 -2.47,2.48 -5.72,3.71 -9.72,3.71zm84.17 -105.75c13.68,0 25.94,-3.18 36.79,-9.55 10.84,-6.37 19.39,-15.15 25.64,-26.35 6.25,-11.2 9.37,-23.76 9.37,-37.67 0,-14.14 -3.12,-26.76 -9.37,-37.84 -6.25,-11.08 -14.8,-19.87 -25.64,-26.35 -10.85,-6.49 -23.11,-9.73 -36.79,-9.73 -13.44,0 -25.58,3.24 -36.43,9.73 -10.84,6.48 -19.33,15.27 -25.46,26.35 -6.13,11.08 -9.2,23.7 -9.2,37.84 0,13.91 3.07,26.47 9.2,37.67 6.13,11.2 14.62,19.98 25.46,26.35 10.85,6.37 22.99,9.55 36.43,9.55zm239.81 24.76c-19.1,0 -36.02,-4.19 -50.76,-12.56 -14.73,-8.37 -26.29,-19.98 -34.66,-34.84 -8.37,-14.85 -12.55,-31.83 -12.55,-50.93 0,-19.33 3.94,-36.37 11.84,-51.11 7.9,-14.73 18.81,-26.35 32.72,-34.83 13.91,-8.49 29.95,-12.74 48.1,-12.74 17.92,0 33.54,4.07 46.87,12.21 13.32,8.13 23.63,19.39 30.94,33.77 7.31,14.39 10.97,30.77 10.97,49.17 0,3.77 -1.18,6.77 -3.54,9.01 -2.36,2.24 -5.42,3.36 -9.19,3.36l-150.32 0 0 -22.63 153.14 0 -15.2 10.96c0.23,-13.67 -2.24,-25.93 -7.43,-36.78 -5.19,-10.85 -12.56,-19.34 -22.11,-25.47 -9.55,-6.13 -20.92,-9.19 -34.13,-9.19 -13.44,0 -25.23,3.18 -35.37,9.55 -10.14,6.36 -17.98,15.15 -23.52,26.35 -5.54,11.2 -8.31,23.99 -8.31,38.37 0,14.39 3.13,27.12 9.37,38.2 6.25,11.08 14.8,19.81 25.65,26.17 10.84,6.37 23.34,9.55 37.49,9.55 8.49,0 17.03,-1.47 25.64,-4.42 8.61,-2.94 15.5,-6.66 20.69,-11.14 2.59,-2.12 5.54,-3.24 8.84,-3.36 3.3,-0.12 6.13,0.77 8.49,2.65 3.07,2.83 4.66,5.9 4.78,9.2 0.11,3.3 -1.24,6.13 -4.07,8.49 -7.78,6.6 -17.69,12.08 -29.71,16.45 -12.03,4.36 -23.58,6.54 -34.66,6.54zm302.05 80.99c-4.01,0 -7.31,-1.23 -9.9,-3.71 -2.59,-2.48 -3.89,-5.84 -3.89,-10.08l0 -103.99c-7.78,11.09 -18.04,19.99 -30.77,26.71 -12.73,6.72 -27,10.08 -42.8,10.08 -18.15,0 -34.42,-4.3 -48.81,-12.91 -14.38,-8.61 -25.76,-20.34 -34.13,-35.19 -8.37,-14.86 -12.55,-31.6 -12.55,-50.23 0,-18.86 4.3,-35.72 12.9,-50.58 8.61,-14.85 20.34,-26.58 35.2,-35.19 14.85,-8.6 31.59,-12.91 50.22,-12.91 18.39,0 34.96,4.25 49.69,12.74 14.74,8.48 26.41,20.1 35.02,34.83 8.61,14.74 13.15,31.31 13.62,49.7l0 166.94c0,4.24 -1.3,7.6 -3.89,10.08 -2.6,2.48 -5.9,3.71 -9.91,3.71zm-84.53 -105.75c13.68,0 25.88,-3.18 36.61,-9.55 10.73,-6.37 19.21,-15.15 25.46,-26.35 6.25,-11.2 9.38,-23.76 9.38,-37.67 0,-14.14 -3.13,-26.76 -9.38,-37.84 -6.25,-11.08 -14.73,-19.87 -25.46,-26.35 -10.73,-6.49 -22.93,-9.73 -36.61,-9.73 -13.44,0 -25.58,3.24 -36.43,9.73 -10.85,6.48 -19.45,15.27 -25.82,26.35 -6.36,11.08 -9.55,23.7 -9.55,37.84 0,13.91 3.19,26.47 9.55,37.67 6.37,11.2 14.97,19.98 25.82,26.35 10.85,6.37 22.99,9.55 36.43,9.55zm246.17 25.11c-16.74,0 -31.71,-3.48 -44.92,-10.43 -13.2,-6.96 -23.64,-17.16 -31.3,-30.6 -7.66,-13.44 -11.49,-29.82 -11.49,-49.16l0 -91.96c0,-3.77 1.29,-6.95 3.89,-9.55 2.59,-2.59 5.77,-3.89 9.55,-3.89 4,0 7.31,1.3 9.9,3.89 2.59,2.6 3.89,5.78 3.89,9.55l0 91.96c0,14.62 2.77,26.65 8.31,36.08 5.54,9.43 13.09,16.5 22.64,21.22 9.55,4.71 20.33,7.07 32.36,7.07 11.55,0 21.99,-2.24 31.3,-6.72 9.32,-4.48 16.68,-10.61 22.11,-18.39 5.42,-7.78 8.13,-16.62 8.13,-26.53l19.45 0c-0.7,14.86 -4.77,28.12 -12.2,39.79 -7.42,11.68 -17.39,20.87 -29.88,27.59 -12.5,6.72 -26.41,10.08 -41.74,10.08zm77.81 -2.12c-4.01,0 -7.25,-1.24 -9.72,-3.71 -2.48,-2.48 -3.72,-5.84 -3.72,-10.08l0 -166.24c0,-4.01 1.24,-7.25 3.72,-9.72 2.47,-2.48 5.71,-3.72 9.72,-3.72 4.01,0 7.31,1.24 9.91,3.72 2.59,2.47 3.89,5.71 3.89,9.72l0 166.24c0,4.24 -1.3,7.6 -3.89,10.08 -2.6,2.47 -5.9,3.71 -9.91,3.71zm165.18 1.77c-19.1,0 -36.02,-4.19 -50.76,-12.56 -14.73,-8.37 -26.29,-19.98 -34.66,-34.84 -8.37,-14.85 -12.55,-31.83 -12.55,-50.93 0,-19.33 3.94,-36.37 11.84,-51.11 7.9,-14.73 18.81,-26.35 32.72,-34.83 13.91,-8.49 29.95,-12.74 48.1,-12.74 17.92,0 33.54,4.07 46.87,12.21 13.32,8.13 23.63,19.39 30.94,33.77 7.31,14.39 10.97,30.77 10.97,49.17 0,3.77 -1.18,6.77 -3.54,9.01 -2.36,2.24 -5.42,3.36 -9.19,3.36l-150.32 0 0 -22.63 153.14 0 -15.2 10.96c0.23,-13.67 -2.24,-25.93 -7.43,-36.78 -5.19,-10.85 -12.56,-19.34 -22.11,-25.47 -9.55,-6.13 -20.92,-9.19 -34.13,-9.19 -13.44,0 -25.23,3.18 -35.37,9.55 -10.14,6.36 -17.98,15.15 -23.52,26.35 -5.54,11.2 -8.31,23.99 -8.31,38.37 0,14.39 3.13,27.12 9.37,38.2 6.25,11.08 14.8,19.81 25.65,26.17 10.84,6.37 23.34,9.55 37.49,9.55 8.49,0 17.03,-1.47 25.64,-4.42 8.61,-2.94 15.5,-6.66 20.69,-11.14 2.59,-2.12 5.54,-3.24 8.84,-3.36 3.3,-0.12 6.13,0.77 8.49,2.65 3.07,2.83 4.66,5.9 4.78,9.2 0.11,3.3 -1.24,6.13 -4.07,8.49 -7.78,6.6 -17.69,12.08 -29.71,16.45 -12.03,4.36 -23.58,6.54 -34.66,6.54zm295.33 -1.77c-4.01,0 -7.31,-1.3 -9.9,-3.89 -2.59,-2.59 -3.89,-5.78 -3.89,-9.55l0 -91.96c0,-14.62 -2.77,-26.64 -8.31,-36.08 -5.54,-9.43 -13.09,-16.5 -22.64,-21.22 -9.55,-4.71 -20.34,-7.07 -32.36,-7.07 -11.56,0 -21.99,2.24 -31.3,6.72 -9.32,4.48 -16.69,10.61 -22.11,18.39 -5.42,7.78 -8.13,16.62 -8.13,26.53l-19.46 0c0.47,-14.86 4.48,-28.12 12.03,-39.79 7.54,-11.67 17.57,-20.87 30.06,-27.59 12.5,-6.72 26.41,-10.08 41.74,-10.08 16.74,0 31.71,3.48 44.92,10.43 13.2,6.96 23.63,17.16 31.3,30.6 7.66,13.44 11.49,29.83 11.49,49.16l0 91.96c0,3.77 -1.29,6.96 -3.89,9.55 -2.59,2.59 -5.77,3.89 -9.55,3.89zm-152.08 0c-4.25,0 -7.61,-1.24 -10.08,-3.71 -2.48,-2.48 -3.72,-5.72 -3.72,-9.73l0 -166.23c0,-4.25 1.24,-7.61 3.72,-10.08 2.47,-2.48 5.83,-3.72 10.08,-3.72 4,0 7.25,1.24 9.72,3.72 2.48,2.47 3.72,5.83 3.72,10.08l0 166.23c0,4.01 -1.24,7.25 -3.72,9.73 -2.47,2.47 -5.72,3.71 -9.72,3.71zm310.89 1.77c-18.15,0 -34.42,-4.3 -48.81,-12.91 -14.38,-8.61 -25.76,-20.34 -34.13,-35.19 -8.37,-14.86 -12.55,-31.6 -12.55,-50.23 0,-18.86 4.3,-35.72 12.9,-50.58 8.61,-14.85 20.34,-26.58 35.2,-35.19 14.85,-8.6 31.59,-12.91 50.22,-12.91 18.63,0 35.31,4.31 50.05,12.91 14.74,8.61 26.41,20.34 35.01,35.19 8.61,14.86 13.03,31.72 13.27,50.58l-10.97 8.49c0,16.98 -3.95,32.25 -11.85,45.8 -7.9,13.56 -18.62,24.29 -32.18,32.19 -13.56,7.9 -28.95,11.85 -46.16,11.85zm2.83 -24.76c13.68,0 25.88,-3.18 36.61,-9.55 10.73,-6.37 19.21,-15.15 25.46,-26.35 6.25,-11.2 9.38,-23.76 9.38,-37.67 0,-14.14 -3.13,-26.76 -9.38,-37.84 -6.25,-11.08 -14.73,-19.87 -25.46,-26.35 -10.73,-6.49 -22.93,-9.73 -36.61,-9.73 -13.44,0 -25.58,3.24 -36.43,9.73 -10.85,6.48 -19.45,15.27 -25.82,26.35 -6.36,11.08 -9.55,23.7 -9.55,37.84 0,13.91 3.19,26.47 9.55,37.67 6.37,11.2 14.97,19.98 25.82,26.35 10.85,6.37 22.99,9.55 36.43,9.55zm84.53 22.99c-4.01,0 -7.31,-1.24 -9.9,-3.71 -2.59,-2.48 -3.89,-5.72 -3.89,-9.73l0 -60.48 6.72 -27.94 20.87 5.3 0 83.12c0,4.01 -1.3,7.25 -3.89,9.73 -2.6,2.47 -5.9,3.71 -9.91,3.71zm134.41 1.77c-13.91,0 -27.71,-2.36 -41.38,-7.08 -13.68,-4.71 -24.76,-11.79 -33.25,-21.22 -2.6,-2.83 -3.66,-6.01 -3.18,-9.55 0.47,-3.53 2.24,-6.6 5.3,-9.19 3.3,-2.36 6.72,-3.3 10.26,-2.83 3.53,0.47 6.48,2 8.84,4.6 5.66,6.6 13.15,11.67 22.46,15.2 9.31,3.54 19.63,5.31 30.95,5.31 17.45,0 30.06,-3.01 37.84,-9.02 7.78,-6.01 11.79,-13.26 12.03,-21.75 0,-8.49 -4.01,-15.5 -12.03,-21.05 -8.02,-5.54 -21.22,-9.84 -39.61,-12.91 -23.82,-3.77 -41.27,-10.37 -52.35,-19.8 -11.08,-9.43 -16.62,-20.63 -16.62,-33.6 0,-12.03 3.18,-22.05 9.55,-30.07 6.36,-8.01 14.85,-14.03 25.46,-18.03 10.61,-4.01 22.29,-6.02 35.02,-6.02 15.8,0 29.41,2.71 40.85,8.14 11.44,5.42 20.69,12.73 27.77,21.93 2.35,3.06 3.3,6.25 2.82,9.55 -0.47,3.3 -2.35,6.01 -5.65,8.13 -2.83,1.65 -6.08,2.18 -9.73,1.59 -3.66,-0.59 -6.78,-2.3 -9.37,-5.13 -5.9,-6.83 -12.74,-11.84 -20.52,-15.03 -7.78,-3.18 -16.74,-4.77 -26.88,-4.77 -12.97,0 -23.34,2.65 -31.12,7.96 -7.78,5.3 -11.67,11.96 -11.67,19.98 0,5.42 1.47,10.14 4.42,14.15 2.94,4.01 8.01,7.54 15.21,10.61 7.19,3.06 17.27,5.66 30.24,7.78 17.68,2.83 31.65,7.01 41.91,12.55 10.26,5.55 17.56,12.03 21.93,19.46 4.36,7.43 6.54,15.5 6.54,24.23 0,11.08 -3.24,20.8 -9.73,29.17 -6.48,8.38 -15.44,14.92 -26.88,19.63 -11.43,4.72 -24.58,7.08 -39.43,7.08zm314.43 0c-19.1,0 -36.02,-4.19 -50.76,-12.56 -14.73,-8.37 -26.29,-19.98 -34.66,-34.84 -8.37,-14.85 -12.55,-31.83 -12.55,-50.93 0,-19.33 3.94,-36.37 11.84,-51.11 7.9,-14.73 18.81,-26.35 32.72,-34.83 13.91,-8.49 29.95,-12.74 48.1,-12.74 17.92,0 33.54,4.07 46.87,12.21 13.32,8.13 23.63,19.39 30.94,33.77 7.31,14.39 10.97,30.77 10.97,49.17 0,3.77 -1.18,6.77 -3.54,9.01 -2.36,2.24 -5.42,3.36 -9.19,3.36l-150.32 0 0 -22.63 153.14 0 -15.2 10.96c0.23,-13.67 -2.24,-25.93 -7.43,-36.78 -5.19,-10.85 -12.56,-19.34 -22.11,-25.47 -9.55,-6.13 -20.92,-9.19 -34.13,-9.19 -13.44,0 -25.23,3.18 -35.37,9.55 -10.14,6.36 -17.98,15.15 -23.52,26.35 -5.54,11.2 -8.31,23.99 -8.31,38.37 0,14.39 3.13,27.12 9.37,38.2 6.25,11.08 14.8,19.81 25.65,26.17 10.84,6.37 23.34,9.55 37.49,9.55 8.49,0 17.03,-1.47 25.64,-4.42 8.61,-2.94 15.5,-6.66 20.69,-11.14 2.59,-2.12 5.54,-3.24 8.84,-3.36 3.3,-0.12 6.13,0.77 8.49,2.65 3.07,2.83 4.66,5.9 4.78,9.2 0.11,3.3 -1.24,6.13 -4.07,8.49 -7.78,6.6 -17.69,12.08 -29.71,16.45 -12.03,4.36 -23.58,6.54 -34.66,6.54zm390.83 -1.77c-4.01,0 -7.31,-1.24 -9.9,-3.71 -2.6,-2.48 -3.89,-5.72 -3.89,-9.73l0 -101.86c0,-16.74 -4.37,-30.01 -13.09,-39.79 -8.73,-9.79 -19.93,-14.68 -33.6,-14.68 -14.62,0 -26.59,4.89 -35.9,14.68 -9.32,9.78 -13.85,22.81 -13.62,39.08l-24.4 0c0.23,-15.8 3.65,-29.71 10.25,-41.74 6.61,-12.02 15.68,-21.34 27.24,-27.94 11.55,-6.6 24.64,-9.9 39.26,-9.9 13.91,0 26.23,3.3 36.96,9.9 10.73,6.6 19.1,15.92 25.11,27.94 6.01,12.03 9.02,26.18 9.02,42.45l0 101.86c0,4.01 -1.24,7.25 -3.71,9.73 -2.48,2.47 -5.72,3.71 -9.73,3.71zm-247.58 0c-4.25,0 -7.61,-1.24 -10.08,-3.71 -2.48,-2.48 -3.72,-5.72 -3.72,-9.73l0 -166.23c0,-4.01 1.24,-7.31 3.72,-9.91 2.47,-2.59 5.83,-3.89 10.08,-3.89 4,0 7.25,1.3 9.72,3.89 2.48,2.6 3.72,5.9 3.72,9.91l0 166.23c0,4.01 -1.24,7.25 -3.72,9.73 -2.47,2.47 -5.72,3.71 -9.72,3.71zm124.14 0c-4.01,0 -7.31,-1.24 -9.9,-3.71 -2.6,-2.48 -3.89,-5.72 -3.89,-9.73l0 -101.86c0,-16.74 -4.36,-30.01 -13.09,-39.79 -8.72,-9.79 -19.92,-14.68 -33.6,-14.68 -14.62,0 -26.64,4.77 -36.08,14.32 -9.43,9.55 -14.14,21.99 -14.14,37.32l-19.46 0c0.47,-15.09 3.83,-28.47 10.08,-40.15 6.25,-11.67 14.8,-20.81 25.65,-27.41 10.84,-6.6 23.1,-9.9 36.78,-9.9 13.91,0 26.23,3.3 36.96,9.9 10.73,6.6 19.1,15.92 25.11,27.94 6.02,12.03 9.02,26.18 9.02,42.45l0 101.86c0,4.01 -1.24,7.25 -3.71,9.73 -2.48,2.47 -5.72,3.71 -9.73,3.71zm210.8 82.76c-4.25,0 -7.61,-1.23 -10.08,-3.71 -2.48,-2.48 -3.72,-5.84 -3.72,-10.08l0 -166.94c0.24,-18.39 4.66,-34.96 13.27,-49.7 8.6,-14.73 20.27,-26.35 35.01,-34.83 14.74,-8.49 31.3,-12.74 49.69,-12.74 18.87,0 35.73,4.31 50.58,12.91 14.86,8.61 26.59,20.34 35.19,35.19 8.61,14.86 12.91,31.72 12.91,50.58 0,18.63 -4.18,35.37 -12.55,50.23 -8.37,14.85 -19.75,26.58 -34.13,35.19 -14.39,8.61 -30.66,12.91 -48.81,12.91 -15.8,0 -30.13,-3.36 -42.98,-10.08 -12.85,-6.72 -23.16,-15.62 -30.94,-26.71l0 103.99c0,4.24 -1.24,7.6 -3.72,10.08 -2.47,2.48 -5.72,3.71 -9.72,3.71zm84.17 -105.75c13.68,0 25.94,-3.18 36.79,-9.55 10.84,-6.37 19.39,-15.15 25.64,-26.35 6.25,-11.2 9.37,-23.76 9.37,-37.67 0,-14.14 -3.12,-26.76 -9.37,-37.84 -6.25,-11.08 -14.8,-19.87 -25.64,-26.35 -10.85,-6.49 -23.11,-9.73 -36.79,-9.73 -13.44,0 -25.58,3.24 -36.43,9.73 -10.84,6.48 -19.33,15.27 -25.46,26.35 -6.13,11.08 -9.2,23.7 -9.2,37.84 0,13.91 3.07,26.47 9.2,37.67 6.13,11.2 14.62,19.98 25.46,26.35 10.85,6.37 22.99,9.55 36.43,9.55zm163.41 -96.2c0.71,-14.62 4.54,-27.71 11.5,-39.26 6.95,-11.56 16.03,-20.64 27.23,-27.24 11.2,-6.6 23.64,-9.9 37.31,-9.9 10.85,0 19.22,1.53 25.12,4.6 5.89,3.06 8.13,7.54 6.72,13.44 -0.95,3.53 -2.54,5.89 -4.78,7.07 -2.24,1.18 -4.95,1.65 -8.13,1.42 -3.19,-0.24 -6.78,-0.48 -10.79,-0.71 -13.21,-1.18 -24.94,0.18 -35.19,4.07 -10.26,3.89 -18.4,9.84 -24.41,17.86 -6.01,8.01 -9.02,17.56 -9.02,28.65l-15.56 0zm2.12 119.19c-4.24,0 -7.54,-1.18 -9.9,-3.54 -2.36,-2.35 -3.54,-5.66 -3.54,-9.9l0 -166.59c0,-4.24 1.18,-7.54 3.54,-9.9 2.36,-2.36 5.66,-3.54 9.9,-3.54 4.25,0 7.55,1.18 9.91,3.54 2.35,2.36 3.53,5.66 3.53,9.9l0 166.59c0,4.24 -1.18,7.55 -3.53,9.9 -2.36,2.36 -5.66,3.54 -9.91,3.54z"/>
 </g>
</svg>
