<svg width="56" height="55" viewBox="0 0 56 55" fill="none" xmlns="http://www.w3.org/2000/svg">
<path d="M52.9592 0H18.2617C13.5234 0 9.66797 3.85499 9.66797 8.59375V41.0352H2.14844C0.961962 41.0352 0 41.9971 0 43.1836V46.4062C0 51.145 3.85499 55 8.59375 55H40.0686C40.1043 55 40.14 55 40.1758 54.9996C40.2115 55 40.2477 55 40.2834 55C40.3557 55 40.4276 54.9966 40.4983 54.9895C45.0381 54.765 48.6623 51.0008 48.6623 46.4062C48.6623 45.2198 47.7004 44.2578 46.5139 44.2578C45.3274 44.2578 44.3654 45.2198 44.3654 46.4062C44.3654 48.7401 42.4958 50.6447 40.1758 50.7019C37.8558 50.6447 35.9865 48.7397 35.9865 46.4062V43.1836C35.9865 41.9971 35.0246 41.0352 33.8381 41.0352H13.9648V8.59375C13.9648 6.22458 15.8926 4.29688 18.2617 4.29688H45.5187C44.7855 5.56155 44.3654 7.02972 44.3654 8.59375V35.6641C44.3654 36.851 45.3274 37.8125 46.5139 37.8125C47.7004 37.8125 48.6623 36.851 48.6623 35.6641V8.59375C48.6623 6.22458 50.59 4.29688 52.9592 4.29688C54.1457 4.29688 55.1076 3.33491 55.1076 2.14844C55.1076 0.961962 54.1457 0 52.9592 0ZM32.8429 50.7031H8.59375C6.22458 50.7031 4.29688 48.7758 4.29688 46.4062V45.332H31.6897V46.4062C31.6897 47.9707 32.1097 49.4384 32.8429 50.7031Z" fill="url(#paint0_linear)"/>
<defs>
<linearGradient id="paint0_linear" x1="0" y1="28" x2="55" y2="28" gradientUnits="userSpaceOnUse">
<stop stop-color="#7B4AE2"/>
<stop offset="1" stop-color="#7B4AE2" stop-opacity="0"/>
</linearGradient>
</defs>
</svg>
