<svg width="55" height="58" viewBox="0 0 55 58" fill="none" xmlns="http://www.w3.org/2000/svg">
<path d="M55 30.5C55 39.3426 50.8256 47.211 44.3401 52.2419C39.6875 55.8517 33.8452 58 27.5 58C21.2121 58 15.4179 55.8898 10.7856 52.3383C4.22823 47.3131 0 39.3999 0 30.5C0 15.3122 12.3122 3 27.5 3C42.6878 3 55 15.3122 55 30.5Z" fill="#F2F2F2"/>
<path d="M9.03445 19.2345C8.33789 18.9182 7.7349 18.6729 7.24403 18.4883C7.14004 17.7145 7.06566 16.9393 7.01752 16.1617C6.9802 15.5215 7.00319 14.8895 7.08 14.2678C7.49785 14.3365 8.09042 14.4405 8.82836 14.5836C8.75588 15.4632 8.74912 16.3902 8.82836 17.3696C8.8784 17.995 8.94669 18.6172 9.03445 19.2345V19.2345ZM15.9177 23.2986C14.1569 22.0073 12.5039 21.0054 11.0675 20.2384C10.7765 18.4485 10.6515 16.6753 10.7617 14.987C12.0903 15.2804 13.6598 15.6586 15.3877 16.1391C15.2728 18.3965 15.4851 20.8246 15.9177 23.2986V23.2986ZM33.9959 24.2405C33.9793 24.4356 33.9563 24.6331 33.9354 24.8306C31.5301 26.0866 29.1372 27.7787 26.9856 30.0615C26.2891 30.7995 25.6551 31.5394 25.0751 32.2774C24.4248 31.4545 23.7297 30.6206 22.9922 29.7828C22.6617 29.4084 22.331 29.0449 21.9966 28.6914C21.4436 24.9884 21.0917 21.3342 21.0272 17.9099C25.3078 19.4299 29.9295 21.4921 33.9959 24.2405V24.2405Z" fill="#7B4AE2"/>
<path d="M9.55995 10.9852C9.20024 12.0768 8.93831 13.2761 8.82864 14.5836C8.09056 14.4406 7.49813 14.3366 7.08014 14.2679C7.12747 13.8772 7.19657 13.4903 7.28582 13.1101C7.80956 12.5462 8.56859 11.8001 9.55995 10.9852V10.9852Z" fill="#A884F3"/>
<path d="M17.9365 6.26599C16.6703 8.58826 15.6556 11.7168 15.3999 15.8934C15.3957 15.9746 15.3917 16.0576 15.3876 16.1386C13.6596 15.6583 12.0902 15.2804 10.762 14.987C10.764 14.9307 10.7682 14.8768 10.772 14.8205C10.9367 12.6313 11.5831 10.6234 12.5601 8.83964C14.0714 7.90616 15.8613 6.99974 17.9365 6.26599Z" fill="#7B4AE2"/>
<path d="M33.996 24.2405C29.9295 21.4922 25.3078 19.4299 21.0272 17.91C20.9447 13.8312 21.2625 10.0811 22.1063 6.97488C22.1293 6.88955 22.1522 6.80463 22.1775 6.72119C25.5722 8.72757 29.9959 10.9645 34.1954 11.9478C34.5614 15.6502 34.4512 19.8578 33.996 24.2405Z" fill="#A480F0"/>
<path d="M48.411 16.1616C48.307 17.8848 48.0619 19.5898 47.6793 21.2943C47.1945 21.3129 46.6374 21.3444 46.0182 21.3983C46.2905 20.0844 46.4904 18.7397 46.6002 17.3696C46.9684 12.7608 45.4795 9.24915 43.7565 6.79801C44.2617 6.94162 44.7397 7.08279 45.1866 7.22019C47.122 9.67322 48.6148 12.8247 48.411 16.1616V16.1616ZM44.1078 21.6208C42.7586 21.814 41.2364 22.1154 39.6297 22.5748C39.9979 20.2612 40.1578 18.0014 40.0285 15.8932C39.7356 11.085 38.4341 7.66684 36.9023 5.26587C38.3426 5.50292 39.7084 5.78352 40.9683 6.07872C42.9791 8.45306 44.4007 11.4151 44.6564 14.8208C44.8185 16.991 44.5858 19.3051 44.1078 21.6208V21.6208Z" fill="#966DEC"/>
<path d="M34.1952 11.9478C29.9957 10.9645 25.572 8.72759 22.1774 6.72121C22.3563 6.09997 22.5571 5.53418 22.7775 5.02099C23.3995 4.91497 24.0397 4.82775 24.6989 4.76094C27.3514 4.49089 30 4.51578 32.5218 4.72322C32.819 5.38056 33.0914 6.12674 33.3223 6.9749C33.7336 8.49053 34.0206 10.1598 34.1952 11.9478V11.9478Z" fill="#7B4AE2"/>
<path d="M16.065 2.48425C15.9257 2.56972 11.4146 5.34717 9.55984 10.985C8.56849 11.7997 7.80959 12.5463 7.28625 13.1098C8.51223 7.79155 13.4083 3.44694 16.065 2.48425V2.48425ZM18.9194 4.67765C18.5807 5.16001 18.2501 5.68807 17.9361 6.26631C15.8615 6.99992 14.0716 7.90636 12.5603 8.83997C13.7162 6.71892 15.3396 4.91281 17.171 3.48021C17.6056 3.78988 18.2 4.20151 18.9194 4.67765V4.67765Z" fill="#7B4AE2"/>
<path d="M45.1868 7.22023C44.7397 7.08284 44.2617 6.94153 43.7565 6.79805C41.7209 3.90038 39.3595 2.48211 39.3595 2.48211C40.9267 3.0479 43.2737 4.79437 45.1868 7.22023V7.22023ZM40.9682 6.07877C39.7083 5.78343 38.3425 5.50297 36.9023 5.26591C34.3181 1.20799 31.0728 0.0559831 30.9148 0.0020271C34.3949 0.698587 38.2285 2.84384 40.9682 6.07877ZM32.522 4.72338C30.0003 4.51526 27.3517 4.49052 24.6992 4.76097C24.0399 4.82737 23.3996 4.91459 22.7776 5.02102C24.6405 0.628267 27.6718 0 27.6718 0H27.7571C27.7571 0 30.651 0.598649 32.522 4.72338V4.72338ZM24.5141 0.00215916C24.3642 0.0540868 21.4284 1.09562 18.9191 4.67781C18.2003 4.20167 17.6058 3.79003 17.1708 3.48036C19.4596 1.69237 22.0735 0.490603 24.5141 0.00215916V0.00215916Z" fill="url(#paint0_linear)"/>
<path d="M27.7141 57H30.8293L31.9819 51.9708H23.4468L24.5994 57H27.7141Z" fill="#7B4AE2"/>
<path fill-rule="evenodd" clip-rule="evenodd" d="M15.9484 34.4872C16.5476 35.7266 17.1193 36.8325 17.6115 37.7556C18.4558 39.3356 19.2583 40.678 20.086 41.9007C20.325 41.063 20.6237 40.1795 20.9962 39.2644C20.3536 37.7908 19.7091 36.2084 19.0966 34.5597C17.7638 30.9781 16.5806 27.0824 15.918 23.2984C14.1572 22.0076 12.5042 21.0057 11.0673 20.2386C11.8907 25.3321 14.0546 30.5768 15.9484 34.4872V34.4872Z" fill="url(#paint1_linear)"/>
<path fill-rule="evenodd" clip-rule="evenodd" d="M13.1339 34.4229C13.4731 35.0153 13.826 35.6117 14.1919 36.2128C15.9027 39.0174 17.8781 41.6078 19.6366 43.7116C19.6886 43.4559 19.7491 43.1935 19.816 42.9259C19.1042 41.9485 18.4101 40.9547 17.8132 40.0335C16.957 38.7158 15.718 36.8053 14.4271 34.4539C12.2151 30.4208 9.85371 25.0908 9.0345 19.2345C8.33807 18.9182 7.73508 18.6734 7.2442 18.4883C7.95117 23.7397 9.95905 28.8929 13.1339 34.4229V34.4229Z" fill="url(#paint2_linear)"/>
<path fill-rule="evenodd" clip-rule="evenodd" d="M22.3062 30.6455C22.5285 31.9716 22.7885 33.3189 23.069 34.6494C23.0962 34.7763 23.123 34.9027 23.1501 35.0296C23.7111 34.1212 24.3499 33.2 25.075 32.2775C24.4028 31.4276 23.7083 30.5956 22.9922 29.7824C22.6621 29.4084 22.3311 29.0449 21.9966 28.6914C22.0939 29.3421 22.1956 29.9928 22.3062 30.6455Z" fill="url(#paint3_linear)"/>
<path fill-rule="evenodd" clip-rule="evenodd" d="M46.0182 21.3983C45.2257 25.2462 43.8298 28.8106 42.3456 31.8582C42.6454 32.1596 42.9386 32.4602 43.222 32.7575C45.3373 28.8255 46.8406 25.0634 47.6793 21.2942C47.1947 21.3134 46.6374 21.3438 46.0182 21.3983ZM39.63 22.5752C39.3398 24.4124 38.9203 26.2832 38.4146 28.1379C39.2889 28.9267 40.2458 29.8103 41.1858 30.717C42.3616 27.9089 43.4609 24.762 44.1081 21.6205C42.7585 21.8143 41.2366 22.1157 39.63 22.5752V22.5752Z" fill="#7B4AE2"/>
<path fill-rule="evenodd" clip-rule="evenodd" d="M26.9856 30.061C26.2892 30.7991 25.6551 31.5395 25.075 32.2776C27.6049 35.4748 29.4868 38.514 30.8484 41.0563C31.3435 39.1442 31.8568 37.0276 32.3158 34.8593C32.6134 33.4601 32.8878 32.0423 33.1224 30.6455C33.4512 28.6952 33.7256 26.7475 33.9354 24.8307C31.5301 26.0863 29.1377 27.7789 26.9856 30.061V30.061ZM42.3457 31.8582C42.2889 31.9749 42.2319 32.0908 42.1749 32.2059C40.4961 35.5944 38.7306 38.3155 37.6154 40.0334C36.3283 42.0152 34.5947 44.3375 33.2203 46.1145C33.2704 46.2457 33.3181 46.3682 33.3638 46.4846C35.492 44.1667 38.6649 40.4309 41.2367 36.2127C41.8817 35.154 42.4859 34.1105 43.0482 33.0789C43.1067 32.9716 43.1645 32.8646 43.2221 32.7575C42.9386 32.4603 42.6455 32.1596 42.3457 31.8582ZM38.4146 28.138L38.3479 28.3799C36.7173 34.2684 34.2336 39.9735 32.2681 43.9047C32.4823 44.3722 32.6755 44.8074 32.8463 45.2062C34.6615 43.0461 36.1575 40.8587 37.8171 37.7555C38.7289 36.0469 39.9108 33.7183 41.0373 31.0686L41.1858 30.717C40.2458 29.8103 39.289 28.9267 38.4146 28.138Z" fill="url(#paint4_linear)"/>
<path fill-rule="evenodd" clip-rule="evenodd" d="M29.3531 49.0293C30.6799 47.6549 31.8153 46.4346 32.8462 45.2062C32.6754 44.8074 32.4822 44.3723 32.268 43.9048C30.8756 46.6908 29.74 48.5861 29.3531 49.0293V49.0293Z" fill="url(#paint5_linear)"/>
<path fill-rule="evenodd" clip-rule="evenodd" d="M30.9815 48.9482C31.0521 48.8795 31.9919 47.9755 33.3638 46.4846C33.3181 46.3682 33.2704 46.2457 33.2204 46.1145C31.9919 47.7055 31.054 48.8608 30.9815 48.9482V48.9482Z" fill="url(#paint6_linear)"/>
<path fill-rule="evenodd" clip-rule="evenodd" d="M23.1501 35.0296C24.7176 42.362 26.8668 49.0875 26.8668 49.0875H28.5618C28.5618 49.0875 29.6528 45.6718 30.8483 41.0563C29.4867 38.514 27.6048 35.4748 25.0749 32.2776C24.3498 33.2001 23.711 34.1213 23.1501 35.0296Z" fill="url(#paint7_linear)"/>
<path fill-rule="evenodd" clip-rule="evenodd" d="M20.086 41.9007C21.7991 44.4453 23.6052 46.4684 26.0754 49.0292C25.4996 48.3705 23.2707 44.4973 20.9962 39.2644C20.6236 40.1795 20.3249 41.0629 20.086 41.9007Z" fill="url(#paint8_linear)"/>
<path fill-rule="evenodd" clip-rule="evenodd" d="M19.6366 43.7116C22.2227 46.8068 24.3413 48.8443 24.4491 48.9483C24.3351 48.8071 22.0008 45.938 19.8159 42.9259C19.7491 43.1935 19.6885 43.4559 19.6366 43.7116V43.7116Z" fill="url(#paint9_linear)"/>
<defs>
<linearGradient id="paint0_linear" x1="18.4168" y1="3.2452" x2="43.5302" y2="4.00627" gradientUnits="userSpaceOnUse">
<stop stop-color="#7B4AE2"/>
<stop offset="1" stop-color="#A480F0"/>
</linearGradient>
<linearGradient id="paint1_linear" x1="20.3454" y1="40.0337" x2="14.1679" y2="24.7574" gradientUnits="userSpaceOnUse">
<stop stop-color="#7B4AE2"/>
<stop offset="1" stop-color="#835DD3"/>
</linearGradient>
<linearGradient id="paint2_linear" x1="17.224" y1="41.2961" x2="11.0464" y2="26.0197" gradientUnits="userSpaceOnUse">
<stop stop-color="#7B4AE2"/>
<stop offset="1" stop-color="#926AE6"/>
</linearGradient>
<linearGradient id="paint3_linear" x1="25.8006" y1="37.8277" x2="19.623" y2="22.5512" gradientUnits="userSpaceOnUse">
<stop stop-color="#8A63DD"/>
<stop offset="1" stop-color="#7B4AE2"/>
</linearGradient>
<linearGradient id="paint4_linear" x1="38.0845" y1="28.8041" x2="29.1198" y2="38.5962" gradientUnits="userSpaceOnUse">
<stop stop-color="#7B4AE2"/>
<stop offset="1" stop-color="#BFA8F1"/>
</linearGradient>
<linearGradient id="paint5_linear" x1="31.7169" y1="47.9949" x2="24.0858" y2="35.1258" gradientUnits="userSpaceOnUse">
<stop stop-color="#7B4AE2"/>
<stop offset="1" stop-color="#B99EF0"/>
</linearGradient>
<linearGradient id="paint6_linear" x1="32.2044" y1="47.7059" x2="24.5732" y2="34.8368" gradientUnits="userSpaceOnUse">
<stop stop-color="#B9A2E9"/>
<stop offset="1" stop-color="#7B4AE2"/>
</linearGradient>
<linearGradient id="paint7_linear" x1="30.9069" y1="48.4752" x2="23.2757" y2="35.6061" gradientUnits="userSpaceOnUse">
<stop stop-color="#533199"/>
<stop offset="1" stop-color="#7B4AE2"/>
</linearGradient>
<linearGradient id="paint8_linear" x1="26.7004" y1="50.9696" x2="19.0692" y2="38.1005" gradientUnits="userSpaceOnUse">
<stop stop-color="#6020E7"/>
<stop offset="0.0001" stop-color="#7B4AE2"/>
<stop offset="0.776042" stop-color="#A988ED"/>
<stop offset="1" stop-color="#B69AF0"/>
</linearGradient>
<linearGradient id="paint9_linear" x1="25.2902" y1="51.8059" x2="17.6591" y2="38.9367" gradientUnits="userSpaceOnUse">
<stop stop-color="#9E81DB"/>
<stop offset="1" stop-color="#7B4AE2"/>
</linearGradient>
</defs>
</svg>
