<svg width="55" height="55" viewBox="0 0 55 55" fill="none" xmlns="http://www.w3.org/2000/svg">
<g clip-path="url(#clip0)">
<path d="M55 27.5C55 32.3625 53.7383 36.9297 51.5238 40.893C51.5238 40.8941 51.5238 40.8941 51.5238 40.8941C51.1052 41.6427 50.6529 42.3701 50.169 43.0727C49.4462 44.1233 48.6515 45.1212 47.7929 46.0584C44.0337 50.1677 39.0433 53.131 33.4053 54.3634C31.5026 54.7811 29.5272 55 27.5 55C25.4728 55 23.4963 54.7811 21.5936 54.3635C15.9567 53.13 10.9663 50.1678 7.20833 46.0596C6.37549 45.1504 5.60323 44.1851 4.8994 43.1704C4.38872 42.4374 3.91392 41.6775 3.47617 40.894C3.47617 40.8929 3.47617 40.8929 3.47617 40.8929C1.26167 36.9297 0 32.3625 0 27.5C0 12.3122 12.3122 0 27.5 0C42.6878 0 55 12.3122 55 27.5Z" fill="white"/>
<path d="M51.5373 19.5408V40.4969C51.5373 40.6293 51.5328 40.7618 51.5238 40.8942C50.4811 42.7609 49.2262 44.4928 47.7929 46.0587L33.4053 54.3637C31.5027 54.7812 29.5272 55.0001 27.5 55.0001C25.4729 55.0001 23.4963 54.7812 21.5936 54.3637L9.76971 47.5391L7.20823 46.0597C5.77372 44.4939 4.51882 42.7608 3.47607 40.8942C3.46705 40.7618 3.46265 40.6293 3.46265 40.4969V19.5408C3.46265 17.4374 4.58617 15.4943 6.40568 14.4415L24.5568 3.96346C26.3785 2.91062 28.6212 2.91062 30.4428 3.96346L44.9618 12.3459L48.594 14.4415C50.4136 15.4944 51.5373 17.4374 51.5373 19.5408Z" fill="#C83267"/>
<path d="M50.793 16.6786L4.89949 43.1706C4.38881 42.4377 3.914 41.6778 3.47626 40.8942C3.47626 40.8932 3.47626 40.8932 3.47626 40.8932C3.46723 40.7618 3.46283 40.6293 3.46283 40.497V19.5408C3.46283 17.4374 4.58528 15.4943 6.40587 14.4415L24.5569 3.96346C26.3775 2.91062 28.6202 2.91062 30.4419 3.96346L44.9619 12.3459L48.5942 14.4415C49.5315 14.9837 50.2834 15.7638 50.793 16.6786Z" fill="#D95583"/>
<path d="M51.5372 19.5407V40.4968C51.5372 40.6292 51.5327 40.7617 51.5238 40.8929C51.5238 40.894 51.5238 40.894 51.5238 40.894C51.1052 41.6426 50.6528 42.37 50.169 43.0726L27.619 30.0556L50.7931 16.6782C51.2734 17.5405 51.5372 18.5216 51.5372 19.5407Z" fill="#C83267"/>
<path d="M34.5537 34.0578C33.1782 36.535 30.5363 38.2112 27.5015 38.2112C23.0492 38.2112 19.44 34.6019 19.44 30.1496C19.44 25.6973 23.0492 22.088 27.5015 22.088C30.4776 22.088 33.0758 23.7003 34.4731 26.0986L41.6009 21.9838C38.7828 17.1251 33.5226 13.8584 27.5015 13.8584C18.5045 13.8584 11.2106 21.1507 11.2106 30.1494C11.2106 39.1464 18.5046 46.4403 27.5015 46.4403C33.5813 46.4403 38.8834 43.1099 41.6814 38.1723L34.5537 34.0578Z" fill="#F2F2F2"/>
<path d="M43.4954 28.9775H41.6433V27.1255H39.8474V28.9775H37.9954V30.7734H39.8474V32.6255H41.6433V30.7734H43.4954V28.9775Z" fill="#F2F2F2"/>
<path d="M50.2301 28.9775H48.378V27.1255H46.5822V28.9775H44.7301V30.7734H46.5822V32.6255H48.378V30.7734H50.2301V28.9775Z" fill="#F2F2F2"/>
</g>
<defs>
<clipPath id="clip0">
<rect width="55" height="55" fill="white"/>
</clipPath>
</defs>
</svg>
