<svg width="55" height="55" viewBox="0 0 55 55" fill="none" xmlns="http://www.w3.org/2000/svg">
<path d="M55 27.5C55 36.3426 50.8256 44.211 44.3401 49.2419C39.6875 52.8517 33.8452 55 27.5 55C21.1548 55 15.3125 52.8517 10.6599 49.2419C4.17441 44.211 0 36.3426 0 27.5C0 12.3122 12.3122 0 27.5 0C42.6878 0 55 12.3122 55 27.5Z" fill="#F2F2F2"/>
<path d="M47.4796 12.8341L44.3401 49.2419C39.6876 52.8517 33.8452 55 27.5 55C21.1548 55 15.3125 52.8517 10.6599 49.2419L7.5204 12.8341H47.4796Z" fill="#7B4AE2"/>
<path d="M27.4997 16.257V54.2798L40.6344 50.5717L43.5644 16.257H27.4997Z" fill="#9974E8"/>
<path d="M39.1054 31.1295H29.6323L39.5312 26.0918L39.9589 21.0275H15.0405L15.4765 26.1907H25.4793L15.8818 30.9896L16.3283 36.2789H33.4486L32.8874 42.5784L27.4997 44.0377L21.8874 42.4662L21.7471 38.5377H16.5191L17.1731 46.2826L27.4997 49.2009L37.8262 46.2826L39.1058 31.1287L39.1054 31.1295Z" fill="white"/>
<path d="M17.7624 7.22134V3.62948H22.9256V1.68396H15.8917V9.16686H22.9256V7.22134H17.7624Z" fill="#090E16"/>
<path d="M25.9469 4.61164V3.71359H31.0822V3.62948V1.68396H24.0481V6.3233H29.0897V7.22134H24.0481V9.16686H31.0822V7.22134V4.61164H25.9469Z" fill="#090E16"/>
<path d="M33.9724 4.61164V3.71359H39.1076V3.62948V1.68396H32.0736V6.3233H37.1152V7.22134H32.0736V9.16686H39.1076V7.22134V4.61164H33.9724Z" fill="#090E16"/>
</svg>
