<svg width="55" height="55" viewBox="0 0 55 55" fill="none" xmlns="http://www.w3.org/2000/svg">
<path d="M46.8769 7.35967C41.6915 2.61368 34.8099 0 27.5 0C20.1902 0 13.3087 2.61368 8.1233 7.35967C2.88499 12.154 7.163e-05 18.5437 7.163e-05 25.3515C7.163e-05 30.6608 1.73622 35.6912 5.03493 39.9793L0.156692 52.0461C-0.171051 52.8568 0.0252083 53.7853 0.653088 54.3939C1.06236 54.7906 1.60141 54.9999 2.14904 54.9999C2.44155 54.9999 2.73653 54.9402 3.01518 54.8174L16.8356 48.7251C20.2131 50.038 23.7962 50.703 27.5 50.703C32.136 50.703 36.7198 49.6196 40.7557 47.5698C41.8136 47.0324 42.2357 45.7393 41.6984 44.6813C41.161 43.6234 39.8679 43.2015 38.8099 43.7387C35.3739 45.4837 31.4631 46.4062 27.5 46.4062C24.0568 46.4062 20.7413 45.7365 17.6455 44.4157C17.0987 44.1824 16.4797 44.1862 15.9358 44.4259L6.12332 48.7514L9.49271 40.4167C9.79274 39.6745 9.65535 38.8269 9.13596 38.2177C5.97025 34.5038 4.29694 30.0548 4.29694 25.3515C4.29694 13.7419 14.7058 4.29687 27.5 4.29687C40.2943 4.29687 50.7031 13.7419 50.7031 25.3515C50.7031 29.3493 49.4626 33.2391 47.1154 36.6001C46.4361 37.5729 46.6739 38.9122 47.6469 39.5915C48.6194 40.271 49.9591 40.0329 50.6383 39.0601C53.4918 34.9741 55 30.2337 55 25.3515C55 18.5437 52.1152 12.154 46.8769 7.35967Z" fill="url(#paint0_linear)"/>
<defs>
<linearGradient id="paint0_linear" x1="-0.000366211" y1="27" x2="54.5" y2="27" gradientUnits="userSpaceOnUse">
<stop stop-color="#C83267"/>
<stop offset="1" stop-color="#C83267" stop-opacity="0"/>
</linearGradient>
</defs>
</svg>
