<svg width="55" height="55" viewBox="0 0 55 55" fill="none" xmlns="http://www.w3.org/2000/svg">
<path d="M55 27.5C55 42.6878 42.6878 55 27.5 55C12.3122 55 0 42.6878 0 27.5C0 12.3122 12.3122 0 27.5 0C41.5182 0 53.0862 10.4893 54.7845 24.0474C54.9079 25.0273 54.9798 26.0228 54.9955 27.032C54.9989 27.1879 55 27.344 55 27.5Z" fill="#C83267"/>
<path d="M54.9955 27.0321C52.6473 29.8921 48.0463 29.6687 48.0463 29.6687C45.2088 41.8933 28.0723 48.1151 16.1744 45.0586C4.27763 42.0032 5.9142 27.8132 5.9142 27.8132H40.7337C43.6071 27.8132 43.8261 26.94 43.8261 26.94C41.2792 20.9001 45.2089 17.6619 45.2089 17.6619C48.2654 18.2085 49.0286 23.447 49.0286 23.447C51.5372 22.9969 53.552 23.5323 54.7845 24.0475C54.9079 25.0274 54.9798 26.0229 54.9955 27.0321Z" fill="#F2F2F2"/>
<path d="M14.5009 22.283H9.625V26.7216H14.5009V22.283Z" fill="#F2F2F2"/>
<path d="M20.6283 22.283H15.7524V26.7216H20.6283V22.283Z" fill="#F2F2F2"/>
<path d="M39.0084 22.283H34.1325V26.7216H39.0084V22.283Z" fill="#F2F2F2"/>
<path d="M32.882 22.283H28.0062V26.7216H32.882V22.283Z" fill="#F2F2F2"/>
<path d="M32.882 10.9316H28.0062V15.3703H32.882V10.9316Z" fill="#F2F2F2"/>
<path d="M26.7546 22.283H21.8787V26.7216H26.7546V22.283Z" fill="#F2F2F2"/>
<path d="M20.6283 16.6067H15.7524V21.0454H20.6283V16.6067Z" fill="#F2F2F2"/>
<path d="M32.882 16.6067H28.0062V21.0454H32.882V16.6067Z" fill="#F2F2F2"/>
<path d="M26.7546 16.6067H21.8787V21.0454H26.7546V16.6067Z" fill="#F2F2F2"/>
</svg>
