<svg width="300" height="209" viewBox="0 0 300 209" fill="none" xmlns="http://www.w3.org/2000/svg">
<path d="M45.6424 141.957H41.7994C41.7994 145.225 40.0784 146.794 37.108 146.794C34.4583 146.794 32.1686 145.481 32.1686 141.033V137.187C32.1686 132.73 34.4583 131.417 37.108 131.417C40.0784 131.417 41.7994 132.936 41.7994 136.254H45.6424V135.908C45.6424 130.782 42.2798 127.984 37.0843 127.984C32.2806 127.984 28.3578 130.609 28.3578 136.956V141.288C28.3578 147.611 32.3129 150.202 37.0843 150.202C42.2798 150.202 45.6424 147.437 45.6424 142.312V141.957V141.957ZM58.3881 143.591C58.3881 145.894 56.9796 147.173 54.9457 147.173C52.9122 147.173 51.5031 145.861 51.5031 143.591V140.942C51.5031 138.639 52.9122 137.36 54.9457 137.36C56.9796 137.36 58.3881 138.639 58.3881 140.942V143.591ZM61.6709 140.595C61.6709 136.716 58.8685 134.306 54.9457 134.306C51.0233 134.306 48.2209 136.716 48.2209 140.595V143.938C48.2209 147.817 51.0233 150.202 54.9457 150.202C58.8685 150.202 61.6709 147.817 61.6709 143.938V140.595ZM60.0853 132.466L56.6111 128.215H53.2807L49.6939 132.466H53.5607L54.9217 130.609L56.2989 132.466H60.0853ZM77.4989 149.88V139.341C77.4989 136.37 75.7134 134.364 72.8076 134.364C71.6787 134.389 70.6298 134.62 69.501 135.354L67.9238 136.345V134.537H64.5293V149.88H67.9483V139.547L70.1256 138.202C70.7422 137.822 71.3102 137.533 72.0709 137.533C73.4319 137.533 74.0481 138.639 74.0481 139.803V149.88H77.4989ZM93.3747 144.904H90.1003C90.1003 146.563 88.8038 147.256 86.8819 147.256C84.937 147.256 83.5201 146.298 83.5201 144.111V143.36H93.4069V140.653C93.4069 136.601 90.725 134.306 86.8504 134.306C83.0155 134.306 80.2694 136.716 80.2694 140.595V144.235C80.2694 147.99 83.0155 150.145 86.8504 150.145C90.781 150.145 93.3747 148.164 93.3747 145.044V144.904V144.904ZM90.1886 141H83.5201V140.62C83.5201 138.408 84.7928 137.212 86.8819 137.212C88.9399 137.212 90.1886 138.408 90.1886 140.595V141V141ZM104.456 148.89C106.009 148.89 107.002 149.294 107.002 150.607C107.002 152.125 105.76 152.794 103.383 152.794C100.701 152.794 99.8522 151.63 99.8522 149.534V148.89H104.456ZM102.03 141.759C100.421 141.759 99.4841 141.09 99.4841 139.547C99.4841 137.765 100.477 137.244 102.086 137.244H103.383C104.992 137.244 105.929 137.971 105.929 139.489C105.929 141.057 104.912 141.759 103.103 141.759H102.03ZM103.583 144.318C106.889 144.318 108.979 142.543 108.979 139.605C108.979 138.119 108.242 137.508 108.242 137.508H110.364V134.537H101.75C98.4675 134.537 96.2657 136.196 96.2657 139.457C96.2657 141.495 97.3386 142.37 97.3386 142.37C96.1856 142.692 95.337 143.682 95.337 145.341C95.337 146.769 95.8734 147.636 96.8022 148.073V149.616C96.8022 153.314 98.8675 155.443 103.439 155.443C107.482 155.443 110.276 153.727 110.276 150.524C110.276 147.669 108.386 146.298 104.936 146.298H99.1801C98.5873 146.298 98.2191 145.952 98.2191 145.341C98.2191 144.639 98.5554 144.318 99.236 144.318H103.583ZM122.117 143.591C122.117 145.894 120.708 147.173 118.675 147.173C116.641 147.173 115.232 145.861 115.232 143.591V140.942C115.232 138.639 116.641 137.36 118.675 137.36C120.708 137.36 122.117 138.639 122.117 140.942V143.591ZM125.399 140.595C125.399 136.716 122.598 134.306 118.675 134.306C114.752 134.306 111.95 136.716 111.95 140.595V143.938C111.95 147.817 114.752 150.202 118.675 150.202C122.598 150.202 125.399 147.817 125.399 143.938V140.595ZM134.712 149.88C134.712 149.88 134.744 149.88 135.192 149.88H135.816C140.02 149.88 141.461 147.577 141.461 143.418V128.215H137.594V144.549C137.594 145.803 136.913 146.529 135.704 146.529H134.712V149.88V149.88ZM154.719 143.591C154.719 145.894 153.31 147.173 151.277 147.173C149.243 147.173 147.834 145.861 147.834 143.591V140.942C147.834 138.639 149.243 137.36 151.277 137.36C153.31 137.36 154.719 138.639 154.719 140.942V143.591ZM158.001 140.595C158.001 136.716 155.199 134.306 151.277 134.306C147.354 134.306 144.551 136.716 144.551 140.595V143.938C144.551 147.817 147.354 150.202 151.277 150.202C155.199 150.202 158.001 147.817 158.001 143.938V140.595ZM173.229 139.514V139.341C173.229 136.221 171.027 134.306 166.937 134.306C163.062 134.306 160.612 136.081 160.612 139.11C160.612 145.481 169.955 142.254 169.955 145.423C169.955 146.529 168.858 147.322 166.904 147.322C164.927 147.322 163.798 146.563 163.798 144.928H160.356V145.102C160.356 148.221 162.726 150.111 166.848 150.111C170.779 150.111 173.285 148.337 173.285 145.341C173.285 139.052 163.943 142.543 163.943 139.019C163.943 137.946 164.927 137.129 166.848 137.129C168.77 137.129 169.874 137.888 169.874 139.514H173.229ZM188.745 144.904H185.471C185.471 146.563 184.173 147.256 182.252 147.256C180.307 147.256 178.89 146.298 178.89 144.111V143.36H188.777V140.653C188.777 136.601 186.095 134.306 182.22 134.306C178.386 134.306 175.639 136.716 175.639 140.595V144.235C175.639 147.99 178.386 150.145 182.22 150.145C186.151 150.145 188.745 148.164 188.745 145.044V144.904V144.904ZM185.559 141H178.89V140.62C178.89 138.408 180.163 137.212 182.252 137.212C184.31 137.212 185.559 138.408 185.559 140.595V141ZM183.525 132.466L187.168 128.215H182.821L179.771 132.466H183.525ZM203.261 146.62V140.447H208.512C210.234 140.447 211.675 141.528 211.675 143.624C211.675 145.655 210.346 146.62 208.649 146.62H203.261V146.62ZM203.261 137.244V131.393H208.089C209.866 131.393 211.139 132.268 211.139 134.216C211.139 136.163 209.81 137.244 208.033 137.244H203.261V137.244ZM209.441 149.88C212.58 149.88 215.518 147.817 215.518 143.797C215.518 139.572 212.235 138.557 212.235 138.557C212.235 138.557 214.837 137.269 214.837 133.836C214.837 129.932 212.179 128.215 208.937 128.215H199.53V149.88H209.441V149.88ZM230.97 144.904H227.695C227.695 146.563 226.398 147.256 224.477 147.256C222.532 147.256 221.115 146.298 221.115 144.111V143.36H231.001V140.653C231.001 136.601 228.32 134.306 224.445 134.306C220.61 134.306 217.864 136.716 217.864 140.595V144.235C217.864 147.99 220.61 150.145 224.445 150.145C228.376 150.145 230.97 148.164 230.97 145.044V144.904V144.904ZM227.783 141H221.115V140.62C221.115 138.408 222.388 137.212 224.477 137.212C226.534 137.212 227.783 138.408 227.783 140.595V141ZM246.829 149.88V139.341C246.829 136.37 245.044 134.364 242.138 134.364C241.01 134.389 239.961 134.62 238.832 135.354L237.255 136.345V134.537H233.861V149.88H237.279V139.547L239.457 138.202C240.073 137.822 240.641 137.533 241.402 137.533C242.763 137.533 243.379 138.639 243.379 139.803V149.88H246.829ZM258.391 149.88V146.827H256.638C254.973 146.827 254.18 146.208 254.18 144.408V137.533H258.303V134.537H254.18V130.369H250.682V134.537H248.424V137.533H250.682V144.606C250.682 148.106 252.908 149.88 256.358 149.88H258.391V149.88ZM269.977 143.591C269.977 145.894 268.568 147.173 266.534 147.173C264.501 147.173 263.092 145.861 263.092 143.591V140.942C263.092 138.639 264.501 137.36 266.534 137.36C268.568 137.36 269.977 138.639 269.977 140.942V143.591ZM273.26 140.595C273.26 136.716 270.458 134.306 266.534 134.306C262.612 134.306 259.81 136.716 259.81 140.595V143.938C259.81 147.817 262.612 150.202 266.534 150.202C270.458 150.202 273.26 147.817 273.26 143.938V140.595Z" fill="#FEFEFE"/>
<path d="M200.731 178.996C200.731 178.996 200.758 178.996 201.122 178.996H201.631C205.051 178.996 206.224 177.177 206.224 173.894V161.892H203.077V174.786C203.077 175.777 202.523 176.35 201.539 176.35H200.731V178.996V178.996ZM216.916 175.386L215.17 176.331C214.48 176.696 213.834 176.923 213.079 176.923C212.16 176.923 211.632 176.422 211.632 175.568C211.632 174.767 212.023 173.985 213.698 173.985H216.916V175.386V175.386ZM219.653 178.996V171.203C219.653 168.31 217.744 166.655 214.434 166.655C211.287 166.655 209.124 168.192 209.124 170.929V171.085H211.834C211.834 169.665 212.798 168.974 214.454 168.974C216.043 168.974 216.936 169.73 216.936 171.294V172.011H213.333C210.824 172.011 208.85 173.177 208.85 175.712C208.85 177.751 210.297 179.159 212.46 179.159C213.652 179.159 214.525 178.878 215.653 178.285L216.916 177.594V178.996H219.653ZM232.62 174.376H229.929C229.929 176.096 228.984 176.787 227.375 176.787C225.791 176.787 224.872 175.959 224.872 174.213V171.685C224.872 169.938 225.791 169.111 227.375 169.111C228.984 169.111 229.929 169.821 229.929 171.548H232.62V171.339C232.62 168.31 230.528 166.7 227.375 166.7C224.247 166.7 222.155 168.446 222.155 171.457V174.467C222.155 177.477 224.247 179.204 227.375 179.204C230.528 179.204 232.62 177.614 232.62 174.584V174.376V174.376ZM242.778 175.386L241.032 176.331C240.341 176.696 239.696 176.923 238.94 176.923C238.021 176.923 237.494 176.422 237.494 175.568C237.494 174.767 237.884 173.985 239.559 173.985H242.778V175.386V175.386ZM245.514 178.996V171.203C245.514 168.31 243.605 166.655 240.295 166.655C237.148 166.655 234.985 168.192 234.985 170.929V171.085H237.695C237.695 169.665 238.66 168.974 240.315 168.974C241.905 168.974 242.797 169.73 242.797 171.294V172.011H239.194C236.685 172.011 234.711 173.177 234.711 175.712C234.711 177.751 236.158 179.159 238.321 179.159C239.513 179.159 240.386 178.878 241.514 178.285L242.778 177.594V178.996H245.514ZM251.098 178.996V171.229L252.043 170.447C252.845 169.821 253.535 169.619 254.591 169.619H255.281V166.791H254.571C253.372 166.791 252.48 167.228 251.58 168.075L251.053 168.603V166.883H248.271V178.996H251.098V178.996ZM267.485 175.066H264.821C264.821 176.376 263.765 176.923 262.201 176.923C260.618 176.923 259.465 176.168 259.465 174.441V173.848H267.511V171.711C267.511 168.512 265.329 166.7 262.175 166.7C259.054 166.7 256.819 168.603 256.819 171.665V174.539C256.819 177.503 259.054 179.204 262.175 179.204C265.374 179.204 267.485 177.64 267.485 175.177V175.066ZM264.892 171.984H259.465V171.685C259.465 169.938 260.501 168.994 262.201 168.994C263.876 168.994 264.892 169.938 264.892 171.665V171.984V171.984ZM272.613 165.247L275.578 161.892H272.04L269.558 165.247H272.613V165.247ZM273.05 178.996V166.883H270.196V178.996H273.05Z" fill="#FEFEFE"/>
<path d="M27.7218 114.115V23H88.2369V37.4535H44.0221V60.7171H83.58V75.171H44.0221V99.539H88.4711V114.115H27.7218Z" fill="#FEFEFE"/>
<path d="M130.521 114.115C115.58 114.115 105.907 106.645 105.907 91.952V62.1896H96.118V49.5807H105.907V32.0654H121.097V49.5807H138.97V62.1896H121.097V91.097C121.097 98.6811 124.529 101.26 131.758 101.26H139.347V114.115H130.521Z" fill="#FEFEFE"/>
<path d="M190.189 75.0507C190.189 65.8593 184.804 60.8377 175.858 60.8377C166.789 60.8377 161.286 65.8593 161.286 75.1701V76.7621H190.189V75.0507V75.0507ZM204.028 93.7905C204.028 106.889 192.77 115.217 175.739 115.217C159.085 115.217 147.21 106.154 147.21 90.3531V75.0507C147.21 58.7596 159.085 48.5889 175.739 48.5889C192.523 48.5889 204.145 58.2724 204.145 75.2927V86.6848H161.286V89.8688C161.286 99.0576 167.416 103.096 175.858 103.096C184.194 103.096 189.818 100.153 189.818 93.1697H204.028V93.7905V93.7905Z" fill="#FEFEFE"/>
<path d="M272.659 90.6072C272.659 106.764 261.514 115.217 244.727 115.217C228.068 115.217 216.935 106.033 216.935 89.9882V73.9455C216.935 57.9053 228.068 48.5889 244.727 48.5889C261.514 48.5889 272.659 57.164 272.659 73.3325V74.4359H258.334C258.334 65.2506 253.307 61.456 244.727 61.456C236.279 61.456 231.38 65.859 231.38 75.1697V88.635C231.38 97.9493 236.279 102.358 244.727 102.358C253.307 102.358 258.334 98.6803 258.334 89.4996H272.659V90.6072V90.6072Z" fill="#FEFEFE"/>
</svg>
