<?xml version="1.0" encoding="UTF-8"?>
<!DOCTYPE svg PUBLIC "-//W3C//DTD SVG 1.1//EN" "http://www.w3.org/Graphics/SVG/1.1/DTD/svg11.dtd">
<!-- Creator: CorelDRAW 2019 (64-Bit) -->
<svg xmlns="http://www.w3.org/2000/svg" xml:space="preserve" width="84.6666mm" height="84.6666mm" version="1.1" style="shape-rendering:geometricPrecision; text-rendering:geometricPrecision; image-rendering:optimizeQuality; fill-rule:evenodd; clip-rule:evenodd"
viewBox="0 0 8466.66 8466.66"
 xmlns:xlink="http://www.w3.org/1999/xlink">
 <defs>
  <style type="text/css">
   <![CDATA[
    .str0 {stroke:#FEFEFE;stroke-width:67.73;stroke-miterlimit:22.9256}
    .str1 {stroke:#FEFEFE;stroke-width:16.93;stroke-miterlimit:22.9256}
    .fil0 {fill:none}
    .fil2 {fill:#FEFEFE}
    .fil1 {fill:#090E16}
    .fil4 {fill:#FEFEFE}
    .fil3 {fill:white}
   ]]>
  </style>
 </defs>
 <g id="Layer_x0020_1">
  <metadata id="CorelCorpID_0Corel-Layer"/>
  <rect class="fil0" x="-0.01" y="-0.02" width="8466.67" height="8466.67"/>
  <g id="_1749994270480">
   <g>
    <path class="fil1 str0" d="M3219.32 1717.92c38.21,-21.21 133.7,-141.54 385.18,-260.77 326.58,-154.84 753.32,-159.3 1093.41,-36.16 80.43,29.12 149.31,68.25 215.82,108.44 39.55,23.87 156.68,109.49 185.51,141.04l677.68 209.98c98.61,30.95 89.59,18.8 86.32,133.57 -15.9,558.77 -111.42,1133.21 -359.88,1629.94 -26.02,52.05 -137.62,254.01 -165.84,272.16 -13.12,104.27 -43.25,227.74 -71,329.31 -17.47,64.02 -35.27,97.62 -72.52,128.28 -109.9,90.43 -269.16,98.42 -399.52,110.99 -23.55,2.27 -51.98,20.13 -71.8,30.09 -39.26,19.77 -246.44,133.53 -266.03,137.01 7.23,-28.71 39.14,-154.77 37.28,-176.15 -212.26,-25.34 -223.55,-52.87 -378.82,-79.72l15.35 334.95c-25.56,-10.31 -62.16,-29.47 -86.35,-42.92 -49.22,-27.35 -118.93,-210.98 -136.62,-264.61 -35.08,-106.36 -92.14,-329.74 -85.67,-447.99 21.61,10.85 63.99,45.64 85.46,62.47 104.26,81.83 155.85,118.75 290.91,172.09 156.25,61.71 324.03,98.52 508.57,108.77 202.94,11.24 400.21,14.37 476.57,-140.72 30.19,-61.32 34.98,-184.18 47.7,-261.56 37.11,-225.15 99.98,-454.97 60.33,-686.58 -29.91,-174.65 22.4,-340.13 -75.68,-387.07 -57.84,-27.68 -201.79,-32.54 -272.61,-35.05 -280.93,-9.85 -557.36,29.26 -824.18,100.03 -35.38,9.38 -230.49,56.43 -239.44,78.43 -18.4,45.18 -44.29,341.2 -82.76,371.33 -18.08,14.16 -67.59,21.24 -93.47,20.95 -77.91,-0.9 -65.03,-68.47 -136.72,-95.65 -118.25,-44.85 -344.49,-6.64 -217.01,263.32 39.51,83.68 109.65,130.01 193.21,156.54 23.65,7.51 74.66,11.78 91.92,24.44 -31.6,88.56 -65.61,178.7 -84.38,278.74 -19.77,105.17 -28.79,214.15 -46.48,318.35 -13.09,-6.4 -78.37,-65.39 -88.8,-77.14 -18.51,-20.81 -76,-71.35 -80.85,-87.16 -19.85,-10.96 -74.6,-79.69 -94.27,-103.02 -143.91,-170.87 -271.93,-406.94 -358.46,-619.04 -33.01,-80.8 -81.08,-203.94 -100.52,-292.76l1.54 -2.19c-31.78,-52.58 -90.45,-364.03 -103.89,-448.68 -25.92,-163.18 -44.91,-327.44 -55.16,-494.93 -18.55,-302.86 -35.55,-284.1 76.65,-319.04l519.32 -162.31zm1001.24 -548.24c-130.11,29.01 -257.31,63.18 -386.16,95.39 -129.71,32.42 -257.55,62.98 -386.79,96.87 -256.3,67.14 -489.8,149.01 -738.98,223.45 -141.4,42.24 -245.47,66.78 -312.56,165.99 -84.41,124.87 -63.31,249.95 -53.96,413.67 16.75,294.37 50.15,571.14 113.39,849.8 56.55,249.34 143.15,508.96 247.38,714.83 55.47,109.63 111.09,210.31 173.79,304.55 32.6,49.1 64.92,94.96 100.51,141.18 91.75,119.08 123.21,151.22 225.28,253.26l91.96 88.06c122.99,124.26 461.68,340.96 614.33,414.82 100.38,48.56 223.47,135.97 354.59,126.59 100.12,-7.19 255.36,-100.67 336,-142.15 169.18,-87.02 427.81,-255.63 573.27,-388.9 84.63,-77.5 166.57,-155.78 239.69,-243.99 328.92,-396.56 500.69,-780 618.72,-1305.38 61.19,-272.19 94.12,-569.44 106.88,-855.84 7.19,-161.64 21.72,-291 -74.74,-393.75 -89.95,-95.83 -186.55,-110.39 -330.29,-153.55 -246.62,-74.08 -485.91,-161.21 -738.4,-223.82 -90.16,-22.36 -738.39,-188.99 -773.91,-181.08z"/>
    <path class="fil2" d="M2974.42 3036.13c-14.1,-480.38 -49.47,-771.41 233.61,-1146.98 27.1,-35.94 138.95,-154.27 180.26,-169.29 22.22,-8.09 1.54,-9.63 67.44,-41.12 225.02,-107.51 551.45,-129 749.87,13.26 148.62,106.57 217.5,268.82 247.2,457.59 6.83,43.35 17.47,64.31 -8.12,96.12 -14.49,18.04 -39.91,41.83 -46.56,66.95 31.13,-4.27 73.81,-16.78 104.51,-24.15 21.42,-5.1 80.85,-16.96 98.25,-27.57 -4.74,-209.83 -78.51,-426.17 -179.25,-553.3 -47.35,-59.71 -115.73,-122.64 -200.65,-164.51 -96.13,-47.41 -180,-60.1 -297.56,-70.52 101.35,-42.13 343.01,-33.47 456.68,-11.43 131.34,25.45 262.67,80.73 355.96,142.94 109.76,73.14 189.82,145.1 264.21,240.07 54.03,68.97 154.66,218.13 181.58,319.63l-226.67 72.68c-67.48,22.29 -62.55,11.25 -57.48,39.9 29.58,10.46 190.25,18.51 235.15,22.71 156.82,14.75 285.42,13.38 386.58,126.81 26.5,29.69 76.47,121.63 76.65,177.78 -360.48,-100.25 -1042.11,10.24 -1417.44,70.27 -405.14,64.77 -568.36,113.43 -928.59,250.02 -46.73,17.71 -95.7,35.47 -143.3,52.18 -48.53,17.08 -89.52,46.12 -132.33,59.96zm244.9 -1318.21l-112.6 126.41c-106.45,129.72 -190.73,292.58 -236.67,463.27 -38.03,141.44 -107.28,700.71 -87.65,835.28l-1.54 2.19c0.93,1.05 1.97,2.55 2.55,3.34l4.82 6.62c2.76,4.17 3.48,5.64 6.11,9.95 3.77,6.15 6.69,11.26 9.78,15.75 20.85,30.55 58.85,48.16 96.16,58.05 64.47,17.07 111.31,17.86 151.97,59.09 32.11,32.52 136.08,202.93 168.72,253.21l122.85 196.18c16.1,22.72 29.15,36.63 41.12,61.53 19.63,40.84 7.63,142.42 1.08,192.99 -8.77,67.61 -25.53,108.44 -51.91,158.11 4.85,15.81 62.34,66.35 80.85,87.16 10.43,11.75 75.71,70.74 88.8,77.14 17.69,-104.2 26.71,-213.18 46.48,-318.35 18.77,-100.04 52.78,-190.18 84.38,-278.74 -17.26,-12.66 -68.27,-16.93 -91.92,-24.44 -83.56,-26.53 -153.7,-72.86 -193.21,-156.54 -127.48,-269.96 98.76,-308.17 217.01,-263.32 71.69,27.18 58.81,94.75 136.72,95.65 25.88,0.29 75.39,-6.79 93.47,-20.95 38.47,-30.13 64.36,-326.15 82.76,-371.33 8.95,-22 204.06,-69.05 239.44,-78.43 266.82,-70.77 543.25,-109.88 824.18,-100.03 70.82,2.51 214.77,7.37 272.61,35.05 98.08,46.94 45.77,212.42 75.68,387.07 39.65,231.61 -23.22,461.43 -60.33,686.58 -12.72,77.38 -17.51,200.24 -47.7,261.56 -76.36,155.09 -273.63,151.96 -476.57,140.72 -184.54,-10.25 -352.32,-47.06 -508.57,-108.77 -135.06,-53.34 -186.65,-90.26 -290.91,-172.09 -21.47,-16.83 -63.85,-51.62 -85.46,-62.47 -6.47,118.25 50.59,341.63 85.67,447.99 17.69,53.63 87.4,237.26 136.62,264.61 24.19,13.45 60.79,32.61 86.35,42.92l-15.35 -334.95c155.27,26.85 166.56,54.38 378.82,79.72 1.86,21.38 -30.05,147.44 -37.28,176.15 19.59,-3.48 226.77,-117.24 266.03,-137.01 19.82,-9.96 48.25,-27.82 71.8,-30.09 130.36,-12.57 289.62,-20.56 399.52,-110.99 37.25,-30.66 55.05,-64.26 72.52,-128.28 27.75,-101.57 57.88,-225.04 71,-329.31 20.13,-124.25 33.47,-250.88 43.93,-379.3 9.49,-116.71 6.4,-270.48 40.12,-376.25 36.17,-113.45 108.72,-141.19 200.43,-216.17 139.17,-113.72 210.28,-327.01 61.51,-502.34 -18.94,-22.32 -34.54,-30.7 -53.49,-49.53 -170.37,-169.68 -215.92,-279.6 -342.29,-491.23 -29.37,-49.25 -53.68,-86.01 -85.17,-125.7l-97.93 -98.62c-0.65,-0.68 -2.23,-1.3 -2.69,-3.2 -0.47,-1.94 -1.84,-2.16 -2.7,-3.31 -28.83,-31.55 -145.96,-117.17 -185.51,-141.04 -66.51,-40.19 -135.39,-79.32 -215.82,-108.44 -340.09,-123.14 -766.83,-118.68 -1093.41,36.16 -251.48,119.23 -346.97,239.56 -385.18,260.77z"/>
    <path class="fil1" d="M4151.14 1926.57l39.58 1.57c12.26,17.15 23.97,59.1 33.58,84.98 29.15,78.75 -122.28,101.72 -100.77,184.14 5.06,19.33 81.31,69.86 88,96.28 5.04,19.74 -24.12,65.85 -33.79,86.37 -25.02,53.24 -33.47,44.14 -137.52,48.53 -32.14,1.37 -25.38,-0.86 -43.32,17.9 -31.31,32.82 -20.42,38.64 -23.69,95.1 -4.42,75.77 -5.14,69.52 -39.36,83.46 -98.69,40.12 -85.28,55.9 -155.14,-17.36 -17.79,-18.65 -34.72,-52.54 -80.06,-32.42 -41.84,18.59 -78.95,116.46 -138.19,96.76 -21.72,-7.22 -71.48,-24.4 -88.23,-33.75 -7.37,-68.36 36.49,-181.26 -50.29,-174.86 -61.59,4.57 -62.48,8.01 -121.73,4.24 -59.43,-151.47 -42.68,-105.64 35.52,-193.52 29.12,-32.74 33.39,-18.22 35.84,-74.76 -10.18,-15.74 -55.65,-60.06 -69.39,-72.1 -37.56,-33.03 -14.31,-51.43 4.82,-92.91 29.34,-63.62 12.08,-61.07 144.7,-66.86 31.28,-1.37 33.66,-6.18 50.27,-20.99 19.73,-17.54 16.31,-15.96 17.4,-50.54 4.09,-130.21 6.18,-108.33 71.82,-138.34 42.78,-19.59 55.91,-35.98 89.45,-3.52 21.29,20.6 51.3,56.57 74.28,71.02 63.02,15.96 110.94,-93.05 149.23,-104.99 24.52,-1.69 98.51,27.89 116.37,38.43 13.92,103.15 -40.87,183.48 63.49,173.06 20.96,-2.08 44.76,-5 67.13,-4.92zm-227.72 -453.96c117.56,10.42 201.43,23.11 297.56,70.52 84.92,41.87 153.3,104.8 200.65,164.51 100.74,127.13 174.51,343.47 179.25,553.3 -17.4,10.61 -76.83,22.47 -98.25,27.57 -30.7,7.37 -73.38,19.88 -104.51,24.15 6.65,-25.12 32.07,-48.91 46.56,-66.95 25.59,-31.81 14.95,-52.77 8.12,-96.12 -29.7,-188.77 -98.58,-351.02 -247.2,-457.59 -198.42,-142.26 -524.85,-120.77 -749.87,-13.26 -65.9,31.49 -45.22,33.03 -67.44,41.12 -41.31,15.02 -153.16,133.35 -180.26,169.29 -283.08,375.57 -247.71,666.6 -233.61,1146.98 42.81,-13.84 83.8,-42.88 132.33,-59.96 47.6,-16.71 96.57,-34.47 143.3,-52.18 360.23,-136.59 523.45,-185.25 928.59,-250.02 375.33,-60.03 1056.96,-170.52 1417.44,-70.27 -0.18,-56.15 -50.15,-148.09 -76.65,-177.78 -101.16,-113.43 -229.76,-112.06 -386.58,-126.81 -44.9,-4.2 -205.57,-12.25 -235.15,-22.71 -5.07,-28.65 -10,-17.61 57.48,-39.9l226.67 -72.68c-26.92,-101.5 -127.55,-250.66 -181.58,-319.63 -74.39,-94.97 -154.45,-166.93 -264.21,-240.07 -93.29,-62.21 -224.62,-117.49 -355.96,-142.94 -113.67,-22.04 -355.33,-30.7 -456.68,11.43z"/>
    <path class="fil3" d="M3745.57 2033.03c215.49,-32.74 228.72,292.65 8.41,329.53 -101.24,16.96 -183.67,-58.05 -174.54,-158.34 8.13,-89.13 79.52,-158.03 166.13,-171.19zm405.57 -106.46c-22.37,-0.08 -46.17,2.84 -67.13,4.92 -104.36,10.42 -49.57,-69.91 -63.49,-173.06 -17.86,-10.54 -91.85,-40.12 -116.37,-38.43 -38.29,11.94 -86.21,120.95 -149.23,104.99 -22.98,-14.45 -52.99,-50.42 -74.28,-71.02 -33.54,-32.46 -46.67,-16.07 -89.45,3.52 -65.64,30.01 -67.73,8.13 -71.82,138.34 -1.09,34.58 2.33,33 -17.4,50.54 -16.61,14.81 -18.99,19.62 -50.27,20.99 -132.62,5.79 -115.36,3.24 -144.7,66.86 -19.13,41.48 -42.38,59.88 -4.82,92.91 13.74,12.04 59.21,56.36 69.39,72.1 -2.45,56.54 -6.72,42.02 -35.84,74.76 -78.2,87.88 -94.95,42.05 -35.52,193.52 59.25,3.77 60.14,0.33 121.73,-4.24 86.78,-6.4 42.92,106.5 50.29,174.86 16.75,9.35 66.51,26.53 88.23,33.75 59.24,19.7 96.35,-78.17 138.19,-96.76 45.34,-20.12 62.27,13.77 80.06,32.42 69.86,73.26 56.45,57.48 155.14,17.36 34.22,-13.94 34.94,-7.69 39.36,-83.46 3.27,-56.46 -7.62,-62.28 23.69,-95.1 17.94,-18.76 11.18,-16.53 43.32,-17.9 104.05,-4.39 112.5,4.71 137.52,-48.53 9.67,-20.52 38.83,-66.63 33.79,-86.37 -6.69,-26.42 -82.94,-76.95 -88,-96.28 -21.51,-82.42 129.92,-105.39 100.77,-184.14 -9.61,-25.88 -21.32,-67.83 -33.58,-84.98l-39.58 -1.57z"/>
    <path class="fil1" d="M5337.52 3916.12c28.22,-18.15 139.82,-220.11 165.84,-272.16 248.46,-496.73 343.98,-1071.17 359.88,-1629.94 3.27,-114.77 12.29,-102.62 -86.32,-133.57l-677.68 -209.98c0.86,1.15 2.23,1.37 2.7,3.31 0.46,1.9 2.04,2.52 2.69,3.2l97.93 98.62c31.49,39.69 55.8,76.45 85.17,125.7 126.37,211.63 171.92,321.55 342.29,491.23 18.95,18.83 34.55,27.21 53.49,49.53 148.77,175.33 77.66,388.62 -61.51,502.34 -91.71,74.98 -164.26,102.72 -200.43,216.17 -33.72,105.77 -30.63,259.54 -40.12,376.25 -10.46,128.42 -23.8,255.05 -43.93,379.3z"/>
    <path class="fil1" d="M2782.4 3142.88c-19.63,-134.57 49.62,-693.84 87.65,-835.28 45.94,-170.69 130.22,-333.55 236.67,-463.27l112.6 -126.41 -519.32 162.31c-112.2,34.94 -95.2,16.18 -76.65,319.04 10.25,167.49 29.24,331.75 55.16,494.93 13.44,84.65 72.11,396.1 103.89,448.68z"/>
    <path class="fil1" d="M3334.11 4159.89c26.38,-49.67 43.14,-90.5 51.91,-158.11 6.55,-50.57 18.55,-152.15 -1.08,-192.99 -11.97,-24.9 -25.02,-38.81 -41.12,-61.53l-122.85 -196.18c-32.64,-50.28 -136.61,-220.69 -168.72,-253.21 -40.66,-41.23 -87.5,-42.02 -151.97,-59.09 -37.31,-9.89 -75.31,-27.5 -96.16,-58.05 -3.09,-4.49 -6.01,-9.6 -9.78,-15.75 -2.63,-4.31 -3.35,-5.78 -6.11,-9.95l-4.82 -6.62c-0.58,-0.79 -1.62,-2.29 -2.55,-3.34 19.44,88.82 67.51,211.96 100.52,292.76 86.53,212.1 214.55,448.17 358.46,619.04 19.67,23.33 74.42,92.06 94.27,103.02z"/>
    <path class="fil1" d="M3745.57 2033.03c-86.61,13.16 -158,82.06 -166.13,171.19 -9.13,100.29 73.3,175.3 174.54,158.34 220.31,-36.88 207.08,-362.27 -8.41,-329.53z"/>
   </g>
   <g>
    <path class="fil4" d="M2648.06 5479.11c365,-92.35 436.58,437.57 146.65,514.38 -276.48,73.27 -395.02,-216.21 -294.67,-405.08 30.43,-57.18 76.5,-91.18 148.02,-109.3zm59.03 -245.57c-680.32,-0.16 -661.91,1003.14 -15.76,1003.52l55.21 0c645.05,0.45 665.5,-1003.36 -15.76,-1003.52l-23.69 0z"/>
    <path class="fil4" d="M7458.4 5478.61c169.18,-42.65 286.84,49.2 315.55,187.17 81.18,389.63 -431.22,454.21 -492.61,137.95 -14.44,-74.43 -3.97,-157.79 28.54,-217.08 31.08,-56.63 75.55,-89.64 148.52,-108.04zm-446.72 261.65c-0.66,287.05 203.03,496.75 491.02,496.8l55.23 0c273.5,0.06 485.28,-205.89 485.18,-481.04l-0.06 -39.39c-0.45,-635.21 -1029.82,-665.41 -1031.37,23.63z"/>
    <path class="fil4" d="M4138.59 5255.19c0.33,161.38 -19.23,575.7 11.58,706.28 43.09,182.71 206.54,276.69 426.37,275.82 220.33,-0.89 380.14,-98.08 419.54,-290.58 12.07,-58.79 16.76,-642.54 3.42,-691.46l-245.62 -0.06c-16.36,74.38 -3.97,364.74 -3.91,461.38 0,161.32 13.12,290.52 -173.43,293 -189.74,2.59 -183.46,-119.94 -183.4,-285.07 0,-155.42 -0.06,-310.85 0,-468.76l-254.55 -0.55z"/>
    <polygon class="fil4" points="459.2,6217.45 1157.27,6217.39 1160.73,5996.51 715.51,5996.46 715.57,5840.87 1110.42,5840.7 1112.02,5622.35 718.44,5619.88 715.13,5476.13 1149.39,5476.13 1152.85,5255.25 463.06,5255.19 "/>
    <path class="fil4" d="M6380.31 5858.5c15.54,-52.61 102.77,-311.9 120.68,-341.43l120.2 341.43 -240.88 0zm-76 207.05l393.64 -0.27 59.35 152.11 253.51 0c1.1,-33 -159.27,-423.69 -184.29,-487.21 -32.02,-81.16 -64.25,-161.65 -95.89,-243.14 -15.6,-40.17 -30.91,-80.16 -46.51,-119.18 -33.83,-84.35 -31.58,-112.61 -72.8,-112.67 -308.05,-0.06 -232.17,-34.21 -295.6,118.68 -54.56,131.46 -325.86,817.74 -324.98,843.52l255.54 0.61 58.03 -152.45z"/>
    <path class="fil4" d="M1580.39 6216.07l251.18 1.38c26.02,-6.56 92.58,-212.01 100.69,-234.66 39.35,-110.08 259.24,-673.27 270.53,-727.54l-277.53 0.05 -209.24 643.53c-5.9,-4.85 -4.47,-0.33 -11.8,-15.37l-195.31 -593.22c-11.57,-31.8 -1.82,-21.49 -24.35,-34.99l-261.83 0 357.66 960.82z"/>
    <path class="fil4" d="M5432.22 6197.17l-39.74 86.34c32.62,23.36 96.28,61.05 138.43,71.91l60.24 -120.28c174.53,0.71 195.19,-7 341.95,-54.22l1.71 -248.53c-151.44,130.08 -550.48,121.48 -543.81,-192.02 4.68,-222.15 194.42,-306.45 369.12,-276.19 84.7,14.59 105.25,39.66 169.01,67.6l0 -233.11c-142.45,-109.26 -587.24,-113.73 -743.69,191.07 -131.77,256.69 -36.98,634.71 246.78,707.43z"/>
    <path class="fil4" d="M3371.59 5255.19c-19.73,59.89 -5.73,831.18 -5.95,962.31l696.18 -3.02 0 -225.57 -439.38 -0.33 -4.23 -733.39 -246.62 0z"/>
    <path class="fil4" d="M6158.33 5109.41c16.75,19.67 91.64,81.6 114.96,93.17 29.59,-36.91 80.51,-113.28 149.06,-119.78 86.25,-8.22 211.63,175.48 398.33,54.49 42.43,-27.55 93.52,-90.81 119.64,-144.25 -39.78,-28.26 -80.95,-61.97 -127.74,-81.81 -112.14,229.04 -181.59,62.64 -321.18,26.28 -153.75,-40.06 -285.02,91.07 -333.07,171.9z"/>
    <path class="fil3 str1" d="M6175.68 6820.53l0 -135.91c78.16,0.05 220.94,-20.56 222.54,65.29 1.81,94.7 -145.38,70.68 -222.54,70.62zm0.06 -301.53c80.46,0.15 154.31,-14.27 198.01,32.56 23.48,125.34 -98.48,99.27 -198.07,99.39l0.12 -106.34 -0.06 -25.61zm193.71 143.91c20.61,-23.53 43.32,-36.42 44.64,-79.13 3.63,-121.59 -172.99,-103.69 -273.62,-97.29l-0.27 365.17c95.17,11.96 315.27,27.38 292.13,-117.4 -8.32,-52.34 -32.19,-43.75 -62.88,-71.35z"/>
    <path class="fil3 str1" d="M4485.34 7131.17l133.75 185.73c0.71,-1.38 3.03,2.97 4.68,4.24 45.13,-41.82 94.18,-156.08 137.94,-183.08l-0.06 286.17 35.82 3.64 -2.04 -368.82c-42.1,0.82 -35.38,5.73 -54.38,36.47l-117.28 167.6c-29.76,-28.81 -54.33,-73.82 -79.79,-110.13 -55.99,-79.89 -44.1,-92.78 -93.58,-94l-0.16 368.88 33.5 0 1.6 -296.7z"/>
    <path class="fil3 str1" d="M2689.29 6854.2c46.68,-1.22 37.63,1.88 36.31,-56.69l0.72 -249.37 127.64 157.13c28.54,34.99 92.79,144.25 137.1,147.71 10.92,-24.23 11.85,-274.32 6.78,-332.77 -3.85,-43.97 5.13,-20.83 -14.66,-34.83 -24.8,10.81 -13.28,-0.44 -20,27.06l0.17 118.89c0,50.91 0.87,102.48 -0.45,153.28l-127.46 -155.36c-46.9,-61.11 -95.18,-142.82 -141.3,-143.92 -13.56,50.09 -4.91,298.41 -4.85,368.87z"/>
    <path class="fil3 str1" d="M4071.69 6519.05l86.74 0c216.09,-0.05 215.64,301.54 0,301.48l-86.74 0 0 -301.48zm-35.54 330.13c100.79,28.1 230.74,-4.29 278.35,-61.87 68.66,-82.98 58.85,-285.51 -136.07,-301.04 -26.78,-2.15 -56.42,-0.89 -83.65,-1.27 -94.62,-1.43 -59.68,3.47 -58.63,364.18z"/>
    <path class="fil3 str1" d="M1948.02 6519.05l112.32 0c148.78,0 139.42,153.66 -7.89,153.66l-104.48 -0.11 0.05 -153.55zm156.89 183.25c36.93,-22.1 68.45,-26.5 86.59,-66.28 17.96,-39.45 6.16,-85.29 -16.43,-111.41 -42.82,-49.31 -185.22,-47.82 -262.7,-36.25l0 364.62 35.32 -1.21 2.7 -147.49c98.26,0.28 96.22,-18.4 142.07,44.91 26.84,36.97 60.18,69.25 76.83,105.62l44.96 -5.08c-21.77,-22.96 -90.21,-114.48 -109.34,-147.43z"/>
    <path class="fil3 str1" d="M5275.15 7126.32l194.76 236.14c11.19,14.6 20.89,27.39 30.64,40.33 18.79,25.02 11.25,22.81 48.11,25.18l0.11 -292.07c0.11,-9.09 1.38,-41.48 0.55,-47.98 -5.56,-42.2 4.46,-21.27 -18.46,-28.87 -21.16,0.33 -17.03,5.23 -16.04,68.87l-3.25 233.28c-58.86,-64.25 -129.55,-166.45 -192.27,-242.42 -52.58,-63.76 -33.73,-61.22 -78.2,-58.19l-0.11 366.66 33.56 -3.41 0.6 -297.52z"/>
    <path class="fil3 str1" d="M3671.88 7122.3l195.8 241.32c23.86,30.25 32.34,61.76 77.7,64.25 0.27,-65.74 0.12,-131.47 0.12,-197.2 0,-31.57 -0.28,-63.19 0.1,-94.77 0.83,-69.19 6.72,-76.52 -15.92,-76.8 -18.63,-0.27 -19.24,0.34 -18.24,60.72 0.43,26.5 0.43,52.78 0.43,79.28 0,53.23 0.06,106.45 0.06,159.62l-132.32 -159.29c-51.3,-64.57 -90.98,-139.39 -141.57,-140.38l-0.22 368.86 33.51 -0.1 0.55 -305.51z"/>
    <path class="fil3 str1" d="M5396.78 6519.05c89.05,-0.05 231.57,-19.34 217.62,85.9 -10.91,82.81 -130.61,67.76 -217.62,67.82l0 -153.72zm157.78 183.25c38.58,-22.81 69.99,-25.45 86.57,-63.25 18.35,-41.87 7.05,-89.64 -18.41,-115.32 -53.28,-53.66 -166.26,-38.35 -254.65,-38.35 -13.44,49.38 -4.96,298.96 -4.8,368.82l33.29 -0.05 2.21 -149.82 109.33 0c22.43,23.48 44.47,57.64 67.67,87.12 31.75,40.21 26.12,64.24 88.67,61.7 -19.72,-45.51 -88.01,-104.62 -109.88,-150.85z"/>
    <path class="fil3 str1" d="M2815.65 7246.38l-0.06 -153.61c76.12,-0.05 217.19,-21.44 217.08,74.82 -0.05,96.91 -137.16,78.79 -217.02,78.79zm154.25 31.07c39.02,-26.61 64.09,-17.52 88.45,-66.62 19.07,-38.45 7.11,-84.23 -16.2,-109.97 -50.09,-55.2 -173.32,-46.83 -261.99,-40.38l-0.16 366.39 35.59 -0.93 0.06 -147.99 113.36 0.49c10.97,21.98 50.82,69.97 66.13,90.19 47.62,62.93 39.41,64.57 87.18,55.82 -17.08,-22.09 -36.64,-46.89 -55.33,-71.96 -16.86,-22.59 -43.04,-52.61 -57.09,-75.04z"/>
    <path class="fil3 str1" d="M4568 6517.94c92.03,-27.65 166.38,39.78 183.51,111.36 22.6,94.1 -31.85,173.49 -102.23,193.05 -191.83,53.29 -273.66,-246.55 -81.28,-304.41zm217.07 208.05c35.94,-109.7 -37.08,-213.89 -119.86,-238.18 -114.24,-33.67 -209.58,36.03 -234.65,123.8 -71.03,248.65 276.54,352.4 354.51,114.38z"/>
    <path class="fil3 str1" d="M6075.56 7094.25c203.78,-63.08 260.22,245.9 92.08,300.44 -192.93,62.65 -277.74,-243.03 -92.08,-300.44zm-138.27 175.88c28.82,242.31 390.55,204.68 367.63,-47.45 -22.33,-244.62 -398.5,-211.68 -367.63,47.45z"/>
    <path class="fil3 str1" d="M7760.11 6516.57c203.58,-49.92 256.98,268.87 69.88,307.76 -198.28,41.33 -254.16,-262.53 -69.88,-307.76zm217.19 193.6c54.23,-247.87 -310.59,-324.06 -361.18,-84.12 -53.51,253.77 307.45,329.81 361.18,84.12z"/>
    <path class="fil3 str1" d="M1399.69 6781.2c-30.64,49.69 -120.74,57.68 -176.79,33.11 -114.79,-50.25 -113.64,-239.89 4.02,-290.74 92.14,-39.78 126.75,16.63 178.99,29.97l14.17 -26.23c-220.27,-164.29 -406.26,114.71 -278.36,265.57 86.97,102.53 291.14,84.29 292.24,-26.83 1.38,-135.1 22.71,-107.17 -151.88,-107.28l-1.64 27.77c26.39,13.44 83.43,5.96 119.25,6.01l0 88.65z"/>
    <path class="fil3 str1" d="M808.26 6521.47c40.72,-5.06 83,-2.53 124.16,-2.42 76.6,0.1 88.62,11.46 106.58,-13.88 -10.85,-24.8 0.44,-13.29 -27.06,-19.95 -0.93,-0.22 -28.93,-0.71 -31.8,-0.66l-205.5 0.77 0 368.82 236.64 0.05c35.87,0 46.19,-21.21 15.82,-32.06l-218.89 -3.53 0 -131.46c35.65,-4.46 72.41,-2.7 108.45,-2.53 74.78,0.32 81.12,10.85 98.7,-13.83 -12.07,-27.44 21.94,-20.56 -98.75,-19.84 -35.06,0.16 -70.43,1.11 -107.52,-0.93l-0.83 -128.55z"/>
    <path class="fil3 str1" d="M1983.46 7095.69c136.28,-20.28 232.83,34.05 226.16,-36.59l-259.95 -0.11 -1.82 368.88 238.68 0c31.25,0 44.47,-18.9 15.21,-29.59l-218.23 -4.08 -0.11 -133.61 171.56 -2.25c37.58,-0.51 25.84,7.26 33.55,-19.79 -13.55,-17.14 2.82,-11.45 -33.55,-11.96l-171.45 -2.91 -0.05 -127.99z"/>
    <path class="fil3 str1" d="M5887.86 6531.83l86.95 187.22 -172.76 0.27c24.25,-60 55.77,-134.21 85.81,-187.49zm-184.07 322.37c44.42,-1.32 57.75,-28.32 76.61,-100.66l207.92 1.82c55.65,76.47 15.6,103.52 84.76,96.91 -19.02,-58.62 -61.34,-132.18 -88.23,-193.44 -13.29,-30.19 -68.73,-178.23 -99.03,-175.38 -29.81,2.76 -173.82,345.51 -182.03,370.75z"/>
    <path class="fil3 str1" d="M3543.7 6719.54c6.77,-24.35 65.63,-164.46 88.78,-184.9l82.22 184.96 -171 -0.06zm-98.16 134.61c46.24,-1.11 36.27,-0.56 54.4,-45.57 30.2,-75.04 19.62,-55.48 232.55,-51.24 30.32,50.58 19.79,94.98 81.96,96.91 -17.14,-58.29 -61.12,-135.26 -86.91,-194.32 -92.26,-211.46 -93.85,-226.56 -153.04,-92.01 -13.62,30.85 -27.61,59.12 -42.49,91.51 -27.44,59.89 -66.79,133.4 -86.47,194.72z"/>
    <path class="fil3 str1" d="M6579.91 6719.54c9.48,-30.46 26.06,-65.84 40.29,-95.31l42.65 -84.14c0.5,-2.59 2.43,-2.97 6.12,-5.33l81.5 184.62 -170.56 0.16zm-98.64 130.31c54.5,12.94 34.1,-7.77 66.9,-68.49 16.04,-29.69 -0.94,-13.44 23.86,-27.65l199.99 -0.06c22.59,79.62 33.72,99.5 78.03,100.44 -11.68,-45.73 -103.11,-226.34 -134.13,-295.37 -10.7,-23.86 -23.59,-83.03 -57.14,-75.27 -21.11,4.86 -157.84,325.35 -177.51,366.4z"/>
    <polygon class="fil3 str1" points="4931.39,7092.72 5157.88,7092.77 5158.22,7058.89 4895.95,7062.18 4895.73,7425 5162.13,7427.87 5162.13,7396.24 4931.45,7396.24 4931.45,7258.34 5134.52,7258.39 5132.64,7226.59 4931.45,7226.71 "/>
    <path class="fil3 str1" d="M4198.6 7105.88l84.1 189.37 -174.42 -0.39 90.32 -188.98zm-186.26 318.12c62.83,13.23 34.06,-21.76 82.5,-96.69l204.12 0c50.1,84.91 17.14,99.12 83.76,100.6 -24.57,-65.67 -57.48,-128.86 -86.96,-192.78 -54.56,-118.39 -87.79,-243.63 -131.54,-140.27l-151.88 329.14z"/>
    <path class="fil3 str1" d="M2434.9 6531.66c27.67,37.8 68.29,138.63 87.8,185.41l-171.06 3.25 83.26 -188.66zm-181.46 318.19c55.1,13.05 34.44,-8.76 66.9,-68.6 15.97,-29.47 -0.44,-13.55 23.91,-27.54l200.15 -0.11c19.3,74.93 33.68,99.55 77.93,100.49l-153.25 -340c-23.82,-51.79 -44.54,-38.07 -63.66,5.06l-67.34 145.25c-29.86,62.04 -55.83,126.39 -84.64,185.45z"/>
    <polygon class="fil3 str1" points="3186.48,7092.99 3416.17,7088.69 3415.13,7058.89 3152.75,7061.97 3152.59,7427.25 3419.04,7427.87 3419.04,7396.18 3186.26,7396.29 3186.43,7258.61 3392.86,7254.2 3389.44,7226.65 3186.37,7226.48 "/>
    <path class="fil3 str1" d="M7272.08 6684.62l222.74 0 0 169.53 33.62 0 0 -341.11c0,-34.37 -0.44,-25.84 -25.74,-27.66 -19.28,27.06 -5.95,126.62 -9.75,167.61l-218.51 0.05c-3.63,-30.63 -2.75,-61.87 -2.2,-92.78 1.38,-85.62 0.88,-64.35 -14,-74.88 -29.32,7.05 -23.04,-17.52 -21.82,82.81l0.06 284.74 35.6 -1.21 0 -167.1z"/>
    <path class="fil3 str1" d="M3404.16 6778.22c-39.84,-9.75 -69.88,72.07 -178.61,44.13 -188.03,-48.26 -112.97,-364.29 83.88,-304.41 50.09,15.27 52.73,41.22 77.65,41.16 92.03,-0.27 -157.5,-185.84 -278.25,8.88 -58.31,94.04 -31.03,258.23 126.75,290.02 -11.52,24.91 -22.1,32.29 -31.85,59.18l33.94 12.5 33.46 -65.17c10.36,-9.09 150.27,-23.26 133.03,-86.29z"/>
    <path class="fil3 str1" d="M1519.93 6485.38c-8.32,38.02 -7.49,228.87 2.27,266.46 38.29,147.1 280.88,156.3 296.59,-37.53 3.53,-43.3 0.88,-94 1.1,-138.24 0.22,-55.75 17.42,-89.53 -31.74,-90.69 -29.21,133.89 56.54,358.51 -136.12,340.61 -120.74,-11.18 -101.5,-151.79 -100.24,-265.84 0.61,-53.34 14.82,-73.77 -31.86,-74.77z"/>
    <path class="fil3 str1" d="M6366.8 7364.72c5.73,22.71 15.76,27.28 39.02,40.23 179.66,99.89 308.61,-80.72 178.45,-155.16 -56.93,-32.5 -189.08,-23.91 -169.8,-112.06 23.53,-107.33 193.99,-12.51 194.05,-12.51 15.14,-18.29 4.29,-2.7 15.8,-21.71 -46.67,-68.21 -235.63,-73.44 -247.05,42.59 -12.23,125.01 157.67,95.04 217.41,154.05 15.32,76.36 -25.68,106.61 -101.79,99.39 -104.48,-9.92 -77.64,-76.25 -126.09,-34.82z"/>
    <path class="fil3 str1" d="M423.11 6796.95c30.59,47.77 137.93,81.33 210.79,49.04 74.07,-32.84 86.13,-135.76 5.06,-173.56 -58.96,-27.48 -209.79,-26.77 -160.2,-123.3 17.26,-33.5 69.11,-41.32 111.32,-32.34 57.82,12.28 49.39,47.66 91.43,22.92 -5.18,-20.05 -6.45,-23.91 -36.75,-39.29 -173.38,-87.59 -299.63,115.05 -132.6,172.52 52.96,18.23 208.09,35.64 131.49,126.99 -58.14,69.36 -165.55,-2.87 -201.53,-26l-19.01 23.02z"/>
    <path class="fil3 str1" d="M2581 7092.77l123.88 0.06 0.28 -33.73 -281.6 -0.05c-5.29,42.91 2.48,35.15 46.06,34.43 28.66,-0.44 48.94,-2.03 77.71,2.15 0.06,60.83 0,121.6 0,182.37 0,156.2 -16.92,148.87 33.61,149.81l0.06 -335.04z"/>
    <polygon class="fil3 str1" points="5781.33,7092.87 5905.82,7091.77 5906.04,7059.16 5621.9,7062.14 5623.44,7092.17 5745.73,7092.77 5745.73,7426.87 5781.33,7425.94 "/>
    <path class="fil3 str1" d="M5164.06 6519.43l125.92 -3.36 -1.66 -30.46 -282.37 0.82 -0.16 32.12 124.7 0.56 -0.05 332.55c45.36,4.19 35.21,-5.12 34.22,-54.1l-0.6 -278.13z"/>
    <path class="fil3 str1" d="M6919.05 6854.15l244.51 0 0 -33.56 -210.95 -1.98c-0.05,-59.78 0,-119.61 0,-179.4 0,-114.32 16.81,-150.74 -25.68,-153.83 -9.64,13.45 -7.88,4.19 -7.88,27.66l0 341.11z"/>
    <path class="fil3 str1" d="M3503.74 7060.54c-9.7,25.62 -3.58,231.51 -4.14,288.53 -0.66,74.11 -8.09,78.8 35.88,78.8l-2.14 -369.04 -29.6 1.71z"/>
   </g>
  </g>
 </g>
</svg>
