<svg width="300" height="208" viewBox="0 0 300 208" fill="none" xmlns="http://www.w3.org/2000/svg">
<path d="M33.1848 65.1066V96.9702H19.3231V20H69.2908V32.2109H33.1848V52.8957H66.1875V65.1066H33.1848Z" fill="#FEFEFE"/>
<path d="M279.754 77.1102C279.754 90.7644 270.332 97.9041 256.155 97.9041C242.087 97.9041 232.678 90.146 232.678 76.5925V63.0394C232.678 49.4877 242.087 41.6201 256.155 41.6201C270.332 41.6201 279.754 48.8609 279.754 62.5221V63.4533H267.649C267.649 55.692 263.399 52.4878 256.155 52.4878C249.023 52.4878 244.885 56.204 244.885 64.0744V75.4513C244.885 83.3216 249.023 87.0407 256.155 87.0407C263.399 87.0407 267.649 83.9399 267.649 76.1762H279.754V77.1102Z" fill="#FEFEFE"/>
<path d="M111.331 74.4155H96.851C89.2949 74.4155 87.5346 77.9355 87.5346 81.5567C87.5346 85.3838 89.9135 87.6615 94.056 87.6615C97.4668 87.6615 100.366 86.6268 103.475 84.97L111.331 80.7308V74.4155V74.4155ZM111.331 96.9697V90.6612L105.643 93.7634C100.573 96.4524 96.6423 97.7 91.2554 97.7C81.5379 97.7 75.0168 91.3876 75.0168 82.1796C75.0168 70.7999 83.914 65.5186 95.1977 65.5186H111.441V62.3166C111.441 55.275 107.4 51.8642 100.259 51.8642C92.812 51.8642 88.4661 54.9692 88.4661 61.3772H76.2576V60.6629C76.2576 48.3467 85.9876 41.416 100.159 41.416C115.059 41.416 123.648 48.8587 123.648 61.8946V96.9697H111.331V96.9697Z" fill="#FEFEFE"/>
<path d="M159.682 96.9723C147.057 96.9723 138.886 90.6652 138.886 78.2484V53.1079H130.605V42.4511H138.886V27.6553H151.713V42.4511H166.816V53.1079H151.713V77.523C151.713 83.9421 154.611 86.1131 160.706 86.1131H167.127V96.9723H159.682V96.9723Z" fill="#FEFEFE"/>
<path d="M210.084 63.9706C210.084 56.2054 205.535 51.9669 197.977 51.9669C190.328 51.9669 185.672 56.2054 185.672 64.0744V65.4141H210.084V63.9706V63.9706ZM221.778 79.7985C221.778 90.8678 212.258 97.9041 197.876 97.9041C183.809 97.9041 173.778 90.2467 173.778 76.9051V63.9706C173.778 50.2073 183.809 41.6201 197.876 41.6201C212.055 41.6201 221.878 49.7988 221.878 64.1807V73.7976H185.672V76.4887C185.672 84.2496 190.843 87.6636 197.977 87.6636C205.023 87.6636 209.777 85.1798 209.777 79.2812H221.778V79.7985V79.7985Z" fill="#FEFEFE"/>
<path d="M134.765 114.517C134.765 112.311 133.468 111.325 130.979 111.325C128.566 111.325 127.269 112.337 127.269 114.024C127.269 118.614 138.423 114.646 138.423 122.324C138.423 125.903 135.569 128.134 130.951 128.134C126.335 128.134 123.481 126.188 123.481 122.168V121.961H127.009C127.009 124.166 128.435 125.178 131.003 125.178C133.545 125.178 134.895 124.14 134.895 122.506C134.895 117.966 123.74 121.883 123.74 114.127C123.74 110.573 126.542 108.344 131.003 108.344C135.517 108.344 138.319 110.236 138.319 114.283V114.517H134.765V114.517Z" fill="#FEFEFE"/>
<path d="M149.994 122.301H146.362C144.468 122.301 144.028 123.183 144.028 124.091C144.028 125.051 144.624 125.622 145.661 125.622C146.517 125.622 147.244 125.363 148.022 124.947L149.994 123.884V122.301V122.301ZM152.692 108.814C152.692 110.965 151.575 112.522 149.527 112.522C147.477 112.522 146.881 110.94 145.713 110.94C145.039 110.94 144.676 111.51 144.676 112.444H142.161V112.263C142.161 110.135 143.276 108.58 145.324 108.58C147.374 108.58 147.918 110.135 149.112 110.135C149.812 110.135 150.176 109.59 150.176 108.658H152.692V108.814V108.814ZM149.994 127.957V126.375L148.567 127.153C147.296 127.826 146.311 128.137 144.961 128.137C142.522 128.137 140.889 126.556 140.889 124.247C140.889 121.393 143.121 120.072 145.947 120.072H150.02V119.266C150.02 117.503 149.008 116.647 147.218 116.647C145.351 116.647 144.262 117.426 144.262 119.032H141.201V118.852C141.201 115.765 143.639 114.027 147.192 114.027C150.928 114.027 153.081 115.895 153.081 119.164V127.957H149.994V127.957Z" fill="#FEFEFE"/>
<path d="M165.248 119.993C165.248 117.944 163.951 116.802 162.083 116.802C160.215 116.802 158.918 117.944 158.918 119.993V122.354C158.918 124.376 160.215 125.544 162.083 125.544C163.951 125.544 165.248 124.402 165.248 122.354V119.993ZM168.256 122.665C168.256 126.114 165.688 128.241 162.083 128.241C158.479 128.241 155.91 126.114 155.91 122.665V119.682C155.91 116.231 158.479 114.078 162.083 114.078C165.688 114.078 168.256 116.231 168.256 119.682V122.665Z" fill="#FEFEFE"/>
<path d="M177.52 124.97H178.428C179.543 124.97 180.164 124.322 180.164 123.206V108.655H183.72V122.195C183.72 125.904 182.396 127.954 178.532 127.954H177.961H177.52V124.97V124.97Z" fill="#FEFEFE"/>
<path d="M196.249 119.993C196.249 117.944 194.953 116.802 193.085 116.802C191.216 116.802 189.92 117.944 189.92 119.993V122.354C189.92 124.376 191.216 125.544 193.085 125.544C194.953 125.544 196.249 124.402 196.249 122.354V119.993ZM199.259 122.665C199.259 126.114 196.69 128.241 193.085 128.241C189.479 128.241 186.911 126.114 186.911 122.665V119.682C186.911 116.231 189.479 114.078 193.085 114.078C196.69 114.078 199.259 116.231 199.259 119.682V122.665Z" fill="#FEFEFE"/>
<path d="M210.518 118.721C210.518 117.269 209.506 116.593 207.742 116.593C205.979 116.593 205.072 117.32 205.072 118.28C205.072 121.419 213.657 118.306 213.657 123.909C213.657 126.58 211.347 128.162 207.742 128.162C203.954 128.162 201.776 126.476 201.776 123.7V123.546H204.94C204.94 124.999 205.979 125.672 207.794 125.672C209.584 125.672 210.596 124.973 210.596 123.986C210.596 121.159 202.01 124.039 202.01 118.357C202.01 115.659 204.267 114.078 207.82 114.078C211.58 114.078 213.605 115.79 213.605 118.565V118.721H210.518Z" fill="#FEFEFE"/>
<path d="M219.961 112.441L222.763 108.655H226.758L223.41 112.441H219.961ZM225.28 119.679C225.28 117.733 224.138 116.67 222.244 116.67C220.326 116.67 219.157 117.733 219.157 119.704V120.041H225.28V119.679V119.679ZM228.21 123.648C228.21 126.424 225.824 128.186 222.218 128.186C218.69 128.186 216.175 126.267 216.175 122.921V119.679C216.175 116.228 218.69 114.076 222.218 114.076C225.772 114.076 228.237 116.125 228.237 119.73V122.143H219.157V122.818C219.157 124.763 220.454 125.618 222.244 125.618C224.008 125.618 225.202 124.997 225.202 123.518H228.21V123.648V123.648Z" fill="#FEFEFE"/>
<path d="M247.667 118.694L245.488 117.475C244.917 117.163 244.294 116.957 243.569 116.957C242.272 116.957 241.416 117.839 241.416 119.187V123.078C241.416 124.453 242.272 125.334 243.569 125.334C244.294 125.334 244.917 125.1 245.488 124.789L247.667 123.597V118.694V118.694ZM247.694 127.954V126.475L246.11 127.331C245.047 127.928 244.061 128.136 243.051 128.136C240.223 128.136 238.356 126.242 238.356 123.467V118.875C238.356 116.127 240.275 114.155 243.101 114.155C244.113 114.155 245.047 114.362 246.11 114.96L247.667 115.815V108.655H250.754V127.954H247.694V127.954Z" fill="#FEFEFE"/>
<path d="M263.077 119.993C263.077 117.944 261.781 116.802 259.914 116.802C258.044 116.802 256.747 117.944 256.747 119.993V122.354C256.747 124.376 258.044 125.544 259.914 125.544C261.781 125.544 263.077 124.402 263.077 122.354V119.993ZM266.086 122.665C266.086 126.114 263.519 128.241 259.914 128.241C256.308 128.241 253.739 126.114 253.739 122.665V119.682C253.739 116.231 256.308 114.078 259.914 114.078C263.519 114.078 266.086 116.231 266.086 119.682V122.665Z" fill="#FEFEFE"/>
<path d="M277.345 118.721C277.345 117.269 276.335 116.593 274.57 116.593C272.806 116.593 271.898 117.32 271.898 118.28C271.898 121.419 280.484 118.306 280.484 123.909C280.484 126.58 278.175 128.162 274.57 128.162C270.783 128.162 268.605 126.476 268.605 123.7V123.546H271.769C271.769 124.999 272.806 125.672 274.622 125.672C276.411 125.672 277.424 124.973 277.424 123.986C277.424 121.159 268.839 124.039 268.839 118.357C268.839 115.659 271.094 114.078 274.647 114.078C278.409 114.078 280.432 115.79 280.432 118.565V118.721H277.345Z" fill="#FEFEFE"/>
<path d="M198.739 153.982C198.739 158.548 195.651 161.011 190.879 161.011C186.495 161.011 182.864 158.704 182.864 153.074V149.21C182.864 143.554 186.47 141.221 190.879 141.221C195.651 141.221 198.739 143.71 198.739 148.276V148.587H195.21C195.21 145.63 193.629 144.281 190.905 144.281C188.467 144.281 186.365 145.448 186.365 149.417V152.842C186.365 156.81 188.467 157.977 190.905 157.977C193.629 157.977 195.21 156.576 195.21 153.671H198.739V153.982V153.982Z" fill="#FEFEFE"/>
<path d="M210.335 155.069H206.704C204.811 155.069 204.37 155.951 204.37 156.859C204.37 157.819 204.966 158.39 206.004 158.39C206.86 158.39 207.585 158.13 208.365 157.715L210.335 156.652V155.069V155.069ZM210.335 160.725V159.142L208.908 159.92C207.637 160.594 206.653 160.905 205.304 160.905C202.865 160.905 201.231 159.324 201.231 157.015C201.231 154.161 203.462 152.839 206.289 152.839H210.363V152.034C210.363 150.271 209.349 149.415 207.56 149.415C205.693 149.415 204.603 150.193 204.603 151.801H201.543V151.62C201.543 148.533 203.981 146.795 207.534 146.795C211.27 146.795 213.423 148.663 213.423 151.931V160.725H210.335V160.725Z" fill="#FEFEFE"/>
<path d="M232.282 160.725V151.439C232.282 150.297 231.763 149.752 230.831 149.752C230.233 149.752 229.714 150.012 229.195 150.297L227.535 151.309V160.725H224.397V151.464C224.397 150.323 223.904 149.778 222.971 149.778C222.348 149.778 221.854 150.012 221.311 150.297L219.676 151.309V160.725H216.537V147.054H219.623V148.481L220.843 147.755C221.854 147.158 222.762 146.926 223.722 146.926C225.227 146.926 226.395 147.549 226.964 148.766L228.47 147.86C229.559 147.184 230.492 146.926 231.607 146.926C233.995 146.926 235.421 148.455 235.421 151.075V160.725H232.282V160.725Z" fill="#FEFEFE"/>
<path d="M247.952 151.934C247.952 150.585 247.124 149.703 245.825 149.703C245.099 149.703 244.476 149.91 243.905 150.222L241.753 151.441V156.317L243.905 157.511C244.476 157.848 245.099 158.055 245.825 158.055C247.124 158.055 247.952 157.173 247.952 155.825V151.934ZM238.64 165.501V147.057H241.701V148.535L243.284 147.679C244.346 147.109 245.332 146.875 246.344 146.875C249.172 146.875 251.066 148.795 251.066 151.545V156.137C251.066 158.911 249.12 160.883 246.292 160.883C245.332 160.883 244.346 160.649 243.284 160.078L241.726 159.223V165.501H238.64V165.501Z" fill="#FEFEFE"/>
<path d="M263.077 152.762C263.077 150.712 261.781 149.571 259.914 149.571C258.044 149.571 256.747 150.712 256.747 152.762V155.122C256.747 157.145 258.044 158.312 259.914 158.312C261.781 158.312 263.077 157.171 263.077 155.122V152.762ZM266.086 155.434C266.086 158.883 263.519 161.01 259.914 161.01C256.308 161.01 253.739 158.883 253.739 155.434V152.45C253.739 149 256.308 146.847 259.914 146.847C263.519 146.847 266.086 149 266.086 152.45V155.434Z" fill="#FEFEFE"/>
<path d="M277.345 151.489C277.345 150.038 276.335 149.362 274.57 149.362C272.806 149.362 271.898 150.088 271.898 151.048C271.898 154.188 280.484 151.074 280.484 156.678C280.484 159.349 278.175 160.931 274.57 160.931C270.783 160.931 268.605 159.245 268.605 156.469V156.315H271.769C271.769 157.768 272.806 158.441 274.622 158.441C276.411 158.441 277.424 157.741 277.424 156.754C277.424 153.928 268.839 156.808 268.839 151.126C268.839 148.428 271.094 146.847 274.647 146.847C278.409 146.847 280.432 148.559 280.432 151.334V151.489H277.345Z" fill="#FEFEFE"/>
<path d="M119.875 178.577C121.308 178.577 122.271 177.655 122.271 176.119C122.271 174.603 121.389 173.784 119.956 173.784H116.494V178.577H119.875ZM113.771 186.667V171.429H120.201C122.863 171.429 124.973 173.067 124.973 176.14C124.973 179.212 122.558 180.912 120.059 180.912H116.494V186.667H113.771Z" fill="#FEFEFE"/>
<path d="M126.941 186.667V175.873H129.419V177.41L129.89 176.939C130.688 176.181 131.487 175.792 132.552 175.792H133.187V178.311H132.573C131.63 178.311 131.016 178.496 130.299 179.049L129.46 179.745V186.667H126.941Z" fill="#FEFEFE"/>
<path d="M141.932 180.379C141.932 178.761 140.908 177.859 139.433 177.859C137.96 177.859 136.936 178.761 136.936 180.379V182.243C136.936 183.84 137.96 184.762 139.433 184.762C140.908 184.762 141.932 183.861 141.932 182.243V180.379ZM144.308 182.489C144.308 185.212 142.28 186.892 139.433 186.892C136.587 186.892 134.56 185.212 134.56 182.489V180.133C134.56 177.409 136.587 175.709 139.433 175.709C142.28 175.709 144.308 177.409 144.308 180.133V182.489Z" fill="#FEFEFE"/>
<path d="M147.483 186.667V177.983H145.845V175.873H147.483V175.135C147.483 172.678 149.142 171.429 151.6 171.429H153.074V173.559H151.804C150.617 173.559 150.021 174.031 150.021 175.299V175.873H153.032V177.983H150.003V186.667H147.483Z" fill="#FEFEFE"/>
<path d="M156.064 185.665C156.064 186.443 155.47 186.852 154.652 186.852C153.853 186.852 153.239 186.443 153.239 185.665V185.235C153.239 184.456 153.853 184.047 154.652 184.047C155.47 184.047 156.064 184.456 156.064 185.235V185.665Z" fill="#FEFEFE"/>
<path d="M163.396 184.311H164.113C164.994 184.311 165.485 183.799 165.485 182.919V171.429H168.291V182.12C168.291 185.049 167.247 186.667 164.195 186.667H163.744H163.396V184.311V184.311Z" fill="#FEFEFE"/>
<path d="M178 180.137C178 178.601 177.099 177.761 175.603 177.761C174.088 177.761 173.166 178.601 173.166 180.158V180.424H178V180.137ZM180.313 183.27C180.313 185.462 178.428 186.853 175.582 186.853C172.796 186.853 170.81 185.339 170.81 182.697V180.137C170.81 177.413 172.796 175.713 175.582 175.713C178.387 175.713 180.335 177.331 180.335 180.178V182.083H173.166V182.615C173.166 184.151 174.19 184.827 175.603 184.827C176.996 184.827 177.938 184.336 177.938 183.168H180.313V183.27V183.27Z" fill="#FEFEFE"/>
<path d="M189.224 179.379C189.224 178.232 188.425 177.7 187.032 177.7C185.639 177.7 184.922 178.273 184.922 179.031C184.922 181.509 191.7 179.051 191.7 183.475C191.7 185.585 189.877 186.835 187.032 186.835C184.041 186.835 182.321 185.503 182.321 183.312V183.189H184.818C184.818 184.336 185.639 184.868 187.072 184.868C188.486 184.868 189.284 184.315 189.284 183.537C189.284 181.304 182.505 183.578 182.505 179.092C182.505 176.962 184.287 175.713 187.092 175.713C190.062 175.713 191.659 177.065 191.659 179.256V179.379H189.224V179.379Z" fill="#FEFEFE"/>
<path d="M200.447 179.379C200.447 178.232 199.648 177.7 198.255 177.7C196.863 177.7 196.145 178.273 196.145 179.031C196.145 181.509 202.923 179.051 202.923 183.475C202.923 185.585 201.101 186.835 198.255 186.835C195.265 186.835 193.544 185.503 193.544 183.312V183.189H196.042C196.042 184.336 196.863 184.868 198.296 184.868C199.709 184.868 200.508 184.315 200.508 183.537C200.508 181.304 193.728 183.578 193.728 179.092C193.728 176.962 195.511 175.713 198.315 175.713C201.285 175.713 202.884 177.065 202.884 179.256V179.379H200.447V179.379Z" fill="#FEFEFE"/>
<path d="M212.099 180.137C212.099 178.601 211.2 177.761 209.703 177.761C208.189 177.761 207.267 178.601 207.267 180.158V180.424H212.099V180.137ZM214.414 183.27C214.414 185.462 212.53 186.853 209.683 186.853C206.897 186.853 204.91 185.339 204.91 182.697V180.137C204.91 177.413 206.897 175.713 209.683 175.713C212.488 175.713 214.434 177.331 214.434 180.178V182.083H207.267V182.615C207.267 184.151 208.291 184.827 209.703 184.827C211.097 184.827 212.038 184.336 212.038 183.168H214.414V183.27V183.27Z" fill="#FEFEFE"/>
<path d="M223.692 186.668V179.581C223.692 178.762 223.241 177.984 222.258 177.984C221.705 177.984 221.296 178.188 220.845 178.455L219.268 179.397V186.668H216.79V175.874H219.248V177.144L220.395 176.447C221.214 175.935 221.971 175.773 222.791 175.751C224.9 175.751 226.191 177.165 226.191 179.254V186.668H223.692V186.668Z" fill="#FEFEFE"/>
<path d="M238.725 186.667L233.748 171.429H236.841L240.403 183.308L244.03 171.429H247L241.982 186.667H238.725Z" fill="#FEFEFE"/>
<path d="M248.822 175.874H251.362V186.668H248.822V175.874ZM251.505 172.966C251.505 173.723 250.911 174.133 250.092 174.133C249.294 174.133 248.679 173.723 248.679 172.966V172.515C248.679 171.736 249.294 171.327 250.092 171.327C250.911 171.327 251.505 171.736 251.505 172.515V172.966Z" fill="#FEFEFE"/>
<path d="M261.11 179.355L259.39 178.392C258.939 178.146 258.448 177.983 257.875 177.983C256.851 177.983 256.175 178.679 256.175 179.744V182.816C256.175 183.902 256.851 184.598 257.875 184.598C258.448 184.598 258.939 184.414 259.39 184.168L261.11 183.226V179.355V179.355ZM261.131 186.667V185.499L259.883 186.175C259.042 186.646 258.264 186.81 257.465 186.81C255.232 186.81 253.758 185.315 253.758 183.123V179.498C253.758 177.327 255.275 175.771 257.506 175.771C258.304 175.771 259.042 175.934 259.883 176.405L261.11 177.082V171.429H263.548V186.667H261.131Z" fill="#FEFEFE"/>
<path d="M272.907 182.204H270.04C268.546 182.204 268.198 182.9 268.198 183.617C268.198 184.375 268.669 184.825 269.487 184.825C270.163 184.825 270.736 184.621 271.351 184.293L272.907 183.453V182.204ZM272.907 186.669V185.419L271.783 186.034C270.777 186.566 269.999 186.812 268.936 186.812C267.01 186.812 265.719 185.562 265.719 183.74C265.719 181.487 267.48 180.442 269.712 180.442H272.93V179.807C272.93 178.415 272.131 177.739 270.717 177.739C269.241 177.739 268.382 178.353 268.382 179.623H265.964V179.48C265.964 177.043 267.89 175.67 270.695 175.67C273.645 175.67 275.345 177.145 275.345 179.726V186.669H272.907V186.669Z" fill="#FEFEFE"/>
<path d="M277.802 171.432H280.362V186.67H277.802V171.432Z" fill="#FEFEFE"/>
</svg>
