<svg width="55" height="55" viewBox="0 0 55 55" fill="none" xmlns="http://www.w3.org/2000/svg">
<path d="M55 27.5C55 42.6878 42.6878 55 27.5 55C13.4874 55 1.92274 44.5197 0.217744 30.9695C0.0741211 29.8335 0 28.6752 0 27.5C0 25.3472 0.246963 23.2516 0.715 21.2412C3.54804 9.06941 14.465 0 27.5 0C40.5025 0 51.398 9.02451 54.2625 21.1515C54.6385 22.7375 54.8754 24.3763 54.9619 26.0543C54.9876 26.5335 55 27.0151 55 27.5Z" fill="#F2F2F2"/>
<g clip-path="url(#clip0)">
<path d="M21.2513 47C24.7006 47 27.5 44.1627 27.5 40.6667V34.3334H21.2513C17.8019 34.3334 15.0025 37.1707 15.0025 40.6667C15.0025 44.1627 17.8019 47 21.2513 47Z" fill="#BA9DF8"/>
<path d="M15.0025 28C15.0025 24.504 17.8019 21.6666 21.2513 21.6666H27.5V34.3333H21.2513C17.8019 34.3333 15.0025 31.496 15.0025 28Z" fill="#5F20E6"/>
<path d="M15.0029 15.3333C15.0029 11.8373 17.8024 9 21.2517 9H27.5004V21.6667H21.2517C17.8024 21.6667 15.0029 18.8293 15.0029 15.3333Z" fill="#7B4AE2"/>
<path d="M27.5 9H33.7488C37.1981 9 39.9975 11.8373 39.9975 15.3333C39.9975 18.8293 37.1981 21.6667 33.7488 21.6667H27.5V9Z" fill="#AB84FE"/>
<path d="M39.9975 28C39.9975 31.496 37.1981 34.3333 33.7488 34.3333C30.2994 34.3333 27.5 31.496 27.5 28C27.5 24.504 30.2994 21.6666 33.7488 21.6666C37.1981 21.6666 39.9975 24.504 39.9975 28Z" fill="#7B4AE2"/>
</g>
<defs>
<clipPath id="clip0">
<rect width="25" height="38" fill="white" transform="translate(15 9)"/>
</clipPath>
</defs>
</svg>
