<?xml version="1.0" encoding="UTF-8"?>
<!DOCTYPE svg PUBLIC "-//W3C//DTD SVG 1.1//EN" "http://www.w3.org/Graphics/SVG/1.1/DTD/svg11.dtd">
<!-- Creator: CorelDRAW 2019 (64-Bit) -->
<svg xmlns="http://www.w3.org/2000/svg" xml:space="preserve" width="33.8666mm" height="33.1612mm" version="1.1" style="shape-rendering:geometricPrecision; text-rendering:geometricPrecision; image-rendering:optimizeQuality; fill-rule:evenodd; clip-rule:evenodd"
viewBox="0 0 3386.66 3316.12"
 xmlns:xlink="http://www.w3.org/1999/xlink">
 <defs>
  <style type="text/css">
   <![CDATA[
    .fil0 {fill:white}
   ]]>
  </style>
 </defs>
 <g id="Layer_x0020_1">
  <metadata id="CorelCorpID_0Corel-Layer"/>
  <path class="fil0" d="M1692.82 -0.06c-934.93,0 -1693.12,761.15 -1693.12,1700.1 0,750.99 485.14,1388.11 1158.24,1613.11 84.67,15.66 115.57,-36.83 115.57,-81.91 0,-40.43 -1.48,-147.32 -2.33,-289.14 -470.96,102.66 -570.44,-227.96 -570.44,-227.96 -76.83,-196.43 -187.96,-248.71 -187.96,-248.71 -153.88,-105.41 11.43,-103.29 11.43,-103.29 169.97,12.06 259.29,175.26 259.29,175.26 151.13,259.71 396.45,184.78 492.97,141.18 15.24,-109.85 59.05,-184.78 107.53,-227.33 -375.92,-42.97 -771.31,-188.81 -771.31,-840.1 0,-185.63 66.04,-337.4 174.41,-456.35 -17.57,-42.97 -75.56,-215.9 16.51,-449.79 0,0 142.24,-45.72 465.67,174.2 135.04,-37.68 279.82,-56.51 423.97,-57.15 143.72,0.85 288.71,19.47 423.97,57.36 323.21,-219.92 465.24,-174.2 465.24,-174.2 92.29,234.1 34.29,406.82 16.93,449.79 108.58,118.96 173.99,270.72 173.99,456.35 0,652.99 -395.82,796.71 -773.01,838.83 60.75,52.49 114.93,156.21 114.93,314.75 0,227.33 -2.12,410.63 -2.12,466.3 0,45.51 30.48,98.42 116.42,81.7 672.04,-225.21 1156.76,-862.12 1156.76,-1612.9 0,-938.95 -758.19,-1700.1 -1693.54,-1700.1z"/>
 </g>
</svg>
