<svg width="55" height="44" viewBox="0 0 55 44" fill="none" xmlns="http://www.w3.org/2000/svg">
<path d="M46.7439 8.25609C46.0138 7.52616 44.868 7.41852 44.0146 8C40.7999 10.1912 24.6754 21.2096 22.9425 22.9424C20.4295 25.4555 20.4295 29.5444 22.9425 32.0576C24.199 33.314 25.8497 33.9423 27.5001 33.9423C29.1505 33.9423 30.8011 33.314 32.0577 32.0576C33.7905 30.3246 44.8088 14.2002 47.0001 10.9855C47.5813 10.1322 47.4738 8.98624 46.7439 8.25609ZM29.0191 29.0191C28.1816 29.8569 26.8185 29.8569 25.9809 29.0191C25.1433 28.1816 25.1432 26.8189 25.9805 25.9812C26.6538 25.3159 31.2318 22.0509 36.8644 18.1357C32.9493 23.7682 29.6843 28.346 29.0191 29.0191Z" fill="url(#paint0_linear)"/>
<path d="M9.90763 37.4928L7.25538 38.7866C5.3147 35.3231 4.29688 31.4573 4.29688 27.5C4.29688 24.6006 4.83151 21.8236 5.80723 19.2626L8.8463 20.7203C9.14601 20.864 9.46236 20.9321 9.77399 20.9321C10.5746 20.9321 11.3432 20.4826 11.7126 19.7123C12.2257 18.6425 11.7745 17.3592 10.7046 16.846L7.70408 15.4068C11.4334 9.32454 17.886 5.08406 25.3517 4.39549V7.62685C25.3517 8.81343 26.3135 9.77528 27.5001 9.77528C28.6867 9.77528 29.6485 8.81343 29.6485 7.62685V4.39388C32.2082 4.62688 34.6849 5.27871 37.0361 6.34004C38.1173 6.82827 39.3899 6.34713 39.8781 5.26593C40.3663 4.1844 39.8854 2.91199 38.8039 2.42376C35.2411 0.815547 31.438 0 27.5 0C20.1545 0 13.2487 2.86043 8.05449 8.05449C2.86054 13.2487 0 20.1545 0 27.5C0 32.928 1.61111 38.2072 4.65921 42.7663C5.06978 43.3802 5.74857 43.7208 6.4466 43.7208C6.76393 43.7208 7.08533 43.6505 7.38729 43.5032L11.7916 41.3547C12.8581 40.8345 13.3009 39.5483 12.7806 38.4819C12.2604 37.4155 10.9741 36.9728 9.90763 37.4928Z" fill="url(#paint1_linear)"/>
<path d="M52.5761 16.1962C52.088 15.1147 50.8158 14.6335 49.7339 15.1219C48.6525 15.6102 48.1716 16.8826 48.6598 17.964C50.0157 20.9673 50.7031 24.1757 50.7031 27.4999C50.7031 31.4632 49.6819 35.3352 47.7356 38.8027L44.9666 37.484C43.8955 36.974 42.6134 37.4287 42.1031 38.5002C41.593 39.5714 42.0479 40.8534 43.1192 41.3636L47.6309 43.512C47.9277 43.6533 48.2424 43.7209 48.5535 43.7209C49.2517 43.7209 49.9306 43.3798 50.3407 42.7663C53.3889 38.2071 55 32.928 55 27.4999C55 23.562 54.1844 19.7588 52.5761 16.1962Z" fill="url(#paint2_linear)"/>
<defs>
<linearGradient id="paint0_linear" x1="3" y1="21" x2="53.5" y2="21" gradientUnits="userSpaceOnUse">
<stop stop-color="#7B4AE2"/>
<stop offset="1" stop-color="#090E16" stop-opacity="0.15"/>
</linearGradient>
<linearGradient id="paint1_linear" x1="4.75494e-07" y1="22" x2="52.5" y2="22" gradientUnits="userSpaceOnUse">
<stop stop-color="#7B4AE2"/>
<stop offset="1" stop-color="#090E16" stop-opacity="0.15"/>
</linearGradient>
<linearGradient id="paint2_linear" x1="-0.5" y1="29" x2="55" y2="29" gradientUnits="userSpaceOnUse">
<stop stop-color="#7B4AE2"/>
<stop offset="1" stop-color="#090E16" stop-opacity="0.2"/>
</linearGradient>
</defs>
</svg>
