<svg width="55" height="55" viewBox="0 0 55 55" fill="none" xmlns="http://www.w3.org/2000/svg">
<g clip-path="url(#clip0)">
<path d="M55 27.5C55 36.3426 50.8256 44.211 44.3401 49.2419C39.6875 52.8517 33.8452 55 27.5 55C21.2121 55 15.4179 52.8898 10.7856 49.3383C4.22823 44.3131 0 36.3999 0 27.5C0 12.3122 12.3122 0 27.5 0C42.6878 0 55 12.3122 55 27.5Z" fill="#F2F2F2"/>
<path d="M47.4796 12.8341L44.3401 49.2418C39.6875 52.8517 33.8452 55 27.5 55C21.2121 55 15.4179 52.8898 10.7856 49.3383L7.63823 12.8341H47.4796Z" fill="#7B4AE2"/>
<path d="M27.5587 16.2474V54.1586L40.6549 50.4614L43.5762 16.2474H27.5587Z" fill="#9974E8"/>
<path d="M15.1361 21.004L16.4203 36.211H33.4899L32.9315 42.4927L27.559 43.9476L21.9635 42.3801L21.823 38.4636H16.6107L17.2632 46.1851L27.559 49.0948L37.8546 46.1851L39.1306 31.0767H21.1544L20.7082 26.1525L20.7081 26.1523L39.5555 26.0536L39.9818 21.004H15.1361Z" fill="white"/>
<path d="M16.2378 1.8042V4.41681H13.7415V1.8042H11.4193V9.29333H13.7415V6.85507H16.2378V9.29333H18.56V1.8042H16.2378Z" fill="#090E16"/>
<path d="M26.804 1.8042H19.663V4.41681H21.9853V9.35155H24.4818V4.41681H26.804V1.8042Z" fill="#090E16"/>
<path d="M40.0989 6.9712V1.86243H37.6024V6.9712V9.35167H40.0989H43.6982V6.9712H40.0989Z" fill="#090E16"/>
<path d="M33.8287 1.86243L32.0871 4.53293L30.3454 1.86243H27.849V9.35167H30.3454V5.63594L32.0871 8.30667L33.8287 5.63594V9.35167H36.3251V1.86243H33.8287Z" fill="#090E16"/>
</g>
<defs>
<clipPath id="clip0">
<rect width="55" height="55" fill="white"/>
</clipPath>
</defs>
</svg>
