<svg width="300" height="216" viewBox="0 0 300 216" fill="none" xmlns="http://www.w3.org/2000/svg">
<path d="M211.299 158.311C211.299 158.547 211.044 158.738 210.734 158.738H88.5658C88.2529 158.738 88 158.547 88 158.311C88 158.075 88.2529 157.882 88.5658 157.882H210.734C211.044 157.882 211.299 158.075 211.299 158.311Z" fill="#FEFEFE"/>
<path d="M121.184 146.484C121.184 147.478 120.823 148.252 120.102 148.807C119.38 149.363 118.401 149.64 117.164 149.64C115.824 149.64 114.793 149.468 114.072 149.123V147.858C114.535 148.054 115.04 148.208 115.587 148.322C116.134 148.434 116.674 148.491 117.211 148.491C118.086 148.491 118.747 148.325 119.19 147.993C119.632 147.662 119.855 147.199 119.855 146.608C119.855 146.217 119.776 145.897 119.619 145.647C119.461 145.398 119.198 145.167 118.83 144.957C118.461 144.745 117.901 144.506 117.149 144.238C116.098 143.863 115.346 143.418 114.895 142.903C114.444 142.389 114.219 141.718 114.219 140.889C114.219 140.02 114.546 139.328 115.2 138.812C115.855 138.299 116.722 138.041 117.798 138.041C118.921 138.041 119.955 138.247 120.898 138.659L120.489 139.801C119.555 139.409 118.648 139.215 117.767 139.215C117.071 139.215 116.528 139.364 116.136 139.662C115.744 139.961 115.549 140.375 115.549 140.905C115.549 141.296 115.62 141.616 115.765 141.865C115.909 142.115 116.152 142.344 116.495 142.552C116.839 142.761 117.362 142.991 118.069 143.243C119.254 143.664 120.069 144.117 120.515 144.602C120.961 145.085 121.184 145.712 121.184 146.484V146.484Z" fill="#FEFEFE"/>
<path d="M125.613 148.582C126.413 148.582 127.04 148.364 127.496 147.927C127.952 147.489 128.181 146.878 128.181 146.09V145.326L126.897 145.38C125.876 145.416 125.14 145.574 124.689 145.855C124.238 146.135 124.014 146.571 124.014 147.163C124.014 147.625 124.155 147.978 124.435 148.22C124.716 148.462 125.108 148.582 125.613 148.582ZM127.515 139.893C127.294 139.893 127.077 139.846 126.866 139.75C126.654 139.655 126.447 139.55 126.244 139.433C126.04 139.318 125.843 139.212 125.656 139.117C125.468 139.022 125.286 138.975 125.111 138.975C124.854 138.975 124.659 139.052 124.528 139.206C124.397 139.361 124.295 139.594 124.222 139.908H123.464C123.532 139.286 123.713 138.798 124.01 138.446C124.306 138.094 124.689 137.917 125.157 137.917C125.394 137.917 125.624 137.965 125.845 138.06C126.068 138.155 126.278 138.261 126.479 138.377C126.681 138.492 126.874 138.598 127.059 138.693C127.245 138.788 127.42 138.835 127.585 138.835C127.838 138.835 128.026 138.76 128.149 138.608C128.272 138.456 128.374 138.221 128.45 137.901H129.216C129.149 138.523 128.97 139.012 128.679 139.364C128.388 139.717 128 139.893 127.515 139.893V139.893ZM128.513 149.485L128.258 148.282H128.195C127.774 148.811 127.353 149.17 126.932 149.358C126.512 149.546 125.987 149.64 125.359 149.64C124.518 149.64 123.86 149.424 123.383 148.991C122.906 148.56 122.668 147.945 122.668 147.147C122.668 145.439 124.037 144.544 126.773 144.461L128.212 144.416V143.891C128.212 143.226 128.069 142.737 127.782 142.42C127.496 142.103 127.039 141.946 126.41 141.946C125.704 141.946 124.905 142.161 124.014 142.593L123.619 141.614C124.037 141.388 124.494 141.21 124.992 141.082C125.489 140.953 125.987 140.888 126.488 140.888C127.497 140.888 128.246 141.113 128.733 141.56C129.22 142.007 129.463 142.726 129.463 143.714V149.485H128.513V149.485Z" fill="#FEFEFE"/>
<path d="M132.965 145.249C132.965 146.329 133.183 147.152 133.616 147.718C134.048 148.285 134.684 148.568 135.524 148.568C136.364 148.568 137.003 148.285 137.438 147.722C137.874 147.159 138.091 146.335 138.091 145.249C138.091 144.174 137.874 143.357 137.438 142.799C137.003 142.24 136.359 141.961 135.51 141.961C134.669 141.961 134.035 142.236 133.608 142.787C133.179 143.337 132.965 144.158 132.965 145.249ZM139.421 145.249C139.421 146.628 139.073 147.704 138.377 148.478C137.682 149.252 136.72 149.639 135.494 149.639C134.736 149.639 134.064 149.462 133.476 149.107C132.888 148.752 132.435 148.243 132.116 147.58C131.796 146.916 131.637 146.139 131.637 145.249C131.637 143.869 131.981 142.796 132.672 142.026C133.363 141.258 134.32 140.873 135.548 140.873C136.733 140.873 137.675 141.266 138.373 142.053C139.071 142.841 139.421 143.905 139.421 145.249V145.249Z" fill="#FEFEFE"/>
<path d="M147.291 143.922H148.473C149.638 143.922 150.481 143.734 151.001 143.358C151.523 142.983 151.783 142.381 151.783 141.552C151.783 140.806 151.538 140.251 151.048 139.885C150.558 139.52 149.796 139.338 148.76 139.338H147.291V143.922V143.922ZM153.143 141.49C153.143 142.633 152.754 143.511 151.972 144.126C151.191 144.741 150.074 145.048 148.62 145.048H147.291V149.486H145.977V138.203H148.907C151.731 138.203 153.143 139.299 153.143 141.49V141.49Z" fill="#FEFEFE"/>
<path d="M157.627 148.583C158.426 148.583 159.053 148.364 159.509 147.928C159.965 147.489 160.193 146.878 160.193 146.09V145.327L158.91 145.38C157.89 145.416 157.154 145.574 156.703 145.855C156.252 146.135 156.027 146.571 156.027 147.163C156.027 147.626 156.167 147.978 156.449 148.22C156.729 148.462 157.121 148.583 157.627 148.583V148.583ZM160.526 149.485L160.271 148.282H160.209C159.787 148.811 159.365 149.17 158.944 149.358C158.524 149.546 158.001 149.64 157.372 149.64C156.532 149.64 155.874 149.424 155.396 148.991C154.92 148.56 154.682 147.945 154.682 147.148C154.682 145.439 156.05 144.544 158.787 144.461L160.224 144.416V143.891C160.224 143.227 160.081 142.737 159.796 142.421C159.509 142.104 159.051 141.946 158.423 141.946C157.717 141.946 156.918 142.162 156.027 142.593L155.633 141.614C156.05 141.388 156.508 141.21 157.005 141.082C157.503 140.953 158.001 140.889 158.5 140.889C159.511 140.889 160.26 141.113 160.746 141.56C161.233 142.008 161.477 142.726 161.477 143.714V149.485H160.526V149.485Z" fill="#FEFEFE"/>
<path d="M165.327 141.028V146.515C165.327 147.205 165.485 147.719 165.798 148.059C166.113 148.398 166.605 148.568 167.275 148.568C168.161 148.568 168.81 148.326 169.22 147.842C169.63 147.359 169.834 146.569 169.834 145.473V141.028H171.117V149.486H170.057L169.873 148.352H169.803C169.541 148.769 169.175 149.088 168.709 149.308C168.243 149.53 167.71 149.64 167.113 149.64C166.082 149.64 165.31 149.397 164.797 148.908C164.285 148.419 164.028 147.637 164.028 146.56V141.028H165.327Z" fill="#FEFEFE"/>
<path d="M175.122 149.487H173.839V137.479H175.122V149.487Z" fill="#FEFEFE"/>
<path d="M178.701 145.249C178.701 146.329 178.918 147.152 179.351 147.718C179.782 148.285 180.42 148.568 181.26 148.568C182.099 148.568 182.738 148.285 183.173 147.722C183.609 147.159 183.827 146.335 183.827 145.249C183.827 144.174 183.609 143.357 183.173 142.799C182.738 142.24 182.094 141.961 181.245 141.961C180.405 141.961 179.771 142.236 179.343 142.787C178.915 143.337 178.701 144.158 178.701 145.249V145.249ZM185.155 145.249C185.155 146.628 184.808 147.704 184.114 148.478C183.417 149.252 182.455 149.639 181.228 149.639C180.471 149.639 179.799 149.462 179.211 149.107C178.623 148.752 178.17 148.243 177.851 147.58C177.532 146.916 177.372 146.139 177.372 145.249C177.372 143.869 177.716 142.796 178.408 142.026C179.098 141.258 180.055 140.873 181.283 140.873C182.469 140.873 183.41 141.266 184.108 142.053C184.806 142.841 185.155 143.905 185.155 145.249V145.249Z" fill="#FEFEFE"/>
<path d="M157.163 32.3201C157.163 33.1301 156.509 33.7825 155.703 33.7825H143.598C142.788 33.7825 142.136 33.1301 142.136 32.3201V20.2177C142.136 19.41 142.788 18.7539 143.598 18.7539H155.703C156.509 18.7539 157.163 19.41 157.163 20.2177V32.3201V32.3201Z" fill="#FEFEFE"/>
<path d="M175.197 32.3201C175.197 33.1301 174.543 33.7825 173.737 33.7825H161.631C160.823 33.7825 160.168 33.1301 160.168 32.3201V20.2177C160.168 19.41 160.823 18.7539 161.631 18.7539H173.737C174.543 18.7539 175.197 19.41 175.197 20.2177V32.3201Z" fill="#FEFEFE"/>
<path d="M175.197 68.3876C175.197 69.197 174.543 69.8503 173.737 69.8503H161.631C160.823 69.8503 160.168 69.197 160.168 68.3876V56.2858C160.168 55.4758 160.823 54.8223 161.631 54.8223H173.737C174.543 54.8223 175.197 55.4758 175.197 56.2858V68.3876V68.3876Z" fill="#FEFEFE"/>
<path d="M139.128 50.3392C139.128 51.15 138.475 51.8036 137.667 51.8036H125.564C124.754 51.8036 124.102 51.15 124.102 50.3392V38.2394C124.102 37.4308 124.754 36.7764 125.564 36.7764H137.667C138.475 36.7764 139.128 37.4308 139.128 38.2394V50.3392Z" fill="#FEFEFE"/>
<path d="M157.163 50.3392C157.163 51.15 156.509 51.8036 155.703 51.8036H143.598C142.788 51.8036 142.136 51.15 142.136 50.3392V38.2394C142.136 37.4308 142.788 36.7764 143.598 36.7764H155.703C156.509 36.7764 157.163 37.4308 157.163 38.2394V50.3392V50.3392Z" fill="#FEFEFE"/>
<path d="M139.128 68.3876C139.128 69.197 138.475 69.8503 137.667 69.8503H125.564C124.754 69.8503 124.102 69.197 124.102 68.3876V56.2858C124.102 55.4758 124.754 54.8223 125.564 54.8223H137.667C138.475 54.8223 139.128 55.4758 139.128 56.2858V68.3876V68.3876Z" fill="#FEFEFE"/>
<path d="M157.163 68.3876C157.163 69.197 156.509 69.8503 155.703 69.8503H143.598C142.788 69.8503 142.136 69.197 142.136 68.3876V56.2858C142.136 55.4758 142.788 54.8223 143.598 54.8223H155.703C156.509 54.8223 157.163 55.4758 157.163 56.2858V68.3876V68.3876Z" fill="#FEFEFE"/>
<path d="M139.128 86.4385C139.128 87.2488 138.475 87.9004 137.667 87.9004H125.564C124.754 87.9004 124.102 87.2488 124.102 86.4385V74.3378C124.102 73.5293 124.754 72.876 125.564 72.876H137.667C138.475 72.876 139.128 73.5293 139.128 74.3378V86.4385Z" fill="#FEFEFE"/>
<path d="M157.163 86.4385C157.163 87.2488 156.509 87.9004 155.703 87.9004H143.598C142.788 87.9004 142.136 87.2488 142.136 86.4385V74.3378C142.136 73.5293 142.788 72.876 143.598 72.876H155.703C156.509 72.876 157.163 73.5293 157.163 74.3378V86.4385V86.4385Z" fill="#FEFEFE"/>
<path d="M139.879 26.2659C139.879 30.8324 136.18 34.5335 131.614 34.5335C127.051 34.5335 123.35 30.8324 123.35 26.2659C123.35 21.6983 127.051 18 131.614 18C136.18 18 139.879 21.6983 139.879 26.2659V26.2659Z" fill="#FEFEFE"/>
<path d="M95.2123 98.4141H98.3884V113.366H95.2123V98.4141Z" fill="#FEFEFE"/>
<path d="M115.467 113.366H111.431L104.915 102.055H104.823C104.952 104.053 105.017 105.478 105.017 106.33V113.366H102.179V98.4141H106.184L112.69 109.612H112.762C112.659 107.669 112.608 106.296 112.608 105.491V98.4141H115.467V113.366Z" fill="#FEFEFE"/>
<path d="M128.12 109.216C128.12 110.566 127.634 111.629 126.661 112.406C125.687 113.183 124.332 113.572 122.598 113.572C121 113.572 119.587 113.273 118.357 112.673V109.727C119.367 110.177 120.223 110.495 120.923 110.678C121.624 110.862 122.264 110.954 122.843 110.954C123.54 110.954 124.075 110.821 124.448 110.555C124.82 110.289 125.006 109.895 125.006 109.37C125.006 109.076 124.923 108.814 124.76 108.587C124.596 108.359 124.355 108.138 124.037 107.928C123.72 107.716 123.073 107.378 122.096 106.915C121.181 106.485 120.494 106.072 120.037 105.677C119.579 105.282 119.214 104.822 118.941 104.297C118.668 103.771 118.531 103.158 118.531 102.455C118.531 101.133 118.98 100.094 119.879 99.336C120.775 98.5797 122.017 98.2021 123.602 98.2021C124.38 98.2021 125.123 98.293 125.83 98.4776C126.537 98.6613 127.276 98.9201 128.049 99.2549L127.024 101.72C126.224 101.392 125.564 101.164 125.042 101.034C124.519 100.905 124.005 100.839 123.499 100.839C122.898 100.839 122.437 100.979 122.117 101.259C121.796 101.539 121.636 101.903 121.636 102.353C121.636 102.632 121.7 102.876 121.829 103.085C121.959 103.293 122.166 103.494 122.45 103.688C122.733 103.883 123.403 104.232 124.462 104.737C125.863 105.404 126.822 106.074 127.342 106.746C127.861 107.418 128.12 108.241 128.12 109.216V109.216Z" fill="#FEFEFE"/>
<path d="M136.659 113.366H133.482V101.053H129.415V98.4141H140.726V101.053H136.659V113.366Z" fill="#FEFEFE"/>
<path d="M143.031 98.4141H146.207V113.366H143.031V98.4141Z" fill="#FEFEFE"/>
<path d="M155.755 113.366H152.578V101.053H148.511V98.4141H159.822V101.053H155.755V113.366Z" fill="#FEFEFE"/>
<path d="M174.377 98.4141V108.089C174.377 109.194 174.13 110.162 173.634 110.994C173.139 111.826 172.424 112.463 171.488 112.906C170.553 113.349 169.446 113.571 168.169 113.571C166.243 113.571 164.747 113.079 163.682 112.093C162.617 111.108 162.083 109.759 162.083 108.049V98.4141H165.25V107.567C165.25 108.72 165.482 109.565 165.946 110.103C166.411 110.643 167.178 110.912 168.251 110.912C169.289 110.912 170.042 110.641 170.51 110.098C170.978 109.557 171.212 108.707 171.212 107.547V98.4141H174.377V98.4141Z" fill="#FEFEFE"/>
<path d="M183.868 113.366H180.691V101.053H176.624V98.4141H187.935V101.053H183.868V113.366Z" fill="#FEFEFE"/>
<path d="M192.922 105.872C192.922 107.542 193.24 108.801 193.875 109.647C194.511 110.491 195.459 110.914 196.723 110.914C199.257 110.914 200.524 109.234 200.524 105.872C200.524 102.504 199.263 100.82 196.743 100.82C195.479 100.82 194.527 101.245 193.885 102.093C193.243 102.942 192.922 104.202 192.922 105.872V105.872ZM203.853 105.872C203.853 108.347 203.238 110.249 202.009 111.579C200.779 112.908 199.017 113.573 196.723 113.573C194.428 113.573 192.666 112.908 191.437 111.579C190.207 110.249 189.593 108.341 189.593 105.852C189.593 103.363 190.208 101.463 191.442 100.15C192.674 98.8377 194.442 98.1816 196.743 98.1816C199.046 98.1816 200.806 98.8428 202.025 100.165C203.243 101.488 203.853 103.391 203.853 105.872V105.872Z" fill="#FEFEFE"/>
<path d="M108.767 131.338H105.641V116.386H114.227V118.984H108.767V122.84H113.847V125.426H108.767V131.338Z" fill="#FEFEFE"/>
<path d="M125.827 131.338H117.201V116.386H125.827V118.984H120.377V122.266H125.448V124.864H120.377V128.72H125.827V131.338Z" fill="#FEFEFE"/>
<path d="M138.08 123.8C138.08 120.589 136.658 118.984 133.817 118.984H132.127V128.72H133.49C136.55 128.72 138.08 127.081 138.08 123.8ZM141.378 123.719C141.378 126.18 140.677 128.065 139.273 129.374C137.869 130.683 135.842 131.338 133.193 131.338H128.951V116.386H133.654C136.099 116.386 137.998 117.031 139.35 118.319C140.702 119.607 141.378 121.408 141.378 123.719V123.719Z" fill="#FEFEFE"/>
<path d="M153.109 131.338H144.483V116.386H153.109V118.984H147.658V122.266H152.73V124.864H147.658V128.72H153.109V131.338Z" fill="#FEFEFE"/>
<path d="M159.409 123.024H160.434C161.438 123.024 162.179 122.856 162.657 122.522C163.135 122.189 163.374 121.663 163.374 120.948C163.374 120.238 163.13 119.735 162.641 119.434C162.153 119.134 161.396 118.984 160.372 118.984H159.409V123.024V123.024ZM159.409 125.601V131.338H156.233V116.386H160.598C162.633 116.386 164.139 116.756 165.116 117.495C166.093 118.235 166.581 119.358 166.581 120.865C166.581 121.745 166.338 122.528 165.854 123.213C165.368 123.898 164.682 124.435 163.794 124.823C166.048 128.185 167.516 130.356 168.2 131.338H164.675L161.1 125.601H159.409V125.601Z" fill="#FEFEFE"/>
<path d="M177.484 125.121C176.48 121.896 175.915 120.073 175.788 119.65C175.662 119.227 175.571 118.892 175.517 118.647C175.291 119.52 174.646 121.678 173.581 125.121H177.484ZM179.329 131.339L178.242 127.779H172.781L171.696 131.339H168.274L173.56 116.325H177.443L182.75 131.339H179.329Z" fill="#FEFEFE"/>
<path d="M184.678 131.338V116.386H187.854V128.72H193.929V131.338H184.678Z" fill="#FEFEFE"/>
<path d="M125.794 165.717C124.551 165.717 123.571 166.13 122.853 166.956C122.134 167.781 121.774 168.912 121.774 170.348C121.774 171.825 122.121 172.965 122.814 173.77C123.507 174.576 124.495 174.978 125.778 174.978C126.567 174.978 127.466 174.836 128.477 174.554V175.703C127.693 175.996 126.727 176.143 125.578 176.143C123.913 176.143 122.628 175.64 121.724 174.63C120.82 173.623 120.367 172.19 120.367 170.332C120.367 169.17 120.584 168.152 121.021 167.276C121.456 166.402 122.085 165.728 122.907 165.254C123.729 164.782 124.696 164.544 125.81 164.544C126.995 164.544 128.03 164.76 128.918 165.192L128.361 166.32C127.505 165.918 126.65 165.717 125.794 165.717V165.717Z" fill="#FEFEFE"/>
<path d="M133.061 175.087C133.86 175.087 134.487 174.869 134.943 174.432C135.399 173.994 135.628 173.383 135.628 172.595V171.831L134.344 171.884C133.324 171.921 132.588 172.079 132.137 172.36C131.686 172.64 131.461 173.076 131.461 173.668C131.461 174.13 131.601 174.483 131.882 174.725C132.164 174.967 132.555 175.087 133.061 175.087ZM131.152 166.236C131.807 165.536 132.265 165.022 132.527 164.692C132.791 164.363 132.981 164.093 133.1 163.882H134.383C134.497 164.098 134.694 164.377 134.975 164.719C135.256 165.061 135.718 165.567 136.363 166.236V166.413H135.442C134.989 166.13 134.419 165.652 133.734 164.978C133.033 165.667 132.468 166.146 132.04 166.413H131.152V166.236V166.236ZM135.96 175.99L135.706 174.787H135.644C135.221 175.316 134.799 175.675 134.379 175.863C133.959 176.051 133.435 176.144 132.806 176.144C131.966 176.144 131.307 175.928 130.83 175.496C130.354 175.064 130.115 174.45 130.115 173.652C130.115 171.943 131.484 171.049 134.22 170.966L135.658 170.921V170.396C135.658 169.731 135.516 169.241 135.229 168.925C134.943 168.608 134.486 168.451 133.858 168.451C133.151 168.451 132.353 168.666 131.461 169.098L131.067 168.118C131.484 167.892 131.941 167.715 132.439 167.586C132.936 167.457 133.435 167.393 133.935 167.393C134.944 167.393 135.694 167.618 136.181 168.064C136.667 168.512 136.911 169.23 136.911 170.219V175.99H135.96V175.99Z" fill="#FEFEFE"/>
<path d="M150.355 175.989V170.487C150.355 169.812 150.211 169.307 149.922 168.97C149.633 168.633 149.185 168.464 148.578 168.464C147.778 168.464 147.187 168.694 146.806 169.152C146.425 169.609 146.234 170.314 146.234 171.265V175.989H144.952V170.487C144.952 169.812 144.807 169.307 144.518 168.97C144.229 168.633 143.779 168.464 143.165 168.464C142.362 168.464 141.772 168.705 141.399 169.186C141.025 169.668 140.838 170.456 140.838 171.551V175.989H139.555V167.531H140.599L140.807 168.689H140.869C141.111 168.277 141.453 167.955 141.894 167.723C142.334 167.492 142.827 167.376 143.374 167.376C144.699 167.376 145.564 167.855 145.972 168.812H146.033C146.286 168.369 146.652 168.019 147.132 167.762C147.611 167.505 148.157 167.376 148.77 167.376C149.729 167.376 150.446 167.622 150.924 168.113C151.399 168.604 151.638 169.391 151.638 170.471V175.989H150.355V175.989Z" fill="#FEFEFE"/>
<path d="M158.039 168.464C157.174 168.464 156.547 168.703 156.16 169.183C155.774 169.66 155.575 170.422 155.565 171.467V171.751C155.565 172.94 155.763 173.79 156.16 174.303C156.558 174.814 157.194 175.071 158.07 175.071C158.802 175.071 159.376 174.774 159.791 174.183C160.205 173.591 160.412 172.776 160.412 171.736C160.412 170.681 160.205 169.872 159.791 169.309C159.376 168.746 158.791 168.464 158.039 168.464ZM158.225 176.142C157.673 176.142 157.17 176.041 156.713 175.838C156.257 175.635 155.876 175.323 155.565 174.9H155.473C155.534 175.394 155.565 175.862 155.565 176.305V179.786H154.282V167.531H155.325L155.503 168.689H155.565C155.895 168.225 156.279 167.89 156.718 167.684C157.155 167.479 157.658 167.376 158.225 167.376C159.348 167.376 160.216 167.759 160.827 168.526C161.438 169.292 161.743 170.368 161.743 171.751C161.743 173.141 161.431 174.22 160.811 174.989C160.19 175.758 159.328 176.142 158.225 176.142V176.142Z" fill="#FEFEFE"/>
<path d="M165.19 167.53V173.017C165.19 173.707 165.348 174.221 165.662 174.561C165.976 174.9 166.469 175.07 167.139 175.07C168.024 175.07 168.673 174.828 169.083 174.344C169.493 173.861 169.697 173.071 169.697 171.975V167.53H170.98V175.988H169.921L169.736 174.854H169.666C169.404 175.271 169.038 175.59 168.573 175.81C168.107 176.032 167.574 176.142 166.976 176.142C165.946 176.142 165.173 175.899 164.66 175.41C164.148 174.921 163.891 174.139 163.891 173.063V167.53H165.19Z" fill="#FEFEFE"/>
<path d="M179.167 173.681C179.167 174.469 178.874 175.076 178.286 175.502C177.698 175.93 176.874 176.143 175.812 176.143C174.689 176.143 173.812 175.966 173.184 175.611V174.423C173.592 174.628 174.027 174.79 174.494 174.909C174.961 175.028 175.41 175.086 175.844 175.086C176.514 175.086 177.029 174.98 177.39 174.766C177.75 174.552 177.93 174.227 177.93 173.79C177.93 173.461 177.787 173.179 177.501 172.945C177.216 172.711 176.657 172.435 175.827 172.115C175.039 171.822 174.478 171.565 174.146 171.347C173.813 171.129 173.566 170.881 173.403 170.602C173.243 170.325 173.161 169.993 173.161 169.607C173.161 168.918 173.441 168.373 174.003 167.975C174.565 167.576 175.335 167.376 176.315 167.376C177.227 167.376 178.118 167.561 178.989 167.932L178.533 168.974C177.683 168.625 176.912 168.449 176.222 168.449C175.613 168.449 175.155 168.545 174.846 168.735C174.537 168.925 174.382 169.188 174.382 169.522C174.382 169.748 174.441 169.941 174.556 170.101C174.671 170.26 174.86 170.412 175.116 170.556C175.375 170.7 175.869 170.909 176.601 171.181C177.606 171.547 178.284 171.914 178.638 172.285C178.991 172.655 179.167 173.121 179.167 173.681V173.681Z" fill="#FEFEFE"/>
<path d="M125.288 197.056C124.797 197.056 124.41 196.985 124.127 196.844V195.709C124.498 195.813 124.885 195.866 125.288 195.866C125.806 195.866 126.2 195.709 126.469 195.395C126.738 195.082 126.873 194.63 126.873 194.041V182.593H128.207V193.932C128.207 194.923 127.955 195.692 127.452 196.237C126.951 196.783 126.229 197.056 125.288 197.056V197.056Z" fill="#FEFEFE"/>
<path d="M133.399 193.125C134.21 193.125 134.846 192.903 135.309 192.46C135.771 192.017 136.004 191.395 136.004 190.596V189.821L134.701 189.876C133.665 189.912 132.92 190.073 132.462 190.358C132.004 190.643 131.775 191.084 131.775 191.684C131.775 192.155 131.918 192.512 132.203 192.757C132.488 193.002 132.887 193.125 133.399 193.125V193.125ZM136.34 194.042L136.082 192.82H136.018C135.591 193.357 135.162 193.722 134.736 193.913C134.31 194.103 133.778 194.198 133.14 194.198C132.287 194.198 131.62 193.98 131.136 193.54C130.652 193.103 130.41 192.478 130.41 191.669C130.41 189.936 131.799 189.028 134.576 188.943L136.035 188.897V188.365C136.035 187.692 135.89 187.194 135.599 186.873C135.309 186.552 134.845 186.392 134.207 186.392C133.49 186.392 132.679 186.61 131.775 187.049L131.375 186.055C131.799 185.825 132.262 185.645 132.768 185.515C133.272 185.383 133.778 185.318 134.285 185.318C135.311 185.318 136.07 185.546 136.564 185.999C137.058 186.454 137.305 187.183 137.305 188.185V194.042H136.34V194.042Z" fill="#FEFEFE"/>
<path d="M143.423 194.197C142.178 194.197 141.215 193.815 140.533 193.051C139.85 192.285 139.509 191.204 139.509 189.805C139.509 188.369 139.856 187.26 140.549 186.477C141.241 185.693 142.229 185.302 143.51 185.302C143.922 185.302 144.335 185.346 144.749 185.435C145.163 185.525 145.486 185.628 145.722 185.749L145.322 186.852C145.034 186.738 144.721 186.642 144.38 186.566C144.04 186.49 143.74 186.453 143.478 186.453C141.732 186.453 140.859 187.565 140.859 189.789C140.859 190.843 141.072 191.652 141.499 192.216C141.925 192.78 142.556 193.062 143.392 193.062C144.108 193.062 144.843 192.908 145.597 192.6V193.751C145.021 194.049 144.297 194.197 143.423 194.197V194.197Z" fill="#FEFEFE"/>
<path d="M149.981 193.125C150.792 193.125 151.428 192.903 151.891 192.46C152.353 192.017 152.585 191.395 152.585 190.596V189.821L151.283 189.876C150.248 189.912 149.501 190.073 149.043 190.358C148.586 190.643 148.358 191.084 148.358 191.684C148.358 192.155 148.5 192.512 148.785 192.757C149.07 193.002 149.469 193.125 149.981 193.125V193.125ZM152.922 194.042L152.665 192.82H152.6C152.172 193.357 151.745 193.722 151.319 193.913C150.892 194.103 150.36 194.198 149.721 194.198C148.87 194.198 148.202 193.98 147.717 193.54C147.234 193.103 146.992 192.478 146.992 191.669C146.992 189.936 148.382 189.028 151.158 188.943L152.617 188.897V188.365C152.617 187.692 152.471 187.194 152.182 186.873C151.891 186.552 151.427 186.392 150.789 186.392C150.072 186.392 149.262 186.61 148.358 187.049L147.957 186.055C148.382 185.825 148.845 185.645 149.35 185.515C149.855 185.383 150.36 185.318 150.868 185.318C151.892 185.318 152.652 185.546 153.146 185.999C153.641 186.454 153.888 187.183 153.888 188.185V194.042H152.922V194.042Z" fill="#FEFEFE"/>
<path d="M160.492 185.302C160.873 185.302 161.216 185.333 161.52 185.395L161.339 186.602C160.983 186.523 160.67 186.484 160.398 186.484C159.702 186.484 159.107 186.766 158.613 187.33C158.12 187.894 157.873 188.596 157.873 189.436V194.04H156.57V185.459H157.644L157.794 187.048H157.856C158.176 186.489 158.559 186.058 159.009 185.756C159.459 185.454 159.953 185.302 160.492 185.302V185.302Z" fill="#FEFEFE"/>
<path d="M166.406 186.39C165.716 186.39 165.165 186.615 164.755 187.064C164.345 187.512 164.104 188.134 164.03 188.927H168.525C168.525 188.108 168.341 187.48 167.974 187.044C167.609 186.609 167.087 186.39 166.406 186.39ZM166.759 194.197C165.488 194.197 164.486 193.811 163.752 193.039C163.016 192.266 162.65 191.193 162.65 189.82C162.65 188.437 162.99 187.338 163.673 186.523C164.355 185.709 165.271 185.302 166.422 185.302C167.499 185.302 168.352 185.656 168.979 186.363C169.607 187.071 169.921 188.003 169.921 189.162V189.984H163.998C164.024 190.992 164.28 191.756 164.763 192.279C165.246 192.801 165.928 193.062 166.807 193.062C167.732 193.062 168.646 192.869 169.552 192.482V193.642C169.091 193.84 168.656 193.982 168.247 194.067C167.834 194.154 167.34 194.197 166.759 194.197V194.197Z" fill="#FEFEFE"/>
<path d="M173.443 194.042H172.141V185.46H173.443V194.042ZM172.085 184.128C172.337 183.805 172.607 183.414 172.897 182.955C173.188 182.495 173.416 182.096 173.584 181.757H175.169V181.92C174.938 182.261 174.596 182.678 174.141 183.174C173.685 183.669 173.291 184.053 172.956 184.325H172.085V184.128V184.128Z" fill="#FEFEFE"/>
</svg>
