<?xml version="1.0" encoding="UTF-8"?>
<!DOCTYPE svg PUBLIC "-//W3C//DTD SVG 1.1//EN" "http://www.w3.org/Graphics/SVG/1.1/DTD/svg11.dtd">
<!-- Creator: CorelDRAW 2019 (64-Bit) -->
<svg xmlns="http://www.w3.org/2000/svg" xml:space="preserve" width="20.4028mm" height="20.4028mm" version="1.1" style="shape-rendering:geometricPrecision; text-rendering:geometricPrecision; image-rendering:optimizeQuality; fill-rule:evenodd; clip-rule:evenodd"
viewBox="0 0 2040.28 2040.28"
 xmlns:xlink="http://www.w3.org/1999/xlink">
 <defs>
  <style type="text/css">
   <![CDATA[
    .fil0 {fill:white}
   ]]>
  </style>
 </defs>
 <g id="Layer_x0020_1">
  <metadata id="CorelCorpID_0Corel-Layer"/>
  <path class="fil0" d="M2035.36 598.8c-4.78,-108.41 -22.31,-182.94 -47.43,-247.52 -25.9,-68.55 -65.76,-129.93 -117.98,-180.95 -51.02,-51.81 -112.8,-92.08 -180.56,-117.58 -64.96,-25.11 -139.1,-42.65 -247.51,-47.42 -109.22,-5.19 -143.89,-6.39 -420.9,-6.39 -277.01,0 -311.69,1.2 -420.5,5.98 -108.41,4.78 -182.94,22.33 -247.51,47.42 -68.57,25.91 -129.94,65.77 -180.96,117.99 -51.82,51.02 -92.06,112.8 -117.58,180.56 -25.12,64.97 -42.65,139.1 -47.43,247.51 -5.18,109.22 -6.38,143.89 -6.38,420.9 0,277.02 1.2,311.69 5.98,420.5 4.78,108.41 22.32,182.95 47.44,247.53 25.91,68.55 66.15,129.92 117.97,180.95 51.02,51.81 112.8,92.07 180.56,117.58 64.97,25.11 139.09,42.64 247.52,47.42 108.8,4.8 143.49,5.98 420.5,5.98 277.01,0 311.68,-1.18 420.5,-5.98 108.41,-4.78 182.94,-22.31 247.5,-47.42 137.12,-53.02 245.53,-161.43 298.55,-298.53 25.1,-64.97 42.64,-139.12 47.42,-247.53 4.78,-108.81 5.98,-143.49 5.98,-420.5 0,-277.01 -0.41,-311.68 -5.18,-420.5l0 0zm-183.74 833.03c-4.39,99.65 -21.12,153.45 -35.08,189.33 -34.28,88.88 -104.82,159.43 -193.71,193.71 -35.87,13.95 -90.07,30.69 -189.32,35.06 -107.62,4.8 -139.9,5.98 -412.13,5.98 -272.23,0 -304.91,-1.18 -412.14,-5.98 -99.64,-4.37 -153.45,-21.11 -189.32,-35.06 -44.23,-16.35 -84.5,-42.25 -117.18,-76.13 -33.87,-33.09 -59.78,-72.95 -76.13,-117.18 -13.95,-35.87 -30.69,-90.08 -35.06,-189.32 -4.8,-107.62 -5.98,-139.91 -5.98,-412.14 0,-272.24 1.18,-304.92 5.98,-412.13 4.37,-99.64 21.11,-153.45 35.06,-189.32 16.35,-44.25 42.25,-84.5 76.54,-117.2 33.07,-33.87 72.93,-59.78 117.17,-76.11 35.88,-13.96 90.09,-30.69 189.33,-35.08 107.62,-4.78 139.91,-5.98 412.12,-5.98 272.64,0 304.91,1.2 412.14,5.98 99.64,4.39 153.45,21.12 189.32,35.08 44.24,16.33 84.5,42.23 117.18,76.11 33.88,33.09 59.79,72.95 76.13,117.2 13.96,35.87 30.69,90.07 35.08,189.32 4.78,107.62 5.98,139.89 5.98,412.13 0,272.23 -1.2,304.11 -5.98,411.73l0 0zm-830.64 -936.66c-289.36,0 -524.13,234.76 -524.13,524.13 0,289.38 234.77,524.13 524.13,524.13 289.37,0 524.13,-234.75 524.13,-524.13 0,-289.37 -234.76,-524.13 -524.13,-524.13zm0 864.12c-187.72,0 -339.99,-152.25 -339.99,-339.99 0,-187.74 152.27,-339.99 339.99,-339.99 187.74,0 339.99,152.25 339.99,339.99 0,187.74 -152.25,339.99 -339.99,339.99zm667.23 -884.84c0,67.57 -54.79,122.36 -122.38,122.36 -67.57,0 -122.36,-54.79 -122.36,-122.36 0,-67.59 54.79,-122.36 122.36,-122.36 67.59,0 122.38,54.77 122.38,122.36z"/>
 </g>
</svg>
