<?xml version="1.0" encoding="UTF-8"?>
<!DOCTYPE svg PUBLIC "-//W3C//DTD SVG 1.1//EN" "http://www.w3.org/Graphics/SVG/1.1/DTD/svg11.dtd">
<!-- Creator: CorelDRAW 2019 (64-Bit) -->
<svg xmlns="http://www.w3.org/2000/svg" xml:space="preserve" width="84.6666mm" height="84.6666mm" version="1.1" style="shape-rendering:geometricPrecision; text-rendering:geometricPrecision; image-rendering:optimizeQuality; fill-rule:evenodd; clip-rule:evenodd"
viewBox="0 0 8466.66 8466.66"
 xmlns:xlink="http://www.w3.org/1999/xlink">
 <defs>
  <style type="text/css">
   <![CDATA[
    .str0 {stroke:#FEFEFE;stroke-width:22.4;stroke-linecap:round;stroke-linejoin:round;stroke-miterlimit:22.9256}
    .fil0 {fill:none}
    .fil1 {fill:white}
   ]]>
  </style>
 </defs>
 <g id="Layer_x0020_1">
  <metadata id="CorelCorpID_0Corel-Layer"/>
  <rect class="fil0" x="-0.01" y="-0.02" width="8466.67" height="8466.67"/>
  <g id="_1748072035152">
   <path class="fil0 str0" d="M4204.27 4560.89c764.05,0 1383.42,-619.39 1383.42,-1383.45 0,-764.04 -619.37,-1383.43 -1383.42,-1383.43 -764.04,0 -1383.42,619.39 -1383.42,1383.43 0,764.06 619.38,1383.45 1383.42,1383.45z"/>
   <path class="fil1" d="M2097.32 6074.83c39.6,29.03 13.83,-15.93 51.21,120.36 14.21,51.82 23.63,89.99 34.56,137l-142.95 0c2.11,-95.38 55.06,-161.97 57.18,-257.36zm-743.41 71.51c-103,24 -119.95,14.3 -243.05,14.3l0 -142.97c117.54,0 318.45,-40.08 243.05,128.67l0 0zm-528.96 457.47c0,65.94 80.35,42.89 243.03,42.89 68.28,0 42.88,-95.73 42.88,-271.62 121.43,0 127.28,-9.34 228.76,14.29 66.93,287.32 -31.07,260.4 171.3,257.6 142.59,-1.95 286.4,-0.27 429.14,-0.27l30.6 -99.42 283.91 -0.66c3.66,43.85 13.57,68.74 28.6,100.08l285.93 0c-6.52,-78.34 -280.38,-791.22 -285.93,-857.79l-343.11 0c-12.53,53.76 -50.99,145.93 -69.66,201.98 -23.88,71.71 -47.55,137.17 -71.25,200.41l-102.04 298.25c-6.72,17.2 -10.44,29.13 -19.6,51.86l-39.17 -164.85c-9.93,-98.01 -29.22,-97.87 -69.99,-158.76 161.66,-108.24 114.9,-428.89 -128.65,-428.89l-614.75 0 0 814.9 0 0z"/>
   <path class="fil1" d="M5012.26 2064.5c-56.72,36.15 -156.4,58.03 -214.27,88.31 103.49,59.34 195.18,55.88 278.13,145.09 384.05,413.03 -804.92,1353.61 -802.32,1624.22 1,105.2 16.66,297.88 63.68,369.5 0,0 390.26,-481.38 522.29,-617.89l234.54 -266.64c177.08,-188.53 259.04,-277.77 415.5,-498.9 23.6,-33.36 20.18,-28.32 42.86,-47.57 25.55,-93.26 188.14,-335.54 6.29,-602.25 -151.55,-222.21 -357.5,-193.87 -546.7,-193.87l0 0z"/>
   <path class="fil1" d="M4334.55 4552.08c24.54,29.47 6.17,19.09 45.81,28.6l0 -29.38c-95.24,-92.13 -165.13,-599.6 -167.17,-771.23 -2.43,-204.02 77.91,-648.42 245.75,-664.76 3.95,50.48 -16.51,68.52 -47.41,95.31 -49.73,43.11 -112.49,119.21 -138.99,177.86 -36.42,80.64 -2.46,113.73 -2.43,113.7 0.75,-2 3.55,8.07 5.93,11.78 63.37,20.92 94.2,0.16 129.12,-34.4 -25.32,-18.1 15.46,-3.26 -36.04,-7.38 -55.29,-4.42 -10.09,21.41 -57.58,-6.62 34.24,-98.21 229.15,-187.54 337.59,-246.01 527.6,-284.4 -813.44,-429.6 -881.35,-568.08 -13.64,-110.54 96.7,-191.32 160.29,-238.89l221.7 -163.61c-91.5,10.64 -546.82,197.5 -559.62,359.35 -8.63,108.58 126.98,206.67 174.44,286.25 129.16,216.63 -185.98,416.96 188.81,1126.54 159.93,302.75 291.47,393.3 381.15,530.97l0 0z"/>
   <path class="fil1" d="M6200.39 6160.64c0,161.65 -6.4,325.65 163.1,437.36 138.91,91.52 398.83,88.7 509.34,34.91 50.79,-24.68 51.1,-44.73 99.57,-57.7 8.7,104.69 142.97,88.22 142.97,28.63l0 -414.61c0,-74.62 -151.38,-42.89 -357.41,-42.89 -62.28,0 -42.89,60.59 -42.89,200.14l114.38 0c-37.47,140.25 -343.12,178.94 -343.12,-142.97 0,-216.03 102.3,-214.44 214.44,-214.44 70.89,0 94.54,33.55 100.08,100.08l314.52 0c0,-448.57 -914.98,-460.51 -914.98,71.49l0 0z"/>
   <path class="fil1" d="M2554.81 6189.23c0,160.83 20.26,271.17 117.29,368.76 129.99,130.75 348.15,127.39 520.53,97.48 176.28,-30.58 276.28,-169.52 291.46,-351.88l-314.52 0c-52.17,223.76 -314.56,175.39 -314.56,-42.87 0,-212.91 18.98,-271.65 214.48,-271.65 56.1,0 95.38,86.49 100.08,142.97l314.52 0c-6.18,-277.29 -219.4,-371.7 -471.8,-371.7 -293.04,0 -457.48,137.96 -457.48,428.89z"/>
   <path class="fil1" d="M5013.8 6603.81c0,32.95 9.92,42.89 42.89,42.89l657.61 0c63.53,0 42.89,-66.74 42.89,-214.43l-457.46 0 0 -114.39 428.89 0c0,-276.14 80.09,-214.41 -428.89,-214.41l0 -100.08 457.46 0 0 -214.48 -743.39 0 0 814.9 0 0z"/>
   <path class="fil1" d="M7572.84 6089.15l28.59 0c7.47,89.51 49.73,153.5 57.2,243.04l-142.97 0c6.49,-77.88 49.99,-156.55 57.18,-243.04l0 0zm-443.19 557.55l285.94 0c15.03,-31.34 24.93,-56.23 28.59,-100.08l285.93 0c7.93,34.07 15.06,71.92 28.6,100.08l285.92 0c-9.8,-117.87 -249.84,-702.83 -285.92,-857.79l-343.12 0c-32.33,138.77 -98.69,288.64 -144.79,427.07 -29.88,89.77 -134.86,354.9 -141.15,430.72l0 0z"/>
   <path class="fil1" d="M4441.92 6646.7c327.05,0 219.2,78.13 402.37,-412.51 32.08,-85.88 149.3,-374.55 155.2,-445.28l-300.21 0c-13.98,60.02 -113.44,482.54 -157.28,514.68l-142.97 -514.68 -300.2 0 238.85 661.84c22.13,55.97 49.45,195.95 104.24,195.95l0 0z"/>
   <path class="fil1" d="M4027.79 4552l191.97 189.2c3.33,-68.15 9.59,-125.97 24.48,-174.92 1.99,-78.88 -25.07,-82.74 -71.47,-135.44 -28.23,-32.06 -54.46,-82.6 -96.58,-116.2l-5.44 94.25c-70.78,-47.71 -208.85,-230.71 -269.87,-306.94 -140.31,-175.18 -379.6,-496.09 -414.13,-727.55 -34.16,-228.96 90.04,-252.12 274.19,-283.49 -149.82,-159.83 -436.25,-50.45 -501.53,111.55 -130.18,323.14 377.49,863.36 595.09,1060.32l273.29 289.22 0 0z"/>
   <path class="fil1" d="M5828.67 6603.81c0,65.94 80.37,42.89 243.07,42.89 32.94,0 42.89,-9.94 42.89,-42.89l0 -814.9 -285.96 0 0 814.9z"/>
   <path class="fil1" d="M424.63 6603.81c0,65.94 80.38,42.89 243.06,42.89 32.94,0 42.88,-9.94 42.88,-42.89l0 -814.9 -285.94 0 0 814.9 0 0z"/>
   <polygon class="fil1" points="3569.85,6646.7 3841.47,6646.7 3841.47,5788.91 3569.85,5788.91 "/>
   <path class="fil1" d="M4550.53 2607.78c35.67,-100.04 8.83,-117.5 -51.72,-161.23 -49.18,-35.51 -88.64,-70.15 -145.31,-99.11 -114.54,-58.57 -238.46,81.17 -270.89,163.41 -120.65,306.24 359.53,400.96 467.92,96.93l0 0z"/>
   <path class="fil1" d="M3970.2 4198.12c-41.43,-111.58 -138.99,-241.72 -215.75,-464.43 -70.54,-204.56 -85.66,-359.49 -55.8,-588.43 -385.93,4.84 -222.27,352.17 -109.93,540.45 59.8,100.2 115.1,180.17 178.03,264.7 43.36,58.22 138.99,207.59 203.45,247.71l0 0z"/>
   <path class="fil1" d="M4280.12 2279.25l99.46 13.13c-3.99,1.16 -8.32,2.19 -12.63,3.39 -31.6,8.86 -6.27,-8.13 -45.88,12.3 171.09,80.41 212.18,153.81 283.72,207.16l-29.13 -114.55c24.12,20.56 7.8,-3.28 32.65,36.12 38.95,61.67 -2.96,74.24 54.96,116.51 23.09,16.84 144.06,56.58 177.79,66.89l-249.02 -338.43c-34.6,-31.23 -368.9,-149.57 -434.54,-162.86 42.46,68.89 94.35,105.31 122.62,160.34l0 0z"/>
   <path class="fil1" d="M6243.28 5588.81l42.91 0 0 -243.02c51.63,37.83 109.64,161.2 138.74,204.32 28.55,42.3 24.96,38.7 89.99,38.7l0 -328.81 -57.16 0 0 243.04 -135.76 -207.37c-36.46,-48.37 -5.37,-34.05 -78.72,-35.67l0 328.81z"/>
   <path class="fil1" d="M1496.87 5588.81l42.88 0 0 -243.05c51.67,37.86 109.65,161.23 138.77,204.35 28.53,42.28 24.95,38.7 89.98,38.7l0 -328.81 -57.19 0 0 243.04c-67.77,-78.02 -90.09,-147.16 -135.72,-207.4 -36.58,-48.34 -5.16,-34.02 -78.72,-35.64l0 328.81z"/>
   <path class="fil1" d="M4284.67 5545.9l-85.76 0 0 -243.05 142.93 14.29c61.86,128.92 7.15,228.76 -57.17,228.76l0 0zm-142.96 42.88l142.96 0c175.73,0 194.8,-328.81 0,-328.81l-142.96 0 0 328.81z"/>
   <path class="fil1" d="M6028.84 5560.18c-135.48,0 -135.48,-271.61 0,-271.61 152.85,0 152.85,271.61 0,271.61zm-157.25 -157.25c0,304.52 328.8,218.83 328.8,28.61 0,-241.94 -328.8,-236.79 -328.8,-28.61z"/>
   <path class="fil1" d="M3412.58 5431.54c0,-174.14 214.48,-218.57 214.48,14.28 0,151.94 -214.48,154.17 -214.48,-14.28zm-57.17 -14.32c0,234.38 328.81,251.4 328.81,14.32 0,-271.12 -328.81,-214.6 -328.81,-14.32z"/>
   <path class="fil1" d="M1825.68 5345.71c0,132.34 200.16,61.78 200.16,157.27 0,71.68 -143.12,93.46 -171.55,-28.59l-42.89 0c4.15,186.37 271.61,155.88 271.61,14.28 0,-116.99 -185.08,-47.33 -214.44,-157.25 85.46,-116.63 134.27,23.09 200.17,28.57 -13.49,-162 -243.06,-145.73 -243.06,-14.28z"/>
   <polygon class="fil1" points="3855.78,5588.78 4098.83,5588.78 4098.83,5545.9 3912.95,5545.9 3912.95,5445.82 4084.51,5445.82 4084.51,5402.93 3912.95,5402.93 3912.95,5302.85 4098.83,5302.85 4098.83,5259.97 3855.78,5259.97 "/>
   <path class="fil1" d="M5414.1 5417.27c0,232.79 295.57,251.13 300.2,42.89l-42.87 0c-32.54,139.64 -200.14,125.37 -200.14,-28.57 0,-130.94 94.91,-177.43 171.28,-114.84 34.33,28.11 7.78,38.01 71.73,43.33 -16.12,-193.93 -300.2,-121.44 -300.2,57.19l0 0z"/>
   <path class="fil1" d="M4785.04 5402.95c0,271.53 295.91,250.96 300.24,57.21 -74.6,6.2 -32.73,0.22 -65.07,49.31 -137.91,209.55 -282.49,-220.88 -77.88,-220.88 33.99,0 44.75,14.91 66.22,33.83 53.84,47.33 -24.21,35.39 76.73,37.66 -43.94,-188.56 -300.24,-124.38 -300.24,42.87l0 0z"/>
   <path class="fil1" d="M4613.49 5603.06c159.51,0 128.67,-199.77 128.67,-343.09l-57.2 0c0,153.7 31.73,300.24 -85.76,300.24 -117.89,0 -85.79,-182.47 -85.79,-300.24l-42.89 0c0,187.24 -47.27,343.09 142.97,343.09l0 0z"/>
   <path class="fil1" d="M2926.52 5603.06c159.48,0 128.65,-199.77 128.65,-343.09l-57.17 0c0,153.7 31.73,300.24 -85.79,300.24 -117.87,0 -85.77,-182.47 -85.77,-300.24l-42.88 0c0,187.24 -47.28,343.09 142.96,343.09l0 0z"/>
   <path class="fil1" d="M6686.48 5317.14l57.17 128.68 -100.08 0c11.29,-48.51 30.05,-73.58 42.91,-128.68zm-142.96 271.64c79.25,-6.6 55.54,-37.07 85.76,-100.05l128.68 0c12.33,52.94 23.59,39.97 28.6,100.05l57.17 0c-27.34,-117.27 -108.55,-258.75 -114.37,-328.81l-71.48 0c-13.36,57.31 -36.81,107.07 -55.52,158.93 -18.67,51.74 -54.29,115.03 -58.84,169.88l0 0z"/>
   <path class="fil1" d="M5256.82 5317.14c12.86,55.1 31.59,80.17 42.91,128.68l-100.08 0 57.17 -128.68zm-157.25 271.64l57.17 0c5.01,-60.08 16.27,-47.11 28.62,-100.05l128.66 0c34.47,71.85 3.24,97.9 100.08,100.05 -31.4,-59.29 -112.78,-260.63 -128.68,-328.81 -62.03,1.39 -59.88,-0.03 -81.29,47.39 -14.27,31.61 -22.43,61.77 -35.15,93.5 -18.7,46.66 -57.53,136.9 -69.41,187.92z"/>
   <path class="fil1" d="M3840.41 2621.34c42.69,42.6 79.73,58.6 164.18,54.04 -31.81,-200.73 70.17,-221.08 117.97,-324.04 -94.9,20.09 -278.41,172.81 -282.15,270z"/>
   <polygon class="fil1" points="2483.33,5302.85 2583.41,5302.85 2583.41,5588.78 2640.58,5588.78 2640.58,5302.85 2754.97,5302.85 2754.97,5259.97 2483.33,5259.97 "/>
   <polygon class="fil1" points="2097.32,5302.85 2197.4,5302.85 2197.4,5588.78 2254.57,5588.78 2254.57,5302.85 2368.96,5302.85 2368.96,5259.97 2097.32,5259.97 "/>
   <path class="fil1" d="M3083.77 5302.85l100.08 0 0 285.93 57.16 0 0 -285.93c114.04,0 100.98,7.36 114.4,-42.88l-271.64 0 0 42.88 0 0z"/>
   <polygon class="fil1" points="6872.32,5588.78 7101.08,5588.78 7101.08,5545.9 6929.53,5545.9 6929.53,5259.97 6872.32,5259.97 "/>
   <polygon class="fil1" points="2397.55,5588.78 2454.73,5588.78 2454.73,5259.97 2397.55,5259.97 "/>
   <polygon class="fil1" points="5771.51,5588.78 5828.67,5588.78 5828.67,5259.97 5771.51,5259.97 "/>
   <polygon class="fil1" points="1382.5,5588.78 1425.39,5588.78 1425.39,5259.97 1382.5,5259.97 "/>
  </g>
 </g>
</svg>
