<svg width="300" height="220" viewBox="0 0 300 220" fill="none" xmlns="http://www.w3.org/2000/svg">
<path d="M151.203 116.975C178.534 116.975 200.69 94.8184 200.69 67.4873C200.69 40.1562 178.534 18 151.203 18C123.872 18 101.716 40.1562 101.716 67.4873C101.716 94.8184 123.872 116.975 151.203 116.975Z" stroke="#FEFEFE" stroke-width="0.8467" stroke-miterlimit="22.9256" stroke-linecap="round" stroke-linejoin="round"/>
<path fill-rule="evenodd" clip-rule="evenodd" d="M75.8343 171.131C77.2508 172.169 76.329 170.561 77.6662 175.436C78.1748 177.29 78.5115 178.655 78.9027 180.337H73.7887C73.8644 176.925 75.7582 174.543 75.8343 171.131ZM49.2417 173.689C45.557 174.547 44.9507 174.2 40.5473 174.2V169.086C44.752 169.086 51.9387 167.652 49.2417 173.689V173.689ZM30.3196 190.053C30.3196 192.412 33.1941 191.587 39.0133 191.587C41.4559 191.587 40.5473 188.163 40.5473 181.871C44.891 181.871 45.1004 181.537 48.7301 182.382C51.1245 192.66 47.6191 191.697 54.8578 191.597C59.9587 191.527 65.1027 191.587 70.209 191.587L71.3036 188.031L81.4595 188.007C81.5902 189.576 81.9448 190.466 82.4827 191.587H92.7107C92.4776 188.785 82.681 163.284 82.4827 160.903H70.209C69.7607 162.826 68.3848 166.123 67.717 168.128C66.8629 170.693 66.0164 173.035 65.1686 175.297L61.5183 185.966C61.2779 186.581 61.145 187.008 60.8172 187.821L59.416 181.924C59.0606 178.418 58.3708 178.423 56.9126 176.245C62.6952 172.373 61.0224 160.903 52.3101 160.903H30.3196V190.053V190.053Z" fill="white"/>
<path fill-rule="evenodd" clip-rule="evenodd" d="M180.106 27.6757C178.077 28.9689 174.511 29.7517 172.441 30.8349C176.143 32.9573 179.423 32.8333 182.39 36.025C196.128 50.7995 153.597 84.4452 153.69 94.1251C153.726 97.8884 154.286 104.781 155.968 107.343C155.968 107.343 169.928 90.1232 174.651 85.24L183.041 75.7021C189.375 68.9582 192.307 65.7658 197.904 57.8556C198.748 56.6622 198.626 56.8426 199.437 56.1539C200.351 52.818 206.167 44.1511 199.662 34.6106C194.241 26.6617 186.874 27.6757 180.106 27.6757V27.6757Z" fill="white"/>
<path fill-rule="evenodd" clip-rule="evenodd" d="M155.863 116.66C156.741 117.714 156.084 117.343 157.502 117.683V116.632C154.095 113.336 151.595 95.1834 151.522 89.0441C151.435 81.7457 154.309 65.8489 160.313 65.2648C160.454 67.0704 159.722 67.7159 158.617 68.674C156.838 70.216 154.593 72.9383 153.645 75.0362C152.342 77.9209 153.557 79.1047 153.558 79.1036C153.585 79.0319 153.685 79.3924 153.77 79.5248C156.037 80.2732 157.14 79.5307 158.389 78.2942C157.483 77.6468 158.942 78.1778 157.1 78.0303C155.122 77.8722 156.739 78.7962 155.04 77.7936C156.265 74.2805 163.237 71.0848 167.116 68.9934C185.989 58.8199 138.018 53.6261 135.589 48.6724C135.101 44.718 139.048 41.8285 141.323 40.1273L149.253 34.2744C145.98 34.655 129.693 41.3393 129.235 47.1288C128.926 51.0129 133.777 54.5219 135.475 57.3686C140.095 65.1177 128.822 72.2836 142.229 97.6664C147.95 108.496 152.655 111.735 155.863 116.66V116.66Z" fill="white"/>
<path fill-rule="evenodd" clip-rule="evenodd" d="M222.607 174.2C222.607 179.983 222.378 185.849 228.441 189.845C233.41 193.119 242.708 193.018 246.661 191.094C248.478 190.211 248.489 189.494 250.223 189.03C250.534 192.775 255.337 192.186 255.337 190.054V175.223C255.337 172.554 249.922 173.689 242.552 173.689C240.324 173.689 241.018 175.856 241.018 180.848H245.109C243.769 185.865 232.835 187.249 232.835 175.734C232.835 168.006 236.495 168.063 240.506 168.063C243.042 168.063 243.888 169.263 244.086 171.643H255.337C255.337 155.597 222.607 155.17 222.607 174.2V174.2Z" fill="white"/>
<path fill-rule="evenodd" clip-rule="evenodd" d="M92.1992 175.223C92.1992 180.976 92.9244 184.923 96.395 188.414C101.045 193.091 108.849 192.971 115.015 191.901C121.321 190.807 124.898 185.837 125.441 179.314H114.19C112.324 187.318 102.938 185.588 102.938 177.78C102.938 170.164 103.617 168.063 110.61 168.063C112.617 168.063 114.022 171.157 114.19 173.177H125.441C125.22 163.258 117.593 159.881 108.564 159.881C98.0816 159.881 92.1992 164.816 92.1992 175.223Z" fill="white"/>
<path fill-rule="evenodd" clip-rule="evenodd" d="M180.161 190.053C180.161 191.232 180.516 191.587 181.695 191.587H205.219C207.491 191.587 206.753 189.2 206.753 183.917H190.389V179.825H205.731C205.731 169.947 208.596 172.155 190.389 172.155V168.575H206.753V160.903H180.161V190.053V190.053Z" fill="white"/>
<path fill-rule="evenodd" clip-rule="evenodd" d="M271.701 171.643H272.724C272.991 174.845 274.503 177.134 274.77 180.337H269.656C269.888 177.551 271.444 174.737 271.701 171.643V171.643ZM255.848 191.587H266.076C266.614 190.466 266.968 189.576 267.099 188.007H277.327C277.611 189.226 277.866 190.58 278.35 191.587H288.578C288.227 187.371 279.641 166.446 278.35 160.903H266.076C264.92 165.867 262.546 171.228 260.897 176.18C259.828 179.391 256.073 188.875 255.848 191.587V191.587Z" fill="white"/>
<path fill-rule="evenodd" clip-rule="evenodd" d="M159.704 191.587C171.403 191.587 167.545 194.382 174.097 176.831C175.245 173.759 179.438 163.433 179.649 160.903H168.91C168.41 163.05 164.852 178.164 163.284 179.314L158.17 160.903H147.431L155.975 184.578C156.767 186.58 157.744 191.587 159.704 191.587V191.587Z" fill="white"/>
<path fill-rule="evenodd" clip-rule="evenodd" d="M144.89 116.657L151.757 123.425C151.876 120.987 152.1 118.919 152.633 117.168C152.704 114.346 151.736 114.208 150.076 112.323C149.066 111.176 148.128 109.368 146.621 108.166L146.427 111.538C143.895 109.831 138.956 103.285 136.773 100.558C131.754 94.2917 123.194 82.8122 121.959 74.5324C120.737 66.3423 125.18 65.5138 131.767 64.3918C126.408 58.6743 116.162 62.587 113.827 68.382C109.17 79.9413 127.33 99.2656 135.114 106.311L144.89 116.657V116.657Z" fill="white"/>
<path fill-rule="evenodd" clip-rule="evenodd" d="M209.31 190.053C209.31 192.412 212.185 191.587 218.005 191.587C219.183 191.587 219.539 191.232 219.539 190.053V160.903H209.31V190.053Z" fill="white"/>
<path fill-rule="evenodd" clip-rule="evenodd" d="M16 190.053C16 192.412 18.8752 191.587 24.6944 191.587C25.8727 191.587 26.2284 191.232 26.2284 190.053V160.903H16V190.053V190.053Z" fill="white"/>
<path fill-rule="evenodd" clip-rule="evenodd" d="M128.509 191.587H138.225V160.903H128.509V191.587Z" fill="white"/>
<path fill-rule="evenodd" clip-rule="evenodd" d="M163.589 47.1093C164.865 43.5311 163.905 42.9065 161.739 41.3421C159.98 40.0719 158.568 38.8328 156.541 37.7965C152.444 35.7018 148.011 40.7006 146.851 43.642C142.535 54.5972 159.712 57.9851 163.589 47.1093V47.1093Z" fill="white"/>
<path fill-rule="evenodd" clip-rule="evenodd" d="M142.83 103.998C141.348 100.007 137.858 95.3517 135.112 87.3849C132.589 80.0675 132.048 74.5253 133.116 66.3359C119.311 66.509 125.165 78.9335 129.184 85.6686C131.323 89.253 133.301 92.1135 135.552 95.1373C137.103 97.2199 140.524 102.563 142.83 103.998V103.998Z" fill="white"/>
<path fill-rule="evenodd" clip-rule="evenodd" d="M153.916 35.3578L157.474 35.827C157.331 35.8687 157.176 35.9056 157.022 35.9485C155.892 36.2654 156.798 35.6579 155.381 36.3883C161.501 39.265 162.971 41.8906 165.53 43.799L164.488 39.7012C165.351 40.4367 164.767 39.5841 165.656 40.9933C167.049 43.1996 165.55 43.649 167.622 45.161C168.448 45.7637 172.775 47.185 173.982 47.5539L165.074 35.4478C163.836 34.3303 151.878 30.0974 149.53 29.6221C151.049 32.0863 152.905 33.3891 153.916 35.3578V35.3578Z" fill="white"/>
<path fill-rule="evenodd" clip-rule="evenodd" d="M224.141 153.745H225.676V145.052C227.523 146.405 229.598 150.818 230.639 152.361C231.66 153.874 231.532 153.745 233.858 153.745V141.983H231.813V150.677L226.957 143.259C225.653 141.529 226.765 142.041 224.141 141.983V153.745Z" fill="white"/>
<path fill-rule="evenodd" clip-rule="evenodd" d="M54.3554 153.745H55.8894V145.051C57.7374 146.405 59.8119 150.818 60.8534 152.361C61.874 153.873 61.7456 153.745 64.0722 153.745V141.983H62.0262V150.677C59.6019 147.886 58.8034 145.413 57.1713 143.258C55.8631 141.529 56.9865 142.041 54.3554 141.983V153.745Z" fill="white"/>
<path fill-rule="evenodd" clip-rule="evenodd" d="M154.079 152.21H151.011V143.516L156.124 144.027C158.337 148.639 156.38 152.21 154.079 152.21V152.21ZM148.965 153.744H154.079C160.365 153.744 161.047 141.982 154.079 141.982H148.965V153.744Z" fill="white"/>
<path fill-rule="evenodd" clip-rule="evenodd" d="M216.47 152.721C211.624 152.721 211.624 143.005 216.47 143.005C221.938 143.005 221.938 152.721 216.47 152.721ZM210.845 147.096C210.845 157.989 222.607 154.924 222.607 148.119C222.607 139.465 210.845 139.649 210.845 147.096Z" fill="white"/>
<path fill-rule="evenodd" clip-rule="evenodd" d="M122.883 148.119C122.883 141.89 130.555 140.301 130.555 148.63C130.555 154.065 122.883 154.145 122.883 148.119ZM120.838 147.607C120.838 155.991 132.6 156.6 132.6 148.119C132.6 138.421 120.838 140.443 120.838 147.607Z" fill="white"/>
<path fill-rule="evenodd" clip-rule="evenodd" d="M66.1174 145.049C66.1174 149.783 73.2774 147.259 73.2774 150.675C73.2774 153.239 68.1579 154.018 67.1406 149.652H65.6066C65.7552 156.319 75.3227 155.228 75.3227 150.163C75.3227 145.978 68.7021 148.47 67.6515 144.538C70.7085 140.366 72.4548 145.364 74.8118 145.56C74.3292 139.765 66.1174 140.347 66.1174 145.049Z" fill="white"/>
<path fill-rule="evenodd" clip-rule="evenodd" d="M138.737 153.744H147.431V152.21H140.782V148.63H146.919V147.096H140.782V143.516H147.431V141.982H138.737V153.744Z" fill="white"/>
<path fill-rule="evenodd" clip-rule="evenodd" d="M194.48 147.609C194.48 155.936 205.053 156.592 205.219 149.143H203.685C202.521 154.138 196.526 153.628 196.526 148.121C196.526 143.437 199.921 141.774 202.653 144.013C203.881 145.019 202.931 145.373 205.219 145.563C204.642 138.626 194.48 141.219 194.48 147.609V147.609Z" fill="white"/>
<path fill-rule="evenodd" clip-rule="evenodd" d="M171.978 147.097C171.978 156.81 182.563 156.074 182.718 149.143C180.049 149.365 181.547 149.151 180.39 150.907C175.457 158.403 170.285 143.006 177.604 143.006C178.82 143.006 179.205 143.539 179.973 144.216C181.899 145.909 179.107 145.482 182.718 145.563C181.146 138.818 171.978 141.114 171.978 147.097V147.097Z" fill="white"/>
<path fill-rule="evenodd" clip-rule="evenodd" d="M165.841 154.255C171.547 154.255 170.444 147.109 170.444 141.982H168.398C168.398 147.48 169.533 152.722 165.33 152.722C161.113 152.722 162.261 146.195 162.261 141.982H160.727C160.727 148.68 159.036 154.255 165.841 154.255V154.255Z" fill="white"/>
<path fill-rule="evenodd" clip-rule="evenodd" d="M105.496 154.255C111.201 154.255 110.098 147.109 110.098 141.982H108.053C108.053 147.48 109.188 152.722 104.984 152.722C100.768 152.722 101.916 146.195 101.916 141.982H100.382C100.382 148.68 98.6906 154.255 105.496 154.255V154.255Z" fill="white"/>
<path fill-rule="evenodd" clip-rule="evenodd" d="M239.995 144.027L242.04 148.63H238.46C238.864 146.895 239.535 145.998 239.995 144.027ZM234.881 153.744C237.716 153.508 236.868 152.418 237.949 150.165H242.552C242.993 152.059 243.396 151.595 243.575 153.744H245.62C244.642 149.549 241.737 144.488 241.529 141.982H238.972C238.494 144.032 237.655 145.812 236.986 147.667C236.318 149.518 235.044 151.782 234.881 153.744V153.744Z" fill="white"/>
<path fill-rule="evenodd" clip-rule="evenodd" d="M188.854 144.027C189.314 145.998 189.984 146.895 190.389 148.63H186.809L188.854 144.027ZM183.229 153.744H185.274C185.453 151.595 185.856 152.059 186.298 150.165H190.9C192.133 152.735 191.016 153.667 194.48 153.744C193.357 151.623 190.446 144.421 189.877 141.982C187.658 142.032 187.735 141.981 186.969 143.677C186.459 144.808 186.167 145.887 185.712 147.022C185.043 148.691 183.654 151.919 183.229 153.744Z" fill="white"/>
<path fill-rule="evenodd" clip-rule="evenodd" d="M138.187 47.5948C139.714 49.1186 141.039 49.6909 144.06 49.5277C142.922 42.3472 146.57 41.6194 148.28 37.9365C144.885 38.6549 138.321 44.118 138.187 47.5948Z" fill="white"/>
<path fill-rule="evenodd" clip-rule="evenodd" d="M89.6423 143.516H93.2223V153.744H95.2676V143.516H99.3591V141.982H89.6423V143.516Z" fill="white"/>
<path fill-rule="evenodd" clip-rule="evenodd" d="M75.8343 143.516H79.4143V153.744H81.4595V143.516H85.5511V141.982H75.8343V143.516Z" fill="white"/>
<path fill-rule="evenodd" clip-rule="evenodd" d="M111.121 143.516H114.701V153.744H116.746V143.516C120.825 143.516 120.358 143.779 120.838 141.982H111.121V143.516V143.516Z" fill="white"/>
<path fill-rule="evenodd" clip-rule="evenodd" d="M246.643 153.744H254.826V152.21H248.689V141.982H246.643V153.744Z" fill="white"/>
<path fill-rule="evenodd" clip-rule="evenodd" d="M86.5739 153.744H88.6195V141.982H86.5739V153.744Z" fill="white"/>
<path fill-rule="evenodd" clip-rule="evenodd" d="M207.265 153.744H209.31V141.982H207.265V153.744Z" fill="white"/>
<path fill-rule="evenodd" clip-rule="evenodd" d="M50.2642 153.744H51.7985V141.982H50.2642V153.744Z" fill="white"/>
</svg>
