<svg width="55" height="55" viewBox="0 0 55 55" fill="none" xmlns="http://www.w3.org/2000/svg">
<path d="M55 27.5C55 31.0828 54.3153 34.5052 53.0682 37.6447C52.4015 39.3239 51.5742 40.9223 50.6044 42.4196C49.3967 44.2874 47.9677 45.9991 46.356 47.5167C45.412 48.4068 44.4063 49.2295 43.3444 49.9793C38.8659 53.1424 33.4007 55 27.5 55C21.5993 55 16.1341 53.1424 11.6555 49.9793C10.3265 49.041 9.0851 47.9892 7.94578 46.8353C3.03284 41.8684 0 35.0373 0 27.5C0 19.9627 3.03284 13.1316 7.94578 8.16471C9.15245 6.94353 10.4735 5.83559 11.8912 4.85687C16.3249 1.79362 21.7025 0 27.5 0C33.2975 0 38.6751 1.79362 43.1088 4.85687C44.192 5.60334 45.2179 6.42716 46.1798 7.31951C47.8646 8.87745 49.3529 10.6453 50.6045 12.5804C51.5743 14.0777 52.4016 15.6761 53.0683 17.3553C54.3153 20.4948 55 23.9172 55 27.5Z" fill="#7B4AE2"/>
<path d="M42.0073 25.026C41.2419 22.8062 38.1035 22.8062 37.4913 24.6432C36.879 26.4803 38.9457 27.5518 42.1605 28.6236C45.3753 29.6952 47.3655 32.5274 46.9828 35.0532C46.6 37.579 45.5284 40.8705 39.1753 40.8705C35.2047 40.8705 32.998 38.3887 31.9014 36.5275L35.5012 34.3643C35.5012 34.3643 36.7259 36.9668 39.0221 36.9668C41.3185 36.9668 42.237 36.2014 42.237 34.4409C42.237 32.2977 34.8122 31.5323 33.6641 27.8582C32.5159 24.184 34.0468 18.9791 39.4048 19.3617C42.7537 19.601 44.6373 21.2454 45.5792 22.4451L42.0073 25.026Z" fill="#F2F2F2"/>
<path d="M25.3208 19.7446C25.3208 19.7446 25.3208 32.6805 25.3208 34.441C25.3208 36.2014 23.79 37.1201 22.2591 36.8139C20.7282 36.5077 20.0393 34.6707 20.0393 34.6707L16.5184 37.0435C16.5184 37.0435 17.2838 40.5645 22.106 40.8707C26.9283 41.1769 29.6838 38.2682 29.6838 35.8188C29.6838 33.3694 29.6838 19.7446 29.6838 19.7446H25.3208Z" fill="#F2F2F2"/>
<path d="M7.94577 4.85681V46.8352C9.08509 47.9892 10.3265 49.0408 11.6555 49.9793H43.3445C44.4064 49.2295 45.412 48.4067 46.3561 47.5166H10.4084V7.31946H50.6044V42.4196C51.5742 40.9222 52.4015 39.3239 53.0682 37.6447V4.85681H7.94577Z" fill="#F2F2F2"/>
<path d="M9.43756 40.7942C11.8471 40.7942 13.8005 38.8409 13.8005 36.4313C13.8005 34.0217 11.8471 32.0684 9.43756 32.0684C7.02797 32.0684 5.07462 34.0217 5.07462 36.4313C5.07462 38.8409 7.02797 40.7942 9.43756 40.7942Z" fill="#090E16"/>
</svg>
