<?xml version="1.0" encoding="UTF-8"?>
<!DOCTYPE svg PUBLIC "-//W3C//DTD SVG 1.1//EN" "http://www.w3.org/Graphics/SVG/1.1/DTD/svg11.dtd">
<!-- Creator: CorelDRAW 2019 (64-Bit) -->
<svg xmlns="http://www.w3.org/2000/svg" xml:space="preserve" width="33.8666mm" height="36.2788mm" version="1.1" style="shape-rendering:geometricPrecision; text-rendering:geometricPrecision; image-rendering:optimizeQuality; fill-rule:evenodd; clip-rule:evenodd"
viewBox="0 0 3386.66 3627.88"
 xmlns:xlink="http://www.w3.org/1999/xlink">
 <defs>
  <style type="text/css">
   <![CDATA[
    .fil1 {fill:#C83267;fill-rule:nonzero}
    .fil0 {fill:white;fill-rule:nonzero}
   ]]>
  </style>
 </defs>
 <g id="Layer_x0020_1">
  <metadata id="CorelCorpID_0Corel-Layer"/>
  <g id="_2669162110656">
   <path class="fil0" d="M76.66 1938.55l389.74 -316.89c90.32,-73.42 223.05,-59.74 296.48,30.57 73.44,90.31 59.75,223.06 -30.56,296.48l-188.62 153.37 1369.41 1153.82c90.33,73.42 104,206.17 30.57,296.48 -41.65,51.24 -102.39,77.81 -163.64,77.81 -46.73,0 -93.75,-15.47 -132.84,-47.24l-1570.54 -1317.35c-49.22,-40.03 -77.8,-100.09 -77.8,-163.52 0,-63.44 28.58,-123.51 77.8,-163.53z"/>
   <path class="fil0" d="M1807.31 2.34c111.91,0.89 201.92,92.32 201.03,204.23l-17.44 3222.58c-0.89,111.93 -92.35,201.91 -204.23,201.01 -28.35,-0.22 -55.27,-6.25 -79.69,-16.95 -71.96,-31.55 -121.99,-103.7 -121.34,-187.27l17.45 -3222.57c0.88,-111.92 92.32,-201.91 204.22,-201.03z"/>
   <path class="fil1" d="M2696.78 2219.1l143.93 -117.02 -512.68 -416.87c-90.32,-73.44 -103.99,-206.17 -30.57,-296.47 73.43,-90.33 206.17,-104 296.5,-30.58l713.78 580.39c49.21,40.02 77.79,100.09 77.79,163.53 0,63.43 -28.58,123.49 -77.79,163.52l-345.05 280.55c-39.09,31.76 -86.11,47.24 -132.83,47.24 -61.26,0 -122,-26.59 -163.65,-77.81 -73.44,-90.31 -59.74,-223.06 30.57,-296.48z"/>
  </g>
 </g>
</svg>
