<?xml version="1.0" encoding="UTF-8"?>
<!DOCTYPE svg PUBLIC "-//W3C//DTD SVG 1.1//EN" "http://www.w3.org/Graphics/SVG/1.1/DTD/svg11.dtd">
<!-- Creator: CorelDRAW 2019 (64-Bit) -->
<svg xmlns="http://www.w3.org/2000/svg" xml:space="preserve" width="84.6666mm" height="84.6666mm" version="1.1" style="shape-rendering:geometricPrecision; text-rendering:geometricPrecision; image-rendering:optimizeQuality; fill-rule:evenodd; clip-rule:evenodd"
viewBox="0 0 8466.66 8466.66"
 xmlns:xlink="http://www.w3.org/1999/xlink">
 <defs>
  <style type="text/css">
   <![CDATA[
    .str1 {stroke:#FEFEFE;stroke-width:67.73;stroke-linecap:round;stroke-linejoin:round;stroke-miterlimit:22.9256}
    .str0 {stroke:#FEFEFE;stroke-width:67.73;stroke-linecap:round;stroke-linejoin:round;stroke-miterlimit:10}
    .fil3 {fill:none}
    .fil1 {fill:none;fill-rule:nonzero}
    .fil2 {fill:white}
    .fil0 {fill:white;fill-rule:nonzero}
   ]]>
  </style>
    <mask id="id0">
  <linearGradient id="id1" gradientUnits="userSpaceOnUse" x1="2569.13" y1="6251.93" x2="1921.66" y2="7409.94">
   <stop offset="0" style="stop-opacity:1; stop-color:white"/>
   <stop offset="1" style="stop-opacity:0; stop-color:white"/>
  </linearGradient>
     <rect style="fill:url(#id1)" x="1016.03" y="2297.3" width="1138.72" height="2287.72"/>
    </mask>
    <mask id="id2">
  <linearGradient id="id3" gradientUnits="userSpaceOnUse" x1="2569.13" y1="6251.93" x2="1921.66" y2="7409.94">
   <stop offset="0" style="stop-opacity:1; stop-color:white"/>
   <stop offset="1" style="stop-opacity:0; stop-color:white"/>
  </linearGradient>
     <rect style="fill:url(#id3)" x="1378.6" y="3061.44" width="413.58" height="759.44"/>
    </mask>
    <mask id="id4">
  <linearGradient id="id5" gradientUnits="userSpaceOnUse" x1="2569.13" y1="6251.93" x2="1921.66" y2="7409.94">
   <stop offset="0" style="stop-opacity:1; stop-color:white"/>
   <stop offset="1" style="stop-opacity:0; stop-color:white"/>
  </linearGradient>
     <rect style="fill:url(#id5)" x="1788.09" y="3245.08" width="353.16" height="187.8"/>
    </mask>
    <mask id="id6">
  <linearGradient id="id7" gradientUnits="userSpaceOnUse" x1="2569.13" y1="6251.93" x2="1921.66" y2="7409.94">
   <stop offset="0" style="stop-opacity:1; stop-color:white"/>
   <stop offset="1" style="stop-opacity:0; stop-color:white"/>
  </linearGradient>
     <rect style="fill:url(#id7)" x="1314.52" y="3329.62" width="136.18" height="197.47"/>
    </mask>
    <mask id="id8">
  <linearGradient id="id9" gradientUnits="userSpaceOnUse" x1="2569.13" y1="6251.93" x2="1921.66" y2="7409.94">
   <stop offset="0" style="stop-opacity:1; stop-color:white"/>
   <stop offset="1" style="stop-opacity:0; stop-color:white"/>
  </linearGradient>
     <rect style="fill:url(#id9)" x="1675.5" y="3343.6" width="279.64" height="181.37"/>
    </mask>
    <mask id="id10">
  <linearGradient id="id11" gradientUnits="userSpaceOnUse" x1="2569.13" y1="6251.93" x2="1921.66" y2="7409.94">
   <stop offset="0" style="stop-opacity:1; stop-color:white"/>
   <stop offset="1" style="stop-opacity:0; stop-color:white"/>
  </linearGradient>
     <rect style="fill:url(#id11)" x="1818.42" y="2667.4" width="314.19" height="177.65"/>
    </mask>
    <mask id="id12">
  <linearGradient id="id13" gradientUnits="userSpaceOnUse" x1="2569.13" y1="6251.93" x2="1921.66" y2="7409.94">
   <stop offset="0" style="stop-opacity:1; stop-color:white"/>
   <stop offset="1" style="stop-opacity:0; stop-color:white"/>
  </linearGradient>
     <rect style="fill:url(#id13)" x="1947.35" y="4024.26" width="185.26" height="132.85"/>
    </mask>
   <mask id="id14">
  <linearGradient id="id15" gradientUnits="userSpaceOnUse" x1="2569.13" y1="6251.93" x2="1921.66" y2="7409.94">
   <stop offset="0" style="stop-opacity:1; stop-color:white"/>
   <stop offset="1" style="stop-opacity:0; stop-color:white"/>
  </linearGradient>
    <rect style="fill:url(#id15)" x="2276.97" y="2413.81" width="1028.44" height="2045.66"/>
   </mask>
   <mask id="id16">
  <linearGradient id="id17" gradientUnits="userSpaceOnUse" x1="1615.25" y1="8751.03" x2="986.85" y2="9938.23">
   <stop offset="0" style="stop-opacity:1; stop-color:white"/>
   <stop offset="1" style="stop-opacity:0; stop-color:white"/>
  </linearGradient>
    <rect style="fill:url(#id17)" x="3597.01" y="6372.71" width="4436.99" height="343.41"/>
   </mask>
   <mask id="id18">
  <linearGradient id="id19" gradientUnits="userSpaceOnUse" x1="1738.32" y1="8451.27" x2="1090.91" y2="9609.19">
   <stop offset="0" style="stop-opacity:1; stop-color:white"/>
   <stop offset="1" style="stop-opacity:0; stop-color:white"/>
  </linearGradient>
    <rect style="fill:url(#id19)" x="3595.79" y="4877.75" width="1930.75" height="374.09"/>
   </mask>
   <mask id="id20">
  <linearGradient id="id21" gradientUnits="userSpaceOnUse" x1="1738.26" y1="8567.86" x2="1090.83" y2="9725.83">
   <stop offset="0" style="stop-opacity:1; stop-color:white"/>
   <stop offset="1" style="stop-opacity:0; stop-color:white"/>
  </linearGradient>
    <rect style="fill:url(#id21)" x="3597.01" y="5399.94" width="4435.89" height="705.05"/>
   </mask>
   <mask id="id22">
  <linearGradient id="id23" gradientUnits="userSpaceOnUse" x1="2569.11" y1="6251.93" x2="1921.65" y2="7409.93">
   <stop offset="0" style="stop-opacity:1; stop-color:white"/>
   <stop offset="1" style="stop-opacity:0; stop-color:white"/>
  </linearGradient>
    <rect style="fill:url(#id23)" x="420.01" y="1752.1" width="2913.73" height="3445.72"/>
   </mask>
 </defs>
 <g id="Layer_x0020_1">
  <metadata id="CorelCorpID_0Corel-Layer"/>
  <g id="_1747288243296">
   <path class="fil0" style="mask:url(#id0)" d="M1824.29 2364.69c114.29,0 213.37,64.62 263.08,159.23l0 1871.27c-54.03,74.16 -141.54,122.44 -240.33,122.44 -164.14,0 -297.22,-133.09 -297.22,-297.22 0,-15.35 1.19,-30.44 3.41,-45.17 -8.15,0.66 -16.38,1.1 -24.71,1.1 -164.16,0 -297.22,-133.07 -297.22,-297.19 0,-49.73 12.27,-96.56 33.85,-137.73 -109.16,-68.71 -181.74,-190.18 -181.74,-328.69 0,-160.18 97,-297.68 235.47,-356.95 -39.99,-39.46 -64.83,-94.2 -64.83,-154.78 0,-120.09 97.34,-217.43 217.41,-217.43 19.77,0 38.87,2.89 57.07,7.84 -0.94,-9.69 -1.45,-19.54 -1.45,-29.48 0,-164.19 133.06,-297.24 297.21,-297.24zm0 -67.39l0 0c-185.6,0 -339.25,139.42 -361.76,319.04 -152.92,4.71 -275.86,130.61 -275.86,284.66 0,46.89 11.27,92.03 32.52,132.36 -125.54,83.42 -203.16,224.89 -203.16,379.37 0,138.06 61.26,265.92 166.34,351.97 -12.15,36.81 -18.45,75.57 -18.45,114.45 0,185.61 139.45,339.27 319.09,361.74 10.66,191.55 169.87,344.13 364.03,344.13 116.09,0 226.29,-56.13 294.79,-150.15l12.92 -17.73 0 -21.95 0 -1871.27 0 -16.62 -7.73 -14.71c-63.28,-120.46 -186.94,-195.29 -322.73,-195.29z"/>
   <path class="fil1 str0" style="mask:url(#id2)" d="M1758.32 3095.3c-191,0 -345.86,154.84 -345.86,345.81 0,191.05 154.86,345.91 345.86,345.91"/>
   <path class="fil1 str0" style="mask:url(#id4)" d="M2107.39 3384.05c-105.71,41.08 -231.74,-5.17 -285.44,-105.11"/>
   <path class="fil1 str0" style="mask:url(#id6)" d="M1348.38 3363.48c0,0 70.99,35.93 68.38,129.75"/>
   <path class="fil1 str0" style="mask:url(#id8)" d="M1921.28 3377.46c0,0 -75.16,147.51 -211.92,106.41"/>
   <path class="fil1 str0" style="mask:url(#id10)" d="M2098.75 2799.84c0,0 -163.04,60.68 -246.47,-98.58"/>
   <path class="fil1 str0" style="mask:url(#id12)" d="M2098.75 4058.79c0,0 -68.27,-11.88 -117.54,64.46"/>
  </g>
  <path class="fil2" style="mask:url(#id14)" d="M2767.38 4335.06l0 -699.16c113.12,0 204.86,-91.66 204.86,-204.87 0,-113.12 -91.74,-204.87 -204.86,-204.87l0 -699.08c7.96,4.33 15.94,8.73 23.78,13.35 44.87,25.87 86.95,54.59 126.3,85.83l-99.91 173.06c32.67,28 63.21,58.47 91.16,91.14l173.03 -99.9c31.24,39.34 59.96,81.49 85.91,126.28 25.86,44.81 47.9,90.78 66.37,137.52l-172.77 99.77c14.21,40.21 25.4,81.9 33.33,124.61l199.61 0c7.34,49.72 11.22,100.55 11.22,152.29 0,51.74 -3.88,102.63 -11.22,152.35l-199.69 0c-7.9,42.74 -19.04,84.42 -33.33,124.62l172.85 99.78c-18.47,46.74 -40.51,92.64 -66.37,137.51 -25.95,44.8 -54.67,86.86 -85.91,126.29l-173.03 -99.91c-27.95,32.69 -58.42,63.16 -91.11,91.16l99.86 173.04c-39.35,31.18 -81.43,59.97 -126.3,85.83 -7.84,4.53 -15.82,9.02 -23.78,13.36zm-490.41 -1921.25l152.29 0 0 199.69c42.79,7.9 84.42,19.12 124.62,33.33l99.78 -172.85c38.5,15.24 76.49,32.87 113.72,53.1l0 699.08c-113.14,0 -204.89,91.75 -204.89,204.87 0,113.21 91.75,204.87 204.89,204.87l0 699.16c-37.23,20.23 -75.22,37.86 -113.72,53.03l-99.78 -172.77c-40.2,14.19 -81.83,25.4 -124.62,33.3l0 199.64c-49.72,7.39 -100.55,11.21 -152.29,11.21l0 -333.11c113.12,0 204.87,-91.74 204.87,-204.94 0,-113.14 -91.75,-204.8 -204.87,-204.8l0 -148.6c75.66,0 136.99,-61.32 136.99,-136.99 0,-75.6 -61.33,-136.93 -136.99,-136.93l0 -148.59c113.12,0 204.87,-91.67 204.87,-204.87 0,-113.13 -91.75,-204.88 -204.87,-204.88l0 -321.95zm0 880.29l0 0zm0 -880.29l0 321.95z"/>
  <path class="fil0" style="mask:url(#id16)" d="M3743.76 6623.42c2.25,-1.5 2.25,-3.76 0.75,-6.01l-10.89 -15.38c-1.5,-2.26 -3.75,-2.63 -6,-0.76 -16.14,10.88 -33.03,16.52 -50.29,16.52 -31.53,0 -49.55,-18.02 -49.55,-45.04l0 -57.04c0,-26.66 17.64,-45.04 49.92,-45.04 16.52,0 31.91,4.87 45.8,13.88 2.24,1.5 4.49,0.75 5.99,-1.12l9.77 -15.39c1.5,-2.26 1.5,-4.51 -1.13,-6.38 -18.77,-12.39 -39.03,-18.77 -61.18,-18.77 -49.17,0 -79.94,30.02 -79.94,72.82l0 57.04c0,42.41 30.4,72.44 80.32,72.44 26.27,0 46.91,-7.51 66.43,-21.77zm203.98 -51.8l0 -54.04c0,-43.91 -31.52,-74.69 -82.57,-74.69 -50.66,0 -82.57,30.78 -82.57,74.69l0 54.04c0,43.92 31.91,73.57 82.57,73.57 51.05,0 82.57,-29.65 82.57,-73.57zm-133.98 0l0 -54.04c0,-28.53 18.01,-46.91 51.41,-46.91 33.79,0 51.8,18.38 51.8,46.91l0 54.04c0,28.15 -18.01,46.17 -51.8,46.17 -33.4,0 -51.41,-18.02 -51.41,-46.17zm187.47 -109.22c-1.5,1.5 -1.13,3.01 0,5.26l10.88 15.77c1.5,2.24 3.38,2.62 5.63,1.12 13.14,-7.89 32.28,-13.88 53.3,-13.88 32.64,0 45.03,15.38 45.03,45.78l0 12.01c-12.76,-2.25 -29.65,-4.5 -45.03,-4.5 -48.04,0 -80.7,19.89 -80.7,59.67 0,44.67 38.66,61.56 80.7,61.56 28.15,0 54.79,-5.63 72.43,-12.01 2.25,-0.76 3.38,-2.63 3.38,-4.88l0 -112.59c0,-48.43 -28.52,-72.82 -74.69,-72.82 -28.9,0 -53.29,7.51 -70.93,19.51zm19.88 121.23c0,-20.64 15.78,-33.4 49.93,-33.4 15.38,0 33.03,2.25 45.03,4.51l0 56.29c-11.26,3.38 -28.15,6.76 -45.03,6.76 -28.9,0 -49.93,-11.63 -49.93,-34.16zm326.73 39.79c2.24,-1.5 2.24,-3.76 0.74,-6.01l-10.88 -15.38c-1.5,-2.26 -3.75,-2.63 -6.01,-0.76 -16.13,10.88 -33.02,16.52 -50.29,16.52 -31.52,0 -49.54,-18.02 -49.54,-45.04l0 -57.04c0,-26.66 17.63,-45.04 49.91,-45.04 16.52,0 31.91,4.87 45.8,13.88 2.25,1.5 4.49,0.75 6,-1.12l9.76 -15.39c1.5,-2.26 1.5,-4.51 -1.13,-6.38 -18.76,-12.39 -39.03,-18.77 -61.17,-18.77 -49.17,0 -79.95,30.02 -79.95,72.82l0 57.04c0,42.41 30.4,72.44 80.32,72.44 26.27,0 46.92,-7.51 66.44,-21.77zm78.99 -171.15l0 -75.44c0,-2.62 -1.5,-4.12 -4.51,-4.12l-22.14 0c-2.62,0 -4.12,1.5 -4.12,4.12l0 260.1c0,2.63 1.5,4.13 4.12,4.13l22.14 0c3.01,0 4.51,-1.5 4.51,-4.13l0 -156.51c12.01,-6 28.53,-9.75 45.04,-9.75 33.78,0 52.92,14.63 52.92,55.16l0 111.1c0,2.63 1.5,4.13 4.13,4.13l22.14 0c3.01,0 4.51,-1.5 4.51,-4.13l0 -112.22c0,-58.18 -35.29,-81.82 -81.82,-81.82 -18.02,0 -33.78,3.75 -46.92,9.38zm217.12 188.79c2.62,0 4.13,-1.5 4.13,-4.13l0 -185.41c0,-2.62 -1.51,-4.51 -4.13,-4.51l-22.14 0c-3,0 -4.5,1.89 -4.5,4.51l0 185.41c0,2.63 1.5,4.13 4.5,4.13l22.14 0zm7.51 -248.47c0,-10.88 -7.89,-18.38 -18.39,-18.38 -10.51,0 -18.77,7.5 -18.77,18.38 0,10.51 8.26,18.39 18.77,18.39 10.5,0 18.39,-7.88 18.39,-18.39zm86.13 248.47c3,0 4.5,-1.5 4.5,-4.13l0 -159.51c11.64,-3.75 28.53,-6.75 44.3,-6.75 33.77,0 53.66,15 53.66,54.04l0 112.22c0,2.63 1.51,4.13 4.14,4.13l22.14 0c3,0 4.5,-1.5 4.5,-4.13l0 -112.97c0,-57.43 -34.15,-81.07 -84.44,-81.07 -25.9,0 -50.68,5.63 -72.07,14.64 -2.25,1.12 -3,3 -3,5.26l0 174.14c0,2.63 1.5,4.13 4.13,4.13l22.14 0zm347.35 -5.25l0 -173.41c0,-2.62 -1.12,-4.12 -3.37,-4.87 -19.52,-8.63 -45.79,-14.64 -72.06,-14.64 -46.92,0 -84.07,21.39 -84.07,78.07l0 37.53c0,52.16 35.65,76.56 80.69,76.56 15.76,0 34.16,-4.13 48.04,-10.88l0 9.01c1.12,38.28 -14.64,55.16 -48.41,55.16 -22.53,0 -40.54,-8.62 -55.93,-21.01 -2.25,-1.87 -4.5,-1.5 -6,0.75l-10.89 16.14c-1.5,2.62 -1.5,4.51 0.38,6.01 19.89,16.51 42.41,25.89 72.44,25.89 55.92,0 79.18,-31.15 79.18,-80.31zm-128.35 -77.32l0 -37.53c0,-37.16 21.02,-50.29 53.29,-50.29 13.89,0 33.41,2.62 44.29,6.38l0 118.97c-10.51,7.13 -28.9,11.26 -45.79,11.26 -29.65,0 -51.79,-12.76 -51.79,-48.79zm386.2 -180.9c1.13,-2.63 0,-4.88 -3,-4.88l-22.52 0c-2.25,0 -3.76,1.12 -4.88,3.37l-107.72 260.1c-1.12,2.63 0.38,4.88 3.38,4.88l22.89 0c2.26,0 4.14,-1.13 4.88,-3.38l106.97 -260.09zm150.87 74.68l0 -75.44c0,-2.62 -1.5,-4.12 -4.5,-4.12l-22.14 0c-2.63,0 -4.13,1.5 -4.13,4.12l0 260.1c0,2.63 1.5,4.13 4.13,4.13l22.14 0c3,0 4.5,-1.5 4.5,-4.13l0 -156.51c12.02,-6 28.53,-9.75 45.04,-9.75 33.78,0 52.92,14.63 52.92,55.16l0 111.1c0,2.63 1.5,4.13 4.13,4.13l22.15 0c3,0 4.5,-1.5 4.5,-4.13l0 -112.22c0,-58.18 -35.28,-81.82 -81.81,-81.82 -18.02,0 -33.79,3.75 -46.93,9.38zm217.13 188.79c2.62,0 4.12,-1.5 4.12,-4.13l0 -185.41c0,-2.62 -1.5,-4.51 -4.12,-4.51l-22.15 0c-3,0 -4.5,1.89 -4.5,4.51l0 185.41c0,2.63 1.5,4.13 4.5,4.13l22.15 0zm7.5 -248.47c0,-10.88 -7.89,-18.38 -18.39,-18.38 -10.51,0 -18.76,7.5 -18.76,18.38 0,10.51 8.25,18.39 18.76,18.39 10.5,0 18.39,-7.88 18.39,-18.39zm62.86 63.81c-2.25,0.75 -3,2.63 -3,4.88l0 246.96c0,2.63 1.5,4.13 4.13,4.13l22.14 0c3.01,0 4.51,-1.5 4.51,-4.13l0 -74.69c12.76,7.13 29.27,11.64 46.54,11.64 48.41,0 82.19,-28.9 82.19,-79.57l0 -41.29c0,-57.05 -34.91,-81.44 -83.69,-81.44 -24.02,0 -51.42,5.25 -72.82,13.51zm72.44 161.39c-17.26,0 -32.65,-5.25 -44.66,-13.52l0 -126.85c11.64,-4.88 28.15,-7.51 44.29,-7.51 33.4,0 53.29,15.02 53.29,54.42l0 41.29c0,36.41 -19.14,52.17 -52.92,52.17zm166.45 23.27c3.01,0 4.51,-1.5 4.51,-4.13l0 -159.51c11.64,-3.75 28.52,-6.75 44.29,-6.75 33.77,0 53.67,15 53.67,54.04l0 112.22c0,2.63 1.5,4.13 4.13,4.13l22.14 0c3,0 4.51,-1.5 4.51,-4.13l0 -112.97c0,-57.43 -34.16,-81.07 -84.45,-81.07 -25.9,0 -50.67,5.63 -72.07,14.64 -2.24,1.12 -3,3 -3,5.26l0 174.14c0,2.63 1.5,4.13 4.13,4.13l22.14 0zm352.99 -69.44l0 -54.04c0,-43.91 -31.52,-74.69 -82.57,-74.69 -50.66,0 -82.57,30.78 -82.57,74.69l0 54.04c0,43.92 31.91,73.57 82.57,73.57 51.05,0 82.57,-29.65 82.57,-73.57zm-133.99 0l0 -54.04c0,-28.53 18.02,-46.91 51.42,-46.91 33.78,0 51.79,18.38 51.79,46.91l0 54.04c0,28.15 -18.01,46.17 -51.79,46.17 -33.4,0 -51.42,-18.02 -51.42,-46.17zm220.13 5.63l0 -100.96 48.79 0c2.63,0 4.13,-1.5 4.13,-4.5l0 -18.77c0,-2.62 -1.5,-4.12 -4.13,-4.12l-48.79 0 -2.63 -45.42c-0.37,-2.62 -1.88,-4.13 -4.13,-4.13l-19.52 0c-3,0 -4.5,1.51 -4.5,4.51l0 174.89c0,46.17 27.78,66.44 65.31,66.44 4.87,0 13.51,-0.38 20.26,-0.76 2.63,-0.37 3.75,-2.24 3.75,-4.5l0 -19.89c0,-2.63 -1.5,-4.13 -4.5,-4.13 -6.75,0.38 -13.89,0.75 -18.01,0.75 -23.27,0 -36.03,-14.63 -36.03,-39.41zm252.02 -59.67c0,-51.42 -37.53,-74.69 -78.45,-74.69 -41.28,0 -79.56,23.27 -79.56,74.69l0 57.04c0,47.3 38.66,70.57 79.19,70.57 31.53,0 55.55,-11.27 74.32,-27.03 2.25,-1.87 2.63,-3.75 0.74,-6.01l-10.88 -14.26c-1.5,-2.24 -3.75,-2.62 -6.01,-1.12 -13.88,10.89 -31.52,21.02 -57.41,21.02 -27.78,0 -48.8,-15.02 -48.8,-43.17l0 -15.76 122.73 0c2.63,0 4.13,-1.5 4.13,-4.5l0 -36.78zm-30.03 0l0 15.76 -96.83 0 0 -15.76c0,-32.28 20.27,-46.91 48.41,-46.91 27.41,0 48.42,15 48.42,46.91zm110.91 123.48c3,0 4.5,-1.5 4.5,-4.13l0 -159.14c10.14,-4.12 25.15,-7.51 40.54,-7.51 11.26,0 23.27,1.13 33.78,2.63 3,0.76 4.51,-0.74 4.51,-3.75l0 -18.39c0,-2.63 -1.13,-4.5 -3.76,-4.88 -13.51,-1.88 -26.28,-3 -38.65,-3 -22.15,0 -45.42,4.88 -64.19,13.89 -2.25,0.75 -3,2.62 -3,4.88l0 175.27c0,2.63 1.5,4.13 4.13,4.13l22.14 0zm119.92 -178.66c-1.5,1.5 -1.13,3.01 0,5.26l10.88 15.77c1.51,2.24 3.38,2.62 5.63,1.12 13.14,-7.89 32.28,-13.88 53.3,-13.88 32.64,0 45.03,15.38 45.03,45.78l0 12.01c-12.76,-2.25 -29.65,-4.5 -45.03,-4.5 -48.04,0 -80.7,19.89 -80.7,59.67 0,44.67 38.66,61.56 80.7,61.56 28.15,0 54.8,-5.63 72.43,-12.01 2.25,-0.76 3.38,-2.63 3.38,-4.88l0 -112.59c0,-48.43 -28.52,-72.82 -74.69,-72.82 -28.89,0 -53.29,7.51 -70.93,19.51zm19.88 121.23c0,-20.64 15.78,-33.4 49.93,-33.4 15.38,0 33.03,2.25 45.03,4.51l0 56.29c-11.26,3.38 -28.15,6.76 -45.03,6.76 -28.9,0 -49.93,-11.63 -49.93,-34.16zm189.35 -127.23c-2.25,0.75 -3,2.63 -3,4.88l0 246.96c0,2.63 1.5,4.13 4.13,4.13l22.14 0c3.01,0 4.51,-1.5 4.51,-4.13l0 -74.69c12.76,7.13 29.27,11.64 46.54,11.64 48.41,0 82.2,-28.9 82.2,-79.57l0 -41.29c0,-57.05 -34.91,-81.44 -83.7,-81.44 -24.02,0 -51.42,5.25 -72.82,13.51zm72.44 161.39c-17.26,0 -32.65,-5.25 -44.66,-13.52l0 -126.85c11.64,-4.88 28.15,-7.51 44.29,-7.51 33.4,0 53.29,15.02 53.29,54.42l0 41.29c0,36.41 -19.14,52.17 -52.92,52.17zm291.82 -100.21c0,-51.42 -37.54,-74.69 -78.45,-74.69 -41.28,0 -79.57,23.27 -79.57,74.69l0 57.04c0,47.3 38.66,70.57 79.19,70.57 31.53,0 55.56,-11.27 74.32,-27.03 2.25,-1.87 2.63,-3.75 0.75,-6.01l-10.89 -14.26c-1.5,-2.24 -3.75,-2.62 -6,-1.12 -13.88,10.89 -31.53,21.02 -57.42,21.02 -27.77,0 -48.8,-15.02 -48.8,-43.17l0 -15.76 122.73 0c2.63,0 4.14,-1.5 4.14,-4.5l0 -36.78zm-30.04 0l0 15.76 -96.83 0 0 -15.76c0,-32.28 20.27,-46.91 48.42,-46.91 27.4,0 48.41,15 48.41,46.91zm214.13 -70.57c-3,0 -4.5,1.89 -4.5,4.51l0 159.13c-11.64,4.13 -27.4,7.14 -43.17,7.14 -32.65,0 -52.17,-15.02 -52.17,-54.42l0 -111.85c0,-2.62 -1.5,-4.51 -4.12,-4.51l-22.15 0c-3,0 -4.5,1.89 -4.5,4.51l0 112.6c0,57.42 33.77,81.07 82.94,81.07 25.52,0 49.92,-5.26 70.93,-14.64 2.26,-0.75 3.01,-3.01 3.01,-5.25l0 -173.78c0,-2.62 -1.5,-4.51 -4.13,-4.51l-22.14 0zm119.17 130.24l0 -100.96 48.79 0c2.63,0 4.13,-1.5 4.13,-4.5l0 -18.77c0,-2.62 -1.5,-4.12 -4.13,-4.12l-48.79 0 -2.63 -45.42c-0.38,-2.62 -1.88,-4.13 -4.14,-4.13l-19.51 0c-3,0 -4.5,1.51 -4.5,4.51l0 174.89c0,46.17 27.77,66.44 65.3,66.44 4.88,0 13.52,-0.38 20.27,-0.76 2.63,-0.37 3.75,-2.24 3.75,-4.5l0 -19.89c0,-2.63 -1.5,-4.13 -4.5,-4.13 -6.76,0.38 -13.89,0.75 -18.01,0.75 -23.27,0 -36.03,-14.63 -36.03,-39.41zm99.64 -114.85c-1.5,1.5 -1.13,3.01 0,5.26l10.88 15.77c1.51,2.24 3.38,2.62 5.63,1.12 13.14,-7.89 32.28,-13.88 53.3,-13.88 32.64,0 45.03,15.38 45.03,45.78l0 12.01c-12.76,-2.25 -29.65,-4.5 -45.03,-4.5 -48.04,0 -80.69,19.89 -80.69,59.67 0,44.67 38.65,61.56 80.69,61.56 28.15,0 54.8,-5.63 72.43,-12.01 2.25,-0.76 3.38,-2.63 3.38,-4.88l0 -112.59c0,-48.43 -28.52,-72.82 -74.69,-72.82 -28.89,0 -53.29,7.51 -70.93,19.51zm19.88 121.23c0,-20.64 15.78,-33.4 49.93,-33.4 15.38,0 33.03,2.25 45.03,4.51l0 56.29c-11.26,3.38 -28.15,6.76 -45.03,6.76 -28.9,0 -49.93,-11.63 -49.93,-34.16z"/>
  <path class="fil0" style="mask:url(#id18)" d="M3751.31 5169.47c2,0 3.21,-1.2 3.21,-3.21l0 -14.07c0,-2 -1.21,-3.21 -3.21,-3.21l-133.41 0 0 -263.59c0,-2.01 -1.21,-3.21 -3.21,-3.21l-15.67 0c-2.01,0 -3.23,1.2 -3.23,3.21l0 280.87c0,2.01 1.22,3.21 3.23,3.21l152.29 0zm239.08 -94.42l0 -96.04c0,-61.08 -41.39,-101.26 -106.49,-101.26 -65.49,0 -106.87,40.18 -106.87,101.26l0 96.04c0,58.26 41.78,98.85 106.87,98.85 64.7,0 106.49,-40.59 106.49,-98.85zm-191.27 0l0 -96.04c0,-49.02 32.15,-80.36 84.78,-80.36 52.24,0 84.38,31.34 84.38,80.36l0 96.04c0,46.21 -32.14,77.95 -84.38,77.95 -52.63,0 -84.78,-31.74 -84.78,-77.95zm457.27 -2.82l0 -186.84c0,-2.01 -1.61,-3.21 -3.62,-3.21l-15.67 0c-2,0 -3.21,1.2 -3.21,3.21l0 185.64c0,49.82 -28.53,81.97 -79.16,81.97 -50.63,0 -78.76,-32.15 -78.76,-81.97l0 -185.64c0,-2.01 -1.2,-3.21 -3.21,-3.21l-15.67 0c-2.41,0 -3.62,1.2 -3.62,3.21l0 186.84c0,59.88 38.17,101.67 101.26,101.67 63.49,0 101.66,-41.79 101.66,-101.67zm266.41 97.24c2.81,0 3.61,-2.01 2.41,-4.02l-88.01 -115.31c51.84,-4.83 82.78,-35.37 82.78,-83.18 0,-53.44 -37.36,-84.78 -98.04,-84.78l-89.2 0c-2.01,0 -3.22,1.2 -3.22,3.21l0 280.87c0,2.01 1.21,3.21 3.22,3.21l15.67 0c2,0 3.21,-1.2 3.21,-3.21l0 -114.52 60.28 0 87.19 115.72c0.8,1.21 2.81,2.01 4.42,2.01l19.29 0zm-100.46 -266.81c48.22,0 75.14,22.51 75.14,64.7 0,41.79 -26.92,63.88 -75.14,63.88l-70.72 0 0 -128.58 70.72 0zm179.61 130.6l131.8 0c2.01,0 3.21,-1.21 3.21,-3.22l0 -13.66c0,-2.41 -1.2,-3.62 -3.21,-3.62l-131.8 0 0 -110.1 140.24 0c2.41,0 3.62,-1.2 3.62,-3.21l0 -14.06c0,-2.01 -1.21,-3.21 -3.62,-3.21l-159.12 0c-2.01,0 -3.22,1.2 -3.22,3.21l0 280.87c0,2.01 1.21,3.21 3.22,3.21l165.14 0c2.01,0 3.22,-1.2 3.22,-3.21l0 -14.07c0,-2 -1.21,-3.21 -3.22,-3.21l-146.26 0 0 -115.72zm225.42 136.21c2.01,0 3.62,-1.2 3.62,-3.21l0 -147.47c0,-29.74 -0.81,-70.32 -1.21,-100.05l0.4 -0.41c8.04,14.07 17.68,30.54 26.53,44.2l133.4 204.93c0.81,1.21 2.41,2.01 4.02,2.01l17.68 0c2,0 3.21,-1.2 3.21,-3.21l0 -280.87c0,-2.01 -1.21,-3.21 -3.21,-3.21l-15.27 0c-2.01,0 -3.62,1.2 -3.62,3.21l0 141.84c0,33.36 0.81,73.53 1.61,106.89l-0.8 1.2c-8.44,-14.87 -18.49,-30.94 -27.73,-45.8l-132.2 -204.93c-0.8,-1.61 -2.41,-2.41 -4.02,-2.41l-17.67 0c-2.02,0 -3.23,1.2 -3.23,3.21l0 280.87c0,2.01 1.21,3.21 3.23,3.21l15.26 0zm444.82 -27.73c2,-1.6 2,-3.21 0.8,-4.81l-8.04 -11.66c-1.21,-2.01 -2.81,-2.41 -4.82,-0.8 -22.51,18.89 -50.63,28.53 -79.16,28.53 -51.03,0 -77.95,-31.34 -77.95,-76.34l0 -101.67c0,-44.6 26.52,-76.34 77.15,-76.34 26.11,0 52.23,8.83 73.53,24.91 2.01,1.61 3.62,1.21 4.82,-0.4l8.04 -11.65c1.21,-1.61 1.21,-3.22 -0.81,-4.43 -24.5,-19.28 -54.64,-29.33 -85.18,-29.33 -59.47,0 -99.65,36.97 -99.65,97.24l0 101.67c0,57.46 36.16,93.62 92.42,96.84l-8.44 22.09c-0.81,1.2 -0.4,2.82 0,3.62 0.8,1.61 2,2.01 4.01,2.01 22.11,0.4 30.95,6.02 30.55,17.68 0,12.46 -10.45,18.88 -26.92,18.88 -6.44,0 -13.67,-0.8 -20.9,-3.21 -2.41,-0.81 -4.02,0.4 -4.02,2.81l0 6.83c0,1.61 0.8,3.22 2.81,4.02 7.64,2.41 16.07,3.61 24.11,3.61 26.12,0 43,-12.04 43,-32.14 0,-17.68 -14.47,-26.92 -36.57,-27.72l7.24 -18.48c29.73,-1.21 59.86,-11.26 83.98,-31.76zm254.35 -66.69l0 -96.04c0,-61.08 -41.39,-101.26 -106.48,-101.26 -65.5,0 -106.88,40.18 -106.88,101.26l0 96.04c0,58.26 41.78,98.85 106.88,98.85 64.69,0 106.48,-40.59 106.48,-98.85zm-191.27 0l0 -96.04c0,-49.02 32.15,-80.36 84.79,-80.36 52.23,0 84.38,31.34 84.38,80.36l0 96.04c0,46.21 -32.15,77.95 -84.38,77.95 -52.64,0 -84.79,-31.74 -84.79,-77.95z"/>
  <path class="fil0" style="mask:url(#id20)" d="M4118.65 6032.15c10.41,-7.81 10.41,-15.61 3.9,-26.02l-54.63 -78.05c-6.51,-11.71 -15.62,-11.71 -27.32,-5.2 -48.14,31.22 -101.47,46.83 -150.9,46.83 -89.76,0 -141.8,-45.53 -141.8,-126.19l0 -182.11c0,-80.66 50.74,-126.18 143.1,-126.18 48.13,0 96.26,14.31 136.58,37.72 11.72,6.51 20.82,3.91 27.32,-5.2l50.74 -78.05c6.5,-10.41 5.21,-20.81 -5.21,-27.32 -66.34,-41.63 -137.89,-62.44 -213.33,-62.44 -179.52,0 -290.09,102.76 -290.09,261.47l0 180.81c0,158.71 109.27,262.77 291.39,262.77 91.06,0 163.9,-26.02 230.25,-72.84zm109.27 -563.26c-6.5,5.19 -6.5,11.7 0,22.11l52.03 79.35c6.51,10.4 16.91,11.7 26.02,5.2 41.63,-24.71 101.47,-41.62 166.51,-41.62 96.27,0 130.08,39.02 130.08,131.38l0 24.71c-39.02,-5.19 -87.15,-10.4 -130.08,-10.4 -166.51,0 -284.89,66.34 -284.89,208.13 0,162.61 139.2,217.24 290.09,217.24 96.26,0 193.83,-18.21 261.47,-39.02 9.11,-3.9 14.31,-11.7 14.31,-22.11l0 -379.85c0,-183.42 -109.27,-264.07 -270.57,-264.07 -105.37,0 -192.52,26.02 -254.97,68.95zm111.87 417.56c0,-53.33 39.02,-85.85 136.59,-85.85 40.33,0 91.06,5.2 126.18,10.41l0 146.99c-32.51,7.81 -81.95,15.61 -124.88,15.61 -79.34,0 -137.89,-26.01 -137.89,-87.16zm699.86 202.94c13.01,0 19.51,-6.51 19.51,-19.52l0 -520.33c29.92,-7.81 78.06,-14.31 122.29,-14.31 94.95,0 150.89,36.42 150.89,158.7l0 375.94c0,13.01 7.8,19.52 19.52,19.52l113.17 0c11.71,0 18.21,-6.51 18.21,-19.52l0 -378.55c0,-208.13 -122.28,-291.38 -301.79,-291.38 -92.37,0 -183.43,18.21 -258.87,50.73 -10.41,5.2 -14.32,13.01 -14.32,23.41l0 595.79c0,13.01 6.51,19.52 19.51,19.52l111.88 0zm595.78 -620.5c-6.5,5.19 -6.5,11.7 0,22.11l52.04 79.35c6.51,10.4 16.91,11.7 26.02,5.2 41.62,-24.71 101.46,-41.62 166.5,-41.62 96.27,0 130.09,39.02 130.09,131.38l0 24.71c-39.02,-5.19 -87.16,-10.4 -130.09,-10.4 -166.5,0 -284.88,66.34 -284.88,208.13 0,162.61 139.19,217.24 290.09,217.24 96.26,0 193.83,-18.21 261.47,-39.02 9.1,-3.9 14.31,-11.7 14.31,-22.11l0 -379.85c0,-183.42 -109.28,-264.07 -270.57,-264.07 -105.37,0 -192.53,26.02 -254.98,68.95zm111.88 417.56c0,-53.33 39.02,-85.85 136.59,-85.85 40.32,0 91.06,5.2 126.18,10.41l0 146.99c-32.52,7.81 -81.95,15.61 -124.88,15.61 -79.35,0 -137.89,-26.01 -137.89,-87.16zm878.06 202.94c10.41,0 18.22,-5.21 22.12,-15.61l228.95 -637.42c3.91,-11.7 -1.3,-20.81 -14.31,-20.81l-122.28 0c-10.4,0 -18.21,5.2 -20.81,14.3l-160.01 503.43 -2.59 0 -160.01 -503.43c-2.6,-9.1 -10.41,-14.3 -22.12,-14.3l-120.97 0c-13.02,0 -19.52,9.11 -14.32,20.81l227.66 637.42c3.9,10.4 10.4,15.61 22.11,15.61l136.58 0zm881.98 -422.77c0,-191.24 -139.19,-266.68 -280.98,-266.68 -143.09,0 -286.19,75.44 -286.19,266.68l0 184.71c0,173.01 137.9,253.66 284.89,253.66 110.57,0 195.13,-35.12 264.07,-89.76 10.41,-7.8 11.71,-18.21 3.91,-27.31l-53.34 -71.55c-6.51,-9.11 -16.91,-10.41 -26.02,-3.9 -48.12,32.53 -102.76,59.84 -183.41,59.84 -83.26,0 -137.9,-40.33 -137.9,-119.68l0 -36.42 395.46 0c13.01,0 19.51,-6.51 19.51,-18.22l0 -131.37zm-146.99 -1.31l0 33.82 -267.98 0 0 -33.82c0,-96.26 57.25,-132.68 133.99,-132.68 72.85,0 133.99,37.72 133.99,132.68zm412.37 424.08c13.01,0 19.51,-6.51 19.51,-19.52l0 -517.73c24.72,-10.41 67.65,-18.21 114.48,-18.21 35.12,0 72.85,0 105.36,5.19 13.02,2.61 20.82,-3.89 20.82,-15.6l0 -93.67c0,-10.4 -5.21,-18.21 -16.91,-19.51 -49.44,-7.8 -92.36,-10.4 -132.69,-10.4 -79.35,0 -161.3,16.91 -227.64,49.43 -10.41,3.9 -14.32,11.71 -14.32,22.12l0 598.38c0,13.01 6.51,19.52 19.51,19.52l111.88 0z"/>
  <path class="fil3 str1" d="M2719.9 5526.22c0,-89.22 88.49,-199.3 150.68,-273.24m-1196.88 273.24c0,-89.22 -88.49,-199.3 -150.68,-273.24m163.9 281.01l1032.98 0 -1032.98 217.4 1032.98 0 -1032.98 232.49 1032.98 0 -852.21 268.06 6172.32 0"/>
  <path class="fil0" style="mask:url(#id22)" d="M2172.15 5197.82c449.02,0 868.75,-146.42 1161.59,-439.26l-58.57 -68.33c-312.35,297.72 -688.16,414.86 -1103.02,414.86 -941.96,0 -1654.53,-707.69 -1654.53,-1630.13 0,-922.43 712.57,-1630.12 1654.53,-1630.12 414.86,0 790.67,112.25 1103.02,409.97l58.57 -68.34c-292.84,-292.83 -712.57,-434.37 -1161.59,-434.37 -1000.52,0 -1752.14,736.98 -1752.14,1722.86 0,985.88 751.62,1722.86 1752.14,1722.86z"/>
 </g>
</svg>
