<svg width="74" height="55" viewBox="0 0 74 55" fill="none" xmlns="http://www.w3.org/2000/svg">
<path d="M17.9539 24.5111C18.5953 19.6486 22.8936 15.2473 30.7559 11.412L32.1717 10.7213L26.3672 0.00488281L25.0568 0.669062C8.43038 9.09717 0 21.008 0 36.0712C0 41.2686 1.64982 45.7574 4.90397 49.4133C8.20376 53.1201 12.2082 54.9997 16.807 54.9997C20.9391 54.9997 24.443 53.5283 27.2212 50.6258C29.9813 47.7421 31.3809 44.1602 31.3809 39.9794C31.3809 36.0289 29.9672 32.5082 27.1791 29.5152C24.7201 26.8751 21.6216 25.1958 17.9539 24.5111ZM25.0397 48.5377C22.8226 50.854 20.1296 51.9799 16.807 51.9799C13.0554 51.9799 9.89979 50.4835 7.15993 47.4053C4.374 44.2757 3.01968 40.5683 3.01968 36.0711C3.01968 29.1673 4.96373 22.9344 8.79749 17.5458C12.4555 12.4045 17.9421 7.86536 25.1189 4.03973L28.0267 9.40822C19.2813 13.9912 14.8503 19.5003 14.8503 25.7986V27.1472L16.1902 27.299C19.7996 27.7076 22.6709 29.1057 24.9695 31.5733C27.2516 34.0232 28.361 36.7731 28.361 39.9793C28.3612 43.4033 27.2746 46.2026 25.0397 48.5377Z" fill="url(#paint0_linear)"/>
<path d="M58.9313 24.5154C59.5649 19.649 63.8278 15.2455 71.6271 11.4097L73.0212 10.7241L67.3609 0L66.0376 0.667745C49.3351 9.09542 40.8663 21.0069 40.8663 36.0712C40.8663 41.2718 42.5373 45.763 45.8325 49.42C49.1688 53.1222 53.1898 54.9995 57.7849 54.9995C61.9221 54.9995 65.4099 53.5253 68.1512 50.6175C70.869 47.7349 72.2471 44.1557 72.2471 39.9793C72.2471 36.0286 70.8334 32.5078 68.0457 29.515C65.5916 26.8806 62.5304 25.2027 58.9313 24.5154ZM65.9543 48.546C63.7755 50.8567 61.1035 51.98 57.7849 51.98C54.0296 51.98 50.8537 50.4815 48.0758 47.3986C45.2563 44.2698 43.8859 40.5647 43.8859 36.0712C43.8859 29.1686 45.8388 22.9366 49.6895 17.5486C53.3638 12.4085 58.8741 7.87003 66.0814 4.04483L68.9104 9.40505C60.228 13.9896 55.8286 19.4998 55.8286 25.7987V27.1444L57.1651 27.2987C60.7003 27.7067 63.5365 29.1049 65.8362 31.5734C68.1183 34.0232 69.2274 36.7727 69.2274 39.9794C69.2275 43.4077 68.1568 46.21 65.9543 48.546Z" fill="url(#paint1_linear)"/>
<defs>
<linearGradient id="paint0_linear" x1="16.0858" y1="0.00488281" x2="16.0858" y2="54.9997" gradientUnits="userSpaceOnUse">
<stop stop-color="#C83267"/>
<stop offset="1" stop-color="#C83267" stop-opacity="0"/>
</linearGradient>
<linearGradient id="paint1_linear" x1="56.9438" y1="0" x2="56.9438" y2="54.9995" gradientUnits="userSpaceOnUse">
<stop stop-color="#C83267"/>
<stop offset="1" stop-color="#C83267" stop-opacity="0"/>
</linearGradient>
</defs>
</svg>
