<?xml version="1.0" encoding="UTF-8"?>
<!DOCTYPE svg PUBLIC "-//W3C//DTD SVG 1.1//EN" "http://www.w3.org/Graphics/SVG/1.1/DTD/svg11.dtd">
<!-- Creator: CorelDRAW 2019 (64-Bit) -->
<svg xmlns="http://www.w3.org/2000/svg" xml:space="preserve" width="84.6666mm" height="84.6666mm" version="1.1" style="shape-rendering:geometricPrecision; text-rendering:geometricPrecision; image-rendering:optimizeQuality; fill-rule:evenodd; clip-rule:evenodd"
viewBox="0 0 8466.66 8466.66"
 xmlns:xlink="http://www.w3.org/1999/xlink">
 <defs>
  <style type="text/css">
   <![CDATA[
    .str0 {stroke:#FEFEFE;stroke-width:33.87;stroke-miterlimit:22.9256}
    .str1 {stroke:#FEFEFE;stroke-width:135.47;stroke-miterlimit:22.9256}
    .str2 {stroke:#FEFEFE;stroke-width:67.73;stroke-linecap:round;stroke-linejoin:round;stroke-miterlimit:22.9256}
    .fil0 {fill:none}
    .fil8 {fill:#FEFEFE}
    .fil1 {fill:#FEFEFE;fill-rule:nonzero}
    .fil3 {fill:#FEFEFE;fill-rule:nonzero;fill-opacity:0.458824}
    .fil2 {fill:#FEFEFE;fill-rule:nonzero;fill-opacity:0.501961}
    .fil4 {fill:#FEFEFE;fill-rule:nonzero;fill-opacity:0.560784}
    .fil5 {fill:#FEFEFE;fill-rule:nonzero;fill-opacity:0.670588}
    .fil6 {fill:#FEFEFE;fill-rule:nonzero;fill-opacity:0.741176}
    .fil7 {fill:#FEFEFE;fill-rule:nonzero;fill-opacity:0.870588}
   ]]>
  </style>
 </defs>
 <g id="Layer_x0020_1">
  <metadata id="CorelCorpID_0Corel-Layer"/>
  <rect class="fil0" x="-0.01" y="-0.02" width="8466.67" height="8466.67"/>
  <g id="_1749170310432">
   <g>
    <g>
     <path class="fil1 str0" d="M4011.17 5104.11c0,-206.48 0,-618.01 0,-1235.08 -33.77,0 -100.38,0 -200.77,0 0,204.57 0,616.11 0,1235.08 33.31,0 100.39,0 200.77,0zm-100.38 -1541.48c27.59,0 50.91,-10.46 69.46,-30.92 20.46,-18.56 30.92,-41.86 30.92,-69.46 0,-26.17 -10.46,-49.48 -30.92,-69.94 -18.55,-20.45 -41.87,-30.44 -69.46,-30.44 -28.07,0 -52.34,9.99 -72.8,30.44 -18.55,20.46 -27.59,43.77 -27.59,69.94 0,27.6 9.04,50.9 27.59,69.46 20.46,20.46 44.73,30.92 72.8,30.92zm880.64 306.4c-135.59,0 -251.68,47.57 -348.26,142.25 -97.06,96.58 -145.11,213.62 -145.11,351.11 0,165.57 0,412.96 0,741.72 33.31,0 99.44,0 197.92,0 0,-124.65 0,-371.57 0,-741.72 0,-81.35 28.55,-151.29 86.59,-208.85 59.47,-59.47 128.93,-89.45 208.86,-89.45 83.73,0 154.15,29.98 211.72,89.45 57.56,57.56 86.58,127.5 86.58,208.85 0,165.57 0,412.96 0,741.72 33.31,0 100.39,0 200.77,0 0,-124.65 0,-371.57 0,-741.72 0,-137.49 -49.47,-254.53 -147.96,-351.11 -96.58,-94.68 -213.62,-142.25 -351.11,-142.25zm1404.93 -562.83c0,-33.78 0,-100.38 0,-200.77 -171.28,0 -316.86,61.37 -437.7,183.64 -120.84,120.85 -181.27,265.95 -181.27,435.33 0,306.39 0,766.45 0,1379.71 33.31,0 100.39,0 200.77,0 0,-172.71 0,-519.53 0,-1040.02 70.42,0 209.81,0 418.2,0 0,-31.4 0,-96.58 0,-195.06 -68.98,0 -208.39,0 -418.2,0 0,-24.27 0,-72.32 0,-144.63 0,0 -0.95,0 -2.85,0 0,-115.61 40.92,-214.1 122.74,-295.93 81.84,-81.36 181.27,-122.27 298.31,-122.27z"/>
     <path class="fil1" d="M7120.53 4963.53c-123.81,3.88 -244.79,-40.98 -337.62,-128.17 -92.08,-86.49 -144.97,-203.65 -148.93,-329.88 -3.97,-126.29 41.46,-246.53 127.95,-338.62 178.54,-190.08 478.4,-199.49 668.48,-20.97 121.66,114.27 173.54,280.07 138.81,443.46l-118.59 -25.19c25.84,-121.6 -12.76,-244.91 -103.2,-329.89 -141.36,-132.75 -364.33,-125.72 -497.12,15.59 -64.31,68.48 -98.09,157.92 -95.15,251.81 2.95,93.89 42.27,181 110.75,245.31 88.74,83.34 212.19,114.5 330.07,83.86l30.69 117.27c-35.21,9.24 -70.81,14.31 -106.14,15.42z"/>
     <path class="fil2" d="M7126.48 5139.65c-168.48,5.29 -335.66,-55.45 -464.03,-176.01 -126.36,-118.65 -198.93,-279.42 -204.36,-452.64 -5.44,-173.27 56.91,-338.24 175.58,-464.57 118.64,-126.38 279.4,-198.95 452.65,-204.39 173.24,-5.43 338.23,56.92 464.56,175.61 196.44,184.45 249.51,476.23 148.99,726.22l-105.67 -44.31c81.72,-203.32 33.43,-443.52 -126.32,-593.54 -102.72,-96.48 -236.89,-147.21 -377.76,-142.79 -140.88,4.42 -271.59,63.46 -368.08,166.19 -96.48,102.74 -147.19,236.89 -142.77,377.77 4.42,140.84 63.44,271.6 166.17,368.07 156.45,146.89 389.44,173.29 585.02,84.62l51.58 122.37c-80.02,36.32 -171.5,54.77 -255.56,57.4z"/>
     <g>
      <path class="fil3" d="M7065.42 5327.75c-17.6,17.59 -46.13,17.59 -63.73,0 -17.6,-17.61 -17.6,-46.15 0,-63.75 17.6,-17.6 46.13,-17.6 63.73,0 17.61,17.6 17.61,46.14 0,63.75z"/>
      <path class="fil3" d="M6814.83 5263.86c-19.51,19.51 -51.14,19.51 -70.65,0 -19.51,-19.5 -19.51,-51.13 0,-70.64 19.51,-19.51 51.14,-19.51 70.65,0 19.5,19.51 19.5,51.14 0,70.64z"/>
      <path class="fil4" d="M6598.75 5122.56c-21.42,21.42 -56.13,21.42 -77.55,0 -21.42,-21.42 -21.42,-56.14 0,-77.55 21.42,-21.43 56.13,-21.43 77.55,0 21.42,21.41 21.42,56.13 0,77.55z"/>
      <path class="fil5" d="M6439.51 4919.29c-23.32,23.33 -61.13,23.33 -84.45,0 -23.32,-23.32 -23.32,-61.14 0,-84.45 23.32,-23.32 61.14,-23.32 84.45,0 23.33,23.31 23.33,61.13 0,84.45z"/>
      <path class="fil5" d="M6354.56 4675.15c-25.24,25.24 -66.14,25.24 -91.37,0 -25.23,-25.23 -25.23,-66.13 0,-91.36 25.23,-25.23 66.13,-25.23 91.37,0 25.22,25.23 25.22,66.13 0,91.36z"/>
      <path class="fil5" d="M6352.49 4415.83c-27.13,27.14 -71.13,27.14 -98.27,0 -27.13,-27.14 -27.13,-71.14 0,-98.27 27.14,-27.14 71.14,-27.14 98.27,0 27.14,27.13 27.14,71.13 0,98.27z"/>
      <path class="fil6" d="M6433.77 4168.24c-29.04,29.04 -76.13,29.04 -105.17,0 -29.05,-29.05 -29.05,-76.14 0,-105.18 29.04,-29.04 76.13,-29.04 105.17,0 29.05,29.04 29.05,76.13 0,105.18z"/>
      <path class="fil6" d="M6590.96 3958.39c-30.95,30.95 -81.13,30.95 -112.09,0 -30.94,-30.96 -30.94,-81.13 0,-112.09 30.96,-30.94 81.14,-30.94 112.09,0 30.95,30.96 30.95,81.13 0,112.09z"/>
      <path class="fil6" d="M6807.7 3807.83c-32.85,32.86 -86.13,32.86 -118.99,0 -32.85,-32.86 -32.85,-86.13 0,-118.99 32.86,-32.86 86.14,-32.86 118.99,0 32.86,32.86 32.86,86.13 0,118.99z"/>
      <path class="fil7" d="M7062.21 3733.24c-34.76,34.77 -91.13,34.77 -125.9,0 -34.76,-34.76 -34.76,-91.12 0,-125.89 34.77,-34.76 91.14,-34.76 125.9,0 34.76,34.77 34.76,91.13 0,125.89z"/>
      <path class="fil7" d="M7328.44 3742.03c-36.66,36.67 -96.12,36.67 -132.8,0 -36.67,-36.68 -36.67,-96.13 0,-132.8 36.68,-36.68 96.14,-36.67 132.8,0 36.67,36.67 36.67,96.12 0,132.8z"/>
      <path class="fil7" d="M7579.49 3833.69c-38.59,38.57 -101.12,38.57 -139.7,0 -38.59,-38.58 -38.59,-101.13 0,-139.71 38.58,-38.59 101.11,-38.59 139.7,0 38.57,38.58 38.57,101.13 0,139.71z"/>
      <path class="fil1" d="M7789.74 3999.62c-40.48,40.49 -106.12,40.49 -146.61,0 -40.48,-40.48 -40.48,-106.12 0,-146.62 40.49,-40.48 106.13,-40.48 146.61,0 40.49,40.5 40.49,106.14 0,146.62z"/>
      <path class="fil1" d="M7938.19 4222.54c-42.41,42.39 -111.14,42.39 -153.53,0 -42.39,-42.41 -42.39,-111.13 0,-153.53 42.39,-42.4 111.12,-42.4 153.53,0 42.39,42.4 42.39,111.12 0,153.53z"/>
      <path class="fil1" d="M8009.23 4480.7c-44.3,44.3 -116.13,44.3 -160.43,0 -44.3,-44.3 -44.3,-116.13 0,-160.43 44.3,-44.3 116.13,-44.3 160.43,0 44.3,44.3 44.3,116.13 0,160.43z"/>
     </g>
    </g>
   </g>
   <path class="fil8" d="M7212.41 4580.44c5.86,1.37 16.31,6.59 21.88,9.05l664.14 279.92c4.78,1.97 6.57,2.89 11.49,4.89 6.89,2.78 6.31,1.13 10.08,6.28 -9.75,0.81 -203.96,76.67 -222.19,83.4 -11.47,4.24 -67.96,24.46 -72.68,29.18 -4.02,4.02 -51.55,130.17 -57.33,146.4l-41.98 110.82c-3.49,8.95 -12.53,28.74 -13.27,37.66 -7.68,-5.63 -24.44,-53.21 -29.06,-63.72 -40.96,-93.27 -80.96,-196.07 -121.87,-289.22l-101.97 -241.83c-3.29,-7.5 -6.04,-14.97 -9.66,-23.07l-37.58 -89.76zm-38.2 -54.57c-0.35,0.08 -9.73,-1.73 -15.54,10.06 -5.86,11.91 9.14,39.03 16.74,56.05l310.11 735.82c5.83,14.11 9.16,28.12 21.26,31.66 19.34,5.64 24.44,-16.1 27.06,-22.84l115.33 -303.05c2.96,-8.59 2,-11.25 10.86,-14.6l56.93 -21.29c60.65,-21.57 128.91,-50.72 189.63,-72.31l75.26 -28.42c12.04,-6.55 14.24,-24.95 1.86,-32.78l-73.83 -31.67c-25.4,-10.1 -47.65,-20.62 -73.03,-30.65 -70.07,-27.7 -149.8,-64.82 -221.41,-93.29l-109.89 -46.54c-12.37,-4.97 -24.1,-10.41 -37.18,-15.57 -25.22,-9.97 -47.66,-20.57 -73.03,-30.65l-216.62 -90.63c-7.22,-0.53 -2.01,0.16 -4.51,0.7z"/>
   <path class="fil8 str1" d="M7790.42 5051.39c52.86,0 95.71,42.85 95.71,95.71 0,52.87 -42.85,95.72 -95.71,95.72 -52.87,0 -95.72,-42.85 -95.72,-95.72 0,-52.86 42.85,-95.71 95.72,-95.71z"/>
   <path class="fil8" d="M1896.75 3636.12c-0.56,542.81 -61.8,1323.3 696.9,1450.76 152.4,24.41 375.86,-18.85 509.46,-103.86 66.25,-42.16 35.26,-2.76 45.94,-52.63 -251.17,141.62 -702.3,62.86 -885.84,-256.42 -167.29,-294.15 -91.37,-814.03 -41.31,-1170.32l-264.63 -79.04c-14.02,-2.93 -21.29,-5.28 -37.66,3.92l-22.86 207.59z"/>
   <polygon class="fil8" points="2837.87,4481.09 3333.07,4481.8 3332.14,4804.97 3661.37,4936.83 3662.4,4183.52 2837.25,4182.6 "/>
   <path class="fil1" d="M2997.68 3246.32c211.16,29.18 398.88,107.52 543.46,215.88l-53.36 386.18c-22.78,-61.36 -62.01,-119.09 -114.19,-169.79 -98.29,-95.48 -242.56,-166.08 -409.51,-189.15 -166.95,-23.07 -324.96,5.76 -445.45,71.01 -68.77,37.25 -125.32,86.36 -164.35,144.47 67.5,-213.41 78.74,-212.28 153.3,-303.59 118.43,-112.57 226.87,-168.65 490.1,-155.01z"/>
   <polyline class="fil0 str2" points="422.46,5114.9 423.39,3412.26 807.58,3412.25 1378.92,4254.55 1919.62,3428.53 1897.84,4049.67 1384.57,4813.49 761.37,3918.38 761.75,5097.71 422.47,5097.53 "/>
  </g>
 </g>
</svg>
