<?xml version="1.0" encoding="UTF-8"?>
<!DOCTYPE svg PUBLIC "-//W3C//DTD SVG 1.1//EN" "http://www.w3.org/Graphics/SVG/1.1/DTD/svg11.dtd">
<!-- Creator: CorelDRAW 2019 (64-Bit) -->
<svg xmlns="http://www.w3.org/2000/svg" xml:space="preserve" width="84.6666mm" height="84.6666mm" version="1.1" style="shape-rendering:geometricPrecision; text-rendering:geometricPrecision; image-rendering:optimizeQuality; fill-rule:evenodd; clip-rule:evenodd"
viewBox="0 0 8466.66 8466.66"
 xmlns:xlink="http://www.w3.org/1999/xlink">
 <defs>
  <style type="text/css">
   <![CDATA[
    .fil0 {fill:none}
    .fil1 {fill:white;fill-rule:nonzero}
   ]]>
  </style>
 </defs>
 <g id="Layer_x0020_1">
  <metadata id="CorelCorpID_0Corel-Layer"/>
  <rect class="fil0" x="-0.01" y="-0.02" width="8466.67" height="8466.67"/>
  <path class="fil1" d="M3445.64 3702.72l-47.88 0 0 -47.89 0 -48.01 0 -47.88 0 -47.89 0 -48.02 0 -47.88 0 -47.89 0 -48.01 0 -47.89 -47.76 0 -47.89 0 -47.76 0 -47.88 0 -47.76 0 0 47.89 0 48.01 0 47.89 0 47.88 0 48.02 0 47.89 0 47.88 0 48.01 0 47.89 -47.89 0 -47.88 0 0 -47.89 0 -48.01 0 -47.88 0 -47.89 0 -47.89 0 -48.01 0 -47.89 0 -47.88 0 -47.89 0 -48.01 0 -47.89 47.88 0 47.89 0 47.76 0 47.88 0 47.76 0 47.89 0 47.76 0 47.88 0 0 47.89 47.89 0 0 48.01 0 47.89 0 47.88 0 47.89 0 48.01 0 47.89 0 47.89 0 47.88 0 48.01 0 47.89 -47.89 0zm527.13 0l-47.88 0 -47.89 0 -47.89 0 -47.88 0 -47.89 0 -47.89 0 -47.88 0 0 -48.01 -47.89 0 0 -47.89 0 -48.01 0 -47.89 0 -48.01 0 -47.89 0 -47.88 0 -47.89 0 -47.89 0 -47.88 47.89 0 0 -47.89 47.88 0 47.89 0 47.89 0 47.88 0 47.89 0 47.89 0 47.88 0 47.89 0 0 47.89 0 47.88 -47.89 0 -47.88 0 -47.89 0 -47.89 0 -47.88 0 -47.89 0 -47.89 0 0 47.89 0 47.89 47.89 0 47.89 0 47.88 0 47.89 0 47.89 0 47.88 0 47.89 0 0 47.88 0 47.89 -47.89 0 -47.88 0 -47.89 0 -47.89 0 -47.88 0 -47.89 0 -47.89 0 0 48.01 0 48.02 0 48.01 47.89 0 47.89 0 47.88 0 47.89 0 47.89 0 47.88 0 47.89 0 0 47.88 0 47.89 -47.89 0zm287.32 0l-47.89 0 0 -47.89 0 -48.01 0 -47.88 0 -47.89 0 -48.02 0 -47.88 0 -47.89 0 -48.01 0 -47.89 -47.88 0 -47.89 0 -47.88 0 0 -47.88 0 -47.89 47.88 0 47.89 0 47.88 0 47.89 0 47.89 0 47.88 0 47.89 0 47.89 0 47.88 0 0 47.89 0 47.88 -47.88 0 -47.89 0 -47.89 0 -47.88 0 0 47.89 0 48.01 0 47.89 0 47.88 0 48.02 0 47.89 0 47.88 0 48.01 0 47.89 -47.89 0zm765.8 0l-47.89 0 -47.89 0 0 -48.27 -47.88 0 0 -47.5 -47.89 0 0 47.5 -47.76 0 0 48.27 -47.75 0 -47.77 0 -47.88 0 0 -48.27 -47.89 0 0 -47.89 0 -47.88 0 -47.89 0 -47.88 0 -47.89 0 -47.88 0 -47.89 0 -47.89 0 -47.88 0 -47.89 47.89 0 47.88 0 0 47.89 0 48.01 0 47.89 0 47.88 0 48.02 0 47.88 0 47.89 0 48.01 0 47.89 47.77 0 0 -48.27 47.75 0 47.76 0 0 -47.89 0 -47.88 0 -47.89 0 -47.88 0 -47.89 0 -47.89 0 -47.88 0 -47.89 47.89 0 47.88 0 0 47.89 0 47.88 0 47.89 0 47.89 0 47.88 0 47.89 0 47.88 0 47.89 47.89 0 0 48.27 47.89 0 0 -47.89 0 -48.01 0 -47.89 0 -47.88 0 -48.02 0 -47.88 0 -47.89 0 -48.01 0 -47.89 47.88 0 47.89 0 0 47.89 0 47.88 0 47.89 0 47.89 0 47.88 0 47.89 0 47.88 0 47.89 0 47.88 0 47.89 -47.89 0 0 48.27 -47.88 0zm575.01 0l-47.88 0 -47.89 0 -47.89 0 -47.88 0 -47.89 0 -47.89 0 -47.88 0 0 -47.89 -47.89 0 0 -48.01 0 -47.88 0 -47.89 0 -48.02 0 -47.88 0 -47.89 0 -48.01 0 -47.89 0 -47.88 47.89 0 0 -47.89 47.88 0 47.89 0 47.89 0 47.88 0 47.89 0 47.89 0 47.88 0 47.89 0 0 47.89 47.88 0 0 48.01 0 47.89 0 47.88 0 47.89 0 48.01 0 47.89 0 47.89 0 47.88 0 48.01 -47.88 0 0 47.89 -47.89 0zm-47.88 -95.77l47.88 0 0 -47.89 0 -48.01 0 -47.89 0 -48.01 0 -47.89 0 -48.01 0 -47.89 -47.88 0 -47.89 0 -47.89 0 -47.88 0 -47.89 0 -47.89 0 0 47.89 0 48.01 0 47.89 0 48.01 0 47.89 0 48.01 0 47.89 47.89 0 47.89 0 47.88 0 47.89 0 47.89 0zm670.4 95.77l-47.88 0 0 -47.89 -47.51 0 0 -47.88 -48.27 0 0 -48.27 -48.27 0 0 -47.5 -47.75 0 0 -48.27 -47.76 0 -47.76 0 0 48.01 0 47.89 0 48.01 0 47.89 0 48.01 -47.89 0 -47.88 0 0 -47.89 0 -47.88 0 -47.89 0 -47.88 0 -47.89 0 -47.88 0 -48.02 0 -48.01 0 -48.02 0 -47.5 47.88 0 0 -48.27 47.89 0 47.88 0 47.89 0 47.89 0 47.88 0 47.89 0 47.89 0 0 48.27 48.26 0 -0.76 47.89 0.76 47.88 -0.76 47.89 0.76 47.89 -48.26 0 0 47.5 -47.51 0 0 48.27 47.51 0 0 47.5 47.5 0 0.76 48.27 47.51 0 0 47.88 0 47.89 -47.89 0zm-143.4 -335.58l48.01 0 0 -47.89 0 -47.89 -48.01 0 -47.89 0 -48.01 0 -47.89 0 -48.01 0 0 47.89 0 47.89 48.01 0 47.89 0 48.01 0 47.89 0zm622.26 335.58l-47.88 0 0 -47.89 -48.27 0 0 -47.88 -47.5 0 0 -48.27 -48.27 0 0 -47.89 -47.51 0 0 47.89 0 48.01 0 48.02 0 48.01 -47.88 0 -47.89 0 0 -47.89 0 -47.88 0 -47.89 0 -47.88 0 -47.89 0 -47.88 0 -47.89 0 -47.89 0 -48.27 0 -47.88 0 -47.89 47.89 0 47.88 0 0 48.02 0 48.01 0 48.01 0 47.89 47.51 0 0 -47.89 48.27 0 0 -48.27 47.5 0 0 -47.88 48.27 0 0 -47.89 47.88 0 47.89 0 0 47.89 0 47.88 -47.5 0 0 48.27 -48.27 0 0 47.76 -48.27 0 0 47.89 -47.5 0 0 47.75 47.5 0 0 47.89 48.27 0 0 47.76 48.27 0 0 48.27 47.5 0 0 47.88 0 47.89 -47.89 0zm191.55 0l-47.89 0 0 -47.89 0 -48.01 0 -47.88 0 -47.89 0 -47.89 0 -48.01 0 -47.89 0 -47.88 0 -47.89 0 -48.01 0 -47.89 47.89 0 47.88 0 0 47.89 0 48.01 0 47.89 0 47.88 0 47.89 0 48.01 0 47.89 0 47.89 0 47.88 0 48.01 0 47.89 -47.88 0zm526.37 0l-47.89 0 0 -47.89 0 -48.01 0 -47.88 0 -47.89 0 -48.02 0 -47.88 0 -47.89 0 -48.01 0 -47.89 -47.76 0 -47.89 0 -47.75 0 -47.89 0 -47.76 0 0 47.89 0 48.01 0 47.89 0 47.88 0 48.02 0 47.89 0 47.88 0 48.01 0 47.89 -47.88 0 -47.89 0 0 -47.89 0 -48.01 0 -47.88 0 -47.89 0 -47.89 0 -48.01 0 -47.89 0 -47.88 0 -47.89 0 -48.01 0 -47.89 47.89 0 47.88 0 47.76 0 47.89 0 47.75 0 47.89 0 47.76 0 47.89 0 0 47.89 47.88 0 0 48.01 0 47.89 0 47.88 0 47.89 0 48.01 0 47.89 0 47.89 0 47.88 0 48.01 0 47.89 -47.88 0zm527.13 0l-47.89 0 -47.89 0 -47.88 0 -47.89 0 -47.88 0 -47.89 0 -47.89 0 0 -47.89 -47.88 0 0 -47.88 0 -47.89 0 -47.88 0 -47.89 0 -47.88 0 -47.89 0 -47.89 0 -48.27 0 -47.5 47.88 0 0 -48.27 47.89 0 47.89 0 47.88 0 47.89 0 47.88 0 47.89 0 47.89 0 47.88 0 0 48.27 47.89 0 0 47.89 0 47.88 -47.89 0 -47.88 0 0 -48.27 -47.89 0 -47.89 0 -47.88 0 -47.89 0 -47.88 0 -47.89 0 0 47.89 0 48.01 0 47.89 0 48.01 0 47.89 0 48.01 0 47.89 47.89 0 47.88 0 47.89 0 47.88 0 47.89 0 47.89 0 0 -47.89 0 -47.88 -47.89 0 -47.89 0 -47.88 0 0 -47.89 0 -47.88 47.88 0 47.89 0 47.89 0 47.88 0 47.89 0 0 47.88 0 47.89 0 47.88 0 47.89 0 47.88 -47.89 0 0 47.89 -47.88 0z"/>
  <path class="fil1" d="M4070.07 3883.04c-39.64,0 -62.38,24.32 -69.2,71.31l0 1236.46c0,41.4 22.74,65.39 69.2,72.29l680.55 0c40.93,0 65.62,-25.96 74.07,-78.86 8.44,-31.88 22.74,-52.91 42.55,-62.76 69.2,-10.52 104.28,-38.45 104.28,-83.46l0 -928.91c0,-42.39 -25.67,-67.36 -77.64,-74.92 -31.19,-8.87 -51.98,-23 -61.72,-43.37 -9.42,-71.96 -36.71,-107.78 -81.54,-107.78l-680.55 0zm135.46 339.43c1.95,-46.99 5.52,-69.99 11.36,-69.99 0,-40.42 38.99,-60.46 117.6,-60.46l303.41 0c47.1,1.65 70.81,5.59 70.81,11.5 39.31,0 58.16,39.43 58.16,118.29l0 702.52c-1.96,46.98 -5.53,70.31 -11.38,70.31 0,39.43 -38.98,59.48 -117.59,59.48l-303.41 0c-47.1,-1.65 -70.82,-5.59 -70.82,-11.5 -39.3,0 -58.14,-39.43 -58.14,-118.29l0 -701.86zm1082.06 -339.43c-40.93,0 -65.61,25.96 -74.06,79.19 -8.45,31.55 -22.74,52.9 -42.56,62.43 -69.19,10.52 -104.27,38.45 -104.27,83.79l0 1082.69c0,41.07 22.74,65.06 69.19,71.96l66.27 0c39.63,0 62.37,-23.99 69.19,-71.31l0 -380.83c1.95,-46.98 5.52,-70.97 11.37,-70.97 0,-39.43 38.98,-58.49 117.6,-58.49l303.41 0c47.1,0.99 69.84,4.6 69.84,11.5 39.3,0 59.12,39.1 59.12,117.96l0 380.83c0,42.39 23.06,66.38 69.52,73.28l65.61 0c40.94,0 64.65,-24.32 71.47,-71.31l0 -1083.34c0,-42.38 -25.66,-67.36 -77.96,-75.24 -31.51,-8.55 -52.3,-23 -62.05,-43.05 -9.42,-71.3 -37.03,-107.11 -81.86,-107.11l-529.83 -1.98zm-15.26 341.07c1.62,-47.31 5.52,-70.31 11.37,-70.31 0,-41.41 38.98,-61.78 117.27,-61.78l303.73 0c46.78,1.65 69.84,5.59 69.84,11.5 39.31,0 59.12,39.76 59.12,119.28l0 115c-1.94,47.65 -5.52,71.96 -12.34,71.96 0,39.43 -38.98,58.82 -116.62,58.82l-303.73 0c-46.78,-0.99 -70.49,-4.6 -70.49,-11.5 -39.31,0 -58.15,-39.76 -58.15,-119.28l0 -113.69zm929.39 -341.07c-39.64,0 -62.37,24.32 -69.2,71.31l0 500.76c0,41.4 25.67,66.37 77.64,74.92 31.19,8.54 51.98,23 61.72,43.04 9.42,70.97 36.71,106.46 81.54,106.46l30.54 0c46.77,0.99 70.49,4.6 70.49,11.5 39.3,0 58.15,39.43 58.15,118.29l0 381.49c0,41.4 22.73,65.39 69.19,72.29l70.16 0c39.64,0 62.38,-24.32 69.2,-71.31l0 -381.48c1.95,-47.32 5.52,-71.31 11.37,-71.31 0,-39.43 38.98,-58.48 117.27,-58.48l30.53 0c40.93,0 65.62,-25.96 74.07,-78.54 8.45,-32.52 22.74,-53.88 42.55,-63.41 69.2,-9.53 104.28,-37.13 104.28,-82.48l0 -500.76c0,-41.4 -22.74,-65.39 -69.19,-72.29l-66.27 0c-39.63,0 -62.37,24.32 -69.19,71.31l0 386.41c-1.96,46.99 -5.53,71.3 -11.37,71.3 0,39.43 -38.99,58.49 -117.27,58.49l-302.11 0c-46.78,-0.98 -70.49,-4.6 -70.49,-11.5 -39.31,0 -58.15,-39.43 -58.15,-118.29l0 -386.41c0,-40.42 -22.74,-64.41 -69.19,-71.31l-66.27 0z"/>
  <g id="_1748479878512">
   <g>
    <path class="fil1" d="M7662.06 5282.18c-60.28,0 -109.13,-48.86 -109.13,-109.13 0,-60.27 48.85,-109.13 109.13,-109.13 60.27,0 109.13,48.86 109.13,109.13 0,60.27 -48.86,109.13 -109.13,109.13z"/>
    <path class="fil1" d="M7667.01 5046.32c-51.65,0 -93.53,-41.88 -93.53,-93.54 0,-51.66 41.88,-93.54 93.53,-93.54 51.67,0 93.54,41.88 93.54,93.54 0,51.66 -41.87,93.54 -93.54,93.54z"/>
    <path class="fil1" d="M7667.45 4810.03c-43.05,0 -77.95,-34.9 -77.95,-77.95 0,-43.05 34.9,-77.95 77.95,-77.95 43.05,0 77.95,34.9 77.95,77.95 0,43.05 -34.9,77.95 -77.95,77.95z"/>
    <path class="fil1" d="M7667.05 4574.04c-34.44,0 -62.36,-27.92 -62.36,-62.36 0,-34.44 27.92,-62.36 62.36,-62.36 34.43,0 62.35,27.92 62.35,62.36 0,34.44 -27.92,62.36 -62.35,62.36z"/>
    <path class="fil1" d="M7666.2 4338.02c-25.84,0 -46.78,-20.94 -46.78,-46.77 0,-25.83 20.94,-46.77 46.78,-46.77 25.83,0 46.76,20.94 46.76,46.77 0,25.83 -20.93,46.77 -46.76,46.77z"/>
    <path class="fil1" d="M7665.04 4101.99c-17.22,0 -31.18,-13.96 -31.18,-31.18 0,-17.22 13.96,-31.18 31.18,-31.18 17.22,0 31.18,13.96 31.18,31.18 0,17.22 -13.96,31.18 -31.18,31.18z"/>
    <path class="fil1" d="M7663.66 3865.95c-8.61,0 -15.59,-6.98 -15.59,-15.6 0,-8.61 6.98,-15.59 15.59,-15.59 8.61,0 15.59,6.98 15.59,15.59 0,8.62 -6.98,15.6 -15.59,15.6z"/>
   </g>
   <g>
    <path class="fil1" d="M7938.67 5032.7c-43.03,0 -77.92,-34.88 -77.92,-77.92 0,-43.03 34.89,-77.91 77.92,-77.91 43.03,0 77.91,34.88 77.91,77.91 0,43.04 -34.88,77.92 -77.91,77.92z"/>
    <path class="fil1" d="M7947.58 4821.86c-34.42,0 -62.33,-27.9 -62.33,-62.33 0,-34.42 27.91,-62.33 62.33,-62.33 34.43,0 62.33,27.91 62.33,62.33 0,34.43 -27.9,62.33 -62.33,62.33z"/>
    <path class="fil1" d="M7947.3 4610.43c-25.82,0 -46.75,-20.93 -46.75,-46.74 0,-25.82 20.93,-46.75 46.75,-46.75 25.82,0 46.75,20.93 46.75,46.75 0,25.81 -20.93,46.74 -46.75,46.74z"/>
    <path class="fil1" d="M7945.31 4399.03c-17.22,0 -31.18,-13.96 -31.18,-31.17 0,-17.21 13.96,-31.16 31.18,-31.16 17.21,0 31.16,13.95 31.16,31.16 0,17.21 -13.95,31.17 -31.16,31.17z"/>
    <path class="fil1" d="M7942.35 4187.64c-8.61,0 -15.58,-6.98 -15.58,-15.58 0,-8.61 6.97,-15.58 15.58,-15.58 8.61,0 15.59,6.97 15.59,15.58 0,8.6 -6.98,15.58 -15.59,15.58z"/>
   </g>
   <g>
    <path class="fil1" d="M7389.26 5032.7c-43.03,0 -77.92,-34.88 -77.92,-77.92 0,-43.03 34.89,-77.91 77.92,-77.91 43.03,0 77.91,34.88 77.91,77.91 0,43.04 -34.88,77.92 -77.91,77.92z"/>
    <path class="fil1" d="M7398.17 4821.86c-34.42,0 -62.33,-27.9 -62.33,-62.33 0,-34.42 27.91,-62.33 62.33,-62.33 34.43,0 62.34,27.91 62.34,62.33 0,34.43 -27.91,62.33 -62.34,62.33z"/>
    <path class="fil1" d="M7397.89 4610.43c-25.82,0 -46.75,-20.93 -46.75,-46.74 0,-25.82 20.93,-46.75 46.75,-46.75 25.81,0 46.75,20.93 46.75,46.75 0,25.81 -20.94,46.74 -46.75,46.74z"/>
    <path class="fil1" d="M7395.89 4399.03c-17.21,0 -31.17,-13.96 -31.17,-31.17 0,-17.21 13.96,-31.16 31.17,-31.16 17.22,0 31.17,13.95 31.17,31.16 0,17.21 -13.95,31.17 -31.17,31.17z"/>
    <path class="fil1" d="M7392.94 4187.64c-8.61,0 -15.58,-6.98 -15.58,-15.58 0,-8.61 6.97,-15.58 15.58,-15.58 8.6,0 15.59,6.97 15.59,15.58 0,8.6 -6.99,15.58 -15.59,15.58z"/>
   </g>
  </g>
  <g id="_1748077419504">
   <g>
    <path class="fil1" d="M3435.82 5282.18c-60.28,0 -109.13,-48.86 -109.13,-109.13 0,-60.27 48.85,-109.13 109.13,-109.13 60.26,0 109.13,48.86 109.13,109.13 0,60.27 -48.87,109.13 -109.13,109.13z"/>
    <path class="fil1" d="M3440.77 5046.32c-51.66,0 -93.53,-41.88 -93.53,-93.54 0,-51.66 41.87,-93.54 93.53,-93.54 51.66,0 93.54,41.88 93.54,93.54 0,51.66 -41.88,93.54 -93.54,93.54z"/>
    <path class="fil1" d="M3441.2 4810.03c-43.05,0 -77.94,-34.9 -77.94,-77.95 0,-43.05 34.89,-77.95 77.94,-77.95 43.06,0 77.95,34.9 77.95,77.95 0,43.05 -34.89,77.95 -77.95,77.95z"/>
    <path class="fil1" d="M3440.81 4574.04c-34.45,0 -62.37,-27.92 -62.37,-62.36 0,-34.44 27.92,-62.36 62.37,-62.36 34.43,0 62.35,27.92 62.35,62.36 0,34.44 -27.92,62.36 -62.35,62.36z"/>
    <path class="fil1" d="M3439.95 4338.02c-25.83,0 -46.77,-20.94 -46.77,-46.77 0,-25.83 20.94,-46.77 46.77,-46.77 25.83,0 46.77,20.94 46.77,46.77 0,25.83 -20.94,46.77 -46.77,46.77z"/>
    <path class="fil1" d="M3438.8 4101.99c-17.22,0 -31.18,-13.96 -31.18,-31.18 0,-17.22 13.96,-31.18 31.18,-31.18 17.22,0 31.18,13.96 31.18,31.18 0,17.22 -13.96,31.18 -31.18,31.18z"/>
    <path class="fil1" d="M3437.42 3865.95c-8.62,0 -15.59,-6.98 -15.59,-15.6 0,-8.61 6.97,-15.59 15.59,-15.59 8.6,0 15.59,6.98 15.59,15.59 0,8.62 -6.99,15.6 -15.59,15.6z"/>
   </g>
   <g>
    <path class="fil1" d="M3712.42 5032.7c-43.02,0 -77.91,-34.88 -77.91,-77.92 0,-43.03 34.89,-77.91 77.91,-77.91 43.04,0 77.92,34.88 77.92,77.91 0,43.04 -34.88,77.92 -77.92,77.92z"/>
    <path class="fil1" d="M3721.34 4821.86c-34.43,0 -62.33,-27.9 -62.33,-62.33 0,-34.42 27.9,-62.33 62.33,-62.33 34.43,0 62.33,27.91 62.33,62.33 0,34.43 -27.9,62.33 -62.33,62.33z"/>
    <path class="fil1" d="M3721.05 4610.43c-25.81,0 -46.74,-20.93 -46.74,-46.74 0,-25.82 20.93,-46.75 46.74,-46.75 25.82,0 46.76,20.93 46.76,46.75 0,25.81 -20.94,46.74 -46.76,46.74z"/>
    <path class="fil1" d="M3719.06 4399.03c-17.21,0 -31.17,-13.96 -31.17,-31.17 0,-17.21 13.96,-31.16 31.17,-31.16 17.21,0 31.16,13.95 31.16,31.16 0,17.21 -13.95,31.17 -31.16,31.17z"/>
    <path class="fil1" d="M3716.11 4187.64c-8.61,0 -15.59,-6.98 -15.59,-15.58 0,-8.61 6.98,-15.58 15.59,-15.58 8.6,0 15.59,6.97 15.59,15.58 0,8.6 -6.99,15.58 -15.59,15.58z"/>
   </g>
   <g>
    <path class="fil1" d="M3163.01 5032.7c-43.02,0 -77.91,-34.88 -77.91,-77.92 0,-43.03 34.89,-77.91 77.91,-77.91 43.04,0 77.92,34.88 77.92,77.91 0,43.04 -34.88,77.92 -77.92,77.92z"/>
    <path class="fil1" d="M3171.93 4821.86c-34.43,0 -62.34,-27.9 -62.34,-62.33 0,-34.42 27.91,-62.33 62.34,-62.33 34.42,0 62.33,27.91 62.33,62.33 0,34.43 -27.91,62.33 -62.33,62.33z"/>
    <path class="fil1" d="M3171.64 4610.43c-25.81,0 -46.74,-20.93 -46.74,-46.74 0,-25.82 20.93,-46.75 46.74,-46.75 25.82,0 46.75,20.93 46.75,46.75 0,25.81 -20.93,46.74 -46.75,46.74z"/>
    <path class="fil1" d="M3169.65 4399.03c-17.21,0 -31.17,-13.96 -31.17,-31.17 0,-17.21 13.96,-31.16 31.17,-31.16 17.21,0 31.16,13.95 31.16,31.16 0,17.21 -13.95,31.17 -31.16,31.17z"/>
    <path class="fil1" d="M3166.69 4187.64c-8.6,0 -15.58,-6.98 -15.58,-15.58 0,-8.61 6.98,-15.58 15.58,-15.58 8.61,0 15.59,6.97 15.59,15.58 0,8.6 -6.98,15.58 -15.59,15.58z"/>
   </g>
  </g>
  <g id="_1748077385328">
   <path class="fil1" d="M2478.24 3952.35c-10.9,-134.34 -128.78,-234.64 -263.17,-223.74 -77.28,6.26 -143.17,47.92 -183.24,107.65l-829.21 -479.84c-0.03,-2.15 0.29,-4.23 0.13,-6.41 -1.16,-14.6 -5.35,-28.23 -11.35,-40.7l567.48 -299.62c57.6,49.96 140.44,66.67 214.74,34.84 104.83,-44.04 153.81,-164.99 109.22,-269.39 -44.21,-104.78 -165.17,-153.76 -269.76,-109.46 -100.03,42.59 -148.17,155.14 -113.04,256.97l-516.55 373.13c-22.68,-34.17 -62.29,-55.74 -105.79,-52.07 -63.99,4.95 -111.8,61.04 -106.59,124.93 3.86,48.28 36.68,87.21 79.94,101.31l-236.57 832.34c-19.93,-2.65 -40.4,-3.39 -61.28,-1.67 -157.97,12.73 -275.57,151.05 -262.72,308.7 12.85,158.24 150.83,275.58 309.08,262.9 79.1,-6.42 148.22,-44.48 195.8,-100.78l837.41 316.36c-6.97,16.63 -10.69,34.9 -9.08,54.12 1.57,20.51 8.91,39.01 19.57,54.98l-559.29 225.03c-16.24,-22.38 -36.01,-42.66 -59.67,-59.57 -119.21,-86.81 -285.67,-59.54 -371.25,60.67 -86.06,120.23 -58.87,287.86 60.3,374.16 119.26,86.18 285.29,58.96 371.77,-61.21 52.38,-73.59 62.28,-165.23 34.81,-244.82l532.56 -282.02c23.38,26.59 58.27,42.48 96.18,39.46 63.98,-5.27 111.55,-61.11 106.67,-125.33 -3.95,-47.6 -36.22,-86.26 -78.78,-100.65l248 -806.53c9.94,0.43 19.93,0.45 30.04,-0.37 134.38,-10.91 234.54,-128.67 223.64,-263.37zm-1418.16 -480.34l0 0c11.56,2.78 23.62,4.34 36.13,3.36 30.62,-2.52 57.23,-16.87 76.33,-37.94l849.6 414.25c-23.37,41.08 -35.1,89.34 -30.95,139.97 1.53,19.32 5.54,37.8 11.19,55.45l-985.11 384.13c-32.15,-49.9 -79.35,-88.6 -134.5,-110.77l177.31 -848.45zm905.79 1548.08l0 0c-11.44,-2.72 -23.29,-4.19 -35.64,-3.15 -38.04,2.92 -69.95,24.14 -88.8,54.05l-787.64 -413.29c6.41,-24.91 9.4,-51.03 8.78,-77.88l949.96 -506.62c27.76,61.11 79.39,107.99 142.37,129.78l-189.03 817.11z"/>
   <path class="fil1" d="M2411.82 3921.95c-10.89,-134.34 -128.78,-234.64 -263.17,-223.73 -77.28,6.25 -143.17,47.92 -183.23,107.65l-829.21 -479.85c-0.04,-2.15 0.28,-4.23 0.13,-6.41 -1.17,-14.6 -5.35,-28.23 -11.36,-40.7l567.48 -299.62c57.61,49.96 140.44,66.68 214.74,34.84 104.84,-44.04 153.81,-164.99 109.23,-269.39 -44.22,-104.78 -165.17,-153.75 -269.77,-109.46 -100.02,42.59 -148.17,155.14 -113.04,256.97l-516.55 373.13c-22.67,-34.17 -62.28,-55.74 -105.79,-52.07 -63.99,4.96 -111.8,61.04 -106.59,124.93 3.86,48.28 36.69,87.21 79.94,101.32l-236.57 832.33c-19.93,-2.65 -40.4,-3.39 -61.28,-1.67 -157.96,12.73 -275.56,151.06 -262.72,308.71 12.85,158.24 150.83,275.57 309.09,262.89 79.09,-6.42 148.22,-44.48 195.79,-100.78l837.41 316.36c-6.96,16.63 -10.69,34.9 -9.08,54.12 1.58,20.51 8.91,39.01 19.57,54.98l-559.29 225.03c-16.24,-22.38 -36.01,-42.66 -59.67,-59.57 -119.21,-86.81 -285.66,-59.54 -371.24,60.67 -86.06,120.23 -58.88,287.86 60.29,374.16 119.26,86.18 285.29,58.96 371.78,-61.21 52.38,-73.58 62.28,-165.23 34.8,-244.81l532.57 -282.02c23.37,26.58 58.26,42.47 96.17,39.45 63.98,-5.27 111.55,-61.1 106.67,-125.33 -3.95,-47.6 -36.22,-86.26 -78.77,-100.65l247.99 -806.52c9.95,0.42 19.93,0.44 30.05,-0.38 134.37,-10.91 234.53,-128.67 223.63,-263.37zm-1418.16 -480.34l0 0c11.56,2.78 23.62,4.34 36.13,3.36 30.63,-2.52 57.23,-16.86 76.33,-37.94l849.6 414.26c-23.37,41.07 -35.1,89.33 -30.95,139.97 1.53,19.31 5.55,37.79 11.19,55.44l-985.11 384.13c-32.15,-49.89 -79.34,-88.6 -134.49,-110.77l177.3 -848.45zm905.79 1548.08l0 0c-11.43,-2.72 -23.28,-4.18 -35.63,-3.15 -38.05,2.92 -69.96,24.14 -88.81,54.05l-787.64 -413.29c6.41,-24.91 9.41,-51.03 8.78,-77.88l949.96 -506.62c27.76,61.11 79.4,107.99 142.38,129.79l-189.04 817.1z"/>
  </g>
 </g>
</svg>
