<?xml version="1.0" encoding="UTF-8"?>
<!DOCTYPE svg PUBLIC "-//W3C//DTD SVG 1.1//EN" "http://www.w3.org/Graphics/SVG/1.1/DTD/svg11.dtd">
<!-- Creator: CorelDRAW 2019 (64-Bit) -->
<svg xmlns="http://www.w3.org/2000/svg" xml:space="preserve" width="84.6666mm" height="84.6666mm" version="1.1" style="shape-rendering:geometricPrecision; text-rendering:geometricPrecision; image-rendering:optimizeQuality; fill-rule:evenodd; clip-rule:evenodd"
viewBox="0 0 8466.66 8466.66"
 xmlns:xlink="http://www.w3.org/1999/xlink">
 <defs>
  <style type="text/css">
   <![CDATA[
    .fil0 {fill:none}
    .fil1 {fill:#FEFEFE;fill-rule:nonzero}
   ]]>
  </style>
 </defs>
 <g id="Layer_x0020_1">
  <metadata id="CorelCorpID_0Corel-Layer"/>
  <rect class="fil0" x="-0.01" y="-0.02" width="8466.67" height="8466.67"/>
  <path class="fil1" d="M4819 2674.21c-24.92,-24.93 -53.42,-42.74 -81.91,-56.98 -64.11,-28.5 -131.78,-39.18 -199.46,-35.62 -128.22,3.57 -256.44,42.74 -370.41,96.17 -288.5,131.78 -534.26,338.36 -758.64,555.62 -227.95,217.26 -430.97,455.9 -609.05,712.34 -128.22,185.21 -242.19,377.54 -341.92,577 -74.8,138.9 -138.91,284.93 -206.58,427.4 28.49,-235.07 85.48,-463.02 138.91,-694.53 92.6,-388.23 192.33,-772.89 267.12,-1164.67 3.56,-24.94 7.12,-53.43 -21.37,-60.55 -21.37,-7.13 -35.61,14.24 -46.3,32.05 -78.36,135.35 -160.28,267.13 -245.76,398.91 -178.08,270.69 -366.85,537.82 -566.3,790.7 -195.9,252.88 -402.48,502.19 -633.99,723.02 -106.85,103.29 -224.38,203.02 -356.17,281.37 -64.11,39.18 -131.78,71.24 -203.01,89.05 -32.06,7.12 -64.12,10.68 -96.17,10.68 -17.8,0 -71.23,-7.12 -71.23,21.37 0,28.5 35.62,39.18 56.99,42.74 28.49,3.57 60.54,3.57 92.6,-3.56 64.11,-17.81 128.22,-49.86 185.21,-81.92 113.97,-67.67 217.26,-156.71 313.43,-245.76 235.07,-213.7 441.64,-448.77 637.54,-694.53 199.46,-252.88 388.22,-512.88 573.43,-776.45 103.29,-142.46 203.02,-292.06 302.75,-438.08 -39.18,149.59 -78.36,302.74 -121.1,452.33 -85.48,313.43 -156.72,630.42 -213.71,947.41 -28.49,156.72 -53.42,313.43 -56.98,470.15 0,14.24 0,35.61 7.12,46.3 17.81,24.93 42.74,3.56 53.43,-14.25 24.93,-42.74 42.74,-89.04 60.55,-135.34 121.09,-274.25 245.75,-541.38 402.46,-794.26 320.56,-527.13 755.08,-1015.08 1296.46,-1324.95 131.78,-74.8 274.25,-138.91 427.4,-174.53 117.54,-28.49 256.45,-21.37 366.86,35.62 7.12,3.56 28.49,14.25 32.05,10.69 3.56,-3.57 -10.68,-21.37 -14.25,-24.94zm-1392.62 1805.79c-7.12,-7.13 -121.09,106.85 -124.66,113.97l-192.32 181.64c-67.68,60.55 -138.91,121.1 -213.71,178.09 -49.86,35.62 -121.09,99.73 -185.21,99.73 117.54,-252.88 292.07,-491.52 420.29,-733.71 3.56,-10.69 17.81,-28.5 10.68,-42.74 -7.12,-14.25 -32.05,-3.56 -42.74,0 -39.18,21.37 -67.67,56.99 -89.04,92.6 -110.41,192.33 -227.95,384.66 -327.68,580.56 -17.81,39.18 -42.74,106.85 -3.56,138.9 56.99,49.87 288.5,-160.27 324.12,-188.77 113.97,-96.16 224.38,-199.45 327.67,-306.3 10.68,-10.68 103.29,-106.85 96.16,-113.97zm-181.64 -523.57c28.49,3.56 64.11,-24.93 81.92,-56.99 17.8,-35.62 7.12,-64.11 -17.81,-64.11 -28.5,0 -64.11,24.93 -81.92,60.55 -17.81,32.05 -10.69,60.55 17.81,60.55z"/>
  <path class="fil1" d="M5632.55 2830.06c-56.99,-49.87 -135.34,-67.68 -210.14,-67.68 -153.15,0 -306.3,46.31 -441.65,106.85 -117.54,53.43 -227.94,117.54 -331.23,192.34 -245.76,174.52 -455.9,391.78 -623.3,637.54 -153.15,227.95 -281.37,480.83 -338.36,751.52 -53.43,267.13 -53.43,705.21 288.5,780.01 121.09,28.49 252.87,0 370.41,-46.3 117.54,-46.31 231.51,-110.42 338.36,-181.65 99.73,-71.24 199.45,-149.59 288.5,-235.08 42.74,-39.17 81.92,-81.91 121.1,-124.65 7.12,-7.12 92.6,-113.98 81.92,-121.1 -3.57,0 -89.05,99.73 -99.73,110.41 -46.31,49.87 -96.17,99.73 -149.59,146.03 -110.42,96.17 -231.51,188.77 -359.73,263.57 -128.22,74.79 -270.69,138.9 -423.85,156.71 -103.28,10.69 -210.13,-3.56 -292.05,-74.79 -110.42,-103.29 -135.35,-267.13 -131.79,-409.6 3.57,-160.27 46.31,-316.99 103.29,-466.58 103.29,-256.44 256.44,-495.07 434.53,-705.22 199.45,-238.63 441.65,-455.89 719.46,-601.92 131.78,-71.24 277.81,-131.78 427.4,-135.35 99.73,-3.56 192.33,21.37 249.32,106.85 78.36,113.98 24.93,260.01 -46.3,366.86 -81.92,124.66 -199.45,227.95 -324.11,306.3 -117.54,71.24 -274.26,146.03 -416.72,128.23 -21.37,-3.57 -39.18,-7.13 -60.55,-14.25 -7.13,-3.56 -24.93,-10.69 -35.62,-3.56 -10.68,7.12 7.13,28.49 14.25,35.61 46.3,46.31 121.09,49.87 181.64,42.75 110.42,-14.25 210.15,-64.12 302.75,-121.1 128.22,-81.92 245.75,-185.21 334.8,-306.31 64.11,-89.04 121.09,-188.77 124.66,-299.18 3.56,-81.92 -32.06,-160.28 -96.17,-217.26zm473.71 1656.18l-21.37 21.37c-28.5,24.94 -53.43,49.87 -81.92,78.36 -53.43,53.43 -106.85,110.42 -160.28,163.84 -64.11,64.11 -128.22,124.66 -195.89,185.21 -32.06,28.49 -64.11,56.98 -99.73,81.92 -24.93,17.8 -53.43,42.74 -81.92,42.74 0,-7.13 3.56,-21.37 7.12,-28.5 67.68,-163.84 178.09,-306.3 270.69,-455.89 14.25,-21.37 35.62,-49.87 39.18,-78.36 0,-32.06 -42.74,-17.81 -56.99,-10.69 -28.49,17.81 -49.86,39.18 -67.67,60.55 3.56,0 -3.56,14.25 -7.12,21.37 -32.06,42.74 -67.67,81.92 -103.29,121.1 -110.41,131.78 -356.17,356.17 -516.45,370.42 -85.48,7.12 -32.05,-131.79 -14.24,-170.97 49.86,-113.97 117.53,-235.07 199.45,-331.23 78.36,-89.04 170.97,-174.53 281.37,-220.83 103.29,-46.3 242.2,-67.67 313.44,39.18 7.12,14.25 17.8,49.86 39.17,42.74 21.37,-7.12 10.69,-42.74 7.13,-56.99 -21.37,-49.86 -74.8,-78.35 -124.66,-85.48 -146.03,-28.49 -299.19,46.31 -416.72,124.66 -121.1,81.92 -227.95,206.58 -302.74,334.8 -35.62,64.11 -67.68,135.34 -78.36,210.14 -10.69,64.11 -3.56,156.72 81.92,156.72 142.47,0 430.96,-260.01 523.57,-352.61 -24.94,42.74 -46.31,85.48 -67.68,128.22 -24.93,53.42 -53.42,117.53 -49.86,178.08 3.56,74.8 81.92,28.5 113.97,3.57 121.1,-89.05 231.51,-203.02 338.37,-309.87 49.86,-53.42 103.29,-106.85 153.15,-156.71 32.06,-35.62 67.67,-67.68 92.6,-106.86 7.13,-14.24 -10.68,-3.56 -14.24,0zm149.59 146.03c106.85,-103.29 231.51,-185.2 363.29,-249.32 28.49,-14.24 60.55,-28.49 89.04,-42.74 24.93,-14.24 64.11,-28.49 81.92,-56.98 17.81,-24.94 -24.93,-21.37 -39.18,-17.81 -24.93,3.56 -53.42,14.24 -78.35,24.93 -170.97,78.36 -313.44,210.14 -445.21,338.36 -74.8,71.24 -142.47,146.03 -206.58,227.95l-96.17 117.53c-3.56,3.57 -56.99,60.55 -56.99,60.55 110.42,-270.69 249.32,-520 388.23,-780.01 153.15,-281.37 309.86,-559.18 466.58,-840.56 64.11,-110.41 135.34,-231.5 192.33,-341.92 7.13,-14.24 21.37,-39.18 17.81,-53.42 -10.68,-21.37 -49.86,21.37 -64.11,35.61 -56.99,56.99 -92.6,121.1 -131.78,185.21 -163.84,284.94 -320.56,569.87 -477.27,861.93 -74.79,146.03 -153.15,288.5 -224.39,438.09 -71.23,142.47 -149.59,284.93 -199.45,438.09 -7.13,21.37 -39.18,113.97 10.68,117.53 39.18,7.13 85.48,-74.79 103.29,-99.73 92.61,-128.22 192.33,-252.88 306.31,-363.29zm690.97 -163.83c-10.69,-10.69 -206.58,224.38 -224.39,245.75 -103.29,110.41 -185.21,220.83 -313.43,302.75 -71.24,46.3 -103.29,3.56 -110.41,-56.99 -7.12,-85.48 7.12,-174.53 28.49,-256.44 3.56,-21.37 14.25,-49.87 7.12,-71.24 -10.68,-32.05 -46.29,-10.68 -60.54,3.57 -21.37,17.8 -32.06,46.3 -39.18,71.23 -21.37,89.04 -32.06,195.89 -7.12,284.93 10.68,39.18 35.61,78.36 78.35,92.61 60.55,17.81 124.66,-28.5 167.4,-64.11 106.85,-89.05 195.89,-199.46 281.38,-302.74 17.8,-21.37 206.57,-238.64 192.33,-249.32zm673.16 10.68c-3.56,-3.56 -242.2,245.76 -260.01,263.56 -110.41,103.29 -231.51,210.14 -370.41,274.26 -60.55,24.93 -142.47,56.98 -210.14,32.05 -28.5,-10.68 -42.74,-42.74 -49.87,-71.23 -10.68,-85.48 24.94,-170.97 60.55,-238.63 167.4,-3.57 406.03,-113.98 520.01,-217.27 46.3,-42.74 74.79,-89.04 81.92,-138.91 7.12,-46.3 -14.25,-92.6 -60.55,-110.41 -42.74,-17.81 -96.17,-3.56 -142.47,14.25 -153.15,60.55 -391.78,249.32 -484.39,445.21 -39.18,85.48 -78.36,192.33 -42.74,284.94 67.67,156.71 249.32,85.48 356.17,21.37 135.34,-78.36 252.88,-178.09 363.29,-284.94 71.24,-67.67 135.35,-142.47 199.46,-213.7 17.81,-21.37 39.18,-49.86 39.18,-60.55zm-452.34 -156.71c42.74,-24.94 117.54,-64.12 163.84,-21.38 42.74,42.75 -14.25,131.79 -42.74,167.41 -96.17,113.97 -238.63,188.77 -381.1,231.51 -35.62,10.68 -71.24,17.81 -106.85,17.81 14.24,-28.5 32.05,-56.99 49.86,-85.49 78.36,-124.66 185.21,-238.63 316.99,-309.86zm712.34 299.18c-28.5,0 -56.99,0 -85.48,3.56 -32.05,-89.04 -160.28,-138.91 -138.91,-245.76 17.81,-74.79 113.98,-128.22 188.77,-106.85 46.3,10.69 32.06,64.11 10.69,92.61 -21.38,28.49 -56.99,60.54 -78.36,64.11 21.37,7.12 74.79,-32.06 92.6,-53.43 17.81,-21.37 46.3,-71.23 21.37,-106.85 -39.18,-60.55 -149.58,-32.06 -199.45,-3.56 -46.3,24.93 -81.92,71.23 -92.6,124.66 -17.81,103.29 67.67,167.4 110.41,249.32 -156.72,42.74 -313.43,128.21 -402.47,270.68 -28.5,49.87 -60.55,135.35 -3.57,174.53 53.43,39.18 142.47,21.37 203.02,3.56 135.35,-42.74 267.13,-146.03 302.75,-288.5 14.24,-53.43 10.68,-106.85 -7.13,-156.71 24.93,-3.56 49.86,-3.56 78.36,-3.56 10.68,0 156.71,10.68 156.71,7.12 3.56,-14.25 -142.47,-24.93 -156.71,-24.93zm-146.03 85.48c17.81,153.15 -96.16,274.25 -224.39,334.8 -32.05,14.24 -67.67,28.49 -103.29,32.05 -24.93,3.56 -71.23,7.13 -96.16,-17.81 -42.74,-42.74 17.81,-138.9 53.42,-181.64 85.48,-110.42 220.83,-178.08 356.17,-213.7 7.13,14.25 10.69,28.49 14.25,46.3z"/>
  <g id="_1749170312192">
   <path class="fil1" d="M4679.19 4739.31l-282.98 389.63c-14.31,19.66 -10.66,47.07 8.23,62.37l21.45 17.34c18.92,15.27 46.49,13.09 62.71,-5.01l321.75 -358.29c16.68,-18.58 23.57,-42.45 21.14,-65.35 -8.06,-76.14 -106.67,-103.53 -152.3,-40.69zm78.14 70.15l-20.3 25.11c-7.11,8.84 -20.11,10.22 -28.89,3.06 -8.85,-7.13 -10.22,-20.07 -3.06,-28.89l20.3 -25.13c7.13,-8.84 20.08,-10.21 28.89,-3.06 8.85,7.13 10.22,20.08 3.06,28.91z"/>
   <path class="fil1" d="M4733.77 4684.81c-28.84,3.81 -54.13,18.87 -71.22,42.39 -307.64,423.59 -290.74,395.55 -294.57,416.76l-353.37 141.18c-206.32,82.72 -250.29,354.98 -81.89,498.79 0.13,0.12 6.73,5.78 6.08,5.24 174.51,141.17 438.62,43.24 476.96,-179.69l47.23 -275.16c1.92,-11.2 -5.59,-21.82 -16.79,-23.75 -11.17,-1.91 -21.82,5.6 -23.73,16.79l-47.23 275.16c-26.95,156.7 -192.21,252.52 -342.49,194.05 170.49,-19.79 281.79,-158.23 331.23,-320.99 3.31,-10.87 -2.83,-22.35 -13.69,-25.65 -10.87,-3.3 -22.35,2.83 -25.65,13.7 -50.05,164.77 -162.6,293.94 -334.12,294.27l391.06 -483.67c7.14,-8.83 5.77,-21.78 -3.07,-28.92 -8.83,-7.14 -21.78,-5.76 -28.91,3.06l-391.06 483.68c-37.88,-178.52 82.31,-322.02 243.94,-402.05 10.18,-5.04 14.35,-17.36 9.31,-27.54 -5.04,-10.18 -17.37,-14.35 -27.55,-9.31 -162.19,80.31 -289.71,224.38 -272.37,405.69 -88.51,-134.52 -29.78,-316.27 118.02,-375.52l344.22 -137.52c7.85,15.46 16.55,20.8 38.85,38.84 27.45,22.19 67.39,18.98 90.95,-7.26l321.74 -358.3c64.6,-71.93 4.92,-187.16 -91.88,-174.27zm61.29 146.8l-321.74 358.3c-8.94,9.95 -24.1,11.17 -34.5,2.75l-21.46 -17.35c-10.39,-8.4 -12.38,-23.48 -4.53,-34.3l282.98 -389.63c21.54,-29.65 63.4,-35.17 91.88,-12.14 28.44,23 31.87,65.07 7.37,92.37zm-40.78 -51.07c8.84,7.14 10.21,20.09 3.07,28.93 -20.48,25.33 -23.04,31.46 -34.13,32.64 -18.06,1.91 -29.71,-19.09 -18.15,-33.38l20.3 -25.12c7.14,-8.83 20.08,-10.2 28.91,-3.07z"/>
  </g>
  <path class="fil1" d="M4764.58 5479.82c-20.46,0 -34.68,7.22 -42.65,21.66 -7.98,14.45 -11.97,29.34 -11.97,44.69 0,17.15 3.62,32.5 10.84,46.04 7.22,13.54 21.81,20.31 43.78,20.31 6.92,0 14.22,-1.58 21.9,-4.74 7.67,-3.16 14.81,-6.84 21.43,-11.06l0 -101.1c-6.62,-4.52 -13.76,-8.28 -21.43,-11.29 -7.68,-3.01 -14.98,-4.51 -21.9,-4.51zm102.47 -141.28l0 318.67 -30.7 0 -16.25 -21.22c-9.93,8.43 -21.59,14.97 -34.98,19.64 -13.39,4.66 -25.5,7 -36.33,7 -31.9,0 -56.43,-11.14 -73.58,-33.41 -17.15,-22.27 -25.73,-49.95 -25.73,-83.05 0,-33.1 9.1,-60.78 27.31,-83.05 18.21,-22.27 43.11,-33.41 74.7,-33.41 8.13,0 17.31,1.43 27.54,4.29 10.23,2.86 19.86,6.85 28.88,11.96l0 -102.46 59.14 -4.96zm159.78 324.09c-34.6,0 -61.61,-10.46 -81.02,-31.37 -19.41,-20.92 -29.11,-48.98 -29.11,-84.19 0,-34.91 10.15,-62.74 30.46,-83.5 20.32,-20.77 48.07,-31.15 83.29,-31.15 36.41,0 64.61,10.76 84.63,32.28 20.01,21.51 30.01,49.72 30.01,84.63 0,34.9 -10.83,62.51 -32.5,82.83 -21.66,20.31 -50.25,30.47 -85.76,30.47zm57.78 -113.3c0,-20.76 -4.59,-37.09 -13.77,-48.97 -9.17,-11.89 -22.19,-17.84 -39.04,-17.84 -17.15,0 -30.54,5.27 -40.18,15.8 -9.62,10.54 -14.44,26.64 -14.44,48.3 0,21.67 4.14,38.07 12.42,49.2 8.27,11.13 20.98,16.7 38.13,16.7 16.86,0 30.55,-5.04 41.08,-15.12 10.53,-10.08 15.8,-26.1 15.8,-48.07zm211.69 -66.81c-16.54,0 -29.49,6.25 -38.81,18.74 -9.33,12.48 -14,28.06 -14,46.71 0,18.96 4.67,34.46 14,46.49 9.32,12.04 22.27,18.06 38.81,18.06 10.23,0 19.49,-1.28 27.76,-3.83 8.28,-2.56 17.68,-6.25 28.22,-11.06l16.7 42.43c-10.23,7.82 -22.65,13.54 -37.24,17.15 -14.6,3.61 -26.56,5.42 -35.89,5.42 -35.51,0 -63.19,-10.39 -83.05,-31.15 -19.86,-20.76 -29.79,-48.6 -29.79,-83.51 0,-34.9 9.93,-62.89 29.79,-83.95 19.86,-21.07 47.54,-31.6 83.05,-31.6 9.33,0 21.14,1.96 35.44,5.87 14.29,3.91 26.85,9.63 37.69,17.15l-16.7 41.98c-10.54,-4.81 -19.94,-8.5 -28.22,-11.06 -8.27,-2.55 -17.53,-3.84 -27.76,-3.84zm228.4 180.11c-37.91,0 -67.78,-10.39 -89.6,-31.15 -21.82,-20.76 -32.72,-48.6 -32.72,-83.51 0,-34.9 9.85,-62.89 29.56,-83.95 19.71,-21.07 46.57,-31.6 80.57,-31.6 34.31,0 59.51,11.36 75.61,34.08 16.1,22.72 24.15,49.58 24.15,80.57l0 18.06 -147.6 0c2.7,14.44 9.32,25.95 19.86,34.53 10.53,8.57 24.37,12.86 41.52,12.86 9.93,0 18.89,-1.28 26.86,-3.83 7.98,-2.56 17.23,-6.25 27.76,-11.06l17.15 42.43c-10.23,7.82 -22.64,13.54 -37.24,17.15 -14.59,3.61 -26.55,5.42 -35.88,5.42zm32.05 -136.77c-3.01,-14.75 -8.43,-25.66 -16.25,-32.73 -7.83,-7.07 -17.6,-10.61 -29.34,-10.61 -12.04,0 -22.12,3.69 -30.25,11.07 -8.12,7.37 -13.38,18.12 -15.79,32.27l91.63 0zm220.72 -87.57l11.74 46.95c-9.93,0 -21.45,2.85 -34.54,8.57 -13.08,5.72 -25.95,14.14 -38.59,25.28l0 138.12 -58.68 0 0 -218.92 30.7 0 19.41 32.05c9.02,-7.83 20.01,-15.12 32.94,-21.89 12.95,-6.77 25.28,-10.16 37.02,-10.16zm70.87 -97.05c9.32,0 17.22,3.17 23.69,9.48 6.47,6.32 9.7,14.15 9.7,23.47 0,9.33 -3.23,17.16 -9.7,23.48 -6.47,6.32 -14.37,9.47 -23.69,9.47 -9.03,0 -16.71,-3.15 -23.03,-9.47 -6.31,-6.32 -9.47,-14.15 -9.47,-23.48 0,-9.32 3.16,-17.15 9.47,-23.47 6.32,-6.31 14,-9.48 23.03,-9.48zm29.34 97.05l0 218.92 -58.68 0 0 -218.92 58.68 0zm100.65 153.47c0,6.32 2.56,11.96 7.67,16.93 5.12,4.96 11.89,7.44 20.31,7.44 8.13,0 16.33,-1.8 24.61,-5.41 8.27,-3.61 16.17,-9.03 23.69,-16.26l0 -33.39 -44.23 0c-10.23,0 -18.14,3.16 -23.7,9.47 -5.57,6.32 -8.35,13.39 -8.35,21.22zm28.89 70.87c-26.79,0 -46.64,-6.55 -59.59,-19.64 -12.93,-13.09 -19.4,-30.17 -19.4,-51.23 0,-22.57 7.67,-39.87 23.02,-51.91 15.34,-12.04 35.35,-18.05 60.03,-18.05l42.88 0c-0.3,-11.14 -3.54,-19.79 -9.7,-25.96 -6.17,-6.17 -14.68,-9.25 -25.51,-9.25 -10.23,0 -21.36,1.43 -33.4,4.29 -12.04,2.86 -22.12,6.24 -30.24,10.15l-15.8 -48.75c8.43,-5.72 21.29,-10.45 38.59,-14.22 17.3,-3.76 30.62,-5.64 39.95,-5.64 26.18,0 48.6,7.6 67.25,22.8 18.66,15.19 27.99,34.53 27.99,58l0 143.99 -30.24 0 -14.44 -18.51c-8.13,6.32 -17.69,11.89 -28.67,16.7 -10.98,4.82 -21.89,7.23 -32.72,7.23z"/>
 </g>
</svg>
