<svg width="55" height="55" viewBox="0 0 55 55" fill="none" xmlns="http://www.w3.org/2000/svg">
<path d="M55 27.5C55 42.6878 42.6878 55 27.5 55C13.4874 55 1.92274 44.5197 0.217744 30.9695C0.0741211 29.8335 0 28.6752 0 27.5C0 25.3472 0.246963 23.2516 0.715 21.2412C3.54804 9.06941 14.465 0 27.5 0C40.5025 0 51.398 9.02451 54.2625 21.1515C54.6385 22.7375 54.8754 24.3763 54.9619 26.0543C54.9876 26.5335 55 27.0151 55 27.5Z" fill="#C83267"/>
<path d="M26.1245 29.7084V22.5585L19.9325 18.9836L13.7406 22.5585V29.7084L19.9325 33.2833L26.1245 29.7084Z" fill="white"/>
<path d="M50.5102 28.6237L54.5454 30.9539L50.5102 33.2841L44.3187 29.7091V22.5591L50.5102 18.9841L54.2625 21.1516C54.6385 22.7376 54.8754 24.3764 54.9618 26.0544L52.6675 27.3789V24.8882L50.5102 23.6434L48.3528 24.8882V27.3789L50.5102 28.6237Z" fill="white"/>
<path d="M51.712 26.8274V25.4395L50.5101 24.7456L49.308 25.4395V26.8274L50.5101 27.5215L51.712 26.8274Z" fill="white"/>
<path d="M10.8159 22.5592V31.9877L6.68637 29.6318V24.7985L4.62451 23.6076L2.56255 24.7984V29.6317L0.217744 30.9697C0.0741211 29.8337 0 28.6754 0 27.5002C0 25.3474 0.246963 23.2518 0.715 21.2414L4.62451 18.9841L10.8159 22.5592Z" fill="white"/>
<path d="M26.1238 29.7077L19.932 18.9834L13.7404 22.5582L19.9322 33.2825L26.1238 29.7077Z" fill="white"/>
<path d="M13.7406 29.7085L15.8667 26.2413L13.7406 22.5586V29.7085Z" fill="white"/>
<path d="M24.0603 26.1332L26.1245 22.5585L19.9325 18.9836L24.0603 26.1332Z" fill="white"/>
<path d="M37.2272 10.6968V20.1826L35.1518 18.9837L28.9592 22.5587V29.7087L35.1518 33.2837L41.3432 29.7087V12.9001L37.2272 10.6968ZM37.2159 27.3247L35.1517 28.5168L33.0874 27.3247V24.9418L35.1517 23.7497L37.2159 24.9418V27.3247Z" fill="white"/>
<path d="M30.309 38.534C30.309 38.534 30.1874 37.4889 29.0695 37.4889C27.9514 37.4889 27.1859 37.6347 27.1859 38.2545C27.1859 38.8743 29.3612 38.8743 30.1876 39.1173C31.014 39.3603 31.7431 39.9923 31.3785 41.1103C31.0139 42.2284 29.8959 42.3499 28.1702 42.3499C26.4446 42.3499 26.0556 40.9158 26.0556 40.3569H27.0278C27.0278 40.3569 26.9062 41.2318 28.0485 41.3776C29.1909 41.5234 30.2831 41.6054 30.4304 40.7215C30.6248 39.5548 26.736 40.1382 26.3957 38.9958C26.1083 38.0307 26.2741 36.7599 28.2186 36.5653C30.163 36.3708 31.2324 37.2293 31.2324 38.5098L30.309 38.534Z" fill="white"/>
<path d="M20.9175 43.0902L23.0668 44.3311C24.1467 44.9545 25.4966 44.1752 25.4966 42.9282V40.7538V36.752H24.6206V42.6846C24.6206 43.3656 23.8834 43.7913 23.2936 43.4506L21.7934 42.5846V36.2532L27.2766 33.0878L32.7597 36.2532V42.5846L27.2766 45.75L25.697 44.8381L24.6656 45.254L27.2765 46.7615L33.6356 43.0899V35.7475L27.2766 32.0762L20.9174 35.7477V43.0902H20.9175Z" fill="white"/>
</svg>
