<svg width="42" height="55" viewBox="0 0 42 55" fill="none" xmlns="http://www.w3.org/2000/svg">
<path d="M39.5308 46.4058C38.3442 46.4058 37.3824 47.3677 37.3824 48.5543C37.3824 49.1532 37.1795 49.6573 36.7792 50.0525C36.3592 50.4672 35.7498 50.7075 35.1537 50.7028C34.5656 50.6953 34.0882 50.4949 33.6942 50.09L22.3793 38.4622C21.9749 38.0466 21.4195 37.8121 20.8396 37.8121C20.2598 37.8121 19.7044 38.0466 19.2999 38.4622L7.98499 50.09C7.59387 50.4919 7.11294 50.6924 6.51481 50.7029C5.91218 50.7153 5.30557 50.4752 4.88845 50.0653C4.49582 49.6795 4.29677 49.1837 4.29677 48.5916V8.59364C4.29677 6.22435 6.22435 4.29677 8.59364 4.29677H33.0855C35.4548 4.29677 37.3824 6.22435 37.3824 8.59364V37.9195C37.3824 39.1061 38.3442 40.0679 39.5308 40.0679C40.7174 40.0679 41.6792 39.1061 41.6792 37.9195V8.59364C41.6791 3.85516 37.8241 0 33.0855 0H8.59364C3.85505 0 0 3.85516 0 8.59364V48.5916C0 50.3291 0.66666 51.9409 1.87709 53.1302C3.09031 54.3222 4.76072 55 6.47603 55C6.51417 55 6.55241 54.9997 6.59055 54.999C8.32981 54.9684 9.8768 54.3071 11.0645 53.0865L20.8396 43.041L30.6148 53.0865C31.811 54.3158 33.3618 54.9772 35.0993 54.9992C36.8434 55.0172 38.5599 54.3328 39.7982 53.1099C41.0112 51.9123 41.6791 50.2943 41.6791 48.5543C41.6793 47.3677 40.7174 46.4058 39.5308 46.4058Z" fill="url(#paint0_linear)"/>
<defs>
<linearGradient id="paint0_linear" x1="0" y1="26.6604" x2="42" y2="26.6604" gradientUnits="userSpaceOnUse">
<stop stop-color="#C83267"/>
<stop offset="1" stop-color="#C83267" stop-opacity="0"/>
</linearGradient>
</defs>
</svg>
