<svg width="55" height="55" viewBox="0 0 55 55" fill="none" xmlns="http://www.w3.org/2000/svg">
<path d="M55 27.5C55 30.2904 54.5847 32.9843 53.8114 35.5222C53.8114 35.5232 53.8114 35.5232 53.8103 35.5244C52.9179 38.4528 51.552 41.1737 49.7986 43.5971V43.5981C47.2989 47.0541 44.0146 49.9063 40.2084 51.893C39.0871 52.4789 37.9209 52.9897 36.7165 53.4174C35.7399 53.7653 34.7375 54.0582 33.7129 54.2951H33.7118C31.7148 54.7565 29.6372 55 27.5 55C23.0382 55 18.8257 53.9381 15.1003 52.0525C11.6174 50.2902 8.5598 47.8084 6.1252 44.8026C3.91177 42.0727 2.21235 38.9108 1.17068 35.4626C0.409707 32.9427 0 30.2691 0 27.5C0 12.3122 12.3122 0 27.5 0C42.6878 0 55 12.3122 55 27.5Z" fill="white"/>
<path d="M39.9738 12.0079V25.5739C39.9738 28.7672 37.3855 31.3557 34.192 31.3557H20.295C16.2777 31.3557 13.0216 34.613 13.0216 38.6303V45.2931H8.47783C7.65509 45.2931 6.86489 45.1304 6.12519 44.8026C3.91176 42.0728 2.21235 38.9109 1.17068 35.4627C1.08871 34.612 1.04607 33.7038 1.04607 32.7385C1.04607 24.3101 4.3741 20.1839 8.47783 20.1839H27.5763V18.2264H14.8657V12.008C14.8657 8.85058 20.4868 6.29028 27.4203 6.29028C34.3537 6.29028 39.9738 8.85047 39.9738 12.0079Z" fill="#C83267"/>
<path d="M20.3377 14.838C21.6135 14.838 22.6479 13.8036 22.6479 12.5277C22.6479 11.2518 21.6135 10.2175 20.3377 10.2175C19.0618 10.2175 18.0274 11.2518 18.0274 12.5277C18.0274 13.8036 19.0618 14.838 20.3377 14.838Z" fill="#F2F2F2"/>
<path d="M54.0279 32.0145C54.0279 33.2805 53.9527 34.4502 53.8113 35.5221C53.8113 35.5232 53.8113 35.5232 53.8102 35.5244C52.9178 38.4528 51.5519 41.1737 49.7985 43.597V43.5981C48.8287 44.2457 47.7433 44.5679 46.5973 44.5679H27.4989V46.5265H40.2084V51.893C39.087 52.4789 37.9209 52.9897 36.7165 53.4173C35.7399 53.7653 34.7375 54.0582 33.7128 54.2951H33.7118C31.7148 54.7564 29.6371 55 27.5 55C23.0382 55 18.8257 53.9381 15.1003 52.0524V39.1791C15.1003 35.9857 17.6898 33.3962 20.8831 33.3962H34.7802C38.7974 33.3962 42.0536 30.14 42.0536 26.1228V19.46H46.5972C50.701 19.4599 54.0279 23.5006 54.0279 32.0145Z" fill="#D95583"/>
<path d="M37.0476 52.2253C37.0476 52.662 36.9264 53.0705 36.7165 53.4173C35.7399 53.7653 34.7376 54.0582 33.7129 54.2951H33.7118C32.9508 53.9179 32.4277 53.1323 32.4277 52.2253C32.4277 50.9491 33.4615 49.9153 34.7377 49.9153C36.0137 49.9153 37.0476 50.9491 37.0476 52.2253Z" fill="#F2F2F2"/>
</svg>
