<svg width="55" height="55" viewBox="0 0 55 55" fill="none" xmlns="http://www.w3.org/2000/svg">
<path d="M55 27.5C55 36.5604 50.6179 44.5972 43.8585 49.6077C41.0288 51.7045 37.7827 53.2714 34.2671 54.1604C32.1021 54.7093 29.8358 55 27.5 55C25.1642 55 22.8969 54.7093 20.7317 54.1604C17.2162 53.2714 13.97 51.7045 11.1403 49.6066C4.38088 44.596 0 36.5593 0 27.5C0 12.3122 12.3122 0 27.5 0C42.6878 0 55 12.3122 55 27.5Z" fill="#7B4AE2"/>
<path d="M43.8867 42.9842C43.7575 42.1188 43.5869 41.2275 43.376 40.3161C43.1896 39.5158 42.973 38.6997 42.7273 37.8714C42.0807 35.6961 41.2288 33.4355 40.1962 31.1502C39.7438 30.1512 39.2567 29.1478 38.737 28.1454C38.279 27.2621 37.7964 26.3776 37.2878 25.4987C36.7805 24.6187 36.2574 23.7589 35.7198 22.9204C35.1125 21.9697 34.4873 21.0471 33.8475 20.1558C32.3861 18.1186 30.854 16.2497 29.2926 14.6019C28.6989 13.9744 28.1006 13.3795 27.5001 12.8194C26.8166 12.1796 26.1296 11.5859 25.4437 11.0415C20.9663 7.4867 16.958 6.41925 14.1553 8.0367C11.3525 9.65523 10.2727 13.6601 11.1124 19.3162C11.2403 20.1816 11.4121 21.0729 11.6242 21.9842C11.8083 22.7845 12.0249 23.6006 12.2719 24.429C12.9184 26.6042 13.7703 28.866 14.8041 31.1501C15.2554 32.1492 15.7424 33.1514 16.2622 34.1538C16.7201 35.0383 17.2039 35.9216 17.7113 36.8016C18.2186 37.6816 18.7417 38.5414 19.2793 39.3798C19.8876 40.3317 20.5128 41.2543 21.1516 42.1455C22.613 44.1828 24.1451 46.0505 25.7065 47.6983C26.3003 48.3257 26.8996 48.9217 27.5001 49.4818C28.1836 50.1216 28.8706 50.7142 29.5553 51.2586C31.202 52.5663 32.7846 53.5372 34.2673 54.1602C37.7828 53.2712 41.029 51.7043 43.8586 49.6076C44.2536 47.7871 44.2682 45.5568 43.8867 42.9842ZM41.3656 49.1992C41.0389 50.6112 40.4384 51.5788 39.5798 52.0738C38.7222 52.5698 37.5841 52.6058 36.1978 52.1838C34.696 51.7246 32.9427 50.7212 31.1267 49.2789C30.5161 48.794 29.9043 48.2664 29.2925 47.6995C28.6931 47.1428 28.0937 46.5479 27.4989 45.9182C26.4774 44.8373 25.4672 43.6541 24.4818 42.3847C23.824 41.5373 23.1764 40.6517 22.5444 39.7324C21.6273 38.4 20.7418 36.997 19.8999 35.5378C19.057 34.0786 18.2847 32.6104 17.5899 31.1501C17.1095 30.1433 16.6661 29.1398 16.262 28.1465C15.6548 26.6582 15.1351 25.1911 14.7097 23.7667C14.4627 22.9361 14.2462 22.1212 14.0654 21.3232C13.879 20.5105 13.7275 19.7158 13.613 18.9447C13.2719 16.6516 13.2797 14.6312 13.6332 13.1013C13.9599 11.6893 14.5615 10.7217 15.419 10.2267C15.8825 9.95955 16.4269 9.82484 17.0476 9.82484C17.5774 9.82484 18.1633 9.92249 18.8009 10.1178C20.3027 10.5757 22.056 11.5803 23.872 13.0216C24.4826 13.5065 25.0955 14.0341 25.7061 14.6032C26.3066 15.1588 26.905 15.7537 27.4987 16.3823C28.5212 17.4632 29.5314 18.6463 30.5181 19.9169C31.1759 20.7644 31.8235 21.65 32.4555 22.5693C33.3713 23.9016 34.257 25.3047 35.0988 26.7627C35.9417 28.2219 36.714 29.69 37.4088 31.1503C37.8892 32.1583 38.3326 33.1618 38.7366 34.1551C39.3439 35.6435 39.8636 37.1095 40.289 38.5338C40.536 39.3644 40.7525 40.1793 40.9344 40.9773C41.1196 41.7899 41.2711 42.5846 41.3857 43.3557C41.727 45.6489 41.7192 47.6692 41.3656 49.1992Z" fill="#F2F2F2"/>
<path d="M45.9419 22.8766C45.128 22.5556 44.2705 22.2581 43.3748 21.9842C42.5891 21.7451 41.7742 21.524 40.9334 21.3231C38.7267 20.7956 36.3426 20.4027 33.8474 20.1558C32.7575 20.0468 31.6452 19.9673 30.5182 19.9167C29.5237 19.8707 28.5158 19.847 27.5 19.847C26.4842 19.847 25.4762 19.8706 24.4806 19.9167C23.3525 19.9671 22.2402 20.048 21.1503 20.1558C18.6551 20.4027 16.2722 20.7956 14.0654 21.3231C13.2247 21.524 12.4098 21.7452 11.624 21.9842C10.7283 22.2569 9.87078 22.5556 9.05695 22.8766C3.74 24.9755 0.810394 27.9141 0.810394 31.1501C0.810394 34.3861 3.74 37.3247 9.05706 39.4248C9.87089 39.7458 10.7273 40.0432 11.6229 40.3171C12.4086 40.5563 13.2235 40.7773 14.0643 40.9771C16.2711 41.5058 18.6551 41.8975 21.1515 42.1456C22.2414 42.2533 23.3537 42.333 24.4818 42.3847C25.4763 42.4307 26.4842 42.4531 27.5 42.4531C28.5158 42.4531 29.5226 42.4307 30.5172 42.3847C31.6452 42.333 32.7565 42.2533 33.8474 42.1456C36.3426 41.8986 38.7278 41.5058 40.9346 40.9771C41.7753 40.7763 42.5902 40.5563 43.376 40.3161C44.2706 40.0433 45.1281 39.7459 45.9419 39.4248C51.26 37.3247 54.1885 34.3862 54.1885 31.1501C54.1884 27.9141 51.26 24.9755 45.9419 22.8766ZM50.0634 34.1335C48.9163 35.2055 47.1698 36.2212 45.0135 37.0732C44.2873 37.3594 43.524 37.6265 42.727 37.8713C41.9447 38.1126 41.131 38.3337 40.2891 38.5335C38.8422 38.8781 37.3123 39.161 35.7196 39.3799C34.6577 39.5269 33.5678 39.6448 32.4555 39.7313C30.8425 39.8604 29.1847 39.9255 27.4999 39.9255C25.8151 39.9255 24.1572 39.8604 22.5443 39.7324C21.4319 39.6449 20.341 39.527 19.2791 39.38C17.6864 39.1611 16.1565 38.8782 14.7096 38.5336C13.8677 38.3338 13.054 38.1127 12.2717 37.8714C11.4747 37.6267 10.7115 37.3595 9.98519 37.0733C7.82902 36.2214 6.08244 35.2056 4.93529 34.1336C3.87568 33.1447 3.33803 32.1413 3.33803 31.1502C3.33803 30.1591 3.87568 29.1556 4.93529 28.1668C6.08244 27.0948 7.82891 26.079 9.98519 25.2271C10.7114 24.9409 11.4747 24.6737 12.2717 24.429C13.054 24.1876 13.8677 23.9666 14.7096 23.7668C16.1565 23.4222 17.6864 23.1393 19.2791 22.9204C20.341 22.7733 21.4319 22.6555 22.5443 22.5679C24.1572 22.44 25.8151 22.3749 27.4999 22.3749C29.1847 22.3749 30.8425 22.44 32.4555 22.5691C33.5678 22.6556 34.6577 22.7734 35.7196 22.9205C37.3123 23.1394 38.8422 23.4223 40.2891 23.7669C41.131 23.9667 41.9447 24.1877 42.727 24.4291C43.524 24.6738 44.2872 24.941 45.0135 25.2272C47.1697 26.0791 48.9163 27.0949 50.0634 28.1669C51.123 29.1558 51.6607 30.1592 51.6607 31.1503C51.6607 32.1413 51.123 33.1447 50.0634 34.1335Z" fill="#F2F2F2"/>
<path d="M40.8436 8.0367C38.0409 6.41925 34.0326 7.4867 29.5552 11.0415C28.8705 11.5859 28.1835 12.1796 27.5 12.8194C26.8995 13.3795 26.3001 13.9755 25.7064 14.603C24.145 16.2507 22.6129 18.1185 21.1504 20.1557C20.5118 21.0469 19.8865 21.9696 19.2793 22.9203C18.7417 23.7587 18.2186 24.6186 17.7113 25.4986C17.2039 26.3786 16.7202 27.2619 16.2622 28.1464C15.7425 29.1488 15.2553 30.1522 14.8041 31.15C13.7703 33.4353 12.9184 35.6959 12.2719 37.8712C12.0249 38.7007 11.8083 39.5167 11.623 40.317C11.4121 41.2284 11.2403 42.1185 11.1124 42.9839C10.7307 45.5555 10.7453 47.7858 11.1404 49.6064C13.9701 51.7042 17.2162 53.2712 20.7318 54.1602C22.2145 53.5373 23.7972 52.5663 25.4438 51.2586C26.1296 50.7142 26.8166 50.1205 27.5002 49.4818C28.1007 48.9217 28.699 48.3268 29.2928 47.6993C30.8529 46.0516 32.3862 44.1827 33.8477 42.1454C34.4863 41.2541 35.1116 40.3315 35.7199 39.3797C36.2576 38.5413 36.7806 37.6815 37.2879 36.8015C37.7964 35.9226 38.279 35.0392 38.7371 34.1547C39.2568 33.1524 39.7439 32.1489 40.1963 31.1499C41.2289 28.8657 42.0809 26.604 42.7274 24.4287C42.9731 23.6004 43.1898 22.7843 43.375 21.984C43.5872 21.0726 43.7578 20.1814 43.8869 19.316C44.7262 13.6601 43.6465 9.65523 40.8436 8.0367ZM40.2892 23.7667C39.8638 25.1911 39.3441 26.657 38.7369 28.1453C38.3327 29.1387 37.8894 30.1422 37.409 31.1501C36.7142 32.6104 35.942 34.0786 35.099 35.5378C34.2571 36.9958 33.3716 38.3988 32.4557 39.7312C31.8226 40.6516 31.175 41.5372 30.5173 42.3846C29.5318 43.6541 28.5216 44.8372 27.499 45.9181C26.9053 46.5466 26.307 47.1415 25.7065 47.6983C25.0959 48.2662 24.483 48.7937 23.8724 49.2786C22.0563 50.721 20.3029 51.7244 18.8012 52.1835C17.415 52.6056 16.2768 52.5696 15.4192 52.0735C14.5617 51.5785 13.96 50.611 13.6334 49.1989C13.2799 47.669 13.272 45.6486 13.6132 43.3555C13.7278 42.5844 13.8792 41.7897 14.0644 40.9771C14.2463 40.179 14.4628 39.3641 14.7098 38.5336C15.1352 37.1091 15.6549 35.6421 16.2622 34.1538C16.6663 33.1604 17.1096 32.1569 17.59 31.1501C18.2848 29.6898 19.0571 28.2217 19.9 26.7625C20.7419 25.3033 21.6275 23.9002 22.5445 22.5679C23.1765 21.6486 23.8229 20.763 24.4807 19.9167C25.4674 18.6461 26.4776 17.4631 27.4989 16.3821C28.0938 15.7524 28.6932 15.1575 29.2925 14.6019C29.9043 14.034 30.516 13.5064 31.1267 13.0215C32.9427 11.5803 34.6961 10.5757 36.1978 10.1177C36.8354 9.92238 37.4213 9.82474 37.9511 9.82474C38.5717 9.82474 39.1172 9.95944 39.5797 10.2266C40.4383 10.7216 41.0389 11.6892 41.3655 13.1012C41.719 14.6311 41.7269 16.6515 41.3857 18.9446C41.2712 19.7157 41.1197 20.5104 40.9333 21.3231C40.7527 22.1211 40.5361 22.936 40.2892 23.7667Z" fill="#F2F2F2"/>
<path d="M27.5 36.1663C30.2704 36.1663 32.5162 33.9204 32.5162 31.1501C32.5162 28.3797 30.2704 26.1339 27.5 26.1339C24.7296 26.1339 22.4838 28.3797 22.4838 31.1501C22.4838 33.9204 24.7296 36.1663 27.5 36.1663Z" fill="#F2F2F2"/>
</svg>
