<?xml version="1.0" encoding="UTF-8"?>
<!DOCTYPE svg PUBLIC "-//W3C//DTD SVG 1.1//EN" "http://www.w3.org/Graphics/SVG/1.1/DTD/svg11.dtd">
<!-- Creator: CorelDRAW 2019 (64-Bit) -->
<svg xmlns="http://www.w3.org/2000/svg" xml:space="preserve" width="84.6666mm" height="84.6666mm" version="1.1" style="shape-rendering:geometricPrecision; text-rendering:geometricPrecision; image-rendering:optimizeQuality; fill-rule:evenodd; clip-rule:evenodd"
viewBox="0 0 8466.66 8466.66"
 xmlns:xlink="http://www.w3.org/1999/xlink">
 <defs>
  <style type="text/css">
   <![CDATA[
    .str1 {stroke:#FEFEFE;stroke-width:118.53;stroke-linecap:round;stroke-linejoin:round;stroke-miterlimit:22.9256}
    .str0 {stroke:#FEFEFE;stroke-width:16.93;stroke-linecap:round;stroke-linejoin:round;stroke-miterlimit:22.9256}
    .fil0 {fill:none}
    .fil2 {fill:#FEFEFE}
    .fil1 {fill:#FEFEFE;fill-rule:nonzero}
   ]]>
  </style>
 </defs>
 <g id="Layer_x0020_1">
  <metadata id="CorelCorpID_0Corel-Layer"/>
  <rect class="fil0" x="-0.01" y="-0.02" width="8466.67" height="8466.67"/>
  <g id="_1747247693648">
   <path class="fil1 str0" d="M2966.01 4742.79l-121.97 0 0 -31.87 280.63 0 0 31.87 -121.99 0 0 316.52 -36.67 0 0 -316.52zm665.19 284.68l0 31.84 -245.42 0 0 -348.39 237.99 0 0 31.87 -201.3 0 0 123.92 179.47 0 0 31.36 -179.47 0 0 129.4 208.73 0zm437.65 34.82c-34.38,0 -65.39,-7.62 -92.97,-22.88 -27.61,-15.26 -49.25,-36.42 -64.95,-63.46 -15.71,-27.04 -23.54,-57.31 -23.54,-90.83 0,-33.51 7.83,-63.78 23.54,-90.84 15.7,-27.04 37.43,-48.18 65.2,-63.44 27.75,-15.26 58.84,-22.9 93.23,-22.9 25.76,0 49.56,4.32 71.39,12.95 21.82,8.61 40.31,21.22 55.53,37.81l-23.3 23.41c-27.1,-27.55 -61.32,-41.32 -102.66,-41.32 -27.43,0 -52.37,6.3 -74.86,18.92 -22.48,12.59 -40.07,29.85 -52.81,51.74 -12.7,21.92 -19.06,46.46 -19.06,73.67 0,27.2 6.36,51.76 19.06,73.66 12.74,21.9 30.33,39.15 52.81,51.77 22.49,12.59 47.43,18.91 74.86,18.91 41.67,0 75.87,-13.94 102.66,-41.82l23.3 23.39c-15.22,16.61 -33.8,29.29 -55.78,38.08 -21.98,8.8 -45.87,13.18 -71.65,13.18zm698.43 -351.37l0 348.39 -30.23 0 -223.13 -282.68 0 282.68 -36.67 0 0 -348.39 30.23 0 223.61 282.71 0 -282.71 36.19 0zm467.38 351.37c-34.34,0 -65.52,-7.7 -93.46,-23.13 -27.92,-15.43 -49.73,-36.59 -65.43,-63.46 -15.71,-26.87 -23.56,-57.06 -23.56,-90.58 0,-33.51 7.85,-63.7 23.56,-90.59 15.7,-26.87 37.51,-48.01 65.43,-63.44 27.94,-15.43 59.12,-23.15 93.46,-23.15 34.39,0 65.37,7.64 92.98,22.9 27.58,15.26 49.35,36.4 65.2,63.44 15.87,27.06 23.78,57.33 23.78,90.84 0,33.52 -7.91,63.79 -23.78,90.83 -15.85,27.04 -37.62,48.2 -65.2,63.46 -27.61,15.26 -58.59,22.88 -92.98,22.88zm0 -32.83c27.44,0 52.25,-6.23 74.4,-18.68 22.15,-12.43 39.49,-29.69 52.04,-51.75 12.57,-22.06 18.85,-46.71 18.85,-73.91 0,-27.21 -6.28,-51.83 -18.85,-73.9 -12.55,-22.06 -29.89,-39.32 -52.04,-51.77 -22.15,-12.44 -46.96,-18.66 -74.4,-18.66 -27.42,0 -52.29,6.22 -74.61,18.66 -22.31,12.45 -39.82,29.71 -52.56,51.77 -12.7,22.07 -19.06,46.69 -19.06,73.9 0,27.2 6.36,51.85 19.06,73.91 12.74,22.06 30.25,39.32 52.56,51.75 22.32,12.45 47.19,18.68 74.61,18.68zm466.92 -318.54l36.67 0 0 316.55 194.37 0 0 31.84 -231.04 0 0 -348.39zm639.41 351.37c-34.36,0 -65.51,-7.7 -93.46,-23.13 -27.92,-15.43 -49.73,-36.59 -65.43,-63.46 -15.72,-26.87 -23.55,-57.06 -23.55,-90.58 0,-33.51 7.83,-63.7 23.55,-90.59 15.7,-26.87 37.51,-48.01 65.43,-63.44 27.95,-15.43 59.1,-23.15 93.46,-23.15 34.39,0 65.38,7.64 92.98,22.9 27.58,15.26 49.33,36.4 65.18,63.44 15.87,27.06 23.81,57.33 23.81,90.84 0,33.52 -7.94,63.79 -23.81,90.83 -15.85,27.04 -37.6,48.2 -65.18,63.46 -27.6,15.26 -58.59,22.88 -92.98,22.88zm0 -32.83c27.44,0 52.23,-6.23 74.38,-18.68 22.15,-12.43 39.49,-29.69 52.06,-51.75 12.58,-22.06 18.83,-46.71 18.83,-73.91 0,-27.21 -6.25,-51.83 -18.83,-73.9 -12.57,-22.06 -29.91,-39.32 -52.06,-51.77 -22.15,-12.44 -46.94,-18.66 -74.38,-18.66 -27.41,0 -52.31,6.22 -74.62,18.66 -22.32,12.45 -39.81,29.71 -52.55,51.77 -12.72,22.07 -19.08,46.69 -19.08,73.9 0,27.2 6.36,51.85 19.08,73.91 12.74,22.06 30.23,39.32 52.55,51.75 22.31,12.45 47.21,18.68 74.62,18.68zm711.34 -144.34l35.18 0 0 132.88c-16.18,14.27 -35.35,25.21 -57.5,32.85 -22.14,7.62 -45.44,11.44 -69.9,11.44 -34.7,0 -65.94,-7.62 -93.71,-22.88 -27.75,-15.26 -49.59,-36.42 -65.46,-63.46 -15.87,-27.04 -23.78,-57.31 -23.78,-90.83 0,-33.51 7.91,-63.78 23.78,-90.84 15.87,-27.04 37.71,-48.18 65.46,-63.44 27.77,-15.26 59.16,-22.9 94.19,-22.9 26.45,0 50.74,4.24 72.89,12.7 22.15,8.46 40.83,20.97 56.03,37.58l-22.82 23.38c-27.44,-27.2 -62.29,-40.81 -104.61,-40.81 -28.11,0 -53.47,6.22 -76.1,18.66 -22.65,12.45 -40.41,29.71 -53.3,51.77 -12.89,22.07 -19.33,46.69 -19.33,73.9 0,27.2 6.44,51.76 19.33,73.66 12.89,21.9 30.57,39.15 53.05,51.77 22.49,12.59 47.76,18.91 75.85,18.91 35.71,0 65.94,-8.96 90.75,-26.89l0 -117.45zm341.45 -174.2l36.67 0 0 348.39 -36.67 0 0 -348.39zm570.03 255.33l-193.38 0 -41.65 93.06 -38.19 0 158.66 -348.39 36.22 0 158.64 348.39 -38.67 0 -41.63 -93.06zm-13.41 -29.87l-83.3 -187.13 -83.28 187.13 166.58 0z"/>
   <path class="fil1" d="M3208.79 4151.53c45.59,-15.96 77.52,-42.18 98.03,-64.97 44.46,-49.04 68.42,-117.44 68.42,-194.94 0,-78.66 -23.96,-147.05 -68.42,-196.07 -34.2,-38.78 -99.17,-84.37 -210.89,-84.37l-139.08 0 0 0 -111.7 0 0 845.85 132.23 0 0 -286.13 96.91 0 213.16 286.13 149.34 0 -228 -305.5zm-231.41 -99.19l0 -321.46 118.55 0c54.73,0 95.77,14.82 121.99,44.46 31.91,34.2 37.62,82.08 37.62,116.28 0,33.04 -5.71,80.93 -37.62,115.12 -26.22,29.64 -67.26,45.6 -121.99,45.6l-118.55 0zm940.47 404.69c57,0 112.86,-11.39 165.3,-33.06 50.15,-21.66 94.61,-52.44 134.5,-91.19 38.77,-38.75 68.42,-83.22 90.06,-134.52 21.66,-51.29 33.06,-107.15 33.06,-164.14 0,-57.02 -11.4,-112.86 -33.06,-165.3 -21.64,-50.17 -51.29,-94.61 -90.06,-134.52 -39.89,-38.75 -84.35,-68.39 -134.5,-90.06 -52.44,-21.66 -108.3,-33.06 -165.3,-33.06 -56.99,0 -112.85,11.4 -164.16,33.06 -51.28,21.67 -95.75,51.31 -134.52,90.06 -38.75,39.91 -69.53,84.35 -91.19,134.52 -21.67,52.44 -33.06,108.28 -33.06,165.3 0,56.99 11.39,112.85 33.06,164.14 21.66,51.3 52.44,95.77 91.19,134.52 38.77,38.75 83.24,69.53 134.52,91.19 51.31,21.67 107.17,33.06 164.16,33.06zm0 -713.62c77.51,0 150.48,30.8 205.19,85.5 54.72,54.73 85.5,127.68 85.5,205.21 0,77.5 -30.78,150.47 -85.5,205.18 -54.71,54.73 -127.68,85.5 -205.19,85.5 -77.52,0 -150.47,-30.77 -205.2,-85.5 -54.71,-54.71 -85.48,-127.68 -85.48,-205.18 0,-77.53 30.77,-150.48 85.48,-205.21 54.73,-54.7 127.68,-85.5 205.2,-85.5zm1367.95 713.62l0 -884.6 -397.85 592.76 -397.84 -592.76 0 884.6 132.24 0 0 -449.13 265.6 394.41 264.48 -394.41 0 449.13 133.37 0zm308.93 0l0 -845.85 -132.24 0 0 845.85 132.24 0zm840.14 38.76l0 -884.61 -133.36 0 0 542.62 -531.22 -582.51 0 885.74 132.23 0 0 -543.77 532.35 582.53zm308.95 -766.05l376.19 0 0 -118.56 -377.34 0 0 0 -131.08 0 0 845.85 132.23 0 0 -381.89 308.93 0 0 -119.68 -308.93 0 0 -225.72zm874.37 727.29c56.99,0 112.85,-11.39 165.29,-33.06 50.15,-21.66 94.62,-52.44 134.5,-91.19 38.78,-38.75 68.42,-83.22 90.06,-134.52 21.67,-51.29 33.06,-107.15 33.06,-164.14 0,-57.02 -11.39,-112.86 -33.06,-165.3 -21.64,-50.17 -51.28,-94.61 -90.06,-134.52 -39.88,-38.75 -84.35,-68.39 -134.5,-90.06 -52.44,-21.66 -108.3,-33.06 -165.29,-33.06 -57,0 -112.86,11.4 -164.17,33.06 -51.28,21.67 -95.74,51.31 -134.52,90.06 -38.75,39.91 -69.52,84.35 -91.19,134.52 -21.66,52.44 -33.06,108.28 -33.06,165.3 0,56.99 11.4,112.85 33.06,164.14 21.67,51.3 52.44,95.77 91.19,134.52 38.78,38.75 83.24,69.53 134.52,91.19 51.31,21.67 107.17,33.06 164.17,33.06zm0 -713.62c77.5,0 150.47,30.8 205.18,85.5 54.73,54.73 85.5,127.68 85.5,205.21 0,77.5 -30.77,150.47 -85.5,205.18 -54.71,54.73 -127.68,85.5 -205.18,85.5 -77.53,0 -150.48,-30.77 -205.21,-85.5 -54.7,-54.71 -85.48,-127.68 -85.48,-205.18 0,-77.53 30.78,-150.48 85.48,-205.21 54.73,-54.7 127.68,-85.5 205.21,-85.5z"/>
   <path class="fil2" d="M2017.89 3010.9l86.55 -7.87c75.61,-6.88 143.09,49.36 149.96,124.97l180.04 1980.73c-33.75,-13.7 -70.65,-21.26 -109.33,-21.26 -21.42,0 -42.29,2.34 -62.39,6.73l-858.05 -513.89 464.9 -118.49c45.49,29.48 99.73,46.61 157.98,46.61 160.66,0 290.9,-130.24 290.9,-290.9 0,-110.05 -61.11,-205.82 -151.25,-255.24l-188.91 -744.02c28.13,-44.77 44.4,-97.74 44.4,-154.51 0,-18.06 -1.66,-35.72 -4.8,-52.86zm-41.5 2375.32l-1238.24 112.55c-75.61,6.87 -143.09,-49.36 -149.96,-124.98l-164.08 -1805.17c51.18,44.89 118.25,72.11 191.69,72.11 110.2,0 206.09,-61.28 255.45,-151.63l704.75 -179.65c5.81,3.69 11.75,7.17 17.82,10.45l188.27 741.49c-3.03,4.77 -5.94,9.62 -8.7,14.57l-708.29 180.54c-44.57,-27.75 -97.18,-43.8 -153.55,-43.8 -160.66,0 -290.9,130.24 -290.9,290.9 0,160.66 130.24,290.9 290.9,290.9 22.25,0 43.92,-2.51 64.74,-7.24l1000.1 598.96z"/>
   <g>
    <path class="fil2" d="M591.77 3256.1c51.76,-13.26 104.49,17.94 117.75,69.71 13.28,51.76 -17.93,104.48 -69.69,117.75 -51.77,13.27 -104.49,-17.94 -117.76,-69.7 -13.27,-51.77 17.94,-104.49 69.7,-117.76zm1116 -286.07c51.77,-13.27 104.49,17.94 117.76,69.71 13.26,51.76 -17.94,104.48 -69.71,117.75 -51.76,13.27 -104.48,-17.94 -117.75,-69.7 -13.27,-51.77 17.93,-104.49 69.7,-117.76zm-820.25 1439.84c51.77,-13.26 104.49,17.94 117.76,69.71 13.27,51.76 -17.94,104.48 -69.7,117.75 -51.77,13.27 -104.49,-17.94 -117.76,-69.7 -13.27,-51.77 17.94,-104.49 69.7,-117.76zm1116 -286.07c51.77,-13.27 104.49,17.94 117.76,69.71 13.27,51.76 -17.94,104.48 -69.7,117.75 -51.77,13.27 -104.49,-17.94 -117.76,-69.7 -13.27,-51.77 17.94,-104.49 69.7,-117.76zm297.57 1160.84c51.76,-13.27 104.49,17.94 117.75,69.7 13.27,51.76 -17.94,104.48 -69.7,117.75 -51.76,13.28 -104.48,-17.93 -117.75,-69.7 -13.27,-51.77 17.93,-104.49 69.7,-117.75zm-1591.57 -1958.83l928.55 -238.02 -928.55 238.02zm1046.3 -168.32l247.71 966.32 -247.71 -966.32zm178 1084.06l-928.54 238.03 928.54 -238.03zm-939.99 312.97l1249 772.93 -1249 -772.93z"/>
    <path id="1" class="fil0 str1" d="M591.77 3256.1c51.76,-13.26 104.49,17.94 117.75,69.71 13.28,51.76 -17.93,104.48 -69.69,117.75 -51.77,13.27 -104.49,-17.94 -117.76,-69.7 -13.27,-51.77 17.94,-104.49 69.7,-117.76zm1116 -286.07c51.77,-13.27 104.49,17.94 117.76,69.71 13.26,51.76 -17.94,104.48 -69.71,117.75 -51.76,13.27 -104.48,-17.94 -117.75,-69.7 -13.27,-51.77 17.93,-104.49 69.7,-117.76zm-820.25 1439.84c51.77,-13.26 104.49,17.94 117.76,69.71 13.27,51.76 -17.94,104.48 -69.7,117.75 -51.77,13.27 -104.49,-17.94 -117.76,-69.7 -13.27,-51.77 17.94,-104.49 69.7,-117.76zm1116 -286.07c51.77,-13.27 104.49,17.94 117.76,69.71 13.27,51.76 -17.94,104.48 -69.7,117.75 -51.77,13.27 -104.49,-17.94 -117.76,-69.7 -13.27,-51.77 17.94,-104.49 69.7,-117.76zm297.57 1160.84c51.76,-13.27 104.49,17.94 117.75,69.7 13.27,51.76 -17.94,104.48 -69.7,117.75 -51.76,13.28 -104.48,-17.93 -117.75,-69.7 -13.27,-51.77 17.93,-104.49 69.7,-117.75zm-1591.57 -1958.83l928.55 -238.02m117.75 69.7l247.71 966.32m-69.71 117.74l-928.54 238.03m-11.45 74.94l1249 772.93"/>
   </g>
  </g>
 </g>
</svg>
