<?xml version="1.0" encoding="UTF-8"?>
<!DOCTYPE svg PUBLIC "-//W3C//DTD SVG 1.1//EN" "http://www.w3.org/Graphics/SVG/1.1/DTD/svg11.dtd">
<!-- Creator: CorelDRAW 2019 (64-Bit) -->
<svg xmlns="http://www.w3.org/2000/svg" xml:space="preserve" width="84.6666mm" height="84.6666mm" version="1.1" style="shape-rendering:geometricPrecision; text-rendering:geometricPrecision; image-rendering:optimizeQuality; fill-rule:evenodd; clip-rule:evenodd"
viewBox="0 0 8466.66 8466.66"
 xmlns:xlink="http://www.w3.org/1999/xlink">
 <defs>
  <style type="text/css">
   <![CDATA[
    .str0 {stroke:#FEFEFE;stroke-width:84.67;stroke-miterlimit:22.9256}
    .fil0 {fill:none}
    .fil2 {fill:white}
    .fil1 {fill:white;fill-rule:nonzero}
   ]]>
  </style>
 </defs>
 <g id="Layer_x0020_1">
  <metadata id="CorelCorpID_0Corel-Layer"/>
  <rect class="fil0" x="-0.01" y="-0.02" width="8466.67" height="8466.67"/>
  <path class="fil0 str0" d="M4862.81 4140.3c-0.83,-138.35 15.96,-93.32 25.63,-162.34 18.84,-134.51 38.82,-95.91 53.38,-132.54 7.05,-17.75 7.28,-232.73 6.5,-277.38 -0.32,-18.13 -2.06,-22.31 -8.23,-38.25 -1.46,-3.77 -5.91,-14.6 -6.57,-17.76 -2.2,-10.63 -0.58,3.61 -0.56,-8.68l1.14 -5.53c33.71,-10.88 34.75,0.87 73.73,-21.05 40.57,-22.8 23.13,-16.91 52.01,-45.11 24.8,-24.22 29.03,-28.72 32.19,-65.59 3.72,-43.54 32.52,-17.64 44,-52.48 16.63,-50.49 10.07,-39.53 63.74,-81.16 11.34,-8.8 50.17,-67.35 61.68,-83.76 14.75,-21 35.91,-17.44 57.23,-27.09 0.68,-0.31 2.3,-0.31 2.78,-1.65 0.48,-1.34 1.9,-1.06 4.37,-1.52l6.96 -51.63 57.82 -14.45c4.54,-20.82 21.3,-50.07 30.48,-70.65 15.96,-35.8 -2.75,-43.12 34.88,-65.6 41.86,-25 39.41,-119.67 39.84,-164.14 0.63,-65.62 1.76,-128.25 3.47,-191.97 1.01,-37.67 -21.26,-31.72 -28.15,-72.37 -4.68,-27.58 -7.18,-58.82 -14.18,-83.58 -26.84,-9.29 -142.12,-4.87 -180.82,-5.13 -34.58,-0.24 -39.81,-10.94 -62.33,-27.84 -66.41,-49.87 -40.13,-25.94 -98.58,-86.39 -40.51,-41.89 -104.72,-94.78 -154.88,-122.94 -165.58,-92.97 -226.24,-52.88 -297.3,-70.76 -27.89,-7.02 -45.29,-10.66 -69.84,-14.38 -20.18,-3.05 -48.84,-14.96 -70.26,-21.39 -43.36,-13.02 -99.89,-35.64 -141.7,-43.46 -11.69,12.18 -14.1,20.63 -24.67,31.86 -23.06,-2.92 -45.09,-5.34 -57.93,-23.02l-34.67 -46.04c-12.99,-17.23 -15.43,-31.45 -43.02,-38.25 -64.84,-15.96 -90.68,-70.73 -162.26,-78.33 -61.97,-6.58 -36.94,-16.61 -87.24,-75.79l-170.47 3.09c-7.76,27.25 -13.74,73.27 -35.25,90.14 -49.16,38.55 -31.9,13.55 -73.07,-4.2 -1.82,-28.36 -2.98,-72.97 10.64,-92.28 6.13,-8.68 14.97,-20.39 22.2,-30.43 6.05,-8.42 15.53,-17.73 18.13,-28.04 -32.02,-2.94 -62.67,-4.2 -94.58,-6.69 -10.16,-0.79 -33.92,-0.73 -42.01,-3.96 -11.49,-4.6 -12.8,-15.35 -22.64,-25.4l-67.12 -1.24c-3.17,-20.54 -20.26,-85.2 -17.63,-101.3 3.44,-21.04 29.77,-45.63 36.47,-81.23 4.84,-25.74 6.87,-23.84 -5.38,-42.84 -8.2,-12.71 -13.93,-21.98 -21.84,-35.05 -11.91,-19.68 -13.21,-17.78 -41.2,-19.54 -17.3,-1.08 -46.22,4.17 -53.55,-13.72l-8.21 -28.24c-3.39,-12.2 -6.91,-26.31 -10.08,-38.74l-40.9 -153.88c-7.34,-28.66 -3.68,-57.24 -36.35,-57.39l-134.68 273.47c-56.69,1.05 -152.66,-16.1 -213.24,-22.75 -62.28,-6.84 -43.97,-8.8 -102.71,4.61 -33.73,7.7 -75.43,-5.03 -108.14,-0.19l-3.91 81.22 -181.28 9c-22.52,2.36 -10.96,-1.83 -23.54,9.55 -25.36,22.91 -26.98,27.93 -67.05,29.76 -64.88,2.97 -109.76,4.1 -177.55,-3.47 -6.77,-10.11 -7.9,-25.02 -12.72,-39.09 -8.66,-25.32 -53.53,-48.17 -74.67,-72.75l27.67 -319.35 -26.72 -11.24c-2.3,-17.99 0.79,-31.48 0.67,-49.25 -0.14,-19.65 -4.72,-19.53 -11.45,-32.83 -49.54,-3.53 -43.61,-2.28 -65.68,31.6 -53.4,81.99 -38.1,81.74 -95.38,89.01 -47.19,5.99 -32.72,13.29 -56.4,38.18l-89.23 5.38 -18.34 48.38c-40.38,-12.98 -12.61,-22.71 -77.14,-21.81 -45.38,0.63 -39.63,-4.08 -63.08,-27.57 -21.56,-21.6 -32.51,-19.88 -65.37,-31.26 -23.82,-8.25 -46.13,-16.1 -71.19,-21.18 7.43,12.73 34.29,34.73 46.87,46.61 65.42,61.75 19.49,64.7 48.69,217.9l91.85 0.03c-0.37,12.93 -1.58,26.1 -2.38,38.58 -0.33,5.06 -0.79,14.13 -1.95,18.72 -5.92,23.64 -35.14,16.39 -84.26,13.22l-7.47 56.48c-26.25,11.64 -136.08,61.46 -158.58,63.64 -58.13,5.65 -156.8,7.6 -215.81,6.03 -7.01,-14.98 -9.87,-16.39 -19.89,-31.15 -36.57,-53.88 -30.85,-50.36 -31.97,-127.44 -13.66,2.58 -26.8,18.09 -38,28.14 -18.35,16.45 -14.57,16.73 -44.44,19.77 -7.81,-16.45 -10.57,-27.78 -27.44,-30.88 -12.11,10.79 -6.03,10.29 -10.32,26.79l-187.48 5.64c-4.65,19.21 -17.71,82.77 -14.5,98.28 21.74,2.07 43.18,1.16 63.26,6.95l-2.04 53.24 -103.54 -2.63c-4.97,13.3 -4.93,34.69 -5.36,51.38 -0.87,33.26 16.31,42.07 37.1,64.98 7.09,7.82 14.83,18.22 16.48,29.96 3.44,24.5 2.52,74.1 2.77,100.77 0.32,34.25 4.74,55.36 9.79,88.13 14.42,93.67 16.93,71.28 -12.01,158.17 -16.94,50.87 -33.41,100.27 -48.67,149.72l-132.4 -4.62c-5.84,12.72 -3.92,7.87 -13.03,18.7 -52.87,62.82 -23.62,54.52 -117.02,47.26 -4.6,10.19 -26.97,46.88 -34.44,55.72l-60.86 1.9c-5.96,27.48 -0.8,66.86 -11.71,90.81l-37.78 5.02c-2.76,33.3 -3.83,66.34 -5.42,99.17 -2.15,44.19 1.34,52.24 -16.07,85.71 -17.95,-2.95 -26.92,-8.09 -47.25,-5.94l-2.48 148.95c7.92,7.6 13.94,13.22 24.65,20.71 10.54,7.37 17.27,10.69 24.98,20.1 1.23,19.82 -3.29,48.61 5.6,62.77 16.99,27.07 57.62,67.48 81.08,92 25.28,26.42 16.97,17.39 83.7,19.98 7.34,13.47 6.69,43.09 7.63,62.31 22.59,-0.13 45.2,-1.58 67.81,-2 30.27,-0.55 34.41,4.41 49.4,-17 12.13,-17.33 13.41,-22.57 38.14,-29.76 17.5,-5.09 33.01,-11.9 52.62,-13.26l1.28 199.88 332.55 -1.87c-1.89,-33.97 -7.07,-52.77 15.25,-71.04 8.83,6.72 8.42,12.3 15.89,19.34l26.7 -11.52 2.49 -39.17c36.62,-4.27 45.74,7.09 54.98,-29.94 6.71,-26.85 26.63,-35.3 42.03,-53.21 25.21,-0.02 14.86,8.8 37.76,-2.49 11.17,-5.5 20.02,-11.92 30.57,-17.84 23.28,-13.07 48.41,-14.7 80.54,-7.71 90.66,19.72 53.23,64.69 45.83,112.63 -2.32,15.03 -0.4,76.01 3.98,88.63 11.33,32.65 60.7,81.35 84.12,109.43 37.25,44.66 258.1,136.55 318.65,155.19 49.51,15.25 97.76,29.15 147.85,44.19 29.55,8.87 51.05,5.45 59.35,36.26 21.04,78.12 62.73,-18.54 56.36,126.81l-29.82 10.55c-7.43,4.3 -12.96,11.23 -22.66,16.77 8.44,24.85 29.98,44.97 36.98,69.08 8.07,27.79 8.48,61.61 16.46,90.22l207.14 -0.5c4.16,45.08 5.2,84.09 41.96,111.88 76.73,58.03 17.25,94.58 86.67,163.2 -3.43,18.68 -13.92,36.79 -18.22,54.51 -11.15,45.95 10.95,297.91 -0.93,358.12 -4,20.32 -9.78,39.63 -13.52,59.67 -6.01,32.13 6.17,25.46 11.04,52.94l208.6 -0.19 2.18 24.53 47.84 1.02 10.79 38.91 47.53 2.77 -3.06 157.07c19.51,-6.93 86.75,-32.69 104.95,-28.64l6.03 263.81 72.46 -2.31c0.84,26.67 -1.76,52.96 -2.45,78.97 -1.14,43.66 -1.58,78.09 -43.16,101.24 -37.21,20.73 -27.93,8.38 -24.22,32.56l-107.94 20.94 -2.68 54.28c-14.56,5.39 -32.1,19.1 -47.06,27.98 -33.81,20.06 -15.9,5.63 -37.96,35.14 -20.1,26.89 -50.23,56.93 -55.55,94.34 -4.57,32.18 -1.26,32.3 -20.72,55.62 -6.31,7.56 -9.16,13.19 -15.85,20.79l-51.91 56.74c-12.2,11.26 -20.14,26.78 -32.3,38.14 65.54,24.12 74.84,-5.87 158.86,53.46 22.33,15.77 13.62,41.1 34.1,54.68 5.36,3.56 5.35,2.58 10.66,5.54 8.44,4.71 13.27,8.58 22.14,13.81 59.59,35.15 95.6,5.77 160.73,43.27 9.09,39.3 4.84,75.84 34.78,111.13 11.37,13.4 24.95,3.47 32.86,18.77 0.4,0.78 1.11,1.9 1.5,2.8l3.24 12.9c1.29,7.79 2.13,17.18 3.18,25.11 1.83,13.72 6.66,37 7.26,49.81 1.35,28.93 -25.98,0.96 -36.51,70.38 9.6,-0.48 36.87,-3.06 44.83,-5.41 16.73,-4.95 6.16,0.97 16.86,-12.29 5.77,-7.16 5.53,-7.82 10.06,-14.21 20.33,-28.71 37.22,-22.96 62.14,-39.54 9.16,-44.68 13.27,-66.33 31.57,-104.99 15.32,-32.37 1.69,-19.35 30.77,-37.4l108.14 -64.65c15.89,-9.87 6.88,-0.06 15.31,-17.56 16.53,-34.32 28.62,-59.98 46.48,-91.02 54.67,-95.02 29.46,17.04 104.48,-170.38 21.92,-54.76 37.94,-16.58 54.77,-49.86 14.39,-28.44 14.06,-42.57 37.96,-62.7 11.7,-9.86 23.18,-20.98 35.2,-28.34 0.18,-87.47 3.11,-176.96 4.62,-264.35 0.49,-28.69 4.31,-33.57 16.54,-53.89 34.78,-57.82 30.75,-43.6 81.2,-79.48l82.4 -83.4c6.88,-14.29 8.19,-40.11 15.17,-53.73 17.5,-34.09 170.77,-45.29 199.65,-59.69 22.14,-11.03 11.03,-21.63 23.98,-41.41l121.38 -5.89c23.09,-42.61 -2.81,-33.11 61.61,-33.64 31.83,-0.26 63.66,-0.64 95.49,-0.92 115.35,-1.01 131.19,14.35 150.26,-42.35 16.09,-47.84 100.58,-16.29 124.26,-67.89 11.47,-24.97 -9.88,-62.82 2.65,-87.09 13,-25.19 40.12,-17.69 66.95,-21.21 22.09,-50.74 3.76,-60.19 37.28,-104.81l30.33 -38.24c48.13,-55.03 30.55,-132.42 35.13,-172.57 2.05,-17.95 12.67,-38.93 14.28,-54.66 2.3,-22.34 -12.48,-37.39 -5.68,-57.95 37.88,2.68 46.13,3.01 81.81,-5.76z"/>
  <path class="fil1" d="M2076.61 7166.96l0 -721.74c0,-51.56 -6.56,-83.08 -19.37,-94.89 -12.8,-11.83 -42.68,-17.75 -89.64,-17.75l-66.33 0 0 -186.51 910.23 0c160.89,0 280.75,27.26 359.89,81.77 79.13,54.51 118.86,136.93 118.86,247.59 0,74.21 -24.3,136.93 -72.9,187.49 -48.93,50.89 -117.55,85.38 -206.54,104.1 89.96,10.82 150.72,38.41 182.57,82.08 31.85,44 47.61,144.81 47.61,301.77 0,47.62 3.94,80.45 11.82,98.51 8.22,18.39 21.34,27.58 40.06,27.58 17.73,0 30.87,-11.17 39.74,-33.82 8.54,-22.34 12.8,-56.48 12.8,-102.12 0,-4.6 -0.32,-11.82 -0.98,-22.33 -0.65,-10.18 -0.99,-17.74 -0.99,-22.99l133.98 0c0,5.92 0.32,14.46 0.98,26.6 0.65,11.83 0.98,20.36 0.98,26.27 0,123.14 -25.28,212.45 -76.17,267.94 -50.57,55.5 -132.33,83.08 -245.29,83.08 -119.85,0 -207.2,-24.96 -262.03,-74.86 -54.84,-49.92 -82.43,-129.38 -82.43,-238.4l0 -110.66c0,-88.32 -11.81,-144.48 -35.13,-168.45 -23.31,-23.97 -71.91,-36.11 -145.8,-36.11l-118.53 0 0 295.85c0,51.56 6.56,83.4 19.7,95.56 13.13,12.14 42.69,18.38 88.33,18.38l75.2 0 0 187.17 -795.96 0 0 -187.17 66.33 0c46.31,0 76.18,-6.24 89.32,-18.38 13.13,-12.16 19.69,-44 19.69,-95.56zm433.45 -475.14l115.91 0c81.11,0 138.56,-13.13 171.4,-39.08 33.17,-25.94 49.59,-69.61 49.59,-130.36 0,-66.99 -15.1,-113.94 -45.65,-140.87 -30.54,-26.92 -84.05,-40.39 -160.89,-40.39l-130.36 0 0 350.7zm1487.15 -338.87c-72.57,0 -128.06,24.62 -166.47,73.55 -38.43,49.25 -57.8,120.51 -57.8,214.43l0 5.57 -195.04 0 0 -500.43 1390.94 0 0 500.43 -193.08 0 0 -5.57c0,-93.27 -19.38,-164.52 -58.11,-213.77 -38.75,-49.59 -94.91,-74.21 -168.13,-74.21l-57.47 0 0 814.34c0,50.56 6.58,82.41 20.03,94.89 13.47,12.48 43.68,18.72 90.31,18.72l110.33 0 0 187.17 -868.85 0 0 -187.17 102.45 0c44.33,0 73.23,-5.25 87.34,-15.76 14.12,-10.84 21.02,-43.35 21.02,-97.85l0 -814.34 -57.47 0zm1170.63 1115.12l0 -187.17 66.33 0c43.66,0 72.56,-5.25 86.35,-15.43 13.79,-10.18 20.69,-39.74 20.69,-88.33l0 -9.85 0 -721.75c0,-51.21 -6.56,-82.75 -19.38,-94.57 -12.8,-11.81 -42.67,-17.73 -89.31,-17.73l-64.68 0 0 -187.17 795.95 0c172.39,0 299.13,24.96 379.58,75.2 80.45,49.92 120.84,128.39 120.84,235.76 0,73.24 -23.31,136.28 -70.26,189.47 -46.97,53.19 -114.6,94.24 -202.94,122.48 114.6,24.96 199.98,65.02 256.13,120.19 56.16,55.16 84.06,127.07 84.06,216.39 0,129.37 -44.99,222.3 -135.29,278.44 -89.96,56.16 -241.01,84.07 -453.46,84.07l-774.61 0zm608.78 -185.2l84.72 0c80.45,0 137.91,-16.75 172.72,-49.91 34.48,-33.49 51.88,-88.33 51.88,-164.84 0,-69.93 -18.39,-121.49 -54.84,-154.98 -36.77,-33.16 -93.9,-49.92 -171.4,-49.92l-83.08 0 0 419.65zm0 -593.03l72.24 0c70.27,0 121.17,-14.44 153.34,-43.66 32.19,-29.24 48.28,-74.88 48.28,-136.93 0,-61.73 -15.1,-105.73 -44.99,-132.33 -29.88,-26.59 -79.8,-39.74 -149.73,-39.74l-79.14 0 0 352.66z"/>
  <path class="fil2" d="M4344.71 5410.9c0,-17.01 10.37,-26.85 19.13,-35.67 14.18,-14.29 19.67,-24.5 31.9,-24.5 6.05,26.25 5.13,13.98 5.1,46.42 -0.02,31.12 9.68,62.36 -16.64,54.79 -18.68,-5.38 -39.49,-16.8 -39.49,-41.04zm2120.91 -3479.8l32.49 0c41.06,3.75 84.09,19.95 115.66,32.89 18.83,7.72 59.74,26.31 73.84,40.56 22.33,22.56 22.43,55.06 27.04,87.87 3.82,27.23 14.65,109.16 15.02,137.83 0.44,33.45 15.53,60.16 2.49,93.65 -8.43,21.62 -36.52,35.92 -36.52,57.65 0,17.29 8.66,26.89 18.19,38.36 48.31,58.12 131.14,68.47 196.74,100.31 108.29,52.54 118.72,90.67 160.97,188.04l40.63 99.92c3.59,9.08 6.28,16.57 9.94,26.05 13.13,34 60.05,158.02 60.05,183.45 0,36.18 -51.03,34.13 -51.03,63.61 0,18.41 17.85,69.57 24.01,89.2 24.14,76.86 44.22,155.22 44.03,239.18l1.7 168.49c0,37.83 0,75.65 0,113.47 0,31.28 -5.41,112.16 6.14,136.49 7.51,15.81 34.05,30.28 51.7,30.28 21.87,0 36.32,-22.33 45.59,-36.44 29.27,-44.57 31.3,-56.71 15.87,-103.04 -8.88,-26.67 -12.65,-40.24 4.61,-63.67l30.89 -39.27c3.04,-3.97 4.75,-5.22 8,-9.1 26.79,-32.02 46.91,-54.48 88.33,-67.18 24.01,-7.37 64.81,-2.05 71.64,-30.75 4.26,-17.87 -0.23,-43.85 -5.25,-59.14 -6.8,-20.67 -17.52,-27.11 -27.06,-43.14 -13.07,-21.94 -1.38,-94.44 2.63,-122 2.73,-18.79 6.92,-39.87 11.05,-57.6 10.2,-43.71 19.1,-65.14 50.15,-88.57 19.75,-14.91 67.9,-34.85 101.61,-34.85 19.17,0 37.55,4.64 51.63,11.43 10.56,5.09 26.78,15.89 34.72,23.36 23.2,21.81 35,38.98 47.81,70.3 10.7,26.16 18.12,62.78 24.76,93.61l21.56 95.13c6.31,31.9 12.8,66.16 20.59,97.82 14.56,59.24 37.79,116.96 64.3,170.54 6.82,13.8 35.73,66.34 35.73,80.81 0,9.37 -13.61,18.16 -13.61,37.82 0,20.14 3.41,38.44 5.26,58.3 1.39,15.08 3.49,29.65 5.23,46.29 9.87,94.43 9.13,167.8 -9.22,261.19 -7.88,40.16 -21.69,74.59 -21.69,124.22 0,48.96 12.77,93.39 25.15,137.91 23.72,85.33 47.9,170.67 69.09,256.84l28.84 113.55c1.36,4.6 2.26,9.34 2.81,14.17l0 32.76c-0.72,10.58 -1.71,21.08 -1.71,31.04 -15.96,3.75 -22.39,0.16 -37.36,-0.08l-58.36 3.04c-6.78,0.94 -13.18,0.02 -19.86,0.57 -28.94,2.37 -42.55,-2.71 -42.69,17.02l-9.67 131.22c-1.69,12.95 -1.98,26.64 -3.39,37.82l-7.15 75.3c-1.03,13.46 -2.44,23.8 -3.49,36.02 -1.09,12.8 -10.38,84.19 -7.93,92.15 1.84,5.98 5.7,6.39 10.61,9.93 8.72,6.27 10.88,14.39 10.88,28.54 0,9.82 5.19,58.46 -10.2,58.46l-130.99 0c-11.62,0 -22.11,-7.9 -22.11,-18.92 0,-28.75 5.19,-5.97 -0.95,-48.9 -2.04,-14.25 -5.51,-29.92 -5.91,-43.88 -2,-68.96 -1.65,-138.78 -1.65,-208.09 0,-44.94 2.97,-87.1 3.34,-130.72 0.14,-16 5.37,-24.74 -1.64,-39.48 -15.96,-3.76 -31.93,1.71 -47.63,1.71 -8.62,0 -9.27,-1.71 -18.71,-1.71 -12.68,26.7 -9.39,67.18 -14.33,102.43l-7.73 109.09c0,11.06 -1.85,15.38 -1.78,27.43 0.27,47.43 4.32,125.49 -7.76,167.52 -11.15,38.83 7.79,33.69 7.79,52.57 0,17.31 -5.73,30.95 -27.22,30.95l-192.23 0c-26.98,0 -13.85,-40.26 6.84,-53.26 30.22,-19 42.48,-20.56 61.32,-54.95 17.53,-32 15.19,-51.16 7.65,-85.32 -2.51,-11.37 -4.36,-20.13 -4.36,-33.42 0,-33.56 1.27,-71.18 6.08,-103.88 2.83,-19.15 4.13,-58.99 4.13,-80.08 0,-38.4 3.83,-90.5 -30.23,-112.15 -28.85,-18.33 -78.03,-13.35 -110.97,-13.35 -21.98,0 -59.99,5.64 -69.76,-12.03 -3.99,-7.23 -4.66,-17.66 -6.15,-28.28 -4.1,-29.21 20.06,-61.67 27.36,-108.49 3.48,-22.36 0.83,-41.19 2.71,-64.3 3.21,-39.49 13.61,-73.59 25.66,-109.9l32.7 -102.76c2.89,-9.92 5.42,-17.27 7.9,-26.41 2.46,-9.11 5.82,-17.67 8.14,-26.15 9.67,-35.36 20.9,-70.37 29.62,-105.89l19.05 -82.19c13.06,-61.56 29.94,-147.45 29.94,-206.99 0,-28.68 0.55,-65.47 -5.42,-90.81 -3.26,-13.88 -11.27,-45.96 -26.9,-50.17 -9.19,6.22 -22.54,33.26 -29.01,44.61 -8.72,15.32 -17.42,29.54 -25.98,45.94 -30.18,57.76 -102.65,74.45 -155.97,38.41 -7.02,-4.74 -15.42,-10 -21.69,-15.9 -4.21,-3.96 -14.88,-16.78 -20.81,-16.78 -10.03,0 -10.02,6.13 -18.18,6.08 -16.97,-0.09 -40.42,-10.35 -51.86,-19.55 -17.68,-14.21 -21.87,-40.4 -38.83,-55.3 -10.68,0.89 -17.38,8.01 -23.44,14.13 -9.18,9.26 -7.83,10.83 -9.02,27 -2.53,34.47 -6.65,69.58 -2.07,105.51l25.29 282.19c1.72,12.19 1.31,22.65 2.9,34.89 1.4,10.77 2.11,24.01 3.06,36.45 0.83,10.88 3.1,22.46 3.27,34.53l15.32 195.98c0.96,18.2 -0.13,37 2.68,55.75l2.43 35.37c0.35,6.67 -0.27,13.97 -0.07,20.69 0.25,8.49 1.57,8.6 1.81,17.08 0.19,6.16 -0.39,12.86 -0.06,18.98 1.56,29.33 5.34,60.1 5.12,89.38 -0.18,25.03 3.56,49.62 3.42,73.92l1.76 73.86c3.77,46.01 5.02,101.09 5.02,147.95 0,40.87 -11.91,83.6 -11.91,116.91 0,18.46 18.81,24.84 28.65,41.53 7.81,13.26 10.51,35.78 16.76,51.83 6.85,17.59 14.44,31.02 22.64,47.62 16.79,33.96 10.01,53.02 10.19,87.66 0.13,27.06 -15.63,49.88 -45.92,49.88l-187.12 0c-36.55,0 -45.93,-45.26 -45.93,-75.65 0,-62.71 19.66,-59.31 -1.37,-93.18 -4.17,-6.72 -7.64,-12.01 -11.91,-18.91 -40.84,-66.02 -27.55,-68.56 -27.55,-147.52l-1.79 -51.49c-4.04,-49.76 -10.11,-94.97 -10.11,-146.22 0,-106.24 28.92,-157.07 28.92,-235.54 0,-49.28 -12.68,-82.29 -26.58,-124.44 -4.38,-13.26 -7.45,-24.36 -11.89,-37.84l-73.59 -228.22c-18.99,-57.59 -44.51,-131.87 -61.46,-188.9 -1.71,-5.74 -8.74,-34.38 -15.31,-34.38 -9.79,0 -21.63,6.63 -26.16,14.82 -7.13,12.91 -3.14,15.36 -2.7,29.82 0.19,6.16 -0.39,12.86 -0.06,18.98 0.4,7.65 1.66,8.25 1.77,17.12 0.26,20.99 0.51,95.36 2.35,107.65 3.41,22.74 0.99,49.21 0.99,72.94 0,48.44 -5.39,101.22 -22.68,138.69 -16.67,36.16 -32.64,56.61 -38.14,98.99 -3.67,28.3 -2.06,71.55 -2.13,101.01 -0.03,13.5 1.75,21 1.76,32.61 0.04,22.93 -0.05,45.89 -0.05,68.83 -0.01,88.77 6.8,179.22 6.8,268.2 0,22.61 -0.72,46.38 -0.05,68.83 0.57,19.57 4.06,45.84 1.29,66.53 -6.57,49 -8.64,61.03 -33.9,103.28 -38.6,64.55 -9.87,52.91 -9.87,82.87l0 55.01c0,26.37 -25.59,39.55 -49.33,39.55l-250.06 0c-21.99,0 -36.91,-5.78 -49.38,-15.43 -40.88,-31.68 -25.06,-93.44 15.4,-116.91 5.59,-3.24 12.36,-6.5 18.79,-8.51 6.98,-2.19 14.12,-2.16 21.81,-3.75 47.95,-9.94 34.07,-63.71 76.36,-108.51 17.62,-18.67 0.37,-38.26 0.37,-68.4 0,-37.37 54.44,-25.45 54.44,-53.29 0,-23.54 -9.82,-48.61 -13.14,-70.97 -2.51,-16.93 -1.84,-17.88 -9.31,-30.14 -11.25,-18.47 -9.98,-46.26 -11.69,-68.99l-7.67 -110.87c-1.57,-10.5 -2.31,-28.33 -2.38,-38.86l-17.1 -259.52c-0.73,-30.47 -4.25,-64.28 -6.67,-94.7l-10.39 -166.58c-4.08,-53.07 -13.81,-126 -23.56,-175.62 -4.43,-22.54 -7.97,-43.27 -11.35,-67.62 -3.2,-23.03 -5.82,-48.44 -5.82,-73.2 0,-81.86 8.3,-105.4 20.88,-178.33 2.82,-16.35 10.4,-79.86 9.83,-96.77 -0.29,-8.67 -1.75,-9.54 -1.86,-18.83 -0.19,-15.61 -0.65,-25.1 -1.76,-39.48 -1.99,-25.81 -5.4,-52.69 -8.23,-77.64 -1.48,-13.01 -3.48,-25.8 -4.94,-37.99l-19.08 -169.84c-1.7,-57.58 8.56,-111.64 8.56,-168.54 0,-60.22 -11.91,-86.65 -11.91,-111.76 0,-8.03 2,-6.8 0,-15.47 -23.64,1.99 -32.04,49.86 -37.64,66.83 -45.49,137.99 -78.23,287.51 -164.52,406.24 -27.02,37.17 -44.5,51.84 -44.5,109.76 0,97.23 36.15,74.64 46.98,145.08 1.86,12.12 1.44,17.95 4.04,28.59 2.95,12.08 8.12,25.13 1.1,37.18 -5.35,9.2 -15.03,15.07 -23.92,20.53 -24.9,15.29 -38.63,37.71 -65.03,51.18 -21.51,10.98 -51.37,25.47 -70.18,0.97 -5.72,-7.45 -9.22,-17.48 -10.23,-29.21 -4.93,-57.12 -12.24,-74.47 -38.93,-118.83 -29.73,-49.4 -31.68,-100.21 -77.12,-161.04 -19.29,-25.83 -26.48,-29.98 -44.99,-49.08 -10.27,-10.6 -19.28,-22.55 -26.8,-36.53 -25.14,-46.74 -56.97,-148.34 -74.91,-202.82l-48.03 -149.17c-3.52,-10.72 -6.26,-18.9 -9.8,-29.63 -3.47,-10.5 -6.1,-20.25 -9.36,-30.08 -6.64,-20 -14.07,-38.93 -18.92,-59.97l-5.1 0c0,17.57 -6.7,31.85 -9.5,48.85 -11.83,71.79 6.41,190 26.71,258.69 4.4,14.9 7.94,30.15 12.42,45.9l27.99 88.63c13.36,40.54 11.93,32.66 5.99,70.95 -9.66,62.18 17.01,119.12 35.69,175.76l159.05 490.86c30.55,92.5 41.85,126.32 52.76,225.31 0.68,6.2 -0.88,15.55 -2.21,21.34 -1.43,6.26 -4.18,10.62 -7.48,14.78 -24.17,30.48 -179.55,52.48 -217.34,58.87 -11.54,1.95 -30.03,3.92 -38.15,7.86 -2.46,10.64 9.34,79.35 11.39,95.07 23.22,178.03 -15.07,279.77 -47.55,446.06l-36 176.8c-9.23,46.62 -17.66,92.97 -4.21,139.8 3.89,13.55 7.37,27.15 15.09,38.04 4.29,6.05 7.35,9.01 14.7,12.65 8.22,4.06 12.22,3.39 19.61,5.97 22.21,7.77 32.17,74.19 -12.16,74.19l-461 0c-9.55,0 -18.71,-11.37 -18.71,-20.63 0,-45.49 5.52,-72.17 24.5,-100.75 34.82,-52.45 31.68,-106.09 19.87,-165.89 -9.27,-46.96 -17.83,-119.6 -20.51,-168.39l-22.31 -242.22c-10.65,-91.79 -4.25,-125.69 7.47,-214.53 10.66,-80.78 15.48,-59.2 -44.66,-64.23l-42.62 -3.34c-25.92,-1.27 -111.3,-3.67 -129.78,-8.1 -9.9,-2.37 -12.94,-7.17 -14.39,-16.39 -4.63,-29.25 -3.71,-70 6.36,-95.89 2.7,-6.95 5.12,-11.93 9.3,-18.11 13.54,-19.96 10.24,-45.91 13.58,-68.8 8.99,-61.67 27.72,-120.88 39.66,-181.7 5.12,-26.06 21.99,-70.06 -19.99,-70.06 -19.85,0 -26.14,7.09 -36.69,21.37 -7.87,10.64 -14.14,18.94 -21.46,29.88 -13.1,19.58 -29.59,38.53 -46.01,54.95 -4.75,4.76 -8.52,7.17 -13.64,12 -26.55,24.98 -60.55,44.57 -93.1,60.64 -90.73,44.8 -79.24,15.58 -81.63,96.3 -0.27,9.14 -1.84,12.94 -1.78,23.99l-2.92 124.28c-1.8,13.34 -0.46,36.65 -0.46,51.11l-1.72 48.11c0.77,136.34 -4.13,269.14 -3.36,405.8 0.06,11.05 -1.51,14.84 -1.78,23.99l0.07 77.43c0.08,16.81 -1.72,31.12 -1.72,49.85 0.01,33.23 -3.54,65.07 -3.39,98 0.18,43.22 -14.45,41.26 -47.47,55.18 -5.8,2.45 -10.75,6.46 -13.75,11.89 -13.84,25.03 0.22,61.52 17.45,82.03 13.03,15.51 30.12,21.41 50.46,22.93 22.48,1.68 55.84,28.36 64.83,46.23 4.31,8.58 18.34,43.07 -3.48,43.07l-425.28 0c-6.72,0 -9.06,-15.89 -8.14,-23.55 1.09,-9.08 3.04,-16.31 3.04,-28.03 0,-80.68 -49.34,-150.52 -49.34,-232.1 0,-25.65 4.29,-48.87 13.04,-67.63 23.9,-51.21 6.78,-125.67 0.87,-180.25l-12.48 -118.05c-9.02,-87.27 -1.43,-177.4 -1.43,-265.04l0 -89.41c0,-50.74 -32.26,-0.59 -90.17,-42.96l-26.19 -23.39c-2.9,-2.93 -4.41,-5.01 -7.39,-8.01 -11.98,-12.04 -48.06,-61.6 -48.06,-82.09 0,-38.97 28.95,-86.14 45.93,-120.35 8.38,-16.88 16.23,-35.63 23.86,-53.25 3.78,-8.71 7.19,-17.16 11.29,-26.42 11.23,-25.41 17.62,-59.03 39.64,-75.13 10.51,-7.68 16.31,-6.6 29.39,-9.83 10.43,-2.57 18.19,-6.97 25.14,-12.41 4.5,-3.53 6.03,-5.86 11.13,-9.39 45.65,-31.61 85.8,-8.15 85.8,-45.67 0,-12.57 -6.79,-24.61 -14.04,-30.51 -4.55,-3.69 -8.91,-4.98 -14.33,-7.87 -14.54,-7.77 -24.18,-18.22 -35,-29.96 -6.74,-7.31 -12.85,-15.81 -17.73,-25.06 -5.66,-10.72 -9.03,-19.18 -13.69,-30.87 -4.64,-11.64 -6.39,-20.03 -10.08,-32.79 -12.95,-44.87 -26.73,-107.84 10,-145.14 12.59,-12.79 30.74,-33.27 43.84,-43.37 7.72,-5.96 15.44,-14.18 23.57,-20.88 7.89,-6.49 15.95,-12.85 24.06,-18.66 12.31,-8.82 40.84,-24.08 61.24,-24.08 45.85,0 90.45,25.11 124.91,52.56 4.56,3.63 8.09,6.19 12.38,9.84l22.78 21.68c0.24,0.25 0.6,0.62 0.83,0.88l7.08 8.31c12.1,13.61 20.84,36.3 20.84,61.47 0,35.99 -0.81,74.66 -5.78,109.34 -10.37,72.36 -16.14,53.65 -48.39,74.89 -40.14,26.46 -4,84.55 30.1,96.26 20.05,6.88 47.67,-0.51 86.06,16.19 13.51,5.87 26.11,14.6 37.09,24.41 22.7,20.27 43.72,48.55 80.16,30.27 18.16,-9.1 32.68,-23.24 46.59,-37.16 64.46,-64.57 22.71,-77.23 50.39,-155.39 3.29,-9.29 9.57,-22.11 6.59,-31.88 -4.57,-14.97 -29.52,-25.94 -38.48,-43.77 -7.97,-15.86 -7.28,-35.61 -7.82,-53.99 -0.26,-8.65 -1.71,-9.52 -1.83,-18.79l3.57 -79.06c1.81,-23.52 5.96,-51.39 9.65,-72.77 14.53,-84.13 13.89,-149.01 14.01,-235.13 0.02,-9.45 1.35,-11.06 1.77,-18.84 0.34,-6.46 -0.01,-14.06 -0.01,-20.64l1.64 -80.87c0.02,-9.44 1.36,-11.06 1.77,-18.84 0.36,-6.62 -0.16,-14.01 -0.07,-20.71 0.23,-19.44 4.95,-50.57 5.12,-77.35 0.11,-17.15 8.39,-91.04 10.13,-113.55 4.84,-63 14.9,-124.69 20.69,-187.11 5.26,-56.62 13.93,-87.24 48.91,-115.63 40.83,-33.14 101.11,-33.16 146.05,-58.7 50.11,-28.48 44.87,-70.81 44.8,-123.32 -0.02,-19.88 -3.58,-36.54 -3.5,-56.64 0.05,-11.33 1.02,-28.51 -0.42,-39.11 -2.14,-15.73 0.5,-21.43 0.52,-36.52 0.02,-13.76 0,-27.57 -0.07,-41.33 -0.07,-14.53 1.75,-22.61 1.72,-37.81l1.75 -37.77c0.38,-12.78 -1.21,-26.63 0.39,-39.15 5.79,-45.41 27.77,-72.62 60.78,-98.46 15.11,-11.84 29.79,-23.49 45.94,-34.37 29.75,-20.04 46.74,-29.27 81.62,-20.6 5.86,1.46 12.42,2.34 18.75,3.4 13.5,2.26 22.51,3.61 34.68,7.93 51.73,18.38 81.35,61.88 103.09,110.72l12.44 30.42c20.76,54.05 35.86,110.29 45.88,168.53 1.81,10.53 4.01,24.93 6.67,36.24 9.95,42.34 19.08,84.85 9.23,128.62 -5.48,24.29 -13.22,41.17 7.82,62.18 10.08,10.07 13.9,8.4 28.37,12.59 11.09,3.22 22.33,6.12 32.72,9.91 10.27,3.75 19.13,7.4 29.19,11.76 9.42,4.07 19.42,9.47 27.68,15.01 8.86,5.94 14.31,12.1 21.61,19.42 22.66,22.7 54.37,108.69 66.55,144.21l43.36 124.67c3.5,10.66 6.89,20.11 10.63,30.52 30.28,84.4 63.88,200.47 89.36,289.64 3.32,11.63 6.14,20.71 9.09,32.08 7.36,28.42 18.42,72.47 28.18,98.74 9.28,25 22.06,46.34 35.47,69.03 2.99,5.06 5.15,8.07 9.5,11.02 10.81,-2.92 11.71,-13.34 14.05,-25.35l18.99 -94.27c18.46,-83.85 34.17,-168.17 53.72,-251.74 4.95,-21.16 9.62,-41.04 14.33,-62.89 8.39,-38.98 6.34,-35.64 33.3,-41.99 -6.12,-26.55 -39.14,-19.22 -17.7,-114.17 1.96,-8.68 4.01,-14.28 6.13,-23.03 10.03,-41.22 24.24,-91.19 38.78,-131.01 2.45,-6.71 4.6,-13.63 7.03,-20.41 19.37,-53.98 38.18,-109.58 63.83,-160.7 19.6,-39.05 48.13,-63.03 90.03,-79.22 20.23,-7.82 107.69,-37.21 121.57,-47.35 15.54,-11.34 25.83,-38.25 13.54,-56.8 -14.7,0 -30.32,1.29 -37.06,-7.24 -8.82,-11.15 3.06,-35.97 -7.23,-54.59 -11.2,-20.29 -5.35,1.01 -12.23,-28.9 -5.42,-23.58 -37.04,-53.37 -37.04,-65.72 0,-31.64 25.52,-22.69 25.52,-51.58 0,-22.8 -6.28,-44.73 -10.63,-66.62 -1.81,-9.06 -4.52,-22.78 -5.91,-31.86 -1.44,-9.42 -3.68,-25.13 -3.88,-33.9 -7.44,5.51 -2.04,9.37 -11.9,12.03 -6.06,-9.15 -3.17,-8.63 -1.97,-19.15 0.87,-7.62 0.52,-14.84 1.43,-20.93 3.96,-26.47 8.82,-47.05 32.28,-60.22 28,-15.7 44.31,-4.08 111.81,-50.32 13.73,-9.41 29.63,-14.36 46.6,-16.15zm-1088.34 2609.85c13.14,0 18.71,53.57 18.71,70.49 0,31.63 -9.19,120.43 -11.8,154.84 -4.65,61.18 -6.87,150.05 7.71,208.62 11.93,47.93 12.79,48.07 12.56,105.94 -0.05,13.11 1.75,22.79 1.74,37.79 -0.01,22 0.92,98.04 -1.24,113.94l-2.17 45.94c-2.58,48.84 -2.99,75.62 -24.92,119.23 -11.82,23.53 -30.82,52.72 -45.79,74.07 -3.44,4.92 -5.54,11.3 -12.64,11.3 -19.54,0 -46.04,-21.31 -55.2,-33.61 -32.96,-44.26 -38.36,-172.62 -38.36,-231.16 0,-100.17 16.34,-221.45 30.52,-321.6 8.16,-57.58 12.01,-112.89 12.01,-171.83 0,-39.56 -2.91,-75.53 -3.33,-111.82 -0.16,-13.75 -4.6,-40.09 -4.44,-53.42 0.09,-8.02 1.45,-7.5 9.03,-8.85l107.61 -9.87zm2463.21 -661.92c14.84,0 9.37,104.11 8.59,113.57 -0.62,7.58 0.2,16.32 -0.03,24.03 -0.26,8.95 -1.76,11.72 -1.76,22.3 -3.26,-1.2 -3.09,-1.24 -6.57,-7.12 -21.4,-36.12 -37.16,-76.4 -23.25,-119.31 4.02,-12.4 8.57,-33.47 23.02,-33.47zm-2837.45 -558.76c0,62.21 -2.03,120.45 -27.24,177.07 -38.31,86.05 -11.89,115.96 -11.89,206.33 0,52.86 -10.63,143.2 -21.12,197 -2.5,12.84 -1.44,15.98 -9.5,23.06 -41.53,-9.77 -52.73,-97.04 -52.73,-135.82 0,-33.22 36.19,-284.2 41.52,-320.79l11.46 -79.54c7.69,-45.02 14.13,-109.1 22.37,-159.64 1.92,-11.82 8.9,-74.44 16.51,-74.44 31.95,0 30.62,119.85 30.62,142.7 0,6.78 -1.21,7.85 -1.21,12.04 0,4.18 1.21,5.26 1.21,12.03zm1992 -154.73c0,61.21 25.88,115.95 44.02,170.42 27.28,81.97 52.94,227.33 52.94,307.53 0,12.28 -4.9,30.05 -9.05,39 -13.09,28.21 -22.35,37.17 -48.4,10.47 -7.21,-7.39 -11.96,-16.23 -17.05,-25.75 -23.32,-43.56 -24.58,-90.38 -31.48,-138.39l-24.29 -231.62c-2.6,-17.39 -1.61,-102.49 -4.84,-124.06 -1.85,-12.36 -0.98,-47.94 -0.98,-64.34 0,-5.24 1.64,-6.94 3.4,-10.31 13.06,3.07 32.37,22.53 36.27,42.47 2.16,11.01 -0.54,12.87 -0.54,24.58z"/>
 </g>
</svg>
