<?xml version="1.0" encoding="UTF-8"?>
<!DOCTYPE svg PUBLIC "-//W3C//DTD SVG 1.1//EN" "http://www.w3.org/Graphics/SVG/1.1/DTD/svg11.dtd">
<!-- Creator: CorelDRAW 2019 (64-Bit) -->
<svg xmlns="http://www.w3.org/2000/svg" xml:space="preserve" width="84.6666mm" height="84.6666mm" version="1.1" style="shape-rendering:geometricPrecision; text-rendering:geometricPrecision; image-rendering:optimizeQuality; fill-rule:evenodd; clip-rule:evenodd"
viewBox="0 0 8466.66 8466.66"
 xmlns:xlink="http://www.w3.org/1999/xlink">
 <defs>
  <style type="text/css">
   <![CDATA[
    .str0 {stroke:#FEFEFE;stroke-width:105.83;stroke-linecap:round;stroke-linejoin:round;stroke-miterlimit:22.9256}
    .fil0 {fill:none}
    .fil1 {fill:#FEFEFE;fill-rule:nonzero}
   ]]>
  </style>
 </defs>
 <g id="Layer_x0020_1">
  <metadata id="CorelCorpID_0Corel-Layer"/>
  <rect class="fil0" x="-0.01" y="-0.02" width="8466.67" height="8466.67"/>
  <path class="fil1" d="M3418.06 3801.16c0,-10.53 -5.26,-15.8 -15.39,-15.8l-172.16 0c-10.12,0 -15.39,5.27 -15.39,15.8l0 1039.42c0,10.12 5.27,15.39 15.39,15.39l172.16 0c10.13,0 15.39,-5.27 15.39,-15.39l0 -643.26c7.29,-57.93 32.41,-106.13 76.15,-144.61 43.35,-39.69 94.39,-59.54 153.12,-59.54 10.94,0 21.47,0.81 32,2.42 9.32,1.62 15.4,-2.42 17.83,-11.74l34.43 -166.48c1.21,-10.13 -2.84,-16.21 -13.37,-17.42 -22.68,-4.05 -46.58,-6.08 -70.89,-6.08 -82.63,0 -158.79,22.28 -229.27,66.43l0 -59.14zm1169.04 615.71l-1.22 12.96 -1.21 17.82 0 6.08 0 3.65 -1.22 3.24c-0.41,5.67 -1.62,12.96 -3.24,21.47 -4.86,19.04 -11.34,36.86 -19.04,53.47 -11.34,23.09 -25.52,42.94 -42.94,60.35 -44.15,46.99 -98.83,71.29 -163.64,73.73l-6.08 0 -5.67 0 -15.39 -1.22 -10.94 0 -5.67 -1.22 -7.29 -1.21c-16.61,-3.24 -33.22,-7.7 -49.83,-14.18 -32.4,-13.37 -60.76,-33.62 -85.47,-60.36 -23.89,-27.14 -40.5,-57.51 -49.82,-91.54 -4.86,-16.61 -8.1,-33.62 -9.32,-51.04 0,-5.67 0,-14.99 0,-28.36l0 -16.6 0 -17.82c0,-20.66 0,-43.75 0,-68.87l0 -33.21 0.81 -32c0,-52.26 0,-92.36 0,-119.9 0.81,-99.65 1.22,-182.29 1.22,-247.91l1.21 -84.25c0,-11.35 -4.86,-16.61 -15.39,-16.61l-169.72 0c-10.13,0 -15.39,5.26 -15.39,16.61l0 84.25c0,65.62 0.4,148.26 1.21,247.91 0,15.79 0,34.83 0,56.7l1.22 31.2 0 32c0,54.68 0,99.24 0,134.08l0 16.6 0 17.82c0.81,14.99 1.62,29.17 2.43,42.54 2.42,31.59 7.69,62.78 16.6,92.76 19.04,60.76 50.64,115.45 94.79,163.65 44.56,48.2 96.41,83.85 155.55,106.94 29.16,10.94 59.54,19.44 90.33,24.71l10.53 1.21 11.74 1.22 12.16 1.21 12.96 1.22 17.83 0 6.07 0 2.02 0 6.08 0 10.54 -1.22c57.92,-3.24 113.01,-17.82 165.26,-43.74 19.04,-9.73 38.08,-21.47 57.93,-35.65l0 56.71c0,10.53 5.26,15.39 15.39,15.39l172.15 0c10.13,0 15.4,-4.86 15.4,-15.39l0 -1039.41c0,-10.13 -5.27,-15.39 -15.4,-15.39l-172.15 0c-10.13,0 -15.39,5.26 -15.39,15.39l0 624.21zm1084.77 238.58c-90.32,0 -167.7,-31.59 -232.5,-94.78 -64,-63.6 -97.22,-140.16 -99.65,-230.49l0 -15.39c2.43,-90.33 35.65,-166.89 99.65,-230.08 64.8,-63.6 142.18,-95.19 232.5,-95.19 91.96,0 170.54,32.4 236.16,97.63 64.82,65.62 97.22,144.2 97.22,236.15 0,91.55 -32.4,169.72 -97.22,234.94 -65.62,64.81 -144.2,97.21 -236.16,97.21zm22.69 -865.23c-132.86,-5.67 -251.14,33.22 -354.84,116.26l0 -738.04c0,-10.12 -5.26,-15.39 -15.39,-15.39l-172.16 0c-10.53,0 -15.39,5.27 -15.39,15.39l0 1668.49c0,10.12 4.86,15.39 15.39,15.39l172.16 0c10.13,0 15.39,-5.27 15.39,-15.39l0 -98.43c97.21,78.18 207.8,117.47 332.15,117.47 153.53,0 282.74,-56.31 388.06,-168.51 49.83,-52.26 87.5,-112.21 112.61,-180.26 26.33,-70.48 36.86,-143.8 32.01,-219.55 -8.51,-134.48 -61.98,-249.92 -160.01,-345.52 -98.02,-95.6 -214.68,-146.23 -349.98,-151.91zm854.29 0c-10.13,0 -15.39,5.27 -15.39,15.4l0 1034.96c0,10.12 5.26,15.39 15.39,15.39l168.51 0c10.53,0 15.8,-5.27 15.8,-15.39l0 -1034.96c0,-10.13 -5.27,-15.4 -15.8,-15.4l-168.51 0zm84.26 -195.65c32,0 58.73,-11.34 81.01,-33.21 21.88,-23.09 33.22,-50.23 33.22,-81.83 0,-31.99 -11.34,-58.73 -33.22,-81.01 -22.28,-21.87 -49.01,-33.21 -81.01,-33.21 -31.6,0 -58.33,11.34 -80.61,33.21 -22.68,22.28 -34.43,49.02 -34.43,81.01 0,31.6 11.75,58.74 34.43,81.83 22.28,21.87 49.01,33.21 80.61,33.21zm715.76 1054.81c-29.98,-14.99 -44.97,-47.39 -44.97,-97.21l0 -565.89 162.44 0c10.12,0 15.39,-5.27 15.39,-15.79l0 -168.52c0,-10.12 -5.27,-15.39 -15.39,-15.39l-162.44 0 0 -224c0,-10.54 -5.26,-15.4 -15.8,-15.4l-169.72 0c-10.13,0 -15.39,4.86 -15.39,15.4l1.21 224 -162.43 0c-10.12,0 -15.39,5.27 -15.39,15.39l0 168.52c0,10.52 5.27,15.79 15.39,15.79l162.43 0 0 565.89c0,61.56 13.78,117.06 40.51,166.07 27.54,49.02 65.62,85.47 113.83,109.37 38.07,19.04 78.17,28.36 119.9,28.36 61.57,0 120.7,-19.44 177.01,-58.34 9.32,-5.26 10.54,-12.55 3.24,-21.06l-100.86 -135.29c-5.27,-8.1 -12.15,-9.72 -19.85,-4.86 -34.03,21.47 -64,25.52 -89.11,12.96zm495.8 -859.16c-10.13,0 -15.39,5.27 -15.39,15.4l0 1034.96c0,10.12 5.26,15.39 15.39,15.39l168.51 0c10.53,0 15.8,-5.27 15.8,-15.39l0 -1034.96c0,-10.13 -5.27,-15.4 -15.8,-15.4l-168.51 0zm84.26 -195.65c32,0 58.73,-11.34 81.01,-33.21 21.88,-23.09 33.22,-50.23 33.22,-81.83 0,-31.99 -11.34,-58.73 -33.22,-81.01 -22.28,-21.87 -49.01,-33.21 -81.01,-33.21 -31.6,0 -58.33,11.34 -80.61,33.21 -22.68,22.28 -34.43,49.02 -34.43,81.01 0,31.6 11.75,58.74 34.43,81.83 22.28,21.87 49.01,33.21 80.61,33.21z"/>
  <path class="fil0 str0" d="M1606.75 4060.58c361.98,0 655.42,290.58 655.42,649.02 0,358.45 -293.44,649.04 -655.42,649.04 -361.99,0 -655.43,-290.59 -655.43,-649.04 0,-358.44 293.44,-649.02 655.43,-649.02zm22.38 -1020.67c666.04,0 1205.96,534.66 1205.96,1194.2 0,659.55 -539.92,1194.21 -1205.96,1194.21 -666.04,0 -1205.97,-534.66 -1205.97,-1194.21 0,-659.54 539.93,-1194.2 1205.97,-1194.2z"/>
  <path class="fil1" d="M1749.8 3535.76c0,-16.39 -8.2,-24.59 -23.94,-24.59l-267.8 0c-15.76,0 -23.96,8.2 -23.96,24.59l0 1616.87c0,15.75 8.2,23.95 23.96,23.95l267.8 0c15.74,0 23.94,-8.2 23.94,-23.95l0 -1000.63c11.34,-90.1 50.4,-165.09 118.46,-224.94 67.42,-61.76 146.82,-92.63 238.18,-92.63 17.02,0 33.4,1.26 49.79,3.78 14.48,2.52 23.94,-3.78 27.71,-18.28l53.57 -258.97c1.88,-15.76 -4.41,-25.2 -20.8,-27.1 -35.28,-6.3 -72.46,-9.44 -110.27,-9.44 -128.54,0 -247,34.65 -356.64,103.33l0 -91.99z"/>
 </g>
</svg>
