<?xml version="1.0" encoding="UTF-8"?>
<!DOCTYPE svg PUBLIC "-//W3C//DTD SVG 1.1//EN" "http://www.w3.org/Graphics/SVG/1.1/DTD/svg11.dtd">
<!-- Creator: CorelDRAW 2019 (64-Bit) -->
<svg xmlns="http://www.w3.org/2000/svg" xml:space="preserve" width="84.6666mm" height="84.6666mm" version="1.1" style="shape-rendering:geometricPrecision; text-rendering:geometricPrecision; image-rendering:optimizeQuality; fill-rule:evenodd; clip-rule:evenodd"
viewBox="0 0 8466.66 8466.66"
 xmlns:xlink="http://www.w3.org/1999/xlink">
 <defs>
  <style type="text/css">
   <![CDATA[
    .fil0 {fill:none}
    .fil1 {fill:white}
   ]]>
  </style>
 </defs>
 <g id="Layer_x0020_1">
  <metadata id="CorelCorpID_0Corel-Layer"/>
  <rect class="fil0" x="-0.01" y="-0.02" width="8466.67" height="8466.67"/>
  <path class="fil1" d="M1979.03 4611.98c0,-50.33 6.42,-225.38 51.41,-247.87 40.37,-20.19 204.01,61.98 216.91,64.99 0,68.79 -41.8,205.82 -72.77,266.86 -14.19,27.97 -19.38,23.51 -54.44,28.7 -29.56,4.38 -114.34,-8.54 -131.7,-36.59 -7.68,-12.41 -9.41,-54.47 -9.41,-76.09zm598.37 -501.15l0 0zm170.96 -194.76l0 0zm0 0c-11.07,-0.25 -80.23,-17.62 -97.53,-21.2 -48.62,-10.07 -103.85,-20.75 -153.96,-26.5l-54.46 -4.91c-31.06,-3.34 -54.27,-2.95 -85.67,0.53 -9.54,1.06 -17.21,3.82 -26.29,4.58 2.54,9.52 17.72,17.3 30.3,29.07l97.36 87.87c24.46,22.63 33.84,35.97 61.65,59.47 6.87,5.81 7.86,9.97 14.25,16.61l29.85 31.9c7.32,8.62 7.82,6.53 13.54,17.34 -19.84,-1.65 -107.4,-35.04 -135.34,-42.76 -41.07,-11.36 -140.09,-43.79 -183.06,-43.12 -15.41,0.23 -12.85,10.68 -13.96,31.32 -3.04,56.66 -9.57,114.56 -9.57,170.94 0,30.09 0,60.17 0,90.25 -9.72,-0.8 -130.63,-50.08 -204.4,-56.79 -52.07,-4.74 -70.65,-2.37 -90.07,35.38 -11.42,22.21 -20.33,47.23 -26.6,73.14 -1.89,7.81 -3.17,19.49 -6.6,26.65 -18.08,-4.21 -42.18,-5.69 -62.74,-8.49 -109.92,-14.99 -215.85,-23.34 -325.98,-37.33 -42.25,-5.37 -88.12,-8.56 -132.28,-14.94 -63.54,-9.19 -119.96,19.95 -162.11,54.38l-40.55 33.07c-18.84,16.78 -39.88,31.48 -53.51,53.47 -17.77,28.68 43.55,75.06 90.95,86.1 11.78,-7.89 15.95,-16.95 25.48,-26.76 26.79,-27.59 49.97,-57.02 77.15,-84.33 20.07,-20.17 46.68,-23.74 82.94,-19.9l244.87 21.07c17.49,2.27 32.92,1.93 50.21,4.41l196.07 17.63c0,19.74 -2.47,33.18 -2.45,49.8 0.04,49 -8.44,106.14 -1.3,153.46 4.56,30.2 -1.56,61.27 20.92,83.58 51.35,50.97 213.76,60.12 257.59,37.88 22.77,-11.56 43.01,-75.22 54.62,-102.12 4.02,-9.32 14.11,-30.04 14.92,-39.71l4.75 0c3.8,16.34 31.1,62.15 40.36,76l37.51 50.53c8.18,9.73 2.47,35.34 -0.91,47.83 -5.02,18.58 -24.8,18.44 -61.18,29.06 -26.97,7.87 -66.93,19.84 -98.89,19.84 -3.88,16.67 0.81,42.94 2.37,61.75 -6.89,1.84 -41.66,43.33 -136.77,15.68 -35.26,-10.25 -68.04,-31.32 -92.94,-56.67 -5.59,-5.69 -4.63,-6.79 -12.48,-8.89 4.37,16.36 26.16,35.62 36.96,48.54 27.53,32.95 84.35,65.47 131.63,65.47 7.65,14.46 24.7,38.36 28.49,54.63 -9.44,6.32 -12.62,11.39 -25.25,17.49 -17.39,8.4 -17.65,0.85 -25.35,19.78 -21.53,52.98 -45.55,106.49 -65.39,160.22 -3.82,10.32 -7.91,23.87 -12.23,32.89 -59.74,0 -127.42,25.79 -183.36,10.03 -18.63,-5.24 -35.01,-11.18 -52.02,-16.85 -50.29,-16.76 -101.11,-37.1 -149.63,-56.96 -12.95,-5.3 -37.44,-20.72 -49.52,-21.72l49.53 138.09c17.35,43.44 35.65,89.34 57.32,130.3l633.98 0c180.11,0 277.27,-6.12 416.58,-110.58 101.86,-76.38 178.63,-217.22 188.71,-343.27 6.62,-82.67 2.58,-321.28 2.58,-420.2l0 -1056.92c0,-35.71 1.06,-71.23 -3.36,-103.52 -4.64,-33.87 -9.21,-59.99 -18.29,-88.59 -16.47,-51.83 -39.31,-97.48 -69.05,-142.31l-34.44 -43.94c-95.12,-112.5 -232.81,-172.67 -383,-172.67l-1481.66 0c-121.82,-0.07 -220.87,44.47 -310.06,115.01 -40.36,31.92 -71.67,69.47 -99.77,111.58 -69.86,104.65 -84.06,208.35 -84.06,341.06l0 1268.31c0,69.09 -2.69,143.85 5.45,205.94 10.57,80.69 40.76,163.35 89.86,228.38 38.07,50.43 81.66,93.67 134.53,129.07 21.56,14.44 46.13,26.24 69.34,37.52 66.57,32.35 144.82,45.22 220.82,45.13 29.84,-0.04 79.83,3.13 107.1,0.24 11.33,-1.2 9.87,-3.48 9.56,-16.76 -0.28,-11.93 -2.13,-13.51 -2.69,-23.85 -0.89,-16.36 0.01,-35.58 0.01,-52.26 0,-35.86 -2.47,-66.67 -2.32,-104.56l-7.1 -230.41c-0.35,-11.72 -2.18,-11.87 -2.53,-23.6 -2.58,-86.37 8.36,-55.1 -24.69,-134.44l-111.24 -259.25c-21.37,-49.85 -39.69,-99.97 -61.88,-149.48 -39.17,-87.37 -100.31,-253.22 -131.27,-346.09 -16.69,-50.07 -42.03,-115.24 -41.37,-170.21 0.76,-63.24 79.3,-187.51 119.79,-248.34l43.79 -63.08c13.83,-19.04 9.6,-13.15 32.61,-22.01 73.29,-28.21 317.84,-107.13 399.91,-129.62l163.32 -48.02c167.61,-47.08 338.07,-92.44 509.64,-126.76 73.91,-14.79 149.77,-28.29 227.34,-36.23 42.57,-4.37 84.78,-5.27 127.93,-5.21 13.01,0.02 15.77,2.23 26.03,2.46 -2.51,9.41 -39.87,40.24 -49.3,50.44l-98.51 100.97c-11.6,11.61 -42.99,38.22 -46.89,52.84 41.56,0.93 156.42,50.19 193.01,65.82 56.96,24.32 115.18,59.95 165.52,95.7 56.68,40.26 109.34,84.82 157.37,134.73l74.88 88.98c6.84,10.07 23.78,29.46 26.58,39.92zm4765.55 -467.9l-102.11 0 0 -175.76 116.35 0c92.05,0 83.11,59.01 83.11,109.26 0,18.54 -17.6,43.63 -30.03,50.72 -18.36,10.46 -39.53,15.78 -67.32,15.78zm-439.28 -323.01l0 902.54c0,17.1 17.26,30.88 35.62,30.88l270.69 0c12.28,0 30.86,-12.32 30.86,-33.25l0 -327.77c53.17,0 38.32,-8.86 64.91,44.34l48.28 94.21c8.57,17.18 16.28,32.58 24.53,49.08l72.02 141.72c9.77,19.72 13.12,31.67 41.96,31.67l289.68 0c24.11,0 30.87,-12.52 30.87,-30.88 0,-8.83 -17.32,-40.12 -22.15,-49.1 -4.71,-8.75 -7.98,-13.46 -12.68,-22.94l-125.87 -237.49c-5.96,-11.92 -35.77,-65.47 -36.38,-72.86 26.13,-6.09 73.8,-48.16 91.91,-69.57 71.28,-84.24 80.78,-212.36 61.79,-321.68 -23,-132.37 -116.28,-211.76 -245.33,-241.51 -96.48,-22.23 -157.63,-20.4 -255.04,-20.4l-236.8 12.53c-82.82,10.56 -128.87,16.26 -128.87,120.48zm-904.67 1118.68l0 1168.55c0,23.4 12.71,42.76 35.62,42.76l223.2 0c9.79,0 18.15,-6.9 23.3,-12.32 16.4,-17.25 9.94,-71.91 9.94,-104.06l0 -451.28c5.67,4.16 39.14,61.06 45.22,71.15l291.45 473.26c7.57,12.22 17.1,23.25 36.12,23.25l292.06 0c54.26,0 -1.45,-63.93 -23.75,-97.38l-206.1 -309.24c-17.46,-26.2 -33.36,-51.25 -50.81,-77.43 -34.88,-52.34 -69.27,-102.98 -104,-154.86l26.11 -35.63c4.41,-6.69 7.98,-11 12.85,-18.03l193.24 -274.6c8.53,-12.81 17.03,-22.97 25.67,-36.07l77.42 -110.2c11.56,-17.26 73.11,-98.74 73.11,-114.5 0,-7.13 -4.23,-13.87 -9.4,-16.72 -4.92,-2.7 -15.59,-4.66 -23.84,-4.66l-246.94 0c-37.7,0 -43.69,21.61 -65.07,53.68 -39.23,58.87 -336.15,499.21 -343.34,504.48l-0.52 -524.39c-2.97,-21.49 -16.72,-33.77 -42.22,-33.77l-206.58 0c-24.99,0 -42.74,13.44 -42.74,38.01zm-1977.93 -1208.94l0 622.28c0,107.65 21.59,216.57 89.62,292.76 9.85,11.03 15.53,19.78 27.73,29.26 11.51,8.94 18.27,15.48 30.79,23.83 72.58,48.39 173.06,68 260.3,67.39 19.78,-0.13 33.47,4.58 53.93,1.76 15.7,-2.16 35.17,-0.13 52.54,-2.07 15.25,-1.7 32.61,-2.97 49.54,-5.08 81.09,-10.09 155.66,-31.3 214.95,-86.63 18.56,-17.31 21.85,-19.67 40.15,-42.97 65.87,-83.88 78,-196.04 78,-306.75l0 -589.03c0,-20.02 -15.36,-33.25 -23.75,-33.25l-287.31 0c-35.32,0 -26.12,51.52 -26.12,85.51l0.01 560.53c0.15,65.38 -14.08,133 -92.61,133 -42.75,0 -86.16,4 -112.15,-37.45 -14.3,-22.82 -18.49,-56.51 -18.45,-93.18l0.01 -560.53c0,-18.49 0.82,-38.84 0.08,-57.09 -0.64,-15.74 -10.76,-30.79 -26.2,-30.79l-284.94 0c-13.33,0 -26.12,15.7 -26.12,28.5zm-883.3 1748.09c0,194.81 -10.48,357.79 107.18,515.07 77.13,103.11 222.03,171.34 351.09,171.34 163.29,0 215.38,-3.11 374.15,-29.52 35.13,-5.84 60.38,-8.53 60.38,-48.86l0 -555.78c0,-20.79 -14.38,-38 -35.62,-38l-218.45 0c-40.75,0 -30.87,70.44 -30.87,99.75l0.01 292.15c0.18,29.54 13.15,30.97 -68.86,30.87 -19.71,-0.02 -45.73,1.84 -60.5,0.88 -25.8,-1.66 -36.93,-3.65 -56.19,-10.04 -17.67,-5.87 -28.85,-11.49 -41.87,-22.25 -64.9,-53.67 -86.02,-142.67 -86.02,-244.1 0,-80.23 -5.05,-253.9 8.88,-326.02 7.59,-39.29 12.63,-51.41 29.09,-84.9 26.99,-54.89 78.09,-77.8 138.66,-86.94 28.59,-4.31 120.99,-0.71 162.95,-0.95 19.65,-0.11 32.86,2.45 54.64,2.35 12.88,-0.06 16.51,1.51 26.19,2.31 20.96,1.73 49.3,-0.16 81.26,4.22l53.87 3.12c16.97,0.25 42.83,1.27 42.83,-14.34l0 -190.01c0,-23.81 -40.78,-25.74 -70.61,-31.5 -189,-36.49 -477.42,-63.66 -637.34,62.02 -81.28,63.88 -136.11,144.89 -162.08,248.76 -18.84,75.34 -22.77,157.3 -22.77,250.37zm1951.81 -256.51l0 608.02c0,92.76 25.39,164.01 78.69,230.06l33.87 32.62 40.98 25.51c109.06,54.02 215.48,46.71 337.97,46.71 56.55,0 109.33,-4.18 161.04,-9.93 24.92,-2.77 50.08,-6.44 76.03,-9.45 26.28,-3.06 43.12,-12.1 43.12,-42.38l0 -147.25c0,-21.81 -12.3,-38.05 -37.86,-38.14 -58.49,-0.2 -342.49,4.23 -381.87,-5.16 -19.63,-4.68 -38.11,-14.05 -47.32,-31.05 -9.13,-16.84 -14.97,-38.73 -14.97,-63.41l0 -190.01 434.53 0c9.48,0 16.73,-6.01 22.1,-11.15 7.25,-6.95 11.14,-11.12 11.14,-24.48l0 -161.5c0,-13.39 -15.08,-30.88 -28.49,-30.88l-439.28 0 0 -163.88c0,-122.17 92.67,-102.13 208.96,-102.13l232.8 0.1c23.74,0.16 40.26,-13.32 40.26,-38.11l0 -149.63c0,-34.43 -31.16,-36.95 -52.65,-39.97 -27.44,-3.84 -56.7,-8.16 -85.07,-9.91 -27.88,-1.71 -59.97,-5.63 -87.84,-7.13 -96.7,-5.22 -225.94,-5.86 -315.82,16.63 -51.92,12.99 -86.65,31.45 -123.52,59.34 -34.5,26.1 -58.17,65.35 -76.76,103.72 -16.94,34.94 -30.04,101.47 -30.04,152.84zm-907.04 19l0 570.02c0,111.35 23.85,192.86 97.92,267.82 15.28,15.46 33.16,25.99 52.66,37.58 112.97,67.14 366.35,50.4 497.71,39.06 17.52,-1.51 93.67,-9.36 106.79,-16.69 7.15,-4 16.62,-15.02 16.62,-26.13l0 -163.88c0,-10.12 -7.59,-19.15 -13.51,-24.49 -9.93,-8.93 -16.85,-6.47 -33.98,-6.39l-237.45 0c-220.02,0 -197.08,1.05 -197.08,-289.76l432.15 0c17.64,0 35.62,-13.99 35.62,-30.88l0 -168.63c0,-38.34 -59.46,-28.5 -97.35,-28.5l-344.32 0.02c-11.33,0.11 -26.1,3.47 -26.1,-7.15l0 -140.13c0,-134.77 66.64,-118.75 197.08,-118.75l235.08 0c16.22,0.07 24.23,1.64 34.73,-5.63 6.89,-4.77 15.13,-14.76 15.13,-25.25l0 -163.88c0,-12.66 -9.72,-22.27 -18.91,-26.22 -9.78,-4.2 -24.56,-5.6 -37.66,-7.46 -53.51,-7.57 -111.67,-11.52 -166.76,-16.08 -15.5,-1.28 -29.87,-0.01 -43.26,-1.85 -31.5,-4.32 -168.18,0.94 -197.85,5.07 -27.02,3.76 -54.83,7.2 -78.85,13.75 -93.53,25.5 -167.24,81.14 -201.99,173.22 -16.41,43.49 -26.42,101.83 -26.42,161.21zm1315.45 -1085.43l-87.86 0 0 -187.64c66.19,0 201.83,-15.44 201.83,78.38 0,39.49 3.43,65.45 -37.81,90.44 -19.23,11.66 -45.05,18.82 -76.16,18.82zm-420.28 -349.14l0 923.92c0,19.63 20.4,23.75 40.36,23.75l256.45 0c18.35,0 35.61,-13.78 35.61,-30.88l0 -289.76 97.36 2.37c107.39,0 231.85,-28.17 312.42,-91.25 97.81,-76.58 126.85,-169.36 126.85,-291.14 0,-48.31 -11.06,-123.58 -34.23,-165.27 -49.84,-89.68 -122.24,-146.47 -224.07,-174.89 -144.48,-40.33 -326.74,-26.24 -473.24,-13.94 -78.87,6.62 -137.51,15.33 -137.51,107.09zm1947.06 1387.06c0,105.4 9.58,160.42 74.6,243.65 26.36,33.75 75.25,70.71 112.51,94.09 78.94,49.51 240.02,136.81 300.36,181.71 26.4,19.65 51.53,43.62 51.53,88.58 0,55.18 -20.3,91.06 -61.98,104.26 -31.29,9.91 -115.98,13.94 -152.72,8.38 -27.66,-4.19 -51.1,-0.2 -79.08,-4.03 -20.32,-2.78 -87.39,-4.24 -117.67,-8.19 -13.95,-1.82 -25.84,-2.08 -39.49,-3.24 -28.4,-2.42 -52.45,-4.8 -52.45,28.7l0 168.64c0,28.36 37.55,33.71 54.62,38 137.78,34.68 365.69,48.55 501.92,3.28 89.31,-29.68 177.92,-90.73 218.37,-175.83 10.56,-22.21 19.47,-48.01 25.82,-73.94 3.15,-12.86 4.98,-26.85 7.34,-42.53 18.46,-122.6 -28.8,-253.45 -130.29,-329.56l-101.56 -64.67c-19.19,-10.34 -37.98,-18.86 -56.1,-29.39l-107.74 -58.49c-39.85,-21.47 -128.57,-63.41 -148.1,-103.62 -8.41,-17.31 -8.68,-50.31 -1.43,-68.89 8.09,-20.72 21.5,-34.31 41.37,-41.75 30.5,-11.42 105.59,-16.44 141.54,-11.51 15.68,2.15 35.2,0.13 52.54,2.07 14.31,1.61 35.78,1.07 51.21,3.4l127.14 8.21c117.44,0.83 99.8,47.7 99.8,-192.46 0,-34.41 -34.46,-37.15 -63.88,-42.98 -129.83,-25.69 -365.18,-43.4 -499.35,-9.76 -85.88,21.53 -170.14,64.92 -212.44,143.77 -19.07,35.56 -36.39,90.95 -36.39,144.1zm-3920.24 -1225.56c0,135.66 47.51,226.78 156.25,294.98 59.48,37.31 142.43,81.67 206.03,119.31 40.16,23.75 58,26.74 58,63.11 0,17.72 -16.67,33.25 -37.99,33.25 -107.71,0 -159.66,-10.34 -253.99,-16.7 -50.73,-3.43 -92.68,-23.07 -92.68,21.45l0 213.76c0,27.74 68.57,39.38 97.15,45.33l90.84 16.02c11.88,1.69 21.6,1.99 34.19,3.8l100.73 6.12 102.86 -6.4c81.39,-12.08 141.19,-34.55 205.16,-82.16 24.8,-18.47 52.17,-49.33 69.08,-75.79 9.68,-15.14 18.04,-30.37 25.24,-48.38 47.89,-119.8 27.81,-275.46 -75.64,-356.32 -68.37,-53.43 -89.85,-56.03 -166.84,-99.13 -32.99,-18.47 -91.78,-46.18 -122.86,-64.74 -8.46,-5.05 -44.11,-21.13 -44.11,-36.63 0,-29.83 29.54,-23.75 56.99,-23.75 35.98,0 104.54,1.15 139.74,5.1l135.71 11.51c35.09,1.51 68.84,17.12 68.84,-21.36l0 -216.14c0,-26.2 -39.08,-31.87 -63.11,-36.62 -129.59,-25.61 -356.11,-47.9 -480.93,-11.17 -43.94,12.94 -71.04,24.29 -108,48.73 -59.73,39.48 -100.66,114.59 -100.66,212.82zm2951.46 54.63l0 408.52c0,153.07 57.52,280.46 218.89,320.2 43.18,10.63 139.32,18.45 182.47,17.15 12.38,-0.38 16.19,-2.57 30.73,-2.51l99.86 -2.25c20.06,0.05 43.96,-4.32 64.04,-4.82 18.01,-0.45 42.2,-3.11 60.79,-5.7 11.74,-1.63 17.48,-1.98 25.83,-7.41 6.88,-4.47 13.1,-12.51 13.1,-22.52l0 -216.13c0,-36.52 -55.24,-28.51 -75.98,-28.51l-213.7 0c-79.69,0 -68.86,2.76 -68.86,-125.88l325.3 0c19.06,0 33.24,-14.53 33.24,-28.5l0 -199.51c0,-18.59 -12.28,-30.87 -30.86,-30.87l-327.68 0c0,-119.26 -10.23,-118.76 66.49,-118.76l265.46 -0.47c12.51,-2.08 26.59,-12.71 26.59,-28.03l0 -216.14c0,-10.15 -6.08,-18.04 -13.32,-22.3 -31.66,-18.62 -276.94,-20.45 -328.6,-20.45 -90.21,0 -166.58,13.96 -237.95,61.25 -38.09,25.23 -78.01,79.82 -93.03,123.08 -15.39,44.29 -22.81,91.99 -22.81,150.56z"/>
 </g>
</svg>
