<?xml version="1.0" encoding="UTF-8"?>
<!DOCTYPE svg PUBLIC "-//W3C//DTD SVG 1.1//EN" "http://www.w3.org/Graphics/SVG/1.1/DTD/svg11.dtd">
<!-- Creator: CorelDRAW 2019 (64-Bit) -->
<svg xmlns="http://www.w3.org/2000/svg" xml:space="preserve" width="84.6666mm" height="84.6666mm" version="1.1" style="shape-rendering:geometricPrecision; text-rendering:geometricPrecision; image-rendering:optimizeQuality; fill-rule:evenodd; clip-rule:evenodd"
viewBox="0 0 8466.66 8466.66"
 xmlns:xlink="http://www.w3.org/1999/xlink">
 <defs>
  <style type="text/css">
   <![CDATA[
    .fil0 {fill:none}
    .fil1 {fill:white}
   ]]>
  </style>
 </defs>
 <g id="Layer_x0020_1">
  <metadata id="CorelCorpID_0Corel-Layer"/>
  <rect class="fil0" x="-0.01" y="-0.02" width="8466.67" height="8466.67"/>
  <g id="_1749838401312">
   <path class="fil1" d="M7687.14 3922.36c165.21,198.5 220.8,409.74 155.3,613.74 -163.16,507.49 -1120.04,1017.5 -2540.61,1186.71 -450.9,53.81 -920.73,71.69 -1379.79,56.59l-145.84 67.86c497.13,44.01 1017.33,47.54 1524.02,4.99 1500.03,-125.71 2541.77,-646.1 2718.16,-1194.78 122.57,-381.26 -151.3,-788.56 -750.2,-1104.97l-6.77 2.93c199.19,110.68 343.12,236.25 425.73,366.93z"/>
   <path class="fil1" d="M5394.2 5435.6c1275.2,-106.79 2160.47,-549.09 2310.56,-1015.54 3.18,-9.87 5.11,-19.71 7.58,-29.52 -194.17,352.57 -891.42,672.18 -1866,753.8 -354.64,29.77 -718.71,27.25 -1066.77,-3.43l102.03 -47.54c321.46,10.54 650.32,-1.98 965.93,-39.64 994.47,-118.46 1664.21,-475.38 1778.42,-830.73 36.71,-114.05 18.87,-231.63 -48.88,-345.08 -76.75,-97.28 -181.95,-191.52 -313.54,-279.87 227.19,166.96 324.98,360.15 266.07,543.67 -105.01,326.58 -724.85,636.17 -1617.44,711.01 -504.52,42.27 -1031.15,8.31 -1478.2,-87.64l-1232.07 527.24c655.54,150.55 1440.96,206.44 2192.31,143.27z"/>
   <g>
    <path class="fil1" d="M4859.62 3329.4c-0.28,0.6 -0.28,1.21 -0.56,1.85 0.16,0.66 0.28,1.23 0.28,1.9 0.11,-0.61 0.11,-1.24 0.16,-1.9 0.1,-0.64 0.1,-1.25 0.12,-1.85z"/>
    <path class="fil1" d="M4859.62 3329.4c-0.28,0.6 -0.28,1.21 -0.56,1.85 0.16,0.66 0.28,1.23 0.28,1.9 0.11,-0.61 0.11,-1.24 0.16,-1.9 0.1,-0.64 0.1,-1.25 0.12,-1.85z"/>
   </g>
   <g>
    <path class="fil1" d="M1090.98 3471.88l-246.86 0 -156.2 730.46 -191.11 0 156.2 -730.46 -225.93 0 33.49 -159.39 663.84 0 -33.43 159.39zm715.49 476.81l0 0 48.84 -223.86c7.44,-33.94 11.16,-61.68 11.16,-82.91 0,-41.38 -14.2,-69.31 -42.54,-83.39 -28.35,-14.36 -78.38,-21.49 -149.95,-21.49l-272.01 0c-78.06,0 -137.58,14.56 -178.46,43.47 -40.93,28.84 -68.41,76.67 -82.32,143.65l-62.77 289.22c-7.49,35.09 -11.11,63.28 -11.11,84.77 0,41.56 14.83,70.02 44.6,84.79 26.95,12.98 76.18,19.4 147.84,19.4l463.06 0 33.44 -159.4 -390.53 0c-29.74,0 -48.81,-0.92 -57.13,-2.76 -22.41,-5.78 -33.5,-18.68 -33.5,-39.49 0,-11.11 2.83,-28.66 8.38,-52l33.21 -159.4c9.32,-40.68 22.31,-66.97 39.09,-79 13.94,-9.23 41.77,-13.86 83.87,-13.86l152.09 0c49.23,0 73.87,15.25 73.87,45.75 0,1.81 -3.25,17.54 -9.74,47.11l-258.06 0 -34.85 159.4 443.52 0zm668.07 253.65l0 0 -397.45 0c-71.61,0 -121.36,-7.16 -149.25,-21.47 -27.86,-14.31 -41.84,-41.82 -41.84,-82.46 0,-22.19 3.71,-50.36 11.13,-84.58l61.4 -288.3c16.71,-77.64 42.13,-128.45 75.97,-152.45 33.96,-24.03 95.62,-36.04 184.81,-36.04l397.52 0 -34.85 159.39 -325.67 0c-43.92,0 -71.88,4.15 -83.92,12.47 -16.81,11.08 -29.57,37.66 -37.87,80.13l-34.22 161.04c-4.4,22.18 -6.5,38.84 -6.5,49.92 0,21.2 10.69,34.2 32.05,38.79 8.41,2.8 27.5,4.16 57.2,4.16l325 0 -33.51 159.4zm850.86 0l0 0 101.78 -476.81c7.46,-34.18 11.21,-62.38 11.21,-84.58 0,-40.61 -13.98,-68.1 -41.87,-82.42 -27.96,-14.36 -77.67,-21.49 -149.26,-21.49l-199.43 0c-59.47,0 -107.41,27.74 -143.71,83.16l18.19 -83.16 -191.11 0 -142.26 665.3 191.05 0 88.35 -413.05c9.32,-42.46 21.84,-69.31 37.68,-80.39 13.06,-8.32 41.37,-12.47 84.82,-12.47l151.84 0c29.7,0 48.81,1.37 57.17,4.15 21.38,4.65 32.1,17.57 32.1,38.82 0,11.08 -2.1,27.71 -6.58,49.89l-88.32 413.05 188.35 0zm905.1 -188.51l0 0c-16.66,77.68 -42.24,128.49 -76.67,152.48 -34.34,24.02 -96.21,36.03 -185.48,36.03l-294.29 0c-71.62,0 -121.35,-7.16 -149.28,-21.47 -27.89,-14.31 -41.77,-41.82 -41.77,-82.46 0,-22.19 3.67,-50.36 11.08,-84.58l61.42 -288.3c16.76,-77.64 42.3,-128.45 76.73,-152.45 34.4,-24.03 95.76,-36.04 184.06,-36.04l294.29 0c71.62,0 121.58,7.13 149.96,21.49 28.32,14.32 42.58,41.81 42.58,82.42 0,22.2 -3.74,50.4 -11.23,84.58l-61.4 288.3zm-174.55 -63.55l0 0 34.17 -160.99c4.43,-22.18 6.56,-38.81 6.56,-49.89 0,-20.3 -10.7,-33.28 -32.05,-38.82 -9.32,-2.78 -29.11,-4.15 -58.86,-4.15l-152.48 0c-42.99,0 -70.9,4.15 -83.92,12.47 -15.76,11.08 -28.4,37.66 -37.91,80.13l-34.17 161.04c-4.48,22.18 -6.52,38.84 -6.52,49.92 0,21.2 10.71,34.2 32.07,38.79 8.62,2.8 27.68,4.16 57.43,4.16l152.5 0c43.94,0 73,-4.85 87.43,-14.5 14.42,-9.77 26.47,-35.65 35.75,-78.16z"/>
    <path class="fil1" d="M5185.99 3537.04l-384.92 665.3 -276.23 0 -100.39 -665.3 211.5 0 65.61 481.19 271.92 -481.19 212.51 0zm675.04 665.3l0 0 101.82 -476.81c7.42,-34.18 11.16,-62.38 11.16,-84.58 0,-40.61 -14.19,-68.1 -42.53,-82.42 -28.35,-14.36 -78.38,-21.49 -149.96,-21.49l-461.66 0 -34.88 159.39 390.57 0c29.68,0 49.28,1.37 58.55,4.15 21.37,5.54 32.1,18.52 32.1,38.82 0,11.08 -2.09,27.71 -6.51,49.89l-54.2 253.65 -287.99 0c-27.89,0 -41.85,-12.05 -41.85,-36.01 0,-14.78 5.82,-28.21 17.42,-40.22 11.64,-11.99 26.31,-18.02 43.98,-18.02l206.4 0 34.85 -159.4 -223.15 0c-88.32,0 -149.7,12.02 -184.1,36.04 -34.39,24.01 -59.99,74.85 -76.68,152.46l-8.38 36.04c-7.46,34.22 -11.18,62.39 -11.18,84.58 0,40.64 14.92,68.39 44.65,83.15 26.92,13.86 76.22,20.78 147.84,20.78l493.73 0zm320.76 0l0 0 -189.68 0 189.68 -887.07 188.33 0 -188.33 887.07zm887.11 -253.65l0 0 48.76 -223.86c7.46,-33.94 11.22,-61.68 11.22,-82.91 0,-41.38 -14.19,-69.31 -42.52,-83.39 -28.43,-14.36 -78.37,-21.49 -149.99,-21.49l-272 0c-78.07,0 -137.59,14.56 -178.44,43.47 -40.98,28.84 -68.44,76.67 -82.35,143.65l-62.74 289.22c-7.46,35.09 -11.18,63.28 -11.18,84.77 0,41.56 14.92,70.02 44.64,84.79 26.97,12.98 76.25,19.4 147.83,19.4l463.1 0 33.44 -159.4 -390.57 0c-29.72,0 -48.81,-0.92 -57.17,-2.76 -22.31,-5.78 -33.44,-18.68 -33.44,-39.49 0,-11.11 2.85,-28.66 8.38,-52l33.21 -159.4c9.32,-40.68 22.31,-66.97 39.07,-79 13.9,-9.23 41.82,-13.86 83.87,-13.86l152.03 0c49.35,0 73.97,15.25 73.97,45.75 0,1.81 -3.27,17.54 -9.74,47.11l-258.05 0 -34.84 159.4 443.51 0z"/>
   </g>
   <path class="fil1" d="M4818.27 4435.71c-4.31,13.03 -10.87,19.55 -19.79,19.55l-237.04 0 -0.54 1.65c-6.78,20.52 0.89,33.77 23.16,39.68 4.87,1.17 12.16,2.16 21.97,2.86 9.87,0.67 22.57,0.97 38.11,0.97 11.74,0 15.2,7.3 10.35,21.98 -3.83,11.75 -11.67,17.65 -23.36,17.65 -16.06,0 -29.14,-0.14 -39.26,-0.39 -10,-0.26 -17.58,-0.73 -22.71,-1.42 -25.34,-2.7 -42.6,-8.84 -51.8,-18.42 -13.04,-13.73 -16.57,-29.66 -10.49,-48.2l26.14 -79.33c8.22,-24.86 27.81,-43.31 58.86,-55.24 21.41,-8.73 47.4,-13.09 77.95,-13.09l89.03 0c24.99,0 44.31,4.12 58.1,12.34 19.28,10.54 25.4,26.35 18.41,47.49l-17.09 51.92zm-39.8 -21.47l0 0 8.85 -26.71c5.32,-16.31 -24.2,-24.41 -88.72,-24.41 -38.03,0 -64.51,1.39 -79.57,4.03 -21.25,3.76 -33.61,11.18 -37.33,22.26l-8.11 24.83 204.88 0zm320.33 110.07l0 0c1.97,-6.17 0.49,-11.6 -4.57,-16.43l-79.97 -76.18 127.7 -75.31c7.98,-4.73 13.06,-10.19 15.08,-16.44 3.42,-10.39 -1.67,-15.52 -15.27,-15.52 -13.65,0 -22.43,1.18 -26.08,3.63l-129.36 77.14 -80.68 -77.43c-2.38,-2.23 -5.53,-3.34 -9.3,-3.34 -13.01,0 -20.68,0.14 -22.78,0.45 -9.22,1.79 -15.13,6.83 -17.91,15.09 -2.07,6.38 -0.63,11.81 4.29,16.42l80.36 75.93 -131.29 75.56c-8.4,4.83 -13.67,10.26 -15.61,16.43 -3.5,10.54 1.56,15.74 15.14,15.74 13.56,0 22.5,-1.24 26.57,-3.62l133.28 -77.4 81.33 77.4c2.54,2.38 5.62,3.62 9.27,3.62 13.58,0 21.04,-0.33 22.43,-0.91 8.85,-1.74 14.71,-6.76 17.37,-14.83zm245.96 -176.04l0 0c-3.87,11.77 -11.8,17.63 -23.73,17.63l-75.64 0 -51.54 156.41c-3.86,11.84 -11.72,17.74 -23.46,17.74 -11.63,0 -18.22,-0.63 -19.75,-1.81 -5.72,-2.44 -7.2,-7.83 -4.49,-16.14l51.49 -156.2c-6.29,0 -11.46,-0.07 -15.39,-0.35 -3.88,-0.19 -6.66,-0.54 -8.21,-0.85 -6.69,-2.49 -8.43,-8.71 -5.2,-18.69 3.26,-9.84 9.12,-16.09 17.46,-18.61 1.86,-0.28 4.8,-0.59 8.73,-0.87 4.16,-0.21 9.34,-0.29 15.7,-0.29l14.04 -42.69c3.94,-11.72 11.72,-17.65 23.47,-17.65 11.67,0 18.24,0.66 19.77,1.84 5.76,2.21 7.25,7.55 4.46,15.98l-13.94 42.52 75.49 0c12.03,0 15.56,7.39 10.74,22.03zm98.81 -53.49l0 0c-2.56,7.81 -7.93,13.98 -16.05,18.5 -6.98,3.84 -14.68,5.81 -22.97,5.81 -8.23,0 -14.59,-1.97 -19.06,-5.81 -5.18,-4.52 -6.45,-10.69 -3.91,-18.5 2.57,-7.79 7.93,-13.93 16.08,-18.47 6.97,-3.86 14.7,-5.8 22.9,-5.8 8.28,0 14.73,1.94 19.13,5.8 5.13,4.54 6.45,10.68 3.88,18.47zm-81.35 227.24l0 0 59.7 -181.06c2.75,-8.48 1.29,-13.82 -4.38,-16.04 -1.6,-1.08 -8.09,-1.6 -19.6,-1.6 -12.01,0 -19.91,5.82 -23.82,17.64l-59.68 181.06c-2.8,8.55 -1.5,13.99 4.05,16.22 1.5,1.18 8.1,1.81 19.86,1.81 11.98,0 19.93,-5.97 23.87,-18.03zm332.96 0.29l0 0c-3.91,11.84 -11.82,17.74 -23.7,17.74 -11.87,0 -18.48,-0.63 -19.98,-1.81 -5.79,-2.23 -7.3,-7.62 -4.45,-16.14l45.07 -136.9c3.27,-9.81 -2.78,-16.17 -18.13,-19.16 -2.61,-0.56 -6.87,-1.03 -12.8,-1.25 -5.85,-0.21 -13.29,-0.28 -22.36,-0.28l-82.24 0c-8.34,0 -15.37,0.14 -21.16,0.47 -5.7,0.29 -10.34,0.75 -13.89,1.27 -16.31,3.04 -26.12,9.42 -29.3,19.11l-45.11 136.95c-3.96,11.84 -11.74,17.74 -23.44,17.74 -11.86,0 -18.55,-0.63 -20.03,-1.81 -5.65,-2.23 -7.04,-7.62 -4.19,-16.22l44.93 -136.37c13.43,-40.81 56.64,-61.22 129.58,-61.22l78.13 0c72.2,0 101.55,20.26 88.18,60.86l-45.11 137.02zm255.86 -174.04l0 0c4.82,-14.64 1.37,-22.03 -10.63,-22.03l-75.57 0 13.97 -42.52c2.76,-8.43 1.3,-13.77 -4.49,-15.98 -1.48,-1.18 -8.05,-1.84 -19.77,-1.84 -11.76,0 -19.58,5.93 -23.39,17.65l-14.12 42.69c-6.33,0 -11.56,0.08 -15.63,0.29 -4,0.28 -6.97,0.59 -8.75,0.87 -8.33,2.52 -14.2,8.77 -17.47,18.61 -3.24,9.98 -1.53,16.2 5.08,18.69 1.63,0.31 4.36,0.66 8.34,0.85 3.89,0.28 9.06,0.35 15.39,0.35l-51.52 156.2c-2.78,8.31 -1.27,13.7 4.48,16.14 1.47,1.18 8.04,1.81 19.79,1.81 11.69,0 19.53,-5.9 23.46,-17.74l51.54 -156.41 75.57 0c12,0 19.81,-5.86 23.72,-17.63zm275.63 124.75l0 0c-8.11,24.67 -26.19,42.6 -54.41,54 -20.17,8.66 -44.69,13.03 -73.49,13.03l-79.36 0c-26.22,0 -48.53,-4.47 -66.89,-13.32 -22.38,-11.63 -29.6,-29.53 -21.6,-53.71l26.13 -79.3c7.95,-24.12 27.05,-42.5 57.16,-54.93 22.36,-9.65 47.63,-14.36 75.99,-14.36l79.62 0c70.57,0 98.32,22.93 83.19,68.77l-26.34 79.82zm-48.17 0.15l0 0 27.28 -83c5.69,-17.14 -11.21,-25.66 -50.34,-25.66l-77.69 0c-14.45,0 -27.98,1.74 -40.72,5.39 -18.05,5.27 -28.73,13.18 -32.31,23.87l-26.12 79.4c-3.39,10.21 2.47,17.73 17.49,22.52 10,3.11 22.33,4.73 37.11,4.73l77.64 0c12.57,0 24.99,-1.79 37.26,-5.39 17.03,-4.96 27.24,-12.26 30.4,-21.86zm256.34 -126.33l0 0c4.91,-15 1.43,-22.41 -10.48,-22.41 -35.16,0 -62.69,3.11 -82.63,9.44 -32.45,10.05 -53.3,29.14 -62.6,57.33l-43.04 130.9c-3.96,11.98 -0.31,17.95 11.06,17.95 11.13,0 18.19,-0.52 21.2,-1.38 7.42,-2.24 12.52,-7.68 15.39,-16.43l43.22 -131.04c5.88,-18.1 27.25,-27.18 63.94,-27.18 1.9,0 4.77,0.07 8.4,0.23 3.7,0.19 6.4,0.26 8.47,0.26 14.07,0 23.21,-5.96 27.07,-17.67zm282.21 88.87l0 0c-4.27,13.03 -10.91,19.55 -19.69,19.55l-237.11 0 -0.56 1.65c-6.81,20.52 0.91,33.77 23.2,39.68 4.85,1.17 12.12,2.16 21.91,2.86 9.89,0.67 22.62,0.97 38.15,0.97 11.75,0 15.16,7.3 10.43,21.98 -3.91,11.75 -11.79,17.65 -23.45,17.65 -16.04,0 -29.17,-0.14 -39.27,-0.39 -10.01,-0.26 -17.6,-0.73 -22.69,-1.42 -25.37,-2.7 -42.6,-8.84 -51.75,-18.42 -13.11,-13.73 -16.64,-29.66 -10.55,-48.2l26.17 -79.33c8.19,-24.86 27.75,-43.31 58.82,-55.24 21.42,-8.73 47.4,-13.09 77.94,-13.09l89.08 0c24.92,0 44.32,4.12 58.06,12.34 19.21,10.54 25.37,26.35 18.43,47.49l-17.12 51.92zm-39.81 -21.47l0 0 8.87 -26.71c5.29,-16.31 -24.19,-24.41 -88.7,-24.41 -38.01,0 -64.53,1.39 -79.6,4.03 -21.22,3.76 -33.6,11.18 -37.25,22.26l-8.21 24.83 204.89 0zm320.44 64.18l0 0 3.23 -10.01c12.77,-38.83 -10.26,-58.31 -69.2,-58.31l-79.26 0c-39.64,0 -57.4,-6.43 -53.11,-19.39l3.69 -11.16c2.52,-7.63 12.03,-12.52 28.62,-14.57 3.69,-0.33 14.49,-0.47 32.49,-0.47l34.41 0c11.86,0 19.79,-5.85 23.63,-17.6 4.94,-14.97 1.46,-22.48 -10.45,-22.48 -21.16,0 -38.83,0.33 -53.02,1.18 -14.29,0.9 -25.25,2.09 -33.09,3.69 -38.29,7.44 -61.73,24.13 -70.41,50.39l-3.88 11.67c-13.04,39.56 16.09,59.33 87.28,59.33l77.4 0c27.16,0 38.53,6.47 34.23,19.61l-2.67 8.16c-4.87,14.62 -22.23,21.96 -52.03,21.96l-161.61 0c-11.65,0 -20,7.3 -24.85,21.98 -3.84,11.75 0.02,17.65 11.91,17.65l161.68 0c63.16,0 101.43,-20.61 115.01,-61.63z"/>
   <path class="fil1" d="M1290.63 3364.01c-0.92,4.9 -3.88,7.34 -8.9,7.34l-31.61 0 -12.59 65.45c-1.01,4.92 -3.9,7.41 -8.82,7.41 -4.87,0 -7.69,-0.27 -8.4,-0.76 -2.5,-1.01 -3.46,-3.26 -2.76,-6.76l12.64 -65.34c-2.73,0 -4.85,-0.04 -6.52,-0.14 -1.62,-0.06 -2.78,-0.2 -3.53,-0.34 -2.89,-1.05 -3.97,-3.69 -3.17,-7.8 0.82,-4.13 2.91,-6.73 6.23,-7.79 0.69,-0.15 1.96,-0.29 3.63,-0.37 1.69,-0.08 3.9,-0.14 6.52,-0.14l3.43 -17.88c0.95,-4.88 3.88,-7.35 8.75,-7.35 4.92,0 7.75,0.25 8.39,0.77 2.56,0.94 3.5,3.18 2.82,6.65l-3.41 17.81 31.63 0c4.96,0 6.89,3.1 5.67,9.24zm160.2 36.52l0 0c-1.04,5.48 -3.44,8.22 -7.16,8.22l-99.17 0 -0.12 0.65c-1.65,8.64 2.3,14.15 11.96,16.66 2.09,0.47 5.2,0.9 9.36,1.16 4.19,0.28 9.44,0.42 15.98,0.42 4.87,0 6.76,3.05 5.62,9.2 -0.91,4.88 -3.88,7.37 -8.8,7.37 -6.66,0 -12.21,-0.07 -16.42,-0.13 -4.21,-0.14 -7.42,-0.35 -9.6,-0.63 -10.8,-1.09 -18.31,-3.68 -22.72,-7.73 -6.25,-5.72 -8.58,-12.42 -7.08,-20.14l6.38 -33.22c1.93,-10.35 9.13,-18.09 21.42,-23.07 8.45,-3.64 19.1,-5.47 31.88,-5.47l37.26 0c10.4,0 18.75,1.72 24.94,5.19 8.69,4.36 12.15,10.95 10.43,19.82l-4.16 21.7zm-17.87 -8.94l0 0 2.14 -11.15c1.35,-6.79 -11.53,-10.24 -38.5,-10.24 -15.91,0 -26.89,0.58 -33.04,1.7 -8.66,1.57 -13.46,4.65 -14.26,9.3l-2.03 10.39 85.69 0zm184.39 45.25l0 0c-0.91,4.88 -4.47,7.37 -10.66,7.37l-73.96 0c-14.22,0 -24.17,-1.31 -29.89,-4.05 -9.91,-4.27 -13.82,-12.03 -11.63,-23.2l6.87 -35.59c3.44,-18.24 19.47,-27.35 47.87,-27.35l79.13 0c5.2,0 7.27,2.77 6.13,8.39 -0.98,5.59 -4.14,8.37 -9.36,8.37l-77.71 0c-16.05,0 -24.74,3.37 -26.05,10.07l-6.78 35.3c-1.41,7.68 6.92,11.49 25.18,11.49l75.19 0c4.99,0 6.89,3.05 5.67,9.2zm170.04 -0.04l0 0c-0.97,4.92 -3.88,7.41 -8.9,7.41 -4.92,0 -7.74,-0.27 -8.47,-0.76 -2.52,-0.91 -3.48,-3.18 -2.8,-6.76l11.06 -57.26c0.8,-4.05 -2.12,-6.76 -8.66,-8 -1.16,-0.22 -2.92,-0.42 -5.44,-0.5 -2.46,-0.15 -5.55,-0.15 -9.34,-0.15l-34.43 0c-3.48,0 -6.45,0.09 -8.88,0.2 -2.32,0.09 -4.27,0.33 -5.64,0.5 -6.73,1.31 -10.4,3.95 -11.18,8.05l-11.08 57.27c-0.92,4.92 -3.89,7.41 -8.76,7.41 -4.99,0 -7.84,-0.27 -8.5,-0.76 -2.49,-0.91 -3.36,-3.18 -2.7,-6.79l10.99 -57.02c3.34,-17.1 20.21,-25.62 50.74,-25.62l32.62 0c30.26,0 43.68,8.46 40.43,25.45l-11.06 57.33zm177.07 -20.59l0 0c-1.97,10.24 -8.54,17.76 -19.65,22.53 -7.98,3.64 -17.98,5.47 -30.03,5.47l-33.25 0c-10.88,0 -20.5,-1.85 -28.67,-5.53 -10.02,-4.89 -14.1,-12.39 -12.09,-22.47l6.37 -33.2c1.93,-10.13 8.87,-17.79 20.76,-22.98 8.78,-4 19.13,-6.01 31.01,-6.01l33.26 0c29.54,0 42.45,9.56 38.74,28.77l-6.45 33.42zm-20.17 0.02l0 0 6.66 -34.73c1.39,-7.16 -6.12,-10.72 -22.53,-10.72l-32.47 0c-6.02,0 -11.6,0.7 -16.73,2.24 -7.25,2.21 -11.27,5.55 -12.12,9.99l-6.36 33.22c-0.87,4.27 2.01,7.44 8.57,9.45 4.38,1.28 9.63,1.96 15.79,1.96l32.46 0c5.27,0 10.35,-0.76 15.29,-2.24 6.85,-2.12 10.66,-5.14 11.44,-9.17zm86.04 20.52l0 0c-0.99,4.97 -3.9,7.46 -8.82,7.46 -4.9,0 -7.7,-0.27 -8.38,-0.76 -2.55,-1.01 -3.43,-3.29 -2.76,-6.79l19.21 -99.79c0.96,-4.89 3.86,-7.33 8.8,-7.33 4.61,0 7.46,0.18 8.52,0.56 2.47,0.91 3.34,3.19 2.68,6.79l-19.25 99.86zm177.5 -20.54l0 0c-2.02,10.24 -8.55,17.76 -19.7,22.53 -7.97,3.64 -18,5.47 -30.03,5.47l-33.18 0c-10.99,0 -20.48,-1.85 -28.74,-5.53 -10.05,-4.89 -14.09,-12.39 -12.12,-22.47l6.43 -33.2c1.9,-10.13 8.85,-17.79 20.75,-22.98 8.76,-4 19.11,-6.01 30.95,-6.01l33.33 0c29.48,0 42.38,9.56 38.68,28.77l-6.37 33.42zm-20.19 0.02l0 0 6.66 -34.73c1.38,-7.16 -6.17,-10.72 -22.53,-10.72l-32.52 0c-5.98,0 -11.58,0.7 -16.71,2.24 -7.25,2.21 -11.27,5.55 -12.15,9.99l-6.33 33.22c-0.82,4.27 1.98,7.44 8.57,9.45 4.36,1.28 9.62,1.96 15.79,1.96l32.46 0c5.27,0 10.35,-0.76 15.32,-2.24 6.82,-2.12 10.61,-5.14 11.44,-9.17zm189.49 24.94l0 0c-1.95,10.31 -10,17.92 -23.98,22.74 -9.27,3.43 -20.57,5.19 -33.79,5.19l-8.31 0c-4.95,0 -6.89,-3.13 -5.7,-9.28 0.9,-4.9 3.94,-7.32 8.9,-7.32l14.45 0c2.54,0 7.48,-0.9 14.82,-2.75 7.49,-2.07 11.75,-4.16 12.62,-6.3l-54.72 0c-12.94,0 -23.15,-1.63 -30.92,-4.77 -11.23,-4.59 -15.82,-12.28 -13.77,-23.13l6.52 -33.51c3.63,-18.94 24.24,-28.44 61.82,-28.44 0.99,0 2.26,0 3.7,0.05 1.41,0.03 3.15,0.08 5.16,0.17 0,0.14 0.51,0.2 1.38,0.2l1.46 0 2.31 0 3.74 0c11.89,0 22.31,1.73 31.32,5.27 11.58,4.86 16.38,12.54 14.36,23.02l-11.37 58.86zm-17.39 -14.29l0 0 8.42 -43.79c0.9,-4.46 -2.13,-7.8 -9.12,-10.07 -5.7,-1.59 -11.14,-2.43 -16.22,-2.43l-31.49 0c-7.46,0 -12.78,0.39 -16.19,1.1 -6.94,1.67 -10.92,5 -11.86,9.98l-6.45 33.64c-1.53,7.69 7.65,11.57 27.46,11.57l55.45 0zm110.78 -85.26l0 0c-0.69,3.29 -2.57,5.82 -5.72,7.75 -2.69,1.6 -5.84,2.42 -9.23,2.42 -3.46,0 -6.28,-0.82 -8.33,-2.42 -2.42,-1.93 -3.34,-4.46 -2.68,-7.75 0.59,-3.23 2.49,-5.85 5.65,-7.74 2.7,-1.62 5.74,-2.42 9.27,-2.42 3.46,0 6.23,0.8 8.28,2.42 2.43,1.89 3.34,4.51 2.76,7.74zm-21.11 95.04l0 0c-0.96,5.06 -3.86,7.55 -8.94,7.55 -4.95,0 -7.68,-0.27 -8.43,-0.76 -2.38,-0.91 -3.3,-3.18 -2.59,-6.79l14.59 -75.73c0.97,-4.9 3.91,-7.39 8.99,-7.39 4.8,0 7.58,0.28 8.26,0.7 2.54,0.96 3.43,3.14 2.75,6.69l-14.63 75.73zm187.12 -19.51l0 0c-3.48,18.06 -18.81,27.06 -46.08,27.06l-48.83 0c-10.43,0 -19.17,-1.85 -26.04,-5.67 -9.34,-4.97 -13.18,-11.72 -11.5,-20.46l2.21 -11.45c1.78,-9.42 8.1,-16.42 18.73,-21.14 7.98,-3.6 17.42,-5.44 28.36,-5.44l70.53 0c0.19,-6.4 -8.24,-9.66 -25.23,-9.66 -0.65,0 -1.53,0 -2.54,0.07 -0.96,0.02 -2.11,0.06 -3.36,0.13 0,0 -0.38,0 -0.97,0l-0.82 0 -1.49 0 -2.42 0c-4.91,0 -6.78,-3.13 -5.6,-9.22 0.94,-4.93 3.88,-7.35 8.87,-7.35 15.94,0 27.89,1.08 35.99,3.26 13.74,4.09 19.39,12.28 17.06,24.47l-6.87 35.4zm-18.66 -4.74l0 0c0.13,-0.85 0.34,-1.91 0.6,-3.24 0.29,-1.35 0.46,-2.87 0.67,-4.65 0.35,-1.77 0.56,-3.3 0.8,-4.6 0.21,-1.33 0.4,-2.43 0.56,-3.31l-70.82 0c-4.21,0 -8.58,0.75 -13.29,2.22 -6.09,1.98 -9.46,4.56 -10.1,7.65l-2.16 11.45c-0.66,3.34 1.81,5.9 7.36,7.63 3.49,1.4 7.84,2.08 12.74,2.08l49.6 0c7.42,0 12.74,-0.76 15.78,-2.19 4.23,-1.93 6.91,-6.27 8.26,-13.04zm248.73 -11.88l0 0c-1.09,5.48 -3.46,8.22 -7.15,8.22l-99.1 0 -0.2 0.65c-1.67,8.64 2.33,14.15 11.98,16.66 2.12,0.47 5.2,0.9 9.34,1.16 4.14,0.28 9.49,0.42 16.01,0.42 4.92,0 6.78,3.05 5.55,9.2 -0.92,4.88 -3.86,7.37 -8.77,7.37 -6.71,0 -12.22,-0.07 -16.39,-0.13 -4.28,-0.14 -7.46,-0.35 -9.57,-0.63 -10.8,-1.09 -18.39,-3.68 -22.72,-7.73 -6.32,-5.72 -8.68,-12.42 -7.2,-20.14l6.45 -33.22c1.93,-10.35 9.09,-18.09 21.4,-23.07 8.47,-3.64 19.1,-5.47 31.86,-5.47l37.26 0c10.47,0 18.77,1.72 25.01,5.19 8.62,4.36 12.1,10.95 10.38,19.82l-4.14 21.7zm-17.91 -8.94l0 0 2.14 -11.15c1.34,-6.79 -11.44,-10.24 -38.43,-10.24 -15.91,0 -26.95,0.58 -33.02,1.7 -8.73,1.57 -13.39,4.65 -14.36,9.3l-2 10.39 85.67 0zm229.38 45.21l0 0c-0.91,4.92 -3.93,7.41 -8.84,7.41 -4.97,0 -7.79,-0.27 -8.52,-0.76 -2.54,-0.91 -3.49,-3.18 -2.78,-6.79l10.71 -55.52c1.39,-7.15 -6.45,-10.75 -23.44,-10.75l-2.64 0 -1.25 0c-0.72,0 -1.06,0 -1.12,0 -8.26,0.33 -13.77,0.9 -16.53,1.73 -6.3,1.72 -10,5.57 -11.19,11.47l-10.22 53.07c-0.63,3.61 -2.47,5.88 -5.39,6.79 -0.85,0.49 -3.79,0.76 -8.78,0.76 -4.96,0 -6.96,-2.49 -6,-7.46l10.24 -53.34c1.06,-5.33 -0.12,-8.98 -3.63,-10.81 -2.39,-1.31 -6.56,-2.01 -12.59,-2.01l-2.47 0 -1.6 0 -0.85 0c-0.47,0 -0.75,0 -0.79,0 -1.26,-0.07 -2.38,-0.11 -3.35,-0.13 -0.89,-0.07 -1.67,-0.07 -2.35,-0.07 -17.11,0 -26.34,3.62 -27.77,10.89l-10.69 55.38c-0.66,3.61 -2.4,5.88 -5.29,6.79 -0.87,0.49 -3.81,0.76 -8.76,0.76 -4.94,0 -6.92,-2.49 -5.93,-7.41l10.28 -53.39c3.82,-19.61 20.15,-29.39 49.24,-29.39 5.77,0 10.43,0 14.03,0.14 3.67,0.08 6.3,0.22 8,0.41 7.37,0.97 13.84,3.34 19.51,7.07 6.35,-3.47 13.77,-5.81 22.38,-6.87 4.49,-0.47 11.93,-0.75 22.38,-0.75 27.96,0 40.05,9.78 36.27,29.39l-10.27 53.39zm174.63 -73.43l0 0c-0.96,4.93 -4.38,7.41 -10.33,7.41 -0.87,0 -1.98,-0.06 -3.53,-0.09 -1.58,-0.07 -2.71,-0.1 -3.55,-0.1 -15.3,0 -23.78,3.79 -25.21,11.36l-10.54 54.8c-0.73,3.66 -2.57,5.93 -5.53,6.91 -1.2,0.42 -4.1,0.55 -8.78,0.55 -4.78,0 -6.64,-2.49 -5.67,-7.52l10.52 -54.74c2.3,-11.77 9.88,-19.79 22.92,-24.02 7.95,-2.6 19.34,-3.91 34.01,-3.91 4.99,0 6.91,3.12 5.69,9.35zm158.81 37.16l0 0c-1.06,5.48 -3.41,8.22 -7.18,8.22l-99.17 0 -0.05 0.65c-1.74,8.64 2.26,14.15 11.88,16.66 2.12,0.47 5.26,0.9 9.35,1.16 4.21,0.28 9.56,0.42 16.05,0.42 4.91,0 6.75,3.05 5.56,9.2 -0.93,4.88 -3.87,7.37 -8.81,7.37 -6.64,0 -12.1,-0.07 -16.4,-0.13 -4.19,-0.14 -7.42,-0.35 -9.53,-0.63 -10.78,-1.09 -18.36,-3.68 -22.78,-7.73 -6.22,-5.72 -8.62,-12.42 -7.11,-20.14l6.38 -33.22c2.04,-10.35 9.13,-18.09 21.48,-23.07 8.43,-3.64 19.07,-5.47 31.85,-5.47l37.27 0c10.36,0 18.76,1.72 24.95,5.19 8.66,4.36 12.1,10.95 10.42,19.82l-4.16 21.7zm-17.84 -8.94l0 0 2.1 -11.15c1.33,-6.79 -11.47,-10.24 -38.51,-10.24 -15.88,0 -26.9,0.58 -33.02,1.7 -8.68,1.57 -13.43,4.65 -14.35,9.3l-1.95 10.39 85.73 0zm184.37 45.25l0 0c-0.97,4.88 -4.55,7.37 -10.67,7.37l-73.96 0c-14.21,0 -24.22,-1.31 -29.89,-4.05 -9.93,-4.27 -13.79,-12.03 -11.63,-23.2l6.83 -35.59c3.55,-18.24 19.48,-27.35 47.92,-27.35l79.14 0c5.17,0 7.22,2.77 6.19,8.39 -1.08,5.59 -4.21,8.37 -9.46,8.37l-77.71 0c-16.03,0 -24.71,3.37 -26.01,10.07l-6.77 35.3c-1.49,7.68 6.92,11.49 25.13,11.49l75.2 0c5,0 6.91,3.05 5.69,9.2zm182.15 -19.69l0 0c-3.5,18.06 -18.83,27.06 -46.05,27.06l-48.86 0c-10.47,0 -19.11,-1.85 -26.03,-5.67 -9.36,-4.97 -13.16,-11.72 -11.46,-20.46l2.19 -11.45c1.78,-9.42 8.02,-16.42 18.75,-21.14 7.93,-3.6 17.4,-5.44 28.29,-5.44l70.58 0c0.14,-6.4 -8.24,-9.66 -25.23,-9.66 -0.73,0 -1.55,0 -2.54,0.07 -1.01,0.02 -2.05,0.06 -3.41,0.13 0,0 -0.33,0 -0.95,0l-0.8 0 -1.5 0 -2.4 0c-4.94,0 -6.8,-3.13 -5.62,-9.22 0.94,-4.93 3.88,-7.35 8.8,-7.35 15.98,0 28,1.08 36.06,3.26 13.74,4.09 19.38,12.28 17.01,24.47l-6.83 35.4zm-18.61 -4.74l0 0c0.09,-0.85 0.32,-1.91 0.56,-3.24 0.21,-1.35 0.43,-2.87 0.71,-4.65 0.26,-1.77 0.56,-3.3 0.78,-4.6 0.26,-1.33 0.37,-2.43 0.56,-3.31l-70.84 0c-4.16,0 -8.59,0.75 -13.32,2.22 -6.07,1.98 -9.49,4.56 -10.07,7.65l-2.21 11.45c-0.64,3.34 1.83,5.9 7.43,7.63 3.51,1.4 7.79,2.08 12.78,2.08l49.59 0c7.43,0 12.66,-0.76 15.67,-2.19 4.28,-1.93 7.02,-6.27 8.36,-13.04zm134.47 -49.04l0 0c-0.96,4.93 -4.45,7.41 -10.33,7.41 -0.87,0 -2,-0.06 -3.55,-0.09 -1.61,-0.07 -2.78,-0.1 -3.53,-0.1 -15.39,0 -23.73,3.79 -25.23,11.36l-10.57 54.8c-0.66,3.66 -2.52,5.93 -5.49,6.91 -1.17,0.42 -4.16,0.55 -8.79,0.55 -4.76,0 -6.62,-2.49 -5.65,-7.52l10.52 -54.74c2.26,-11.77 9.9,-19.79 22.94,-24.02 7.95,-2.6 19.27,-3.91 33.99,-3.91 4.99,0 6.84,3.12 5.69,9.35zm150.46 77.8l0 0c-2,10.31 -9.96,17.92 -23.99,22.74 -9.25,3.43 -20.52,5.19 -33.72,5.19l-8.38 0c-4.99,0 -6.89,-3.13 -5.65,-9.28 0.9,-4.9 3.86,-7.32 8.83,-7.32l14.52 0c2.54,0 7.39,-0.9 14.73,-2.75 7.55,-2.07 11.82,-4.16 12.71,-6.3l-54.78 0c-12.93,0 -23.21,-1.63 -30.96,-4.77 -11.17,-4.59 -15.74,-12.28 -13.67,-23.13l6.47 -33.51c3.67,-18.94 24.27,-28.44 61.85,-28.44 1.03,0 2.24,0 3.67,0.05 1.46,0.03 3.16,0.08 5.21,0.17 0,0.14 0.52,0.2 1.38,0.2l1.34 0 2.41 0 3.69 0c11.91,0 22.4,1.73 31.35,5.27 11.55,4.86 16.36,12.54 14.33,23.02l-11.34 58.86zm-17.42 -14.29l0 0 8.41 -43.79c0.88,-4.46 -2.13,-7.8 -9.07,-10.07 -5.67,-1.59 -11.11,-2.43 -16.26,-2.43l-31.44 0c-7.44,0 -12.85,0.39 -16.22,1.1 -6.94,1.67 -10.87,5 -11.81,9.98l-6.5 33.64c-1.48,7.69 7.65,11.57 27.42,11.57l55.47 0zm203.53 -9.73l0 0c-3.58,18.06 -18.91,27.06 -46.18,27.06l-48.78 0c-10.48,0 -19.21,-1.85 -26.08,-5.67 -9.3,-4.97 -13.16,-11.72 -11.49,-20.46l2.19 -11.45c1.83,-9.42 8.07,-16.42 18.76,-21.14 7.93,-3.6 17.42,-5.44 28.29,-5.44l70.65 0c0.09,-6.4 -8.31,-9.66 -25.28,-9.66 -0.66,0 -1.55,0 -2.57,0.07 -0.96,0.02 -2.02,0.06 -3.36,0.13 0,0 -0.33,0 -0.92,0l-0.85 0 -1.55 0 -2.35 0c-4.94,0 -6.78,-3.13 -5.6,-9.22 0.92,-4.93 3.86,-7.35 8.85,-7.35 15.95,0 27.96,1.08 35.98,3.26 13.74,4.09 19.34,12.28 17.06,24.47l-6.77 35.4zm-18.74 -4.74l0 0c0.14,-0.85 0.33,-1.91 0.61,-3.24 0.26,-1.35 0.41,-2.87 0.69,-4.65 0.28,-1.77 0.58,-3.3 0.77,-4.6 0.24,-1.33 0.48,-2.43 0.54,-3.31l-70.83 0c-4.14,0 -8.57,0.75 -13.28,2.22 -6.09,1.98 -9.46,4.56 -10.05,7.65l-2.18 11.45c-0.69,3.34 1.79,5.9 7.36,7.63 3.53,1.4 7.77,2.08 12.76,2.08l49.58 0c7.46,0 12.71,-0.76 15.77,-2.19 4.19,-1.93 6.94,-6.27 8.26,-13.04zm179.87 6.02l0 0c-3.31,17.18 -18.16,25.78 -44.54,25.78l-67.62 0c-4.97,0 -6.97,-2.49 -5.98,-7.37 1.13,-6.15 4.19,-9.2 9.11,-9.2l67.57 0c12.57,0 19.36,-3.05 20.52,-9.15l0.68 -3.46c1.04,-5.49 -4.14,-8.19 -15.41,-8.19l-32.46 0c-29.72,0 -43.07,-8.29 -39.89,-24.8l0.99 -4.94c2.1,-10.92 11.01,-17.95 26.62,-21.04 3.1,-0.65 7.65,-1.15 13.57,-1.57 5.89,-0.33 13.31,-0.47 22.1,-0.47 5.02,0 6.88,3.12 5.68,9.42 -0.97,4.89 -3.91,7.34 -8.87,7.34l-14.43 0c-7.54,0 -12.08,0.09 -13.56,0.2 -6.78,0.85 -10.49,2.95 -11.13,6.1l-0.89 4.67c-1.06,5.4 6.75,8.11 23.3,8.11l33.11 0c24.69,0 35.53,8.11 32.38,24.41l-0.85 4.16z"/>
  </g>
 </g>
</svg>
