<svg width="50" height="50" viewBox="0 0 50 50" fill="none" xmlns="http://www.w3.org/2000/svg">
<path d="M48.0469 40.2344C46.9682 40.2344 46.0938 41.1088 46.0938 42.1875C46.0938 44.3414 44.3414 46.0938 42.1875 46.0938H34.7656C32.6117 46.0938 30.8594 44.3414 30.8594 42.1875V34.7656C30.8594 32.6117 32.6117 30.8594 34.7656 30.8594H42.1875C43.7407 30.8594 45.1466 31.7792 45.769 33.2027C46.2012 34.1911 47.3528 34.6418 48.3411 34.2098C49.3295 33.7775 49.7803 32.626 49.3481 31.6377C48.1037 28.7919 45.293 26.9531 42.1875 26.9531H34.7656C30.4578 26.9531 26.9531 30.4578 26.9531 34.7656V42.1875C26.9531 46.4953 30.4578 50 34.7656 50H42.1875C46.4953 50 50 46.4953 50 42.1875C50 41.1088 49.1256 40.2344 48.0469 40.2344Z" fill="url(#paint0_linear)"/>
<path d="M15.2344 26.9531H7.8125C3.50469 26.9531 0 30.4578 0 34.7656V42.1875C0 46.4953 3.50469 50 7.8125 50H15.2344C19.5422 50 23.0469 46.4953 23.0469 42.1875V34.7656C23.0469 30.4578 19.5422 26.9531 15.2344 26.9531ZM19.1406 42.1875C19.1406 44.3414 17.3883 46.0938 15.2344 46.0938H7.8125C5.65859 46.0938 3.90625 44.3414 3.90625 42.1875V34.7656C3.90625 32.6117 5.65859 30.8594 7.8125 30.8594H15.2344C17.3883 30.8594 19.1406 32.6117 19.1406 34.7656V42.1875Z" fill="#C83267"/>
<path d="M15.2344 0H7.8125C3.50469 0 0 3.50469 0 7.8125V15.2344C0 19.5422 3.50469 23.0469 7.8125 23.0469H15.2344C19.5422 23.0469 23.0469 19.5422 23.0469 15.2344V7.8125C23.0469 3.50469 19.5422 0 15.2344 0ZM19.1406 15.2344C19.1406 17.3883 17.3883 19.1406 15.2344 19.1406H7.8125C5.65859 19.1406 3.90625 17.3883 3.90625 15.2344V7.8125C3.90625 5.65859 5.65859 3.90625 7.8125 3.90625H15.2344C17.3883 3.90625 19.1406 5.65859 19.1406 7.8125V15.2344Z" fill="#C83267"/>
<path d="M42.1875 0H34.7656C30.4578 0 26.9531 3.50469 26.9531 7.8125V15.2344C26.9531 19.5422 30.4578 23.0469 34.7656 23.0469H42.1875C46.4953 23.0469 50 19.5422 50 15.2344V7.8125C50 3.50469 46.4953 0 42.1875 0ZM46.0938 15.2344C46.0938 17.3883 44.3414 19.1406 42.1875 19.1406H34.7656C32.6117 19.1406 30.8594 17.3883 30.8594 15.2344V7.8125C30.8594 5.65859 32.6117 3.90625 34.7656 3.90625H42.1875C44.3414 3.90625 46.0938 5.65859 46.0938 7.8125V15.2344Z" fill="url(#paint1_linear)"/>
<defs>
<linearGradient id="paint0_linear" x1="27.2727" y1="38.1818" x2="50" y2="38.1818" gradientUnits="userSpaceOnUse">
<stop stop-color="#C83267"/>
<stop offset="1" stop-color="#C83267" stop-opacity="0"/>
</linearGradient>
<linearGradient id="paint1_linear" x1="27.2727" y1="11.8182" x2="50" y2="11.8182" gradientUnits="userSpaceOnUse">
<stop stop-color="#C83267"/>
<stop offset="1" stop-color="#C83267" stop-opacity="0"/>
</linearGradient>
</defs>
</svg>
