<svg width="44" height="55" viewBox="0 0 44 55" fill="none" xmlns="http://www.w3.org/2000/svg">
<path d="M24.1697 30.0781H10.7302C9.54358 30.0781 8.58173 31.04 8.58173 32.2266C8.58173 33.4131 9.54358 34.375 10.7302 34.375H24.1699C25.3565 34.375 26.3183 33.4131 26.3183 32.2266C26.3182 31.04 25.3563 30.0781 24.1697 30.0781Z" fill="url(#paint0_linear)"/>
<path d="M32.8591 21.4844H10.7302C9.54358 21.4844 8.58173 22.4462 8.58173 23.6328C8.58173 24.8194 9.54358 25.7812 10.7302 25.7812H32.8591C34.0457 25.7812 35.0075 24.8194 35.0075 23.6328C35.0075 22.4462 34.0455 21.4844 32.8591 21.4844Z" fill="url(#paint1_linear)"/>
<path d="M32.8591 12.8906H10.7302C9.54358 12.8906 8.58173 13.8525 8.58173 15.0391C8.58173 16.2256 9.54358 17.1875 10.7302 17.1875H32.8591C34.0457 17.1875 35.0075 16.2256 35.0075 15.0391C35.0075 13.8525 34.0455 12.8906 32.8591 12.8906Z" fill="url(#paint2_linear)"/>
<path d="M41.4528 37.8125C42.6394 37.8125 43.6013 36.8506 43.6013 35.6641V8.59375C43.6013 3.85516 39.7461 0 35.0075 0H8.59375C3.85516 0 0 3.85516 0 8.59375V46.4062C0 51.1448 3.85516 55 8.59375 55H35.0075C39.7462 55 43.6013 51.1448 43.6014 46.4062C43.6014 45.2197 42.6395 44.2578 41.4529 44.2578C40.2663 44.2578 39.3045 45.2197 39.3045 46.4062C39.3045 48.7755 37.3769 50.7031 35.0076 50.7031H8.59375C6.22445 50.7031 4.29688 48.7755 4.29688 46.4062V8.59375C4.29688 6.22445 6.22445 4.29688 8.59375 4.29688H35.0076C37.3769 4.29688 39.3045 6.22445 39.3045 8.59375V35.6641C39.3044 36.8506 40.2663 37.8125 41.4528 37.8125Z" fill="url(#paint3_linear)"/>
<defs>
<linearGradient id="paint0_linear" x1="9" y1="30" x2="26" y2="30.0781" gradientUnits="userSpaceOnUse">
<stop stop-color="#C83267"/>
<stop offset="1" stop-color="#C83267" stop-opacity="0"/>
</linearGradient>
<linearGradient id="paint1_linear" x1="9" y1="21.4844" x2="35" y2="21.4844" gradientUnits="userSpaceOnUse">
<stop stop-color="#C83267"/>
<stop offset="1" stop-color="#C83267" stop-opacity="0"/>
</linearGradient>
<linearGradient id="paint2_linear" x1="9" y1="12.8906" x2="35" y2="12.8906" gradientUnits="userSpaceOnUse">
<stop stop-color="#C83267"/>
<stop offset="1" stop-color="#C83267" stop-opacity="0"/>
</linearGradient>
<linearGradient id="paint3_linear" x1="3.26735e-07" y1="28" x2="44" y2="28" gradientUnits="userSpaceOnUse">
<stop stop-color="#C83267"/>
<stop offset="1" stop-color="#C83267" stop-opacity="0"/>
</linearGradient>
</defs>
</svg>
