<svg width="55" height="55" viewBox="0 0 55 55" fill="none" xmlns="http://www.w3.org/2000/svg">
<path d="M55 27.5C55 29.9874 54.67 32.3983 54.0504 34.6904C52.6025 40.0501 49.5752 44.761 45.4974 48.2933C40.6742 52.4723 34.3828 55 27.5 55C12.3122 55 0 42.6878 0 27.5C0 12.3122 12.3122 0 27.5 0C42.6878 0 55 12.3122 55 27.5Z" fill="#C83267"/>
<path d="M54.0504 34.6903C52.6025 40.05 49.5752 44.7609 45.4974 48.2933C45.099 48.3146 44.6825 48.3247 44.2503 48.3247C38.5404 48.3247 35.3673 44.7565 33.7902 42.0794L38.967 38.9692C38.967 38.9692 40.7281 42.7114 44.0292 42.7114C47.3315 42.7114 48.6526 41.6103 48.6526 39.0792C48.6526 35.9969 37.9758 34.8969 36.3247 29.6136C34.6737 24.3302 36.8747 16.8445 44.5803 17.3957C49.3956 17.7391 52.1042 20.1042 53.4589 21.8293L48.3225 25.5401C47.2214 22.3491 42.7091 22.3491 41.828 24.9901C40.948 27.6324 43.919 29.1724 48.5425 30.7135C50.9177 31.5048 52.8281 32.9651 54.0504 34.6903Z" fill="#F2F2F2"/>
<path d="M32.3279 18.2385H8.92743V23.7617H17.5028V47.7434H23.7526V23.7617H32.3279V18.2385Z" fill="#F2F2F2"/>
</svg>
