<svg width="48" height="55" viewBox="0 0 48 55" fill="none" xmlns="http://www.w3.org/2000/svg">
<path d="M43.9332 21.1535L11.4487 1.12946C9.09854 -0.317403 6.25712 -0.377559 3.84775 0.968546C1.43838 2.31444 0 4.76591 0 7.52569V47.3913C0 51.5642 3.36231 54.9773 7.49484 54.9999C7.50612 54.9999 7.5174 55 7.52846 55C8.81989 54.9999 10.1657 54.5951 11.4226 53.8281C12.4338 53.2112 12.7534 51.8914 12.1364 50.8804C11.5195 49.8691 10.1995 49.5496 9.18867 50.1665C8.60075 50.5251 8.02658 50.7106 7.51793 50.7105C5.9587 50.702 4.28926 49.3664 4.28926 47.3914V7.5258C4.28926 6.3419 4.90629 5.29056 5.93969 4.71317C6.9732 4.13578 8.1919 4.16156 9.19877 4.78149L41.6833 24.8055C42.6597 25.4066 43.2184 26.409 43.216 27.5556C43.2136 28.7021 42.6509 29.7022 41.6691 30.3013L18.1827 44.6817C17.1725 45.3002 16.855 46.6205 17.4735 47.6306C18.0919 48.6408 19.4122 48.9584 20.4224 48.3398L43.9061 33.9612C46.1545 32.5895 47.5001 30.1983 47.5055 27.5642C47.5108 24.9304 46.1749 22.5336 43.9332 21.1535Z" fill="url(#paint0_linear)"/>
<defs>
<linearGradient id="paint0_linear" x1="0" y1="23" x2="48" y2="23" gradientUnits="userSpaceOnUse">
<stop stop-color="#663FBC"/>
<stop offset="1" stop-color="#7B4AE2" stop-opacity="0"/>
</linearGradient>
</defs>
</svg>
